<?xml version="1.0" encoding="utf-8"?>
<!-- Generator: Adobe Illustrator 24.0.2, SVG Export Plug-In . SVG Version: 6.00 Build 0)  -->
<svg version="1.1" id="Layer_1" xmlns="http://www.w3.org/2000/svg" xmlns:xlink="http://www.w3.org/1999/xlink" x="0px" y="0px"
	 viewBox="0 0 346.9 65.2" style="enable-background:new 0 0 346.9 65.2;" xml:space="preserve">
<style type="text/css">
	.st0{fill:#3EB284;}
	.st1{fill:#FFFFFF;}
</style>
<title>Bytecode logo</title>
<g id="Layer_2_1_">
	<g id="Outlined">
		<path class="st0" d="M9.7,12c-0.2,1-0.4,2-0.8,3c-0.3,0.8-0.8,1.5-1.3,2.1c-0.5,0.5-1.1,1-1.7,1.3c-0.6,0.3-1.3,0.4-2,0.4
			c-0.6,0-1.3-0.1-1.8-0.3c-0.5-0.3-1-0.7-1.3-1.2c-0.4-0.7-0.6-1.4-0.7-2.1c-0.1-1-0.1-2,0.1-3c0.1-1,0.4-2,0.8-3
			c0.3-0.8,0.8-1.5,1.3-2.2c0.5-0.5,1-1,1.7-1.2c0.6-0.3,1.3-0.4,2-0.4c0.6,0,1.3,0.1,1.8,0.4c0.5,0.3,1,0.7,1.3,1.2
			C9.5,7.5,9.8,8.3,9.8,9C9.9,10,9.9,11,9.7,12z M7.2,12c0.1-0.8,0.2-1.5,0.2-2.3c0-0.5-0.1-1-0.3-1.4C7,7.9,6.8,7.7,6.5,7.5
			C6.2,7.3,6,7.3,5.7,7.3c-0.3,0-0.6,0.1-0.9,0.2C4.5,7.7,4.2,8,4,8.3C3.7,8.7,3.4,9.2,3.3,9.7c-0.3,0.8-0.4,1.5-0.5,2.3
			c-0.1,0.8-0.2,1.6-0.2,2.3c0,0.5,0.1,1,0.3,1.4c0.1,0.3,0.3,0.6,0.6,0.7c0.2,0.1,0.5,0.2,0.8,0.2c0.3,0,0.6-0.1,0.9-0.2
			c0.3-0.2,0.6-0.4,0.8-0.8c0.3-0.4,0.6-0.9,0.7-1.5C6.9,13.6,7.1,12.8,7.2,12z"/>
		<path class="st0" d="M20.5,16.7l-0.3,1.9l-7.3,0.1l0.3-1.9h2.6l1.1-7.3c0-0.2,0-0.3,0.1-0.5s0.1-0.3,0.1-0.5L15.2,10
			c-0.1,0.1-0.2,0.1-0.4,0.2c-0.1,0-0.2,0-0.3,0c-0.1,0-0.2-0.1-0.2-0.1c-0.1,0-0.1-0.1-0.1-0.2l-0.6-1.1L18,5.3h2l-1.8,11.5
			L20.5,16.7z"/>
		<path class="st0" d="M34,11.8c-0.1,1-0.4,2-0.8,3c-0.3,0.8-0.8,1.5-1.3,2.2c-0.5,0.5-1.1,1-1.7,1.3c-0.6,0.3-1.3,0.4-2,0.4
			c-0.6,0-1.3-0.1-1.8-0.4c-0.6-0.3-1-0.7-1.3-1.2c-0.4-0.7-0.6-1.4-0.7-2.1c-0.1-1-0.1-2,0.1-3c0.2-1,0.4-2,0.8-3
			c0.3-0.8,0.8-1.5,1.3-2.1c0.9-1.1,2.3-1.7,3.7-1.7c0.6,0,1.3,0.1,1.8,0.4c0.6,0.3,1,0.7,1.3,1.2c0.4,0.6,0.6,1.4,0.7,2.1
			C34.2,9.9,34.2,10.9,34,11.8z M31.5,11.8c0.1-0.8,0.2-1.5,0.2-2.3c0-0.5-0.1-1-0.3-1.4c-0.1-0.3-0.3-0.6-0.6-0.7
			c-0.2-0.1-0.5-0.2-0.8-0.2c-0.3,0-0.6,0.1-0.9,0.2c-0.3,0.2-0.6,0.4-0.8,0.8C28,8.5,27.8,9,27.6,9.5c-0.3,0.8-0.5,1.5-0.6,2.4
			c-0.1,0.8-0.2,1.6-0.2,2.3c0,0.5,0.1,1,0.3,1.4c0.1,0.3,0.3,0.6,0.6,0.7c0.2,0.1,0.5,0.2,0.8,0.2c0.3,0,0.6-0.1,0.9-0.2
			c0.3-0.2,0.6-0.4,0.8-0.8c0.3-0.4,0.6-0.9,0.7-1.5C31.2,13.4,31.4,12.7,31.5,11.8L31.5,11.8z"/>
		<path class="st0" d="M46.2,11.8c-0.2,1-0.4,2-0.8,3c-0.3,0.8-0.8,1.5-1.4,2.2c-0.5,0.5-1.1,1-1.7,1.3c-0.6,0.3-1.3,0.4-2,0.4
			c-0.6,0-1.3-0.1-1.8-0.4c-0.5-0.3-1-0.7-1.3-1.2c-0.4-0.7-0.6-1.4-0.7-2.1c-0.1-1-0.1-2,0.1-3c0.1-1,0.4-2,0.8-3
			c0.3-0.8,0.8-1.5,1.3-2.1C39.7,5.7,41.1,5,42.5,5c0.6,0,1.3,0.1,1.8,0.4c0.6,0.3,1,0.7,1.3,1.2C46,7.3,46.2,8,46.3,8.8
			C46.4,9.7,46.4,10.8,46.2,11.8z M43.7,11.8c0.1-0.8,0.2-1.5,0.2-2.3c0-0.5-0.1-1-0.3-1.4c-0.1-0.3-0.3-0.6-0.6-0.7
			c-0.2-0.1-0.5-0.2-0.8-0.2c-0.3,0-0.6,0.1-0.9,0.2C41,7.5,40.7,7.7,40.5,8c-0.3,0.4-0.6,0.9-0.7,1.4c-0.3,0.8-0.4,1.5-0.5,2.3
			C39,12.6,39,13.4,39,14.1c0,0.5,0.1,1,0.3,1.4c0.1,0.3,0.3,0.6,0.6,0.7c0.2,0.1,0.5,0.2,0.8,0.2c0.3,0,0.6-0.1,0.9-0.2
			c0.3-0.2,0.6-0.4,0.8-0.8c0.3-0.4,0.6-0.9,0.7-1.4C43.4,13.4,43.5,12.6,43.7,11.8L43.7,11.8z"/>
		<path class="st0" d="M19.5,28.5c-0.1,1-0.4,2-0.8,3c-0.3,0.8-0.8,1.5-1.3,2.1c-0.5,0.5-1.1,1-1.7,1.3c-0.6,0.3-1.3,0.4-2,0.4
			c-0.6,0-1.3-0.1-1.8-0.4c-0.5-0.3-1-0.7-1.3-1.2c-0.4-0.7-0.6-1.4-0.7-2.1c-0.1-1-0.1-2,0.1-3c0.1-1,0.4-2,0.8-3
			c0.3-0.8,0.8-1.5,1.3-2.1c0.5-0.5,1.1-1,1.7-1.3c0.6-0.3,1.3-0.4,2-0.4c0.6,0,1.3,0.1,1.8,0.4c0.6,0.3,1,0.7,1.3,1.2
			c0.4,0.6,0.6,1.4,0.7,2.1C19.7,26.5,19.7,27.5,19.5,28.5z M17,28.5c0.1-0.8,0.2-1.5,0.2-2.3c0-0.5-0.1-1-0.3-1.5
			c-0.1-0.3-0.3-0.6-0.6-0.7c-0.2-0.1-0.5-0.2-0.8-0.2c-0.3,0-0.6,0.1-0.9,0.2c-0.3,0.2-0.6,0.4-0.8,0.8c-0.3,0.5-0.5,0.9-0.7,1.5
			c-0.3,0.8-0.4,1.5-0.6,2.3c-0.1,0.8-0.2,1.6-0.2,2.3c0,0.5,0.1,1,0.3,1.4c0.1,0.3,0.3,0.6,0.6,0.7c0.2,0.1,0.5,0.2,0.8,0.2
			c0.3,0,0.6-0.1,0.9-0.2c0.3-0.2,0.6-0.4,0.8-0.8c0.3-0.5,0.6-0.9,0.7-1.5C16.7,30.1,16.9,29.3,17,28.5L17,28.5z"/>
		<path class="st0" d="M31.7,28.4c-0.1,1-0.4,2-0.8,3c-0.3,0.8-0.8,1.5-1.3,2.1c-0.5,0.5-1.1,1-1.7,1.3c-0.6,0.3-1.3,0.4-2,0.4
			c-0.6,0-1.3-0.1-1.8-0.4c-0.5-0.3-1-0.7-1.3-1.2c-0.4-0.6-0.6-1.4-0.6-2.1c-0.1-1-0.1-2,0.1-3c0.2-1,0.4-2,0.8-3
			c0.3-0.8,0.8-1.5,1.3-2.1c0.5-0.6,1.1-1,1.7-1.3c0.6-0.3,1.3-0.4,2-0.4c0.6,0,1.3,0.1,1.8,0.4c0.6,0.3,1,0.7,1.3,1.2
			c0.4,0.7,0.6,1.4,0.7,2.1C31.9,26.4,31.9,27.4,31.7,28.4z M29.1,28.4c0.1-0.8,0.2-1.5,0.2-2.3c0-0.5-0.1-1-0.3-1.4
			c-0.1-0.3-0.3-0.6-0.6-0.7c-0.2-0.1-0.5-0.2-0.8-0.2c-0.3,0-0.6,0.1-0.9,0.2c-0.3,0.2-0.6,0.4-0.8,0.7c-0.3,0.5-0.5,0.9-0.7,1.5
			c-0.3,0.8-0.4,1.5-0.6,2.3c-0.1,0.8-0.2,1.6-0.2,2.3c0,0.5,0.1,1,0.3,1.4c0.1,0.3,0.3,0.6,0.6,0.7c0.2,0.1,0.5,0.2,0.8,0.2
			c0.3,0,0.6-0.1,0.9-0.2c0.3-0.2,0.6-0.4,0.8-0.8c0.3-0.4,0.6-0.9,0.7-1.5C28.8,30,29,29.2,29.1,28.4L29.1,28.4z"/>
		<path class="st0" d="M42.4,33.1L42.1,35l-7.3,0.1l0.3-1.9h2.6l1.1-7.3l0.1-0.5c0-0.2,0.1-0.3,0.1-0.5l-1.9,1.5
			c-0.1,0.1-0.2,0.2-0.4,0.2c-0.1,0-0.2,0-0.3,0c-0.1,0-0.2-0.1-0.2-0.1c-0.1,0-0.1-0.1-0.2-0.2l-0.6-1.1l4.6-3.5h2l-1.8,11.5
			L42.4,33.1z"/>
		<path class="st0" d="M41.5,44.9c-0.2,1-0.4,2-0.8,3c-0.3,0.8-0.8,1.5-1.3,2.1c-0.9,1.1-2.3,1.7-3.7,1.7c-0.6,0-1.3-0.1-1.8-0.4
			c-0.5-0.3-1-0.7-1.3-1.2c-0.4-0.6-0.6-1.4-0.7-2.1c-0.1-1-0.1-2,0.1-3c0.1-1,0.4-2,0.8-3c0.3-0.8,0.8-1.5,1.3-2.1
			c0.5-0.5,1.1-1,1.7-1.3c0.6-0.3,1.3-0.4,2-0.4c0.6,0,1.3,0.1,1.8,0.4c0.6,0.3,1,0.7,1.3,1.2c0.4,0.7,0.6,1.4,0.7,2.1
			C41.7,42.9,41.6,43.9,41.5,44.9z M38.9,44.9c0.1-0.8,0.2-1.5,0.2-2.3c0-0.5-0.1-1-0.3-1.5c-0.1-0.3-0.3-0.6-0.6-0.7
			c-0.2-0.1-0.5-0.2-0.8-0.2c-0.3,0-0.6,0.1-0.9,0.2c-0.3,0.2-0.6,0.4-0.8,0.8c-0.3,0.5-0.5,1-0.7,1.5c-0.3,0.8-0.5,1.6-0.6,2.4
			c-0.1,0.8-0.2,1.6-0.2,2.3c0,0.5,0.1,1,0.3,1.5c0.1,0.3,0.3,0.6,0.6,0.7c0.2,0.1,0.5,0.2,0.8,0.2c0.3,0,0.6-0.1,0.9-0.2
			c0.3-0.2,0.6-0.4,0.8-0.7c0.3-0.5,0.6-0.9,0.7-1.5C38.6,46.5,38.8,45.7,38.9,44.9L38.9,44.9z"/>
		<path class="st1" d="M49.8,53.2l7.8-51.8h18c2.9-0.1,5.8,0.3,8.6,1c2,0.5,3.9,1.4,5.5,2.8c1.3,1.1,2.2,2.6,2.7,4.3
			c0.5,1.9,0.5,3.8,0.2,5.7c-0.2,1.2-0.5,2.4-1.1,3.5c-0.6,1.1-1.3,2.2-2.1,3.1c-1,1-2.1,1.9-3.3,2.6c-1.4,0.8-2.9,1.5-4.5,2
			c6.9,1.6,9.9,5.4,9,11.5c-0.3,2.2-1.1,4.2-2.2,6.1c-1.1,1.9-2.6,3.5-4.4,4.8c-1.9,1.4-4.1,2.4-6.4,3.1c-2.7,0.8-5.4,1.2-8.2,1.2
			L49.8,53.2z M62.9,30.5l-2.3,15.2h9.8c1.6,0,3.1-0.2,4.6-0.7c1.2-0.4,2.2-0.9,3.2-1.7c0.8-0.7,1.5-1.5,2-2.5c0.5-0.9,0.8-2,0.9-3
			c0.2-1,0.1-2-0.1-3c-0.2-0.9-0.7-1.7-1.3-2.3c-0.8-0.7-1.7-1.2-2.8-1.5c-1.4-0.4-2.8-0.5-4.3-0.5H62.9z M63.9,23.8h7.7
			c2.7,0.1,5.4-0.5,7.8-1.8c1.9-1.3,3.2-3.4,3.4-5.7c0.4-2.7-0.1-4.6-1.4-5.8s-3.7-1.7-6.9-1.7h-8.3L63.9,23.8z"/>
		<path class="st1" d="M106.6,63.3c-0.3,0.6-0.7,1-1.2,1.4c-0.6,0.4-1.3,0.5-2,0.5h-6.6l9.1-14.7l-9.8-34h7.8
			c0.6-0.1,1.1,0.1,1.6,0.5c0.3,0.3,0.6,0.7,0.7,1.1l5,19c0.2,0.6,0.3,1.3,0.4,1.9c0.1,0.7,0.2,1.3,0.2,2c0.3-0.7,0.6-1.4,0.9-2
			s0.7-1.3,1-2l10.3-19c0.3-0.5,0.7-0.9,1.1-1.2c0.5-0.3,1-0.5,1.6-0.5h7.1L106.6,63.3z"/>
		<path class="st1" d="M146.3,53.8c-3.2,0-5.5-0.9-7-2.7c-1.5-1.8-1.9-4.3-1.5-7.5l3.2-20.5h-3.7c-0.8,0.1-1.5-0.5-1.5-1.3
			c0-0.2,0-0.4,0.1-0.5l0.5-3.5l6.1-1l3.4-10c0.1-0.5,0.4-0.8,0.8-1.1c0.4-0.3,0.9-0.4,1.4-0.4h4.6l-1.8,11.6h9.7l-1,6.3h-9.7
			l-3,19.9c-0.2,0.9-0.1,1.9,0.4,2.7c0.5,0.7,1.3,1.1,2.2,1c0.5,0,1-0.1,1.4-0.2c0.3-0.1,0.7-0.3,1-0.4c0.3-0.1,0.6-0.3,0.8-0.4
			c0.2-0.1,0.4-0.2,0.7-0.2c0.2,0,0.4,0.1,0.6,0.2c0.2,0.2,0.3,0.4,0.4,0.6l2,4.3c-1.5,1.1-3.1,1.9-4.8,2.4
			C149.9,53.5,148.1,53.8,146.3,53.8z"/>
		<path class="st1" d="M181.5,15.9c2.1,0,4.3,0.3,6.2,1.1c1.8,0.7,3.3,1.8,4.6,3.2c1.2,1.5,2.1,3.3,2.5,5.2c0.5,2.3,0.5,4.7,0.1,7.1
			c-0.1,0.6-0.2,1.1-0.3,1.7c-0.1,0.4-0.3,0.7-0.5,1c-0.2,0.2-0.4,0.4-0.7,0.5c-0.3,0.1-0.7,0.2-1,0.2h-22.8
			c-0.3,3.8,0.3,6.5,1.8,8.3c1.5,1.8,3.7,2.7,6.6,2.7c1.3,0,2.6-0.1,3.8-0.5c1-0.3,2-0.7,2.9-1.1c0.8-0.4,1.6-0.8,2.2-1.1
			c0.5-0.3,1.2-0.5,1.8-0.5c0.3,0,0.6,0.1,0.9,0.2c0.2,0.2,0.4,0.4,0.6,0.6l2.1,3.2c-1.1,1.1-2.4,2.1-3.7,2.9
			c-1.3,0.8-2.7,1.4-4.1,1.9c-1.4,0.5-2.8,0.8-4.2,1c-1.3,0.2-2.7,0.3-4.1,0.3c-2.4,0-4.8-0.4-7-1.3c-2-0.8-3.8-2.1-5.2-3.7
			c-1.4-1.8-2.4-3.9-2.9-6.2c-0.6-2.8-0.6-5.7-0.1-8.5c0.4-2.4,1.2-4.8,2.3-7c1.1-2.2,2.6-4.1,4.4-5.8
			C171.4,17.8,176.4,15.9,181.5,15.9L181.5,15.9z M180.7,22.2c-2.3-0.1-4.6,0.7-6.4,2.2c-1.8,1.7-3.1,3.8-3.7,6.2h16.7
			c0.2-1.1,0.2-2.2,0-3.2c-0.1-1-0.5-1.9-1-2.7c-0.5-0.8-1.3-1.4-2.2-1.8C183,22.4,181.9,22.2,180.7,22.2z"/>
		<path class="st1" d="M229.7,24.2c-0.3,0.3-0.6,0.6-0.9,0.8c-0.3,0.2-0.7,0.3-1.1,0.3c-0.5,0-0.9-0.1-1.3-0.4
			c-0.4-0.3-0.9-0.6-1.4-0.9c-0.6-0.4-1.3-0.7-2-0.9c-1-0.3-2-0.4-3-0.4c-1.5,0-2.9,0.3-4.2,0.8c-1.3,0.6-2.4,1.4-3.3,2.4
			c-1,1.1-1.8,2.4-2.3,3.8c-0.6,1.6-1.1,3.3-1.4,5.1c-0.3,1.7-0.3,3.5-0.2,5.2c0.1,1.4,0.6,2.7,1.2,3.8c0.6,1,1.5,1.8,2.5,2.4
			c1.1,0.6,2.4,0.8,3.6,0.8c1.2,0,2.4-0.1,3.5-0.5c0.8-0.3,1.6-0.7,2.4-1.2c0.7-0.4,1.2-0.8,1.7-1.1c0.5-0.3,1-0.5,1.6-0.5
			c0.6-0.1,1.2,0.3,1.5,0.8l2.1,3.2c-1.1,1.1-2.3,2.1-3.6,2.9c-2.4,1.5-5.1,2.5-7.8,2.8c-1.3,0.2-2.7,0.3-4,0.3
			c-2.1,0-4.3-0.4-6.2-1.3c-1.9-0.8-3.5-2.1-4.7-3.7c-1.3-1.8-2.2-3.8-2.7-6c-0.5-2.6-0.5-5.4-0.1-8c0.4-2.6,1.2-5.1,2.3-7.5
			c1.1-2.2,2.5-4.3,4.3-6c1.8-1.7,3.9-3.1,6.2-4c2.5-1,5.2-1.5,7.9-1.4c2.4-0.1,4.8,0.4,7,1.3c1.9,0.9,3.6,2.2,5,3.8L229.7,24.2z"/>
		<path class="st1" d="M253.9,15.9c2.5-0.1,5,0.4,7.3,1.3c2,0.8,3.8,2.1,5.2,3.8c1.4,1.7,2.3,3.8,2.8,6c0.5,2.6,0.6,5.2,0.1,7.8
			c-0.4,2.7-1.2,5.4-2.5,7.9c-1.2,2.3-2.7,4.3-4.6,6c-1.8,1.7-4,2.9-6.3,3.8c-2.5,0.9-5.1,1.3-7.7,1.3c-2.5,0-5-0.4-7.3-1.3
			c-2-0.8-3.8-2.1-5.2-3.8c-1.4-1.8-2.3-3.8-2.8-6c-0.5-2.6-0.6-5.3-0.1-7.9c0.4-2.7,1.2-5.4,2.5-7.8c1.2-2.3,2.7-4.3,4.6-6
			c1.9-1.6,4-2.9,6.3-3.8C248.7,16.3,251.3,15.9,253.9,15.9z M249.2,46.9c2.8,0.1,5.4-1,7.3-3.1c1.8-2.1,3-5.1,3.6-9
			c0.6-4,0.3-7-0.8-9.1s-3.3-3.1-6.3-3.1c-2.8-0.1-5.5,1-7.4,3.1c-1.8,2.1-3,5.1-3.6,9c-0.6,3.9-0.3,6.9,0.9,9
			S246.1,46.9,249.2,46.9L249.2,46.9z"/>
		<path class="st1" d="M298.8,53.2c-1,0.1-1.9-0.6-2-1.6l-0.2-3.6c-0.9,0.8-1.8,1.6-2.8,2.3c-0.9,0.7-1.9,1.3-3,1.8
			c-1.1,0.5-2.2,0.9-3.3,1.2c-1.2,0.3-2.4,0.4-3.7,0.4c-1.9,0-3.7-0.4-5.4-1.3c-1.6-0.8-2.9-2.1-3.8-3.6c-1-1.8-1.7-3.8-1.9-5.8
			c-0.3-2.7-0.2-5.4,0.2-8c0.4-2.6,1.1-5.2,2.3-7.6c1-2.2,2.4-4.3,4.1-6.1c1.6-1.7,3.5-3,5.6-4c2.1-1,4.4-1.5,6.8-1.4
			c1.8-0.1,3.5,0.3,5.1,1c1.3,0.6,2.5,1.5,3.5,2.6l3-19.5h8.9l-8.1,53.2H298.8z M288,46.7c1.7,0,3.4-0.4,4.9-1.2
			c1.5-0.9,2.9-2,4.1-3.2l2.5-16.5c-0.7-1.1-1.7-2-2.9-2.6c-1.2-0.5-2.4-0.8-3.7-0.8c-1.3,0-2.6,0.2-3.8,0.8
			c-1.2,0.5-2.3,1.3-3.1,2.3c-1,1.1-1.8,2.4-2.3,3.9c-0.7,1.8-1.2,3.6-1.5,5.5c-0.3,1.8-0.4,3.6-0.3,5.5c0.1,1.3,0.4,2.5,0.9,3.7
			c0.4,0.9,1.2,1.6,2.1,2C285.9,46.5,286.9,46.7,288,46.7z"/>
		<path class="st1" d="M333.1,17c2.1,0,4.3,0.3,6.3,1.1c1.8,0.7,3.4,1.8,4.6,3.2c1.2,1.5,2.1,3.2,2.5,5.1c0.5,2.3,0.5,4.6,0.1,6.9
			c-0.1,0.5-0.2,1.1-0.3,1.6c-0.1,0.4-0.2,0.7-0.5,1c-0.2,0.2-0.4,0.4-0.7,0.5c-0.3,0.1-0.7,0.2-1,0.2h-22.9c-0.3,3.7,0.3,6.3,1.8,8
			c1.5,1.7,3.7,2.6,6.7,2.6c1.3,0,2.6-0.1,3.8-0.5c1-0.3,2-0.7,2.9-1.1c0.8-0.4,1.6-0.8,2.2-1.1c0.5-0.3,1.2-0.5,1.8-0.5
			c0.3,0,0.6,0.1,0.9,0.2c0.2,0.1,0.5,0.3,0.6,0.6l2.1,3.1c-1.1,1.1-2.4,2-3.7,2.8c-1.3,0.7-2.7,1.3-4.1,1.8c-1.4,0.5-2.8,0.8-4.2,1
			c-1.3,0.2-2.7,0.3-4,0.3c-2.4,0-4.8-0.4-7-1.2c-2-0.8-3.8-2-5.2-3.7c-1.5-1.7-2.5-3.8-3-6c-0.6-2.7-0.6-5.5-0.1-8.2
			c0.4-2.4,1.1-4.7,2.3-6.8c1.1-2.1,2.6-4,4.4-5.6c1.8-1.6,3.9-2.9,6.1-3.8C327.9,17.5,330.5,17,333.1,17z M332.4,23.1
			c-2.3-0.1-4.6,0.7-6.4,2.2c-1.8,1.6-3.1,3.7-3.7,6H339c0.2-1,0.2-2.1,0-3.1c-0.1-0.9-0.5-1.8-1-2.6c-0.6-0.8-1.3-1.4-2.2-1.8
			C334.7,23.3,333.5,23.1,332.4,23.1L332.4,23.1z"/>
	</g>
</g>
</svg>
