<svg xmlns="http://www.w3.org/2000/svg" viewBox="0 0 89 61"><defs><style>.cls-1{fill:#fff;}.cls-2{fill:#23be87;}</style></defs><title>icon_digital-agency_light_nm</title><g id="Outlined"><path class="cls-1" d="M40.81,60.09,51.9,1H70.14a28.89,28.89,0,0,1,8,1,14,14,0,0,1,5.32,2.72A9.78,9.78,0,0,1,86.34,8.9,14.09,14.09,0,0,1,87,14.46a18.17,18.17,0,0,1-1,4.85,15.16,15.16,0,0,1-2.32,4.27,17,17,0,0,1-3.74,3.52,21,21,0,0,1-5.25,2.57,12.43,12.43,0,0,1,6.91,4.11A10.32,10.32,0,0,1,83.44,41a20.48,20.48,0,0,1-2,7.58,18.87,18.87,0,0,1-4.62,6.05,21.74,21.74,0,0,1-7,4,26.89,26.89,0,0,1-9,1.45Zm15-26L52.54,51.83h9.63a13.17,13.17,0,0,0,4.77-.78,9.26,9.26,0,0,0,3.4-2.18,9.7,9.7,0,0,0,2.12-3.4,15.2,15.2,0,0,0,.91-4.35A6.43,6.43,0,0,0,71.76,36q-1.83-1.92-6.31-1.92Zm1.37-7.32h7.55q5.27,0,8.3-2.58c2-1.71,3.15-4.34,3.39-7.89q.25-3.72-1.65-5.41c-1.27-1.14-3.33-1.7-6.19-1.7h-8.1Z"/><path class="cls-2" d="M11.59,9a13.28,13.28,0,0,1-1,3.12,8.5,8.5,0,0,1-1.49,2.19,5.4,5.4,0,0,1-1.82,1.28,5.17,5.17,0,0,1-2,.42,4,4,0,0,1-1.85-.42,3,3,0,0,1-1.28-1.28,5.57,5.57,0,0,1-.57-2.19A12,12,0,0,1,1.79,9a13.35,13.35,0,0,1,1-3.11A8.65,8.65,0,0,1,4.28,3.66,5.5,5.5,0,0,1,6.09,2.37a5.13,5.13,0,0,1,2-.42A4,4,0,0,1,10,2.37a3.08,3.08,0,0,1,1.29,1.29,5.2,5.2,0,0,1,.59,2.18A11.11,11.11,0,0,1,11.59,9ZM9,9a12.35,12.35,0,0,0,.3-2.4,4.29,4.29,0,0,0-.21-1.49,1.41,1.41,0,0,0-.58-.76,1.54,1.54,0,0,0-.81-.22,2,2,0,0,0-.89.22,2.53,2.53,0,0,0-.88.76,6.33,6.33,0,0,0-.82,1.49A13.62,13.62,0,0,0,4.4,9a12.53,12.53,0,0,0-.3,2.41,4.38,4.38,0,0,0,.2,1.5,1.39,1.39,0,0,0,.56.76,1.48,1.48,0,0,0,.8.22,2.06,2.06,0,0,0,.91-.22,2.64,2.64,0,0,0,.89-.76,6.41,6.41,0,0,0,.83-1.5A13.51,13.51,0,0,0,9,9Z"/><path class="cls-2" d="M19.47,13.89l-.4,1.92H11.62l.4-1.92h2.63l1.55-7.5.12-.5c0-.17.08-.34.13-.52l-2,1.5a1.34,1.34,0,0,1-.39.18.91.91,0,0,1-.33,0,.64.64,0,0,1-.25-.11.57.57,0,0,1-.15-.17l-.57-1.1,4.82-3.58h2.08l-2.44,11.8Z"/><path class="cls-2" d="M30.73,9a13.28,13.28,0,0,1-1,3.12,8.5,8.5,0,0,1-1.49,2.19,5.5,5.5,0,0,1-1.82,1.28,5.17,5.17,0,0,1-2,.42,4,4,0,0,1-1.85-.42,3,3,0,0,1-1.28-1.28,5.25,5.25,0,0,1-.57-2.19A11.2,11.2,0,0,1,20.93,9a13.35,13.35,0,0,1,1-3.11,8.4,8.4,0,0,1,1.47-2.18,5.4,5.4,0,0,1,1.81-1.29,5.13,5.13,0,0,1,2-.42,4,4,0,0,1,1.86.42,3.08,3.08,0,0,1,1.29,1.29A5.35,5.35,0,0,1,31,5.84,11.5,11.5,0,0,1,30.73,9ZM28.12,9a12.35,12.35,0,0,0,.3-2.4,4.29,4.29,0,0,0-.21-1.49,1.41,1.41,0,0,0-.58-.76,1.54,1.54,0,0,0-.81-.22,2,2,0,0,0-.89.22,2.53,2.53,0,0,0-.88.76,6.33,6.33,0,0,0-.82,1.49A13.62,13.62,0,0,0,23.54,9a12.53,12.53,0,0,0-.3,2.41,4.15,4.15,0,0,0,.2,1.5,1.39,1.39,0,0,0,.56.76,1.48,1.48,0,0,0,.8.22,2,2,0,0,0,.9-.22,2.57,2.57,0,0,0,.9-.76,6.42,6.42,0,0,0,.82-1.5A12.65,12.65,0,0,0,28.12,9Z"/><path class="cls-2" d="M42.22,9a13.28,13.28,0,0,1-1,3.12,8.5,8.5,0,0,1-1.49,2.19,5.5,5.5,0,0,1-1.82,1.28,5.17,5.17,0,0,1-2,.42A4,4,0,0,1,34,15.54a3,3,0,0,1-1.28-1.28,5.25,5.25,0,0,1-.57-2.19A11.6,11.6,0,0,1,32.42,9a13.35,13.35,0,0,1,1-3.11,8.65,8.65,0,0,1,1.47-2.18,5.5,5.5,0,0,1,1.81-1.29,5.13,5.13,0,0,1,2-.42,4,4,0,0,1,1.86.42A3.08,3.08,0,0,1,41.9,3.66a5.35,5.35,0,0,1,.59,2.18A11.11,11.11,0,0,1,42.22,9ZM39.61,9a12.35,12.35,0,0,0,.3-2.4,4.29,4.29,0,0,0-.21-1.49,1.41,1.41,0,0,0-.58-.76,1.54,1.54,0,0,0-.81-.22,2,2,0,0,0-.89.22,2.53,2.53,0,0,0-.88.76,6.33,6.33,0,0,0-.82,1.49A13.62,13.62,0,0,0,35,9a12.53,12.53,0,0,0-.3,2.41,4.15,4.15,0,0,0,.2,1.5,1.39,1.39,0,0,0,.56.76,1.48,1.48,0,0,0,.8.22,2,2,0,0,0,.9-.22,2.57,2.57,0,0,0,.9-.76,6.42,6.42,0,0,0,.82-1.5A12.65,12.65,0,0,0,39.61,9Z"/><path class="cls-2" d="M16.9,26a13.28,13.28,0,0,1-1,3.12,8.76,8.76,0,0,1-1.49,2.19,5.69,5.69,0,0,1-1.83,1.28,5.13,5.13,0,0,1-2,.42,3.94,3.94,0,0,1-1.85-.42,3.12,3.12,0,0,1-1.29-1.28,5.41,5.41,0,0,1-.56-2.19A11.2,11.2,0,0,1,7.1,26a13.36,13.36,0,0,1,1-3.11,8.47,8.47,0,0,1,1.47-2.18,5.53,5.53,0,0,1,1.82-1.29,5.09,5.09,0,0,1,2-.42,4,4,0,0,1,1.85.42,3.05,3.05,0,0,1,1.3,1.29,5.31,5.31,0,0,1,.58,2.18A11.45,11.45,0,0,1,16.9,26Zm-2.61,0a11.5,11.5,0,0,0,.29-2.4,4.53,4.53,0,0,0-.2-1.49,1.44,1.44,0,0,0-.58-.77,1.63,1.63,0,0,0-.81-.21,2.07,2.07,0,0,0-.89.21,2.59,2.59,0,0,0-.89.77,6.5,6.5,0,0,0-.81,1.49A13.62,13.62,0,0,0,9.71,26a13.53,13.53,0,0,0-.31,2.41,4.53,4.53,0,0,0,.2,1.49,1.48,1.48,0,0,0,.57.77,1.58,1.58,0,0,0,.8.22,2.2,2.2,0,0,0,.9-.22,2.61,2.61,0,0,0,.9-.77,6.13,6.13,0,0,0,.82-1.49A14.31,14.31,0,0,0,14.29,26Z"/><path class="cls-2" d="M28.39,26a13.28,13.28,0,0,1-1,3.12,8.76,8.76,0,0,1-1.49,2.19,5.69,5.69,0,0,1-1.83,1.28A5.13,5.13,0,0,1,22,33a3.94,3.94,0,0,1-1.85-.42,3,3,0,0,1-1.28-1.28,5.25,5.25,0,0,1-.57-2.19A11.2,11.2,0,0,1,18.59,26a13.85,13.85,0,0,1,1-3.11,8.25,8.25,0,0,1,1.48-2.18,5.4,5.4,0,0,1,1.81-1.29,5.09,5.09,0,0,1,2-.42,4,4,0,0,1,1.86.42,3.08,3.08,0,0,1,1.29,1.29,5.16,5.16,0,0,1,.58,2.18A11.45,11.45,0,0,1,28.39,26Zm-2.61,0a12.35,12.35,0,0,0,.3-2.4,4.25,4.25,0,0,0-.21-1.49,1.44,1.44,0,0,0-.58-.77,1.63,1.63,0,0,0-.81-.21,2.07,2.07,0,0,0-.89.21,2.59,2.59,0,0,0-.89.77,6.5,6.5,0,0,0-.81,1.49A13.62,13.62,0,0,0,21.2,26a13.53,13.53,0,0,0-.31,2.41,4.53,4.53,0,0,0,.2,1.49,1.48,1.48,0,0,0,.57.77,1.58,1.58,0,0,0,.8.22,2.2,2.2,0,0,0,.9-.22,2.61,2.61,0,0,0,.9-.77,6.13,6.13,0,0,0,.82-1.49A14.31,14.31,0,0,0,25.78,26Z"/><path class="cls-2" d="M37.23,31l-.4,1.92H29.38L29.77,31h2.64L34,23.45c0-.16.07-.33.11-.5s.09-.34.14-.52l-2.05,1.49a1,1,0,0,1-.39.18.75.75,0,0,1-.33,0,.68.68,0,0,1-.26-.11.7.7,0,0,1-.14-.17l-.57-1.11,4.82-3.57h2.08L34.93,31Z"/><path class="cls-2" d="M35.61,43.07a12.84,12.84,0,0,1-1,3.12,8.48,8.48,0,0,1-1.48,2.19,5.69,5.69,0,0,1-1.83,1.28,5.16,5.16,0,0,1-2,.42,4,4,0,0,1-1.86-.42,3.1,3.1,0,0,1-1.28-1.28,5.57,5.57,0,0,1-.57-2.19,11.65,11.65,0,0,1,.28-3.12,12.76,12.76,0,0,1,1-3.11,8.72,8.72,0,0,1,1.47-2.19,5.61,5.61,0,0,1,1.81-1.28,5.16,5.16,0,0,1,2-.42,4,4,0,0,1,1.86.42,3.08,3.08,0,0,1,1.3,1.28A5.4,5.4,0,0,1,35.88,40,11.14,11.14,0,0,1,35.61,43.07Zm-2.61,0a12.35,12.35,0,0,0,.3-2.4,4.25,4.25,0,0,0-.21-1.49,1.39,1.39,0,0,0-.58-.77,1.58,1.58,0,0,0-.81-.21,2.1,2.1,0,0,0-.89.21,2.66,2.66,0,0,0-.88.77,6.13,6.13,0,0,0-.82,1.49,14.63,14.63,0,0,0-.68,2.4,11.9,11.9,0,0,0-.31,2.41,4.28,4.28,0,0,0,.2,1.49,1.38,1.38,0,0,0,.57.77,1.55,1.55,0,0,0,.8.22,2.2,2.2,0,0,0,.9-.22,2.59,2.59,0,0,0,.89-.77,6.12,6.12,0,0,0,.83-1.49A13.51,13.51,0,0,0,33,43.07Z"/></g></svg>