<svg xmlns="http://www.w3.org/2000/svg" viewBox="0 0 346.9 73.63"><defs><style>.cls-1{fill:#3eb284;}.cls-2{fill:#3eb285;}.cls-3{fill:#fff;}</style></defs><title>Bytecode logo</title><g id="Layer_2" data-name="Layer 2"><g id="Outlined"><path class="cls-1" d="M9.74,12a13,13,0,0,1-.84,3,7.78,7.78,0,0,1-1.35,2.13,5.16,5.16,0,0,1-1.72,1.26,4.76,4.76,0,0,1-2,.42A4,4,0,0,1,2,18.48,3.2,3.2,0,0,1,.72,17.24a5.52,5.52,0,0,1-.66-2.12,11,11,0,0,1,.11-3,12.09,12.09,0,0,1,.84-3A7.9,7.9,0,0,1,2.34,6.93,5,5,0,0,1,4,5.68a4.94,4.94,0,0,1,2-.43,4.11,4.11,0,0,1,1.84.4A3.33,3.33,0,0,1,9.17,6.88,5.4,5.4,0,0,1,9.84,9,10.87,10.87,0,0,1,9.74,12ZM7.19,12a11.59,11.59,0,0,0,.17-2.33,4.13,4.13,0,0,0-.28-1.45,1.47,1.47,0,0,0-.6-.74,1.72,1.72,0,0,0-.8-.2,1.83,1.83,0,0,0-.86.22A2.27,2.27,0,0,0,4,8.29a5.42,5.42,0,0,0-.73,1.45,13.18,13.18,0,0,0-.55,2.33,11.85,11.85,0,0,0-.18,2.34,4.35,4.35,0,0,0,.27,1.45,1.51,1.51,0,0,0,.59.74,1.46,1.46,0,0,0,.79.2,2,2,0,0,0,.87-.21,2.62,2.62,0,0,0,.84-.75,5.81,5.81,0,0,0,.73-1.46A13,13,0,0,0,7.19,12Z"/><path class="cls-1" d="M20.49,16.74,20.2,18.6l-7.28.06.29-1.87,2.58,0,1.14-7.29c0-.16.05-.32.08-.48s.07-.34.11-.51L15.19,10a.9.9,0,0,1-.37.18.74.74,0,0,1-.33,0,.71.71,0,0,1-.25-.11.56.56,0,0,1-.15-.16L13.48,8.8,18,5.3h2l-1.8,11.47Z"/><path class="cls-1" d="M34.05,11.84a12.05,12.05,0,0,1-.84,3A7.85,7.85,0,0,1,31.87,17a5.26,5.26,0,0,1-1.72,1.26,4.81,4.81,0,0,1-2,.42,3.9,3.9,0,0,1-1.83-.39A3.12,3.12,0,0,1,25,17.06a5.35,5.35,0,0,1-.67-2.12,11,11,0,0,1,.12-3,12.54,12.54,0,0,1,.83-3,7.93,7.93,0,0,1,1.33-2.12,5,5,0,0,1,3.66-1.69,4.08,4.08,0,0,1,1.84.4,3.17,3.17,0,0,1,1.33,1.24,5.3,5.3,0,0,1,.68,2.11A10.91,10.91,0,0,1,34.05,11.84Zm-2.55,0a11.7,11.7,0,0,0,.18-2.33,4.65,4.65,0,0,0-.28-1.45,1.46,1.46,0,0,0-.61-.73,1.57,1.57,0,0,0-.8-.21,1.86,1.86,0,0,0-.86.22,2.27,2.27,0,0,0-.82.75,5.74,5.74,0,0,0-.72,1.45A12.28,12.28,0,0,0,27,11.89a12.67,12.67,0,0,0-.18,2.34,4.3,4.3,0,0,0,.27,1.45,1.47,1.47,0,0,0,.59.74,1.59,1.59,0,0,0,.8.21,2.23,2.23,0,0,0,.87-.22,2.29,2.29,0,0,0,.83-.75,5.5,5.5,0,0,0,.73-1.46A12.21,12.21,0,0,0,31.5,11.86Z"/><path class="cls-1" d="M46.21,11.75a12.47,12.47,0,0,1-.85,3A7.4,7.4,0,0,1,44,16.92a5.16,5.16,0,0,1-1.72,1.26,4.76,4.76,0,0,1-2,.42,3.9,3.9,0,0,1-1.83-.39A3.2,3.2,0,0,1,37.19,17a5.52,5.52,0,0,1-.66-2.12,11,11,0,0,1,.11-3,11.89,11.89,0,0,1,.84-3,7.6,7.6,0,0,1,1.33-2.13A4.92,4.92,0,0,1,42.47,5a4.11,4.11,0,0,1,1.84.4,3.29,3.29,0,0,1,1.33,1.24,5.3,5.3,0,0,1,.67,2.11A10.87,10.87,0,0,1,46.21,11.75Zm-2.55,0a11.59,11.59,0,0,0,.17-2.33A4.13,4.13,0,0,0,43.55,8a1.4,1.4,0,0,0-.6-.73,1.62,1.62,0,0,0-.8-.21,2,2,0,0,0-.86.22,2.27,2.27,0,0,0-.82.75,5.42,5.42,0,0,0-.73,1.45,13.1,13.1,0,0,0-.55,2.34A11.75,11.75,0,0,0,39,14.15a4.28,4.28,0,0,0,.27,1.44,1.47,1.47,0,0,0,.59.74,1.56,1.56,0,0,0,.79.21,2.15,2.15,0,0,0,.87-.22,2.32,2.32,0,0,0,.84-.75,5.9,5.9,0,0,0,.73-1.45A13.36,13.36,0,0,0,43.66,11.77Z"/><path class="cls-1" d="M19.51,28.51a12.09,12.09,0,0,1-.84,3,7.83,7.83,0,0,1-1.34,2.14,5.26,5.26,0,0,1-1.72,1.26,5.11,5.11,0,0,1-2,.42,4,4,0,0,1-1.83-.4,3.18,3.18,0,0,1-1.32-1.23,5.41,5.41,0,0,1-.66-2.12,11,11,0,0,1,.11-3,12.09,12.09,0,0,1,.84-3,7.89,7.89,0,0,1,1.32-2.13,5.22,5.22,0,0,1,1.71-1.26,5.11,5.11,0,0,1,2-.42,4,4,0,0,1,1.83.4,3.14,3.14,0,0,1,1.33,1.23,5.19,5.19,0,0,1,.68,2.12A10.54,10.54,0,0,1,19.51,28.51Zm-2.54,0a12.38,12.38,0,0,0,.17-2.33,4.32,4.32,0,0,0-.28-1.45,1.47,1.47,0,0,0-.6-.74,1.61,1.61,0,0,0-.8-.2,1.91,1.91,0,0,0-.86.21,2.49,2.49,0,0,0-.83.75,6,6,0,0,0-.72,1.46,12.35,12.35,0,0,0-.55,2.33,11.85,11.85,0,0,0-.18,2.34,4.35,4.35,0,0,0,.27,1.45,1.46,1.46,0,0,0,.59.74,1.52,1.52,0,0,0,.79.2,2,2,0,0,0,.87-.21,2.62,2.62,0,0,0,.84-.75,6.17,6.17,0,0,0,.73-1.46A13,13,0,0,0,17,28.53Z"/><path class="cls-1" d="M31.67,28.42a12,12,0,0,1-.84,3,8.07,8.07,0,0,1-1.34,2.14,5.26,5.26,0,0,1-1.72,1.26,5.16,5.16,0,0,1-2,.42,4,4,0,0,1-1.83-.4,3.1,3.1,0,0,1-1.31-1.23A5.4,5.4,0,0,1,22,31.52a11,11,0,0,1,.12-3,12.54,12.54,0,0,1,.83-3,8.16,8.16,0,0,1,1.33-2.13A5.12,5.12,0,0,1,26,22.07a5.07,5.07,0,0,1,2-.42,4.06,4.06,0,0,1,1.83.4,3.21,3.21,0,0,1,1.33,1.23,5.4,5.4,0,0,1,.68,2.12A10.91,10.91,0,0,1,31.67,28.42Zm-2.55,0a11.7,11.7,0,0,0,.18-2.33A4.59,4.59,0,0,0,29,24.66a1.58,1.58,0,0,0-.6-.74,1.62,1.62,0,0,0-.81-.2,1.86,1.86,0,0,0-.86.22,2.33,2.33,0,0,0-.82.74,6,6,0,0,0-.72,1.46,13.09,13.09,0,0,0-.56,2.33,12.67,12.67,0,0,0-.18,2.34,4.35,4.35,0,0,0,.27,1.45,1.51,1.51,0,0,0,.59.74,1.49,1.49,0,0,0,.8.2A2.05,2.05,0,0,0,27,33a2.49,2.49,0,0,0,.83-.75,5.5,5.5,0,0,0,.73-1.46A12.21,12.21,0,0,0,29.12,28.44Z"/><path class="cls-1" d="M42.42,33.14,42.13,35l-7.28.06.3-1.87,2.57,0,1.14-7.29.09-.49c0-.16.07-.33.1-.5l-1.92,1.46a.87.87,0,0,1-.38.18.7.7,0,0,1-.32,0,.64.64,0,0,1-.25-.11.55.55,0,0,1-.15-.16l-.61-1.07L40,21.7h2l-1.8,11.46Z"/><path class="cls-1" d="M41.45,44.91a12.53,12.53,0,0,1-.84,3,7.84,7.84,0,0,1-1.35,2.14,4.95,4.95,0,0,1-3.68,1.68,4,4,0,0,1-1.83-.4,3.18,3.18,0,0,1-1.32-1.23A5.57,5.57,0,0,1,31.77,48a11,11,0,0,1,.11-3,12.09,12.09,0,0,1,.84-3,7.9,7.9,0,0,1,1.33-2.13,5.19,5.19,0,0,1,1.7-1.26,5.11,5.11,0,0,1,2-.42,4.11,4.11,0,0,1,1.84.4,3.2,3.2,0,0,1,1.33,1.23,5.35,5.35,0,0,1,.67,2.12A10.87,10.87,0,0,1,41.45,44.91Zm-2.55,0a11.59,11.59,0,0,0,.17-2.33,4.09,4.09,0,0,0-.28-1.45,1.47,1.47,0,0,0-.6-.74,1.58,1.58,0,0,0-.8-.2,1.94,1.94,0,0,0-.86.21,2.47,2.47,0,0,0-.82.75A5.81,5.81,0,0,0,35,42.63,13.18,13.18,0,0,0,34.43,45a11.85,11.85,0,0,0-.18,2.34,4.4,4.4,0,0,0,.27,1.45,1.51,1.51,0,0,0,.59.74,1.55,1.55,0,0,0,.79.2,1.87,1.87,0,0,0,.87-.22,2.37,2.37,0,0,0,.84-.74,6,6,0,0,0,.73-1.46A13,13,0,0,0,38.9,44.93Z"/><path class="cls-2" d="M210,67.82a6.6,6.6,0,0,1-.39,2.32,5.42,5.42,0,0,1-1.09,1.8,4.86,4.86,0,0,1-1.65,1.17,5.34,5.34,0,0,1-2.09.41h-3.46l1.24-10H206a4.25,4.25,0,0,1,1.67.31,3.65,3.65,0,0,1,1.26.89,3.81,3.81,0,0,1,.79,1.36A5,5,0,0,1,210,67.82Zm-1.34,0a4.49,4.49,0,0,0-.19-1.37,3.08,3.08,0,0,0-.55-1,2.36,2.36,0,0,0-.88-.64,2.86,2.86,0,0,0-1.16-.23h-2.14l-1,7.89h2.13a3.64,3.64,0,0,0,1.53-.32,3.32,3.32,0,0,0,1.19-.92,4.35,4.35,0,0,0,.77-1.45A6.38,6.38,0,0,0,208.67,67.85Z"/><path class="cls-2" d="M215.32,73.52H214l1.22-10h1.31Z"/><path class="cls-2" d="M224.77,72.57c.24,0,.46,0,.67,0a4.72,4.72,0,0,0,.59-.12,4.12,4.12,0,0,0,.53-.18l.51-.25.27-2.26H226a.21.21,0,0,1-.18-.07.19.19,0,0,1-.07-.16.45.45,0,0,0,0-.11s0-.06,0-.11l.06-.55h2.87l-.47,3.82a5.21,5.21,0,0,1-.78.47,4.86,4.86,0,0,1-.85.34,5.39,5.39,0,0,1-.94.2,7.12,7.12,0,0,1-1.07.07,4,4,0,0,1-1.64-.33,3.55,3.55,0,0,1-1.26-.9,4.12,4.12,0,0,1-.81-1.4,5.52,5.52,0,0,1-.28-1.77,6.6,6.6,0,0,1,.4-2.36A5.65,5.65,0,0,1,222.06,65a4.79,4.79,0,0,1,1.68-1.2,5.33,5.33,0,0,1,2.13-.43,5.67,5.67,0,0,1,1,.1,4.83,4.83,0,0,1,.86.27,3.62,3.62,0,0,1,.69.42,4,4,0,0,1,.57.51l-.42.55a.62.62,0,0,1-.14.14.34.34,0,0,1-.17,0,.48.48,0,0,1-.23-.07c-.1-.07-.22-.14-.34-.24a3,3,0,0,0-.45-.27,2.71,2.71,0,0,0-.63-.22,3.26,3.26,0,0,0-.89-.1,3.68,3.68,0,0,0-1.57.33,3.43,3.43,0,0,0-1.23.94,4.37,4.37,0,0,0-.8,1.46,6,6,0,0,0-.29,1.91,4.46,4.46,0,0,0,.21,1.42,3.23,3.23,0,0,0,.58,1.07,2.51,2.51,0,0,0,.91.67A2.84,2.84,0,0,0,224.77,72.57Z"/><path class="cls-2" d="M234.27,73.52H233l1.22-10h1.31Z"/><path class="cls-2" d="M247,63.51l-.14,1.1h-3l-1.09,8.9h-1.3l1.09-8.9h-3l.13-1.1Z"/><path class="cls-2" d="M256.49,73.51h-1a.47.47,0,0,1-.28-.08.48.48,0,0,1-.13-.23l-.55-2.44h-4.07l-1.14,2.44a.69.69,0,0,1-.2.22.48.48,0,0,1-.29.09h-1l4.9-10H254Zm-5.59-3.7h3.43l-.93-4.14c0-.12-.06-.26-.09-.41s-.06-.32-.08-.5c-.07.18-.13.34-.2.5s-.13.3-.19.42Z"/><path class="cls-2" d="M261.79,72.41h4l-.13,1.1h-5.26l1.23-10h1.3Z"/><path class="cls-2" d="M282.8,73.51h-1a.4.4,0,0,1-.27-.09.45.45,0,0,1-.13-.22l-.55-2.45h-4.07l-1.15,2.45a.64.64,0,0,1-.19.22.48.48,0,0,1-.29.09h-1l4.91-10h1.32Zm-5.59-3.71h3.42l-.92-4.13q0-.18-.09-.42c0-.15-.06-.31-.08-.49-.07.18-.14.34-.2.5l-.19.41Z"/><path class="cls-2" d="M290.57,72.57c.24,0,.47,0,.68,0a5.13,5.13,0,0,0,.59-.12,4.72,4.72,0,0,0,.53-.18,4.66,4.66,0,0,0,.5-.25l.27-2.26h-1.38a.29.29,0,0,1-.19-.06.26.26,0,0,1-.07-.16s0-.09,0-.12a.54.54,0,0,1,0-.11l.06-.55h2.86L294,72.54a5.21,5.21,0,0,1-.78.47,4.47,4.47,0,0,1-.84.34,5.5,5.5,0,0,1-.95.2,7.07,7.07,0,0,1-1.06.07,4.19,4.19,0,0,1-1.65-.32,3.7,3.7,0,0,1-1.26-.91,4.22,4.22,0,0,1-.8-1.39,5.32,5.32,0,0,1-.28-1.78,6.87,6.87,0,0,1,.39-2.36A5.65,5.65,0,0,1,287.86,65a5.06,5.06,0,0,1,3.81-1.62,5.55,5.55,0,0,1,1.05.09,4,4,0,0,1,.86.28,3.22,3.22,0,0,1,.7.41,6.91,6.91,0,0,1,.57.51l-.42.55a.64.64,0,0,1-.15.14.29.29,0,0,1-.17.05.51.51,0,0,1-.23-.07,3.73,3.73,0,0,1-.34-.24,3.39,3.39,0,0,0-.44-.27,3.5,3.5,0,0,0-1.53-.32,3.71,3.71,0,0,0-1.57.33,3.43,3.43,0,0,0-1.23.94,4.37,4.37,0,0,0-.8,1.46,6.1,6.1,0,0,0-.28,1.92,4.75,4.75,0,0,0,.2,1.41,3.15,3.15,0,0,0,.59,1.07,2.47,2.47,0,0,0,.9.67A2.88,2.88,0,0,0,290.57,72.57Z"/><path class="cls-2" d="M305.33,64.57H301L300.53,68h3.55L304,69h-3.54L300,72.45h4.39l-.13,1.06h-5.7l1.23-10h5.69Z"/><path class="cls-2" d="M310.94,63.55a.59.59,0,0,1,.16.18l4.31,7.64q0-.16,0-.3l0-.28.89-7.28h1.15l-1.22,10h-.66a.5.5,0,0,1-.26-.06.49.49,0,0,1-.19-.19l-4.3-7.65a.38.38,0,0,1,0,.1.57.57,0,0,1,0,.13V66c0,.05,0,.09,0,.12l-.9,7.4h-1.15l1.23-10h.67A.59.59,0,0,1,310.94,63.55Z"/><path class="cls-2" d="M325.34,72.49a3.94,3.94,0,0,0,.81-.07,5.35,5.35,0,0,0,.63-.19,2.92,2.92,0,0,0,.47-.25c.12-.09.24-.17.33-.25l.24-.19a.32.32,0,0,1,.18-.07.16.16,0,0,1,.1,0l.07.06.45.57a4.66,4.66,0,0,1-1.51,1.1,4.74,4.74,0,0,1-2,.4,3.91,3.91,0,0,1-1.6-.32,3.52,3.52,0,0,1-1.21-.9,3.87,3.87,0,0,1-.75-1.37,5.44,5.44,0,0,1-.26-1.75,6.77,6.77,0,0,1,.4-2.39A5.75,5.75,0,0,1,322.81,65a5,5,0,0,1,3.72-1.64,4.78,4.78,0,0,1,1,.09,3.2,3.2,0,0,1,.79.27,2.72,2.72,0,0,1,.64.42,3.94,3.94,0,0,1,.54.54l-.44.55a.69.69,0,0,1-.13.11.31.31,0,0,1-.17,0,.4.4,0,0,1-.27-.14,2.18,2.18,0,0,0-.38-.31,2.76,2.76,0,0,0-.62-.3,3,3,0,0,0-1-.14,3.65,3.65,0,0,0-1.51.32,3.58,3.58,0,0,0-1.22.93,4.45,4.45,0,0,0-.82,1.47,6,6,0,0,0-.29,1.92,4.57,4.57,0,0,0,.2,1.39,3.13,3.13,0,0,0,.56,1,2.39,2.39,0,0,0,.86.66A2.45,2.45,0,0,0,325.34,72.49Z"/><path class="cls-2" d="M336.79,69.5l-.5,4H335l.49-4-2.64-6H334a.37.37,0,0,1,.27.09.55.55,0,0,1,.14.22l1.66,4a3.3,3.3,0,0,1,.12.38,2.37,2.37,0,0,1,.09.36c.05-.12.12-.24.18-.36l.22-.38,2.66-4a1.2,1.2,0,0,1,.19-.21.45.45,0,0,1,.28-.1h1.09Z"/><path class="cls-3" d="M49.75,53.19,57.6,1.43h18a32.29,32.29,0,0,1,8.58,1,14,14,0,0,1,5.52,2.75A8.73,8.73,0,0,1,92.4,9.49a13.84,13.84,0,0,1,.21,5.72,12.18,12.18,0,0,1-1.07,3.49,12.48,12.48,0,0,1-2.14,3.12,16.23,16.23,0,0,1-3.28,2.63,21.12,21.12,0,0,1-4.46,2Q92,28.85,90.63,38a16.42,16.42,0,0,1-2.18,6.08,16.79,16.79,0,0,1-4.4,4.82A21.15,21.15,0,0,1,77.63,52a27.51,27.51,0,0,1-8.23,1.15ZM62.87,30.5l-2.3,15.17H70.4A14.58,14.58,0,0,0,75,45a9.49,9.49,0,0,0,3.17-1.72,7.81,7.81,0,0,0,2-2.51,10.46,10.46,0,0,0,.95-3,7.54,7.54,0,0,0-.09-3,4.57,4.57,0,0,0-1.34-2.29A6.45,6.45,0,0,0,76.94,31a15.37,15.37,0,0,0-4.28-.5Zm1-6.66h7.74a14.47,14.47,0,0,0,7.76-1.79,7.68,7.68,0,0,0,3.41-5.69q.61-4-1.42-5.77T74.43,8.88H66.15Z"/><path class="cls-3" d="M106.62,63.28a4.27,4.27,0,0,1-1.24,1.42,3.52,3.52,0,0,1-2,.48H96.76l9.14-14.71-9.77-34h7.77a2.13,2.13,0,0,1,1.58.51,2.7,2.7,0,0,1,.69,1.14l5,19a14.8,14.8,0,0,1,.39,1.94c.09.67.16,1.33.2,2,.3-.69.61-1.36.94-2s.67-1.3,1-2l10.3-19a3.19,3.19,0,0,1,1.13-1.18,2.88,2.88,0,0,1,1.57-.47h7.12Z"/><path class="cls-3" d="M146.28,53.76q-4.78,0-7-2.7c-1.46-1.8-1.94-4.29-1.46-7.46L141,23.09h-3.74a1.44,1.44,0,0,1-1.49-1.86l.54-3.51,6.08-1,3.39-10a2.15,2.15,0,0,1,.84-1.11A2.37,2.37,0,0,1,148,5.23h4.6l-1.75,11.56h9.72l-1,6.3h-9.71l-3,19.9a3.5,3.5,0,0,0,.45,2.68,2.51,2.51,0,0,0,2.16,1,4.59,4.59,0,0,0,1.42-.2,9.6,9.6,0,0,0,1-.41c.3-.14.56-.28.8-.41a1.42,1.42,0,0,1,.68-.2.92.92,0,0,1,.62.2,2.57,2.57,0,0,1,.44.59l2,4.29a16.16,16.16,0,0,1-4.83,2.44A17.91,17.91,0,0,1,146.28,53.76Z"/><path class="cls-3" d="M181.5,15.89A16.66,16.66,0,0,1,187.75,17a11.41,11.41,0,0,1,4.57,3.24,12.1,12.1,0,0,1,2.51,5.23,18.83,18.83,0,0,1,.12,7.07,14.9,14.9,0,0,1-.34,1.66,3.26,3.26,0,0,1-.48,1,1.69,1.69,0,0,1-.71.54,3.11,3.11,0,0,1-1,.16H169.57q-.47,5.66,1.8,8.3c1.51,1.77,3.72,2.65,6.65,2.65a13.16,13.16,0,0,0,3.8-.5,20.75,20.75,0,0,0,2.9-1.11q1.26-.62,2.22-1.11a4,4,0,0,1,1.79-.5,1.76,1.76,0,0,1,.9.21,1.73,1.73,0,0,1,.59.61l2.1,3.22a17.89,17.89,0,0,1-3.74,2.88,22,22,0,0,1-4.12,1.87,23.53,23.53,0,0,1-4.21,1,30.42,30.42,0,0,1-4.06.29,18.45,18.45,0,0,1-7-1.27A13.1,13.1,0,0,1,164,48.7a14.64,14.64,0,0,1-2.91-6.16A22.8,22.8,0,0,1,161,34,22.49,22.49,0,0,1,163.3,27a20.82,20.82,0,0,1,4.38-5.76,20.08,20.08,0,0,1,13.82-5.32Zm-.78,6.34a9.51,9.51,0,0,0-6.42,2.18,12.93,12.93,0,0,0-3.74,6.19h16.69a10.38,10.38,0,0,0,0-3.24,6.19,6.19,0,0,0-1-2.66,5.38,5.38,0,0,0-2.17-1.81A7.7,7.7,0,0,0,180.72,22.23Z"/><path class="cls-3" d="M229.67,24.23a5.1,5.1,0,0,1-.89.79,2,2,0,0,1-1.14.29,2.13,2.13,0,0,1-1.27-.42c-.39-.27-.86-.58-1.4-.93a10.52,10.52,0,0,0-2-.93,9.38,9.38,0,0,0-3-.41,10.31,10.31,0,0,0-4.23.84,9.66,9.66,0,0,0-3.3,2.42,13.07,13.07,0,0,0-2.32,3.81,22.3,22.3,0,0,0-1.35,5.07,19.48,19.48,0,0,0-.16,5.22,9.65,9.65,0,0,0,1.23,3.85,6.3,6.3,0,0,0,2.53,2.36A7.91,7.91,0,0,0,216,47a10.31,10.31,0,0,0,3.51-.52,13,13,0,0,0,2.39-1.15c.66-.41,1.24-.8,1.74-1.14a2.66,2.66,0,0,1,1.57-.52,1.51,1.51,0,0,1,1.49.82l2.07,3.22a19.66,19.66,0,0,1-3.64,2.88,20,20,0,0,1-7.84,2.85,28.45,28.45,0,0,1-4,.29,15.21,15.21,0,0,1-6.25-1.27,12.31,12.31,0,0,1-4.71-3.71,14.88,14.88,0,0,1-2.66-6,22.1,22.1,0,0,1-.09-8,25.62,25.62,0,0,1,2.31-7.5,20.66,20.66,0,0,1,4.34-6,19.62,19.62,0,0,1,6.21-4,21.19,21.19,0,0,1,7.92-1.43,16.83,16.83,0,0,1,7,1.33,14.21,14.21,0,0,1,5,3.79Z"/><path class="cls-3" d="M253.93,15.89a18.69,18.69,0,0,1,7.31,1.33A13.2,13.2,0,0,1,266.41,21a13.93,13.93,0,0,1,2.76,6,21.52,21.52,0,0,1,.11,7.84,25,25,0,0,1-2.49,7.87,20.91,20.91,0,0,1-4.58,6,19.5,19.5,0,0,1-6.31,3.79,22,22,0,0,1-7.7,1.33,19.05,19.05,0,0,1-7.33-1.33,13.12,13.12,0,0,1-5.2-3.79,14.21,14.21,0,0,1-2.79-6,21,21,0,0,1-.12-7.87,24.45,24.45,0,0,1,2.5-7.84,20.58,20.58,0,0,1,4.61-6,19.89,19.89,0,0,1,6.34-3.75A21.93,21.93,0,0,1,253.93,15.89Zm-4.7,31a9.15,9.15,0,0,0,7.28-3.08q2.69-3.08,3.58-9c.61-4,.32-7-.84-9.06s-3.27-3.11-6.34-3.11a9.26,9.26,0,0,0-7.39,3.13q-2.7,3.13-3.6,9c-.6,3.93-.31,6.94.87,9S246.11,46.93,249.23,46.93Z"/><path class="cls-3" d="M298.83,53.19a1.82,1.82,0,0,1-2-1.61L296.63,48a29.26,29.26,0,0,1-2.76,2.32,18.92,18.92,0,0,1-3,1.79,16.23,16.23,0,0,1-3.31,1.16,15.6,15.6,0,0,1-3.68.42,11.07,11.07,0,0,1-5.35-1.26,9.91,9.91,0,0,1-3.79-3.63A15,15,0,0,1,272.84,43a29,29,0,0,1,.23-8,27.57,27.57,0,0,1,2.26-7.58,22.61,22.61,0,0,1,4.13-6.09,18.53,18.53,0,0,1,5.61-4,16,16,0,0,1,6.77-1.45,11.77,11.77,0,0,1,5.14,1,11.09,11.09,0,0,1,3.52,2.63L303.45,0h8.89l-8.07,53.19ZM288,46.71a10.07,10.07,0,0,0,4.89-1.15A17.16,17.16,0,0,0,297,42.31l2.5-16.47a7.1,7.1,0,0,0-2.9-2.57,8.84,8.84,0,0,0-3.72-.76,9.3,9.3,0,0,0-3.77.76A8.72,8.72,0,0,0,286,25.54a13.21,13.21,0,0,0-2.33,3.86,24.24,24.24,0,0,0-1.46,5.53,24.58,24.58,0,0,0-.3,5.46,9.23,9.23,0,0,0,.94,3.65,4.47,4.47,0,0,0,2.06,2A7,7,0,0,0,288,46.71Z"/><path class="cls-3" d="M333.11,17a17.38,17.38,0,0,1,6.26,1.07A11.68,11.68,0,0,1,344,21.24a11.91,11.91,0,0,1,2.54,5.07,17.65,17.65,0,0,1,.15,6.85,12.16,12.16,0,0,1-.34,1.62,2.82,2.82,0,0,1-.47,1,1.57,1.57,0,0,1-.71.52,2.86,2.86,0,0,1-1,.16H321.27q-.43,5.49,1.84,8c1.51,1.72,3.73,2.57,6.66,2.57a13.55,13.55,0,0,0,3.8-.48,22.22,22.22,0,0,0,2.9-1.08c.84-.39,1.58-.75,2.21-1.08a4,4,0,0,1,1.78-.48,1.8,1.8,0,0,1,.91.21,1.52,1.52,0,0,1,.59.59l2.12,3.12a18.33,18.33,0,0,1-3.73,2.79,21.89,21.89,0,0,1-4.11,1.81,23.43,23.43,0,0,1-4.21,1,30.32,30.32,0,0,1-4,.28,18.9,18.9,0,0,1-7-1.23,13,13,0,0,1-5.2-3.65,14,14,0,0,1-2.95-6,21.19,21.19,0,0,1-.15-8.24A21.25,21.25,0,0,1,315,27.77a20.07,20.07,0,0,1,4.36-5.59,20.39,20.39,0,0,1,6.15-3.77A20.64,20.64,0,0,1,333.11,17Zm-.75,6.14A9.57,9.57,0,0,0,326,25.29a12.41,12.41,0,0,0-3.71,6h16.69a10,10,0,0,0,0-3.14,6,6,0,0,0-1.05-2.59,5.45,5.45,0,0,0-2.18-1.75A7.88,7.88,0,0,0,332.36,23.17Z"/></g></g></svg>
