<svg xmlns="http://www.w3.org/2000/svg" viewBox="0 0 258.5 381.54"><defs><style>.cls-1{isolation:isolate;}.cls-2{fill:#1b9368;}.cls-3{fill:#136648;}.cls-4{fill:#1ea374;}.cls-5{fill:#23be87;}.cls-6{fill:#ff6193;}.cls-14,.cls-7{fill:#fff;}.cls-10,.cls-12,.cls-8,.cls-9{fill:none;}.cls-8{stroke:#fff;}.cls-10,.cls-12,.cls-14,.cls-8,.cls-9{stroke-miterlimit:10;}.cls-10,.cls-12,.cls-9{stroke:#ff6193;}.cls-9{stroke-width:2px;}.cls-11{fill:#1a1a1a;}.cls-12{stroke-width:0.5px;}.cls-13{opacity:0.8;}.cls-14{stroke:#000;}.cls-15{opacity:0.05;}.cls-16{opacity:0.6;}</style></defs><title>Analyze</title><g id="Layer_2" data-name="Layer 2"><g id="Layer_3" data-name="Layer 3"><g id="Laag_2" data-name="Laag 2"><g class="cls-1"><polygon class="cls-2" points="88.09 115.85 88.2 154.97 54.15 174.63 54.04 135.51 88.09 115.85"/><polygon class="cls-3" points="54.15 174.63 18.91 154.16 18.8 115.03 54.04 135.51 54.15 174.63"/><polygon class="cls-4" points="54.04 135.51 18.8 115.03 52.85 95.37 88.09 115.85 54.04 135.51"/></g><g class="cls-1"><polygon class="cls-2" points="224.09 259.85 224.2 298.97 190.15 318.63 190.03 279.51 224.09 259.85"/><polygon class="cls-3" points="190.15 318.63 154.91 298.16 154.8 259.03 190.03 279.51 190.15 318.63"/><polygon class="cls-4" points="190.03 279.51 154.8 259.03 188.85 239.37 224.09 259.85 190.03 279.51"/></g><g class="cls-1"><polygon class="cls-2" points="75.09 269.85 75.2 308.97 41.15 328.63 41.04 289.51 75.09 269.85"/><polygon class="cls-3" points="41.15 328.63 5.91 308.15 5.8 269.03 41.04 289.51 41.15 328.63"/><polygon class="cls-4" points="41.04 289.51 5.8 269.03 39.85 249.37 75.09 269.85 41.04 289.51"/></g><g class="cls-1"><polygon class="cls-2" points="200.09 134.85 200.2 173.97 166.15 193.63 166.04 154.51 200.09 134.85"/><polygon class="cls-3" points="166.15 193.63 130.91 173.15 130.8 134.03 166.04 154.51 166.15 193.63"/><polygon class="cls-4" points="166.04 154.51 130.8 134.03 164.85 114.37 200.09 134.85 166.04 154.51"/></g><g class="cls-1"><polygon class="cls-2" points="140.79 61.42 140.85 80.99 123.82 90.82 123.77 71.25 140.79 61.42"/><polygon class="cls-3" points="123.82 90.82 106.2 80.58 106.15 61.02 123.77 71.25 123.82 90.82"/><polygon class="cls-4" points="123.77 71.25 106.15 61.02 123.17 51.18 140.79 61.42 123.77 71.25"/></g><g class="cls-1"><polygon class="cls-2" points="134.79 335.42 134.85 354.99 117.83 364.81 117.77 345.25 134.79 335.42"/><polygon class="cls-3" points="117.83 364.81 100.21 354.58 100.15 335.01 117.77 345.25 117.83 364.81"/><polygon class="cls-4" points="117.77 345.25 100.15 335.01 117.17 325.18 134.79 335.42 117.77 345.25"/></g><line class="cls-5" x1="40.5" y1="151" x2="40.5" y2="271"/><line class="cls-5" x1="70.5" y1="146" x2="103.5" y2="214"/><line class="cls-6" x1="147.5" y1="163" x2="108.5" y2="211"/><g class="cls-1"><polygon class="cls-2" points="138.09 205.85 138.2 244.97 104.15 264.63 104.04 225.51 138.09 205.85"/><polygon class="cls-3" points="104.15 264.63 68.91 244.15 68.8 205.03 104.04 225.51 104.15 264.63"/><polygon class="cls-4" points="104.04 225.51 68.8 205.03 102.85 185.37 138.09 205.85 104.04 225.51"/></g><line class="cls-7" x1="123.5" y1="235" x2="160.5" y2="255"/><line class="cls-7" x1="180.5" y1="165" x2="189.5" y2="240"/><line class="cls-7" x1="113.5" y1="77" x2="77.5" y2="111"/><line class="cls-6" x1="129.5" y1="77" x2="147.5" y2="123"/><line class="cls-7" x1="169.5" y1="306" x2="129.5" y2="333"/><line class="cls-7" x1="53.5" y1="303" x2="99.5" y2="336"/><path class="cls-7" d="M192.7,342.58a13.88,13.88,0,1,0-5.95,20.71l9.28,13.3,4.35-3-9.24-13.23A13.87,13.87,0,0,0,192.7,342.58Zm-6.19,15.67a9.48,9.48,0,1,1,2.35-13.2A9.48,9.48,0,0,1,186.51,358.25Z"/><rect class="cls-6" x="3.5" y="16" width="13.5" height="43.07"/><rect class="cls-6" x="19" y="37.86" width="13.5" height="21.21"/><rect class="cls-6" x="35" y="48.79" width="13.5" height="10.29"/><line class="cls-7" x1="3.5" y1="65" x2="48.5" y2="65"/><line class="cls-8" x1="3.5" y1="68" x2="48.5" y2="68"/><line class="cls-8" x1="21.83" y1="68" x2="53" y2="114.5"/><rect class="cls-9" x="192.5" y="129" width="12" height="12"/><rect class="cls-9" x="81.5" y="111" width="12" height="12"/><rect class="cls-10" x="0.5" y="264.5" width="10.5" height="10.5"/><path class="cls-6" d="M191.5,31V42h0a16.4,16.4,0,0,0-16-13H167a14.5,14.5,0,0,1-14.5-14.5h0A14.5,14.5,0,0,1,167,0h27a14.5,14.5,0,0,1,14.5,14.5h0C208.5,22.51,205.5,31,191.5,31Z"/><circle class="cls-11" cx="165.5" cy="15" r="4"/><circle class="cls-11" cx="179.5" cy="15" r="4"/><circle class="cls-11" cx="192.5" cy="15" r="4"/><path class="cls-7" d="M236.21,99.71V106h0a9.37,9.37,0,0,1,9.15-7.43h4.85a8.29,8.29,0,0,0,8.29-8.28h0A8.29,8.29,0,0,0,250.21,82H234.79a8.29,8.29,0,0,0-8.29,8.29h0C226.5,94.86,228.21,99.71,236.21,99.71Z"/><circle class="cls-11" cx="250.07" cy="90.57" r="2.29"/><circle class="cls-11" cx="242.07" cy="90.57" r="2.29"/><circle class="cls-11" cx="234.64" cy="90.57" r="2.29"/><rect class="cls-12" x="141.5" y="130" width="48" height="48"/><g class="cls-13"><path class="cls-14" d="M36.5,347.09v21.18a.87.87,0,0,1-.87.87H16.3a.87.87,0,0,1-.87-.87v-27.4a.87.87,0,0,1,.87-.87H29.41a.87.87,0,0,1,.62.25l6.22,6.22A.87.87,0,0,1,36.5,347.09Z"/><polygon class="cls-15" points="29.77 346.73 36.5 346.73 29.77 340 29.77 346.73"/></g><g class="cls-13"><path class="cls-7" d="M32.62,350.67v21.19a.86.86,0,0,1-.87.87H12.42a.87.87,0,0,1-.87-.87v-27.4a.87.87,0,0,1,.87-.87H25.54a.86.86,0,0,1,.61.25l6.22,6.22A.86.86,0,0,1,32.62,350.67Z"/><polygon class="cls-15" points="25.9 350.31 32.63 350.31 25.9 343.59 25.9 350.31"/></g><g class="cls-16"><path class="cls-7" d="M28.79,355v21.19a.87.87,0,0,1-.87.87H8.59a.87.87,0,0,1-.87-.87v-27.4a.87.87,0,0,1,.87-.87H21.71a.86.86,0,0,1,.61.25l6.22,6.22A.86.86,0,0,1,28.79,355Z"/><polygon class="cls-15" points="22.07 354.59 28.79 354.59 22.07 347.87 22.07 354.59"/></g><path class="cls-7" d="M23.57,359.48v21.19a.87.87,0,0,1-.87.87H3.37a.87.87,0,0,1-.87-.87V353.26a.87.87,0,0,1,.87-.87H16.49a.87.87,0,0,1,.61.26l6.22,6.21A.9.9,0,0,1,23.57,359.48Z"/><polygon class="cls-15" points="16.85 359.12 23.57 359.12 16.85 352.39 16.85 359.12"/></g></g></g></svg>
