<svg xmlns="http://www.w3.org/2000/svg" viewBox="0 0 303.53 595.5"><defs><style>.cls-1{isolation:isolate;}.cls-2{opacity:0.8;}.cls-3{fill:#1b9368;}.cls-4{fill:#1ea374;}.cls-5{fill:#136648;}.cls-6{fill:#1ea474;}.cls-7{fill:#fff;opacity:0.08;}.cls-8{fill:#2495bc;mix-blend-mode:screen;}.cls-9{fill:#1a8257;}.cls-10{fill:#1d9161;}.cls-11{fill:#125a3c;}.cls-12{fill:#2a5027;}.cls-13{fill:#1d381b;}.cls-14{fill:#2e592b;}</style></defs><title>Realize</title><g class="cls-1"><g id="Layer_2" data-name="Layer 2"><g id="Layer_3" data-name="Layer 3"><g id="Laag_2" data-name="Laag 2"><g class="cls-2"><g class="cls-1"><polygon class="cls-3" points="177.74 104.92 197.6 93.48 197.64 116.32 177.78 127.76 177.74 104.92"/><polygon class="cls-4" points="177.74 104.92 156.6 92.64 176.46 81.2 197.6 93.48 177.74 104.92"/><polygon class="cls-5" points="177.78 127.76 156.64 115.47 156.6 92.64 177.74 104.92 177.78 127.76"/></g><g class="cls-1"><polygon class="cls-3" points="105.91 144.92 119.31 137.19 119.32 150.14 105.93 157.85 105.91 144.92"/><polygon class="cls-4" points="105.91 144.92 91.81 136.72 105.21 129 119.31 137.19 105.91 144.92"/><polygon class="cls-5" points="105.93 157.85 91.83 149.66 91.81 136.72 105.91 144.92 105.93 157.85"/></g><g class="cls-1"><polygon class="cls-3" points="138.47 194.5 138.53 217.32 118.67 228.79 118.61 205.97 138.47 194.5"/><polygon class="cls-5" points="118.67 228.79 97.53 216.5 97.46 193.68 118.61 205.97 118.67 228.79"/><polygon class="cls-4" points="118.61 205.97 97.46 193.68 117.33 182.21 138.47 194.5 118.61 205.97"/></g><g class="cls-1"><polygon class="cls-3" points="95.74 211.92 115.6 200.49 115.64 223.32 95.78 234.76 95.74 211.92"/><polygon class="cls-4" points="95.74 211.92 74.6 199.64 94.46 188.2 115.6 200.49 95.74 211.92"/><polygon class="cls-5" points="95.78 234.76 74.64 222.47 74.6 199.64 95.74 211.92 95.78 234.76"/></g><g class="cls-1"><polygon class="cls-3" points="140.19 198.33 157.93 188.11 157.97 210.95 140.23 221.17 140.19 198.33"/><polygon class="cls-4" points="140.19 198.33 119.05 186.04 136.78 175.82 157.93 188.11 140.19 198.33"/><polygon class="cls-5" points="140.23 221.17 119.08 208.88 119.05 186.04 140.19 198.33 140.23 221.17"/></g><g class="cls-1"><polygon class="cls-3" points="116.62 223.95 136.48 212.51 136.52 235.35 116.66 246.79 116.62 223.95"/><polygon class="cls-4" points="116.62 223.95 95.48 211.66 115.34 200.22 136.48 212.51 116.62 223.95"/><polygon class="cls-5" points="116.66 246.79 95.52 234.5 95.48 211.66 116.62 223.95 116.66 246.79"/></g><g class="cls-1"><polygon class="cls-3" points="208.47 161.5 208.54 184.32 188.67 195.79 188.61 172.97 208.47 161.5"/><polygon class="cls-5" points="188.67 195.79 167.53 183.5 167.47 160.68 188.61 172.97 188.67 195.79"/><polygon class="cls-4" points="188.61 172.97 167.47 160.68 187.33 149.21 208.47 161.5 188.61 172.97"/></g><g class="cls-1"><polygon class="cls-3" points="137.62 235.94 157.48 224.51 157.52 247.34 137.66 258.78 137.62 235.94"/><polygon class="cls-4" points="137.62 235.94 116.47 223.66 136.34 212.22 157.48 224.51 137.62 235.94"/><polygon class="cls-5" points="137.66 258.78 116.51 246.5 116.47 223.66 137.62 235.94 137.66 258.78"/></g><g class="cls-1"><polygon class="cls-3" points="55.62 210.94 75.48 199.5 75.52 222.34 55.66 233.78 55.62 210.94"/><polygon class="cls-4" points="55.62 210.94 34.48 198.66 54.34 187.22 75.48 199.5 55.62 210.94"/><polygon class="cls-5" points="55.66 233.78 34.52 221.49 34.48 198.66 55.62 210.94 55.66 233.78"/></g><g class="cls-1"><polygon class="cls-3" points="96.47 211.49 96.54 234.32 76.67 245.79 76.61 222.96 96.47 211.49"/><polygon class="cls-5" points="76.67 245.79 55.53 233.51 55.46 210.68 76.61 222.96 76.67 245.79"/><polygon class="cls-4" points="76.61 222.96 55.46 210.68 75.33 199.21 96.47 211.49 76.61 222.96"/></g><g class="cls-1"><polygon class="cls-3" points="97.62 234.94 117.48 223.51 117.52 246.34 97.66 257.78 97.62 234.94"/><polygon class="cls-4" points="97.62 234.94 76.48 222.66 96.34 211.22 117.48 223.51 97.62 234.94"/><polygon class="cls-5" points="97.66 257.78 76.52 245.5 76.48 222.66 97.62 234.94 97.66 257.78"/></g><g class="cls-1"><polygon class="cls-3" points="35.62 221.94 55.48 210.5 55.52 233.34 35.66 244.78 35.62 221.94"/><polygon class="cls-4" points="35.62 221.94 14.48 209.65 34.34 198.21 55.48 210.5 35.62 221.94"/><polygon class="cls-5" points="35.66 244.78 14.52 232.49 14.48 209.65 35.62 221.94 35.66 244.78"/></g><g class="cls-1"><polygon class="cls-3" points="54.62 232.95 74.48 221.51 74.52 244.35 54.66 255.79 54.62 232.95"/><polygon class="cls-4" points="54.62 232.95 33.48 220.66 53.34 209.22 74.48 221.51 54.62 232.95"/><polygon class="cls-5" points="54.66 255.79 33.52 243.5 33.48 220.66 54.62 232.95 54.66 255.79"/></g><g class="cls-1"><polygon class="cls-3" points="69.62 240.94 89.49 229.5 89.53 252.35 69.66 263.79 69.62 240.94"/><polygon class="cls-4" points="69.62 240.94 48.48 228.65 68.34 217.21 89.49 229.5 69.62 240.94"/><polygon class="cls-5" points="69.66 263.79 48.52 251.5 48.48 228.65 69.62 240.94 69.66 263.79"/></g><g class="cls-1"><polygon class="cls-3" points="138.47 235.5 138.53 258.32 118.67 269.79 118.61 246.96 138.47 235.5"/><polygon class="cls-5" points="118.67 269.79 97.53 257.5 97.46 234.68 118.61 246.96 118.67 269.79"/><polygon class="cls-4" points="118.61 246.96 97.46 234.68 117.33 223.21 138.47 235.5 118.61 246.96"/></g></g><g class="cls-1"><polygon class="cls-6" points="168.56 239.62 98.79 280.17 28.55 239.62 98.33 199.08 168.56 239.62"/><polygon class="cls-3" points="168.56 239.62 168.44 280.38 98.67 320.93 98.79 280.17 168.56 239.62"/><polygon class="cls-5" points="98.79 280.17 98.67 320.93 28.44 280.38 28.55 239.62 98.79 280.17"/></g><g class="cls-1"><polygon class="cls-6" points="147.56 315.62 77.79 356.17 7.56 315.62 77.33 275.07 147.56 315.62"/><polygon class="cls-3" points="147.56 315.62 147.45 356.38 77.67 396.93 77.79 356.17 147.56 315.62"/><polygon class="cls-5" points="77.79 356.17 77.67 396.93 7.44 356.38 7.56 315.62 77.79 356.17"/></g><g class="cls-1"><polygon class="cls-6" points="243.56 296.62 173.78 337.17 103.55 296.62 173.33 256.07 243.56 296.62"/><polygon class="cls-3" points="243.56 296.62 243.44 337.38 173.67 377.93 173.78 337.17 243.56 296.62"/><polygon class="cls-5" points="173.78 337.17 173.67 377.93 103.44 337.38 103.55 296.62 173.78 337.17"/></g><g class="cls-1"><polygon class="cls-6" points="234.56 299.62 164.78 340.17 94.55 299.62 164.33 259.07 234.56 299.62"/><polygon class="cls-3" points="234.56 299.62 234.44 340.38 164.67 380.92 164.78 340.17 234.56 299.62"/><polygon class="cls-5" points="164.78 340.17 164.67 380.92 94.44 340.38 94.55 299.62 164.78 340.17"/></g><g class="cls-1"><polygon class="cls-6" points="212.56 387.62 142.79 428.17 72.56 387.62 142.33 347.07 212.56 387.62"/><polygon class="cls-3" points="212.56 387.62 212.45 428.38 142.67 468.93 142.79 428.17 212.56 387.62"/><polygon class="cls-5" points="142.79 428.17 142.67 468.93 72.44 428.38 72.56 387.62 142.79 428.17"/></g><g class="cls-1"><polygon class="cls-6" points="256.56 377.62 186.79 418.17 116.56 377.62 186.33 337.07 256.56 377.62"/><polygon class="cls-3" points="256.56 377.62 256.45 418.38 186.67 458.93 186.79 418.17 256.56 377.62"/><polygon class="cls-5" points="186.79 418.17 186.67 458.93 116.44 418.38 116.56 377.62 186.79 418.17"/></g><g class="cls-1"><polygon class="cls-6" points="201.56 411.62 131.79 452.17 61.56 411.62 131.33 371.07 201.56 411.62"/><polygon class="cls-3" points="201.56 411.62 201.45 452.38 131.67 492.93 131.79 452.17 201.56 411.62"/><polygon class="cls-5" points="131.79 452.17 131.67 492.93 61.44 452.38 61.56 411.62 131.79 452.17"/></g><g class="cls-1"><polygon class="cls-6" points="156.56 357.62 86.79 398.17 16.56 357.62 86.33 317.07 156.56 357.62"/><polygon class="cls-3" points="156.56 357.62 156.45 398.38 86.67 438.93 86.79 398.17 156.56 357.62"/><polygon class="cls-5" points="86.79 398.17 86.67 438.93 16.44 398.38 16.56 357.62 86.79 398.17"/></g><g class="cls-1"><polygon class="cls-3" points="74.62 244.94 94.48 233.51 94.52 256.34 74.66 267.78 74.62 244.94"/><polygon class="cls-4" points="74.62 244.94 53.47 232.66 73.34 221.22 94.48 233.51 74.62 244.94"/><polygon class="cls-5" points="74.66 267.78 53.51 255.5 53.47 232.66 74.62 244.94 74.66 267.78"/></g><g class="cls-1"><polygon class="cls-3" points="28.62 274.94 48.48 263.5 48.52 286.34 28.66 297.78 28.62 274.94"/><polygon class="cls-4" points="28.62 274.94 7.47 262.65 27.34 251.22 48.48 263.5 28.62 274.94"/><polygon class="cls-5" points="28.66 297.78 7.51 285.49 7.47 262.65 28.62 274.94 28.66 297.78"/></g><g class="cls-1"><polygon class="cls-3" points="97.62 279.94 117.48 268.51 117.52 291.35 97.66 302.78 97.62 279.94"/><polygon class="cls-4" points="97.62 279.94 76.48 267.66 96.34 256.22 117.48 268.51 97.62 279.94"/><polygon class="cls-5" points="97.66 302.78 76.52 290.5 76.48 267.66 97.62 279.94 97.66 302.78"/></g><g class="cls-1"><polygon class="cls-3" points="142.62 286.95 162.49 275.51 162.52 298.35 142.66 309.79 142.62 286.95"/><polygon class="cls-4" points="142.62 286.95 121.48 274.66 141.34 263.22 162.49 275.51 142.62 286.95"/><polygon class="cls-5" points="142.66 309.79 121.52 297.5 121.48 274.66 142.62 286.95 142.66 309.79"/></g><g class="cls-1"><polygon class="cls-3" points="134.62 279.94 154.48 268.51 154.52 291.35 134.66 302.78 134.62 279.94"/><polygon class="cls-4" points="134.62 279.94 113.48 267.66 133.34 256.22 154.48 268.51 134.62 279.94"/><polygon class="cls-5" points="134.66 302.78 113.52 290.5 113.48 267.66 134.62 279.94 134.66 302.78"/></g><g class="cls-1"><polygon class="cls-3" points="54.62 281.94 74.48 270.5 74.52 293.34 54.66 304.78 54.62 281.94"/><polygon class="cls-4" points="54.62 281.94 33.48 269.66 53.34 258.22 74.48 270.5 54.62 281.94"/><polygon class="cls-5" points="54.66 304.78 33.52 292.49 33.48 269.66 54.62 281.94 54.66 304.78"/></g><g class="cls-1"><polygon class="cls-3" points="250.62 81.94 270.49 70.51 270.52 93.34 250.66 104.78 250.62 81.94"/><polygon class="cls-4" points="250.62 81.94 229.48 69.66 249.34 58.22 270.49 70.51 250.62 81.94"/><polygon class="cls-5" points="250.66 104.78 229.52 92.5 229.48 69.66 250.62 81.94 250.66 104.78"/></g><g class="cls-1"><polygon class="cls-3" points="283.62 23.94 303.49 12.5 303.53 35.34 283.66 46.78 283.62 23.94"/><polygon class="cls-4" points="283.62 23.94 262.48 11.65 282.34 0.21 303.49 12.5 283.62 23.94"/><polygon class="cls-5" points="283.66 46.78 262.51 34.49 262.48 11.65 283.62 23.94 283.66 46.78"/></g><rect class="cls-7" x="0.5" width="172" height="10"/><rect class="cls-7" y="15.5" width="106" height="10"/><rect class="cls-7" y="31.5" width="106" height="10"/><rect class="cls-7" y="47.5" width="134" height="10"/><rect class="cls-7" y="64.5" width="50" height="10"/><rect class="cls-7" x="0.5" y="87" width="172" height="10"/><rect class="cls-7" y="102.5" width="106" height="10"/><rect class="cls-7" y="118.5" width="106" height="10"/><rect class="cls-7" y="134.5" width="134" height="10"/><rect class="cls-7" y="151.5" width="50" height="10"/><path class="cls-8" d="M109,328.5,48.19,370A11.65,11.65,0,0,0,43,379.73V595.5H66V391.34a10.9,10.9,0,0,1,4.86-9.08L132,342.5Z"/><g class="cls-1"><polygon class="cls-9" points="156.86 346.29 207.88 316.91 207.98 375.57 156.96 404.95 156.86 346.29"/><polygon class="cls-10" points="156.86 346.29 104 315.57 155.02 286.19 207.88 316.91 156.86 346.29"/><polygon class="cls-11" points="156.96 404.95 104.1 374.23 104 315.57 156.86 346.29 156.96 404.95"/></g><g class="cls-1"><polygon class="cls-12" points="201.5 265.18 201.6 301.05 193.08 305.96 192.98 270.1 201.5 265.18"/><polygon class="cls-13" points="193.08 305.96 182.51 299.82 182.41 263.95 192.98 270.1 193.08 305.96"/><polygon class="cls-14" points="192.98 270.1 182.41 263.95 190.92 259.03 201.5 265.18 192.98 270.1"/></g><g class="cls-1"><polygon class="cls-3" points="192.62 260.95 212.49 249.51 212.52 272.35 192.66 283.79 192.62 260.95"/><polygon class="cls-4" points="192.62 260.95 171.47 248.66 191.34 237.22 212.49 249.51 192.62 260.95"/><polygon class="cls-5" points="192.66 283.79 171.51 271.5 171.47 248.66 192.62 260.95 192.66 283.79"/></g></g></g></g></g></svg>
