<svg xmlns="http://www.w3.org/2000/svg" viewBox="0 0 358 355"><defs><style>.cls-1,.cls-2{fill:#fff;}.cls-1{opacity:0.08;}.cls-3,.cls-4{fill:none;stroke-miterlimit:10;}.cls-3{stroke:#fff;}.cls-4{stroke:#1a1a1a;stroke-width:4px;}</style></defs><title>Laag 2 (2)</title><g id="Layer_2" data-name="Layer 2"><g id="Layer_3" data-name="Layer 3"><g id="Laag_2" data-name="Laag 2"><rect class="cls-1" x="99.49" y="15.5" width="168.51" height="3.74"/><rect class="cls-1" x="99" y="21.3" width="103.85" height="3.74"/><rect class="cls-1" x="99" y="27.28" width="103.85" height="3.74"/><rect class="cls-1" x="99" y="33.26" width="131.28" height="3.74"/><rect class="cls-1" x="189.49" y="153.5" width="168.51" height="3.74"/><rect class="cls-1" x="189" y="159.3" width="103.85" height="3.74"/><rect class="cls-1" x="189" y="165.28" width="103.85" height="3.74"/><rect class="cls-1" x="189" y="171.26" width="131.28" height="3.74"/><rect class="cls-1" x="174.18" y="342" width="62.7" height="1.39"/><rect class="cls-1" x="174" y="344.16" width="38.64" height="1.39"/><rect class="cls-1" x="174" y="346.38" width="38.64" height="1.39"/><rect class="cls-1" x="174" y="348.61" width="48.85" height="1.39"/><rect class="cls-1" x="59.33" y="254.87" width="114.67" height="1.57"/><rect class="cls-1" x="59" y="257.3" width="70.67" height="1.57"/><rect class="cls-1" x="59" y="259.82" width="70.67" height="1.57"/><rect class="cls-1" x="59" y="262.34" width="89.33" height="1.57"/><circle class="cls-2" cx="49.5" cy="29.5" r="29.5"/><circle class="cls-2" cx="158" cy="164" r="17"/><circle class="cls-2" cx="22.5" cy="259.5" r="22.5"/><circle class="cls-2" cx="152.5" cy="343.5" r="11.5"/><polyline class="cls-3" points="141 343 22.5 259.5 158 164 45 31"/><polyline class="cls-4" points="35 26 46.5 37.5 64 20"/><polyline class="cls-4" points="150 164.26 156.24 170.5 165.74 161"/><polyline class="cls-4" points="146 342.54 151.34 345.76 159.46 340.87"/><polyline class="cls-4" points="15 258.26 21.24 264.5 30.74 255"/></g></g></g></svg>