<svg xmlns="http://www.w3.org/2000/svg" viewBox="0 0 84.36 66.82"><defs><style>.cls-1{fill:#1a1a1a;}.cls-2{fill:#23be87;}.cls-3{fill:#fff;}</style></defs><title>Icon-Bytecode_dark</title><g id="Icons"><g id="Laag_1_kopie_2-2" data-name="Laag 1 kopie 2"><path class="cls-1" d="M39.14,62.87,49.93,5.37H67.68a28.32,28.32,0,0,1,7.79.93A13.69,13.69,0,0,1,80.64,9a9.44,9.44,0,0,1,2.79,4.13,13.7,13.7,0,0,1,.62,5.41,18.33,18.33,0,0,1-1,4.71,14.88,14.88,0,0,1-2.26,4.16,16.35,16.35,0,0,1-3.64,3.42,20,20,0,0,1-5.1,2.5,12.07,12.07,0,0,1,6.72,4,10,10,0,0,1,1.8,7,19.74,19.74,0,0,1-1.92,7.37,18.39,18.39,0,0,1-4.5,5.89,20.86,20.86,0,0,1-6.79,3.9,26,26,0,0,1-8.8,1.41ZM53.78,37.54l-3.22,17.3h9.36a12.92,12.92,0,0,0,4.64-.76A9.08,9.08,0,0,0,67.87,52a9.29,9.29,0,0,0,2.06-3.3,14.71,14.71,0,0,0,.89-4.23,6.29,6.29,0,0,0-1.57-5c-1.19-1.25-3.23-1.87-6.14-1.87Zm1.34-7.12h7.34q5.12,0,8.07-2.51c2-1.67,3.06-4.22,3.3-7.67.17-2.41-.37-4.17-1.6-5.27s-3.25-1.65-6-1.65H58.33Z"/><path class="cls-2" d="M10.68,13.17a12.83,12.83,0,0,1-1,3,8.46,8.46,0,0,1-1.45,2.13,5.27,5.27,0,0,1-1.78,1.24,4.87,4.87,0,0,1-2,.41,3.8,3.8,0,0,1-1.81-.41,2.91,2.91,0,0,1-1.24-1.24A5.31,5.31,0,0,1,.88,16.2a11.31,11.31,0,0,1,.27-3,12.53,12.53,0,0,1,1-3A8.17,8.17,0,0,1,3.57,8,5.2,5.2,0,0,1,5.33,6.77a4.87,4.87,0,0,1,2-.41,3.8,3.8,0,0,1,1.81.41A3,3,0,0,1,10.37,8a5.31,5.31,0,0,1,.57,2.13A10.93,10.93,0,0,1,10.68,13.17Zm-2.54,0a12.49,12.49,0,0,0,.29-2.34,4.31,4.31,0,0,0-.2-1.45,1.38,1.38,0,0,0-.56-.74,1.5,1.5,0,0,0-.79-.22A1.87,1.87,0,0,0,6,8.64a2.4,2.4,0,0,0-.86.74,6,6,0,0,0-.79,1.45,13,13,0,0,0-.67,2.34,11.74,11.74,0,0,0-.3,2.34A4.39,4.39,0,0,0,3.58,17a1.42,1.42,0,0,0,.55.74,1.44,1.44,0,0,0,.78.22,1.94,1.94,0,0,0,.88-.22A2.43,2.43,0,0,0,6.66,17a6.19,6.19,0,0,0,.8-1.45A13.14,13.14,0,0,0,8.14,13.17Z"/><path class="cls-2" d="M18.34,18,18,19.84H10.71L11.09,18h2.57l1.51-7.3c0-.15.07-.32.11-.48s.08-.34.13-.51l-2,1.45a1,1,0,0,1-.38.18.86.86,0,0,1-.32,0,.56.56,0,0,1-.39-.27L11.77,10l4.69-3.48h2L16.11,18Z"/><path class="cls-2" d="M29.29,13.17a12.83,12.83,0,0,1-1,3,8.44,8.44,0,0,1-1.44,2.13,5.47,5.47,0,0,1-1.78,1.24,4.88,4.88,0,0,1-2,.41,3.73,3.73,0,0,1-1.8-.41,2.93,2.93,0,0,1-1.25-1.24,5.32,5.32,0,0,1-.55-2.13,11.26,11.26,0,0,1,.26-3,12.53,12.53,0,0,1,1-3A8.42,8.42,0,0,1,22.18,8,5.33,5.33,0,0,1,24,6.77a4.8,4.8,0,0,1,2-.41,3.83,3.83,0,0,1,1.81.41A3.07,3.07,0,0,1,29,8a5.16,5.16,0,0,1,.56,2.13A10.93,10.93,0,0,1,29.29,13.17Zm-2.53,0a12.49,12.49,0,0,0,.29-2.34,4,4,0,0,0-.21-1.45,1.33,1.33,0,0,0-.56-.74,1.45,1.45,0,0,0-.79-.22,1.93,1.93,0,0,0-.87.22,2.38,2.38,0,0,0-.85.74,6,6,0,0,0-.8,1.45,13.84,13.84,0,0,0-.67,2.34A12.4,12.4,0,0,0,22,15.51,4.14,4.14,0,0,0,22.2,17a1.32,1.32,0,0,0,.55.74,1.39,1.39,0,0,0,.78.22,2,2,0,0,0,.88-.22,2.43,2.43,0,0,0,.87-.74,6.19,6.19,0,0,0,.8-1.45A14,14,0,0,0,26.76,13.17Z"/><path class="cls-2" d="M40.47,13.17a12.83,12.83,0,0,1-1,3A8.21,8.21,0,0,1,38,18.33a5.33,5.33,0,0,1-1.77,1.24,4.91,4.91,0,0,1-2,.41,3.73,3.73,0,0,1-1.8-.41,2.88,2.88,0,0,1-1.25-1.24,5.31,5.31,0,0,1-.56-2.13,11.31,11.31,0,0,1,.27-3,12.53,12.53,0,0,1,1-3A8.17,8.17,0,0,1,33.36,8a5.29,5.29,0,0,1,1.76-1.24,4.87,4.87,0,0,1,2-.41,3.8,3.8,0,0,1,1.81.41A3,3,0,0,1,40.16,8a5.31,5.31,0,0,1,.57,2.13A10.93,10.93,0,0,1,40.47,13.17Zm-2.54,0a11.7,11.7,0,0,0,.29-2.34A4.31,4.31,0,0,0,38,9.38a1.33,1.33,0,0,0-.56-.74,1.47,1.47,0,0,0-.79-.22,1.87,1.87,0,0,0-.87.22,2.49,2.49,0,0,0-.86.74,6,6,0,0,0-.79,1.45,13,13,0,0,0-.67,2.34,11.74,11.74,0,0,0-.3,2.34,4.35,4.35,0,0,0,.2,1.45,1.32,1.32,0,0,0,.55.74,1.39,1.39,0,0,0,.78.22,1.93,1.93,0,0,0,.87-.22,2.43,2.43,0,0,0,.87-.74,6.57,6.57,0,0,0,.81-1.45A13.21,13.21,0,0,0,37.93,13.17Z"/><path class="cls-2" d="M15.84,29.76a12.83,12.83,0,0,1-1,3,8.29,8.29,0,0,1-1.45,2.13,5.45,5.45,0,0,1-1.78,1.25,5,5,0,0,1-2,.41,3.92,3.92,0,0,1-1.81-.41A3,3,0,0,1,6.6,34.92,5.27,5.27,0,0,1,6,32.79a11.31,11.31,0,0,1,.27-3,12.53,12.53,0,0,1,1-3,7.94,7.94,0,0,1,1.43-2.12,5.23,5.23,0,0,1,1.76-1.25,4.87,4.87,0,0,1,2-.41,3.8,3.8,0,0,1,1.81.41,3,3,0,0,1,1.26,1.25,5.22,5.22,0,0,1,.57,2.12A10.93,10.93,0,0,1,15.84,29.76Zm-2.54,0a11.62,11.62,0,0,0,.29-2.34,4.35,4.35,0,0,0-.2-1.45,1.42,1.42,0,0,0-.56-.74A1.58,1.58,0,0,0,12,25a2,2,0,0,0-.87.21,2.51,2.51,0,0,0-.86.74,6.2,6.2,0,0,0-.79,1.45,13.21,13.21,0,0,0-.67,2.34,11.83,11.83,0,0,0-.3,2.34,4.35,4.35,0,0,0,.19,1.45,1.45,1.45,0,0,0,.55.75,1.52,1.52,0,0,0,.78.21A2.06,2.06,0,0,0,11,34.3a2.46,2.46,0,0,0,.87-.75,6,6,0,0,0,.8-1.45A12.89,12.89,0,0,0,13.3,29.76Z"/><path class="cls-2" d="M27,29.76a12.82,12.82,0,0,1-1,3,8.27,8.27,0,0,1-1.44,2.13,5.66,5.66,0,0,1-1.78,1.25,5.05,5.05,0,0,1-2,.41,3.91,3.91,0,0,1-1.8-.41,3.07,3.07,0,0,1-1.25-1.25,5.27,5.27,0,0,1-.55-2.13,11.31,11.31,0,0,1,.27-3,13,13,0,0,1,1-3,8.44,8.44,0,0,1,1.43-2.12,5.36,5.36,0,0,1,1.77-1.25,4.83,4.83,0,0,1,2-.41,3.8,3.8,0,0,1,1.81.41,3,3,0,0,1,1.26,1.25,5.22,5.22,0,0,1,.57,2.12A11.32,11.32,0,0,1,27,29.76Zm-2.54,0a12.4,12.4,0,0,0,.29-2.34A4.08,4.08,0,0,0,24.56,26a1.37,1.37,0,0,0-.56-.74,1.53,1.53,0,0,0-.79-.21,2,2,0,0,0-.86.21,2.51,2.51,0,0,0-.86.74,6.58,6.58,0,0,0-.8,1.45A14.12,14.12,0,0,0,20,29.76a12.49,12.49,0,0,0-.29,2.34,4.35,4.35,0,0,0,.19,1.45,1.4,1.4,0,0,0,.55.75,1.52,1.52,0,0,0,.78.21,2.06,2.06,0,0,0,.88-.21,2.46,2.46,0,0,0,.87-.75,6,6,0,0,0,.8-1.45A12.89,12.89,0,0,0,24.48,29.76Z"/><path class="cls-2" d="M35.61,34.56l-.38,1.87H28l.39-1.87h2.56l1.51-7.29c0-.16.07-.32.11-.49s.08-.33.13-.51l-2,1.46a1.08,1.08,0,0,1-.39.17.7.7,0,0,1-.32,0,.67.67,0,0,1-.24-.11.57.57,0,0,1-.15-.17L29,26.56l4.69-3.47h2L33.38,34.56Z"/><path class="cls-2" d="M34,46.35a12.83,12.83,0,0,1-1,3,8.27,8.27,0,0,1-1.44,2.13,5.5,5.5,0,0,1-1.78,1.25,5.05,5.05,0,0,1-2,.41,3.88,3.88,0,0,1-1.8-.41,3,3,0,0,1-1.25-1.25,5.27,5.27,0,0,1-.55-2.13,11.26,11.26,0,0,1,.26-3,12.83,12.83,0,0,1,1-3,8.63,8.63,0,0,1,1.43-2.12A5.36,5.36,0,0,1,28.7,40a5,5,0,0,1,2-.41,4,4,0,0,1,1.81.41,3,3,0,0,1,1.26,1.25,5.11,5.11,0,0,1,.56,2.12A10.87,10.87,0,0,1,34,46.35Zm-2.53,0A12.31,12.31,0,0,0,31.8,44a4.1,4.1,0,0,0-.21-1.46,1.37,1.37,0,0,0-.56-.74,1.53,1.53,0,0,0-.79-.21,2.05,2.05,0,0,0-.87.21,2.58,2.58,0,0,0-.85.74,6.08,6.08,0,0,0-.8,1.46,14,14,0,0,0-.67,2.33,12.49,12.49,0,0,0-.29,2.34A4.07,4.07,0,0,0,27,50.14a1.35,1.35,0,0,0,.55.75,1.5,1.5,0,0,0,.78.21,2.06,2.06,0,0,0,.88-.21,2.46,2.46,0,0,0,.87-.75,5.8,5.8,0,0,0,.8-1.45A13.75,13.75,0,0,0,31.51,46.35Z"/><path class="cls-3" d="M39.14,62.87,49.93,5.37H67.68a28.32,28.32,0,0,1,7.79.93A13.69,13.69,0,0,1,80.64,9a9.44,9.44,0,0,1,2.79,4.13,13.7,13.7,0,0,1,.62,5.41,18.33,18.33,0,0,1-1,4.71,14.88,14.88,0,0,1-2.26,4.16,16.35,16.35,0,0,1-3.64,3.42,20,20,0,0,1-5.1,2.5,12.07,12.07,0,0,1,6.72,4,10,10,0,0,1,1.8,7,19.74,19.74,0,0,1-1.92,7.37,18.39,18.39,0,0,1-4.5,5.89,20.86,20.86,0,0,1-6.79,3.9,26,26,0,0,1-8.8,1.41ZM53.78,37.54l-3.22,17.3h9.36a12.92,12.92,0,0,0,4.64-.76A9.08,9.08,0,0,0,67.87,52a9.29,9.29,0,0,0,2.06-3.3,14.71,14.71,0,0,0,.89-4.23,6.29,6.29,0,0,0-1.57-5c-1.19-1.25-3.23-1.87-6.14-1.87Zm1.34-7.12h7.34q5.12,0,8.07-2.51c2-1.67,3.06-4.22,3.3-7.67.17-2.41-.37-4.17-1.6-5.27s-3.25-1.65-6-1.65H58.33Z"/><path class="cls-2" d="M10.68,13.17a12.83,12.83,0,0,1-1,3,8.46,8.46,0,0,1-1.45,2.13,5.27,5.27,0,0,1-1.78,1.24,4.87,4.87,0,0,1-2,.41,3.8,3.8,0,0,1-1.81-.41,2.91,2.91,0,0,1-1.24-1.24A5.31,5.31,0,0,1,.88,16.2a11.31,11.31,0,0,1,.27-3,12.53,12.53,0,0,1,1-3A8.17,8.17,0,0,1,3.57,8,5.2,5.2,0,0,1,5.33,6.77a4.87,4.87,0,0,1,2-.41,3.8,3.8,0,0,1,1.81.41A3,3,0,0,1,10.37,8a5.31,5.31,0,0,1,.57,2.13A10.93,10.93,0,0,1,10.68,13.17Zm-2.54,0a12.49,12.49,0,0,0,.29-2.34,4.31,4.31,0,0,0-.2-1.45,1.38,1.38,0,0,0-.56-.74,1.5,1.5,0,0,0-.79-.22A1.87,1.87,0,0,0,6,8.64a2.4,2.4,0,0,0-.86.74,6,6,0,0,0-.79,1.45,13,13,0,0,0-.67,2.34,11.74,11.74,0,0,0-.3,2.34A4.39,4.39,0,0,0,3.58,17a1.42,1.42,0,0,0,.55.74,1.44,1.44,0,0,0,.78.22,1.94,1.94,0,0,0,.88-.22A2.43,2.43,0,0,0,6.66,17a6.19,6.19,0,0,0,.8-1.45A13.14,13.14,0,0,0,8.14,13.17Z"/><path class="cls-2" d="M18.34,18,18,19.84H10.71L11.09,18h2.57l1.51-7.3c0-.15.07-.32.11-.48s.08-.34.13-.51l-2,1.45a1,1,0,0,1-.38.18.86.86,0,0,1-.32,0,.56.56,0,0,1-.39-.27L11.77,10l4.69-3.48h2L16.11,18Z"/><path class="cls-2" d="M29.29,13.17a12.83,12.83,0,0,1-1,3,8.44,8.44,0,0,1-1.44,2.13,5.47,5.47,0,0,1-1.78,1.24,4.88,4.88,0,0,1-2,.41,3.73,3.73,0,0,1-1.8-.41,2.93,2.93,0,0,1-1.25-1.24,5.32,5.32,0,0,1-.55-2.13,11.26,11.26,0,0,1,.26-3,12.53,12.53,0,0,1,1-3A8.42,8.42,0,0,1,22.18,8,5.33,5.33,0,0,1,24,6.77a4.8,4.8,0,0,1,2-.41,3.83,3.83,0,0,1,1.81.41A3.07,3.07,0,0,1,29,8a5.16,5.16,0,0,1,.56,2.13A10.93,10.93,0,0,1,29.29,13.17Zm-2.53,0a12.49,12.49,0,0,0,.29-2.34,4,4,0,0,0-.21-1.45,1.33,1.33,0,0,0-.56-.74,1.45,1.45,0,0,0-.79-.22,1.93,1.93,0,0,0-.87.22,2.38,2.38,0,0,0-.85.74,6,6,0,0,0-.8,1.45,13.84,13.84,0,0,0-.67,2.34A12.4,12.4,0,0,0,22,15.51,4.14,4.14,0,0,0,22.2,17a1.32,1.32,0,0,0,.55.74,1.39,1.39,0,0,0,.78.22,2,2,0,0,0,.88-.22,2.43,2.43,0,0,0,.87-.74,6.19,6.19,0,0,0,.8-1.45A14,14,0,0,0,26.76,13.17Z"/><path class="cls-2" d="M40.47,13.17a12.83,12.83,0,0,1-1,3A8.21,8.21,0,0,1,38,18.33a5.33,5.33,0,0,1-1.77,1.24,4.91,4.91,0,0,1-2,.41,3.73,3.73,0,0,1-1.8-.41,2.88,2.88,0,0,1-1.25-1.24,5.31,5.31,0,0,1-.56-2.13,11.31,11.31,0,0,1,.27-3,12.53,12.53,0,0,1,1-3A8.17,8.17,0,0,1,33.36,8a5.29,5.29,0,0,1,1.76-1.24,4.87,4.87,0,0,1,2-.41,3.8,3.8,0,0,1,1.81.41A3,3,0,0,1,40.16,8a5.31,5.31,0,0,1,.57,2.13A10.93,10.93,0,0,1,40.47,13.17Zm-2.54,0a11.7,11.7,0,0,0,.29-2.34A4.31,4.31,0,0,0,38,9.38a1.33,1.33,0,0,0-.56-.74,1.47,1.47,0,0,0-.79-.22,1.87,1.87,0,0,0-.87.22,2.49,2.49,0,0,0-.86.74,6,6,0,0,0-.79,1.45,13,13,0,0,0-.67,2.34,11.74,11.74,0,0,0-.3,2.34,4.35,4.35,0,0,0,.2,1.45,1.32,1.32,0,0,0,.55.74,1.39,1.39,0,0,0,.78.22,1.93,1.93,0,0,0,.87-.22,2.43,2.43,0,0,0,.87-.74,6.57,6.57,0,0,0,.81-1.45A13.21,13.21,0,0,0,37.93,13.17Z"/><path class="cls-2" d="M15.84,29.76a12.83,12.83,0,0,1-1,3,8.29,8.29,0,0,1-1.45,2.13,5.45,5.45,0,0,1-1.78,1.25,5,5,0,0,1-2,.41,3.92,3.92,0,0,1-1.81-.41A3,3,0,0,1,6.6,34.92,5.27,5.27,0,0,1,6,32.79a11.31,11.31,0,0,1,.27-3,12.53,12.53,0,0,1,1-3,7.94,7.94,0,0,1,1.43-2.12,5.23,5.23,0,0,1,1.76-1.25,4.87,4.87,0,0,1,2-.41,3.8,3.8,0,0,1,1.81.41,3,3,0,0,1,1.26,1.25,5.22,5.22,0,0,1,.57,2.12A10.93,10.93,0,0,1,15.84,29.76Zm-2.54,0a11.62,11.62,0,0,0,.29-2.34,4.35,4.35,0,0,0-.2-1.45,1.42,1.42,0,0,0-.56-.74A1.58,1.58,0,0,0,12,25a2,2,0,0,0-.87.21,2.51,2.51,0,0,0-.86.74,6.2,6.2,0,0,0-.79,1.45,13.21,13.21,0,0,0-.67,2.34,11.83,11.83,0,0,0-.3,2.34,4.35,4.35,0,0,0,.19,1.45,1.45,1.45,0,0,0,.55.75,1.52,1.52,0,0,0,.78.21A2.06,2.06,0,0,0,11,34.3a2.46,2.46,0,0,0,.87-.75,6,6,0,0,0,.8-1.45A12.89,12.89,0,0,0,13.3,29.76Z"/><path class="cls-2" d="M27,29.76a12.82,12.82,0,0,1-1,3,8.27,8.27,0,0,1-1.44,2.13,5.66,5.66,0,0,1-1.78,1.25,5.05,5.05,0,0,1-2,.41,3.91,3.91,0,0,1-1.8-.41,3.07,3.07,0,0,1-1.25-1.25,5.27,5.27,0,0,1-.55-2.13,11.31,11.31,0,0,1,.27-3,13,13,0,0,1,1-3,8.44,8.44,0,0,1,1.43-2.12,5.36,5.36,0,0,1,1.77-1.25,4.83,4.83,0,0,1,2-.41,3.8,3.8,0,0,1,1.81.41,3,3,0,0,1,1.26,1.25,5.22,5.22,0,0,1,.57,2.12A11.32,11.32,0,0,1,27,29.76Zm-2.54,0a12.4,12.4,0,0,0,.29-2.34A4.08,4.08,0,0,0,24.56,26a1.37,1.37,0,0,0-.56-.74,1.53,1.53,0,0,0-.79-.21,2,2,0,0,0-.86.21,2.51,2.51,0,0,0-.86.74,6.58,6.58,0,0,0-.8,1.45A14.12,14.12,0,0,0,20,29.76a12.49,12.49,0,0,0-.29,2.34,4.35,4.35,0,0,0,.19,1.45,1.4,1.4,0,0,0,.55.75,1.52,1.52,0,0,0,.78.21,2.06,2.06,0,0,0,.88-.21,2.46,2.46,0,0,0,.87-.75,6,6,0,0,0,.8-1.45A12.89,12.89,0,0,0,24.48,29.76Z"/><path class="cls-2" d="M35.61,34.56l-.38,1.87H28l.39-1.87h2.56l1.51-7.29c0-.16.07-.32.11-.49s.08-.33.13-.51l-2,1.46a1.08,1.08,0,0,1-.39.17.7.7,0,0,1-.32,0,.67.67,0,0,1-.24-.11.57.57,0,0,1-.15-.17L29,26.56l4.69-3.47h2L33.38,34.56Z"/><path class="cls-2" d="M34,46.35a12.83,12.83,0,0,1-1,3,8.27,8.27,0,0,1-1.44,2.13,5.5,5.5,0,0,1-1.78,1.25,5.05,5.05,0,0,1-2,.41,3.88,3.88,0,0,1-1.8-.41,3,3,0,0,1-1.25-1.25,5.27,5.27,0,0,1-.55-2.13,11.26,11.26,0,0,1,.26-3,12.83,12.83,0,0,1,1-3,8.63,8.63,0,0,1,1.43-2.12A5.36,5.36,0,0,1,28.7,40a5,5,0,0,1,2-.41,4,4,0,0,1,1.81.41,3,3,0,0,1,1.26,1.25,5.11,5.11,0,0,1,.56,2.12A10.87,10.87,0,0,1,34,46.35Zm-2.53,0A12.31,12.31,0,0,0,31.8,44a4.1,4.1,0,0,0-.21-1.46,1.37,1.37,0,0,0-.56-.74,1.53,1.53,0,0,0-.79-.21,2.05,2.05,0,0,0-.87.21,2.58,2.58,0,0,0-.85.74,6.08,6.08,0,0,0-.8,1.46,14,14,0,0,0-.67,2.33,12.49,12.49,0,0,0-.29,2.34A4.07,4.07,0,0,0,27,50.14a1.35,1.35,0,0,0,.55.75,1.5,1.5,0,0,0,.78.21,2.06,2.06,0,0,0,.88-.21,2.46,2.46,0,0,0,.87-.75,5.8,5.8,0,0,0,.8-1.45A13.75,13.75,0,0,0,31.51,46.35Z"/></g></g></svg>
