<?xml version="1.0" encoding="UTF-8"?>
<svg width="40px" height="25px" viewBox="0 0 40 25" version="1.1" xmlns="http://www.w3.org/2000/svg" xmlns:xlink="http://www.w3.org/1999/xlink">
    <!-- Generator: Sketch 62 (91390) - https://sketch.com -->
    <title>Group 10@3x</title>
    <desc>Created with Sketch.</desc>
    <defs>
        <polygon id="path-1" points="0.0557341701 0.022972973 36.9028139 0.022972973 36.9028139 25 0.0557341701 25"></polygon>
    </defs>
    <g id="Case-Singe" stroke="none" stroke-width="1" fill="none" fill-rule="evenodd">
        <g id="Case-Single-v2-Copy" transform="translate(-815.000000, -1882.000000)">
            <g id="Group-10" transform="translate(815.000000, 1882.000000)">
                <g id="Group-3" transform="translate(3.000000, 0.000000)">
                    <mask id="mask-2" fill="white">
                        <use xlink:href="#path-1"></use>
                    </mask>
                    <g id="Clip-2"></g>
                    <path d="M18.1159578,19.6731982 C14.8757831,21.3040541 11.6552229,22.9916667 8.16763855,24.0324324 C6.19036747,24.6227477 4.20083735,25.3058559 2.07868675,24.8527027 C0.308481928,24.475 -0.297114458,23.381982 0.250753012,21.6193694 C0.509084337,20.7876126 0.937036145,20.0551802 1.49270482,19.3024775 C2.00268072,19.7635135 2.03901205,20.1941441 1.73966867,20.8144144 C0.972698795,22.4040541 1.40087349,23.0603604 3.14477711,22.9954955 C4.98474699,22.927027 6.69187349,22.2781532 8.35999398,21.5664414 C10.1170482,20.8166667 11.905753,20.1123874 13.4581928,18.9486486 C14.6219096,18.5662162 15.6166747,17.8894144 16.5628494,17.1281532 C19.5995241,15.3752252 22.3234819,13.1986486 24.890747,10.815991 C26.2849337,9.52184685 27.6013313,8.14932432 28.5399277,6.46441441 C28.8649036,5.88085586 29.297759,5.2231982 28.9163916,4.57364865 C28.5006988,3.86644144 27.6942771,3.95608108 26.9988554,4.0490991 C22.9899277,4.58558559 19.503012,6.44594595 16.0912108,8.48806306 C15.5005482,8.78873874 14.8653072,9.00900901 14.3617952,9.46734234 C13.5263976,10.0153153 12.6771807,10.5434685 11.8609518,11.1193694 C11.4292108,11.4236486 11.1615181,11.1918919 10.9172289,10.9074324 C10.5806627,10.5150901 11.054753,10.4252252 11.2210301,10.2581081 C11.5023193,9.97522523 11.9414157,9.87702703 12.1391205,9.48513514 C12.8735482,9.18445946 13.529741,8.76351351 14.0854096,8.18873874 C16.6085422,6.78536036 19.0273614,5.19211712 21.6334096,3.94009009 C25.0082108,2.31869369 28.4148855,0.790990991 32.1411867,0.153828829 C32.882747,0.0272522523 33.6196265,-0.00157657658 34.3560602,0.0416666667 C36.4784337,0.166891892 37.3898373,1.58175676 36.6478313,3.59707207 C35.8770723,5.69144144 34.3886024,7.28716216 32.8615723,8.80720721 C29.3632892,12.2891892 25.4254639,15.2063063 21.2148193,17.7502252 C20.216488,18.4472973 19.0454157,18.8614865 18.1159578,19.6731982" id="Fill-1" fill="#FFFFFF" mask="url(#mask-2)"></path>
                </g>
                <path d="M16.5531447,8.50521879 C16.0043358,9.06583087 15.3562438,9.47640454 14.6308828,9.76967144 C12.6901291,9.70464746 10.7566401,9.73386432 8.90416259,10.4126619 C7.3165134,10.9941431 7.1776051,11.8069428 8.47048692,12.9022452 C9.45253116,13.7343763 10.6049637,14.2826866 11.7666421,14.8164982 C14.0902191,15.8841216 16.5833038,16.4392418 19,17.2243623 C18.065506,17.9668657 17.0830215,18.6269909 15.9336709,19 C11.8027451,18.045949 7.70506038,16.9915062 3.89774026,15.0544069 C2.8505346,14.5216936 1.84493539,13.9189038 1.00047862,13.0986352 C-0.546884965,11.5960542 -0.283157326,9.99571761 1.67917003,9.1132808 C3.72382971,8.19371882 5.92677001,8.08541876 8.12332625,8.01907673 C10.9461806,7.93384261 13.754946,8.14099668 16.5531447,8.50521879" id="Fill-4" fill="#FFFFFF"></path>
                <path d="M21,19.2948144 C21.9395502,18.4741142 23.1233384,18.0553385 24.1325099,17.3505473 C25.6553923,17.9690329 27.2794397,17.8629157 28.8651842,17.989983 C31.1836425,18.1753465 33.5160702,18.1753465 35.7649073,17.5051687 C36.6517345,17.2407867 38.0335717,17.1806688 37.5194102,15.517635 C37.4545204,15.3076779 37.7444967,15.14372 37.9443483,15.0421572 C38.2347752,14.8943674 38.3316592,15.1703632 38.463016,15.3279449 C39.3971587,16.4492345 39.0941144,17.8369557 37.6974065,18.6526461 C36.4088484,19.4052582 34.9648251,19.6732838 33.5104374,19.7992125 C29.3218912,20.162197 25.1466383,20.0553967 21,19.2948144" id="Fill-6" fill="#FFFFFF"></path>
                <path d="M19.6194706,8 C21.8533384,8.40280612 24.0571541,8.99887375 26.2353004,9.74309075 C26.5278903,9.84292474 27.0846877,9.6576713 26.9891056,10.4704908 C26.8818365,11.3807419 26.396204,10.8591493 26.1165531,10.7769331 C23.4404614,9.98813782 20.7232568,9.55116392 18,9.16063685 C18.47165,8.6174225 19.0664298,8.35635929 19.6194706,8" id="Fill-8" fill="#FFFFFF"></path>
            </g>
        </g>
    </g>
</svg>