<svg width="124" height="14" viewBox="0 0 124 14" fill="none" xmlns="http://www.w3.org/2000/svg">
<g filter="url(#filter0_d_1082_798)">
<path fill-rule="evenodd" clip-rule="evenodd" d="M121 11C121 5.47715 116.523 1 111 1H11C5.47714 1 0.999992 5.47715 0.999992 11L121 11Z" fill="white"/>
<path d="M121 11L121 11.5L121.5 11.5V11H121ZM0.999992 11H0.499992V11.5L0.999992 11.5L0.999992 11ZM121.5 11C121.5 5.20101 116.799 0.5 111 0.5V1.5C116.247 1.5 120.5 5.75329 120.5 11H121.5ZM111 0.5H11V1.5H111V0.5ZM11 0.5C5.201 0.5 0.499992 5.20101 0.499992 11H1.49999C1.49999 5.75329 5.75328 1.5 11 1.5V0.5ZM121 10.5L0.999992 10.5L0.999992 11.5L121 11.5L121 10.5Z" fill="#1B1B1B"/>
</g>
<defs>
<filter id="filter0_d_1082_798" x="0.5" y="0.5" width="123" height="13" filterUnits="userSpaceOnUse" color-interpolation-filters="sRGB">
<feFlood flood-opacity="0" result="BackgroundImageFix"/>
<feColorMatrix in="SourceAlpha" type="matrix" values="0 0 0 0 0 0 0 0 0 0 0 0 0 0 0 0 0 0 127 0" result="hardAlpha"/>
<feOffset dx="2" dy="2"/>
<feComposite in2="hardAlpha" operator="out"/>
<feColorMatrix type="matrix" values="0 0 0 0 0.145098 0 0 0 0 0.227451 0 0 0 0 0.560784 0 0 0 0.25 0"/>
<feBlend mode="normal" in2="BackgroundImageFix" result="effect1_dropShadow_1082_798"/>
<feBlend mode="normal" in="SourceGraphic" in2="effect1_dropShadow_1082_798" result="shape"/>
</filter>
</defs>
</svg>
