<svg width="124" height="26" viewBox="0 0 124 26" fill="none" xmlns="http://www.w3.org/2000/svg">
<g filter="url(#filter0_d_1082_804)">
<path fill-rule="evenodd" clip-rule="evenodd" d="M121 1V1.28205C121 6.09684 117.097 10 112.282 10H110.744H105.615C105.108 10 104.748 10.4938 104.903 10.9767L107.154 18L108.29 21.5456C108.619 22.5726 107.314 23.3213 106.594 22.5187L96.044 10.7633C95.608 10.2775 94.9861 10 94.3333 10H11C5.81465 10 1.55109 6.05332 1.04937 1H121Z" fill="white"/>
<path d="M121 1H121.5V0.5H121V1ZM104.903 10.9767L105.379 10.8241L105.379 10.8241L104.903 10.9767ZM107.154 18L107.63 17.8474L107.63 17.8474L107.154 18ZM108.29 21.5456L107.814 21.6982L107.814 21.6982L108.29 21.5456ZM106.594 22.5187L106.966 22.1848L106.966 22.1848L106.594 22.5187ZM96.044 10.7633L96.4161 10.4294L96.4161 10.4294L96.044 10.7633ZM1.04937 1V0.5H0.497266L0.551814 1.0494L1.04937 1ZM121.5 1.28205V1H120.5V1.28205H121.5ZM112.282 10.5C117.373 10.5 121.5 6.37298 121.5 1.28205H120.5C120.5 5.8207 116.821 9.5 112.282 9.5V10.5ZM110.744 10.5H112.282V9.5H110.744V10.5ZM105.615 10.5H110.744V9.5H105.615V10.5ZM105.379 10.8241C105.328 10.6638 105.447 10.5 105.615 10.5V9.5C104.769 9.5 104.168 10.3237 104.427 11.1293L105.379 10.8241ZM107.63 17.8474L105.379 10.8241L104.427 11.1293L106.678 18.1526L107.63 17.8474ZM108.766 21.393L107.63 17.8474L106.678 18.1526L107.814 21.6982L108.766 21.393ZM106.222 22.8527C107.302 24.0566 109.26 22.9334 108.766 21.393L107.814 21.6982C107.979 22.2117 107.326 22.5861 106.966 22.1848L106.222 22.8527ZM95.6719 11.0973L106.222 22.8527L106.966 22.1848L96.4161 10.4294L95.6719 11.0973ZM94.3333 10.5C94.8441 10.5 95.3307 10.7172 95.6719 11.0973L96.4161 10.4294C95.8853 9.8379 95.1281 9.5 94.3333 9.5V10.5ZM11 10.5H94.3333V9.5H11V10.5ZM0.551814 1.0494C1.07868 6.35592 5.55508 10.5 11 10.5V9.5C6.07422 9.5 2.02351 5.75072 1.54692 0.9506L0.551814 1.0494ZM1.04937 1.5H121V0.5H1.04937V1.5Z" fill="#1B1B1B"/>
</g>
<defs>
<filter id="filter0_d_1082_804" x="0.497314" y="0.5" width="123.003" height="24.8594" filterUnits="userSpaceOnUse" color-interpolation-filters="sRGB">
<feFlood flood-opacity="0" result="BackgroundImageFix"/>
<feColorMatrix in="SourceAlpha" type="matrix" values="0 0 0 0 0 0 0 0 0 0 0 0 0 0 0 0 0 0 127 0" result="hardAlpha"/>
<feOffset dx="2" dy="2"/>
<feComposite in2="hardAlpha" operator="out"/>
<feColorMatrix type="matrix" values="0 0 0 0 0.145098 0 0 0 0 0.227451 0 0 0 0 0.560784 0 0 0 0.25 0"/>
<feBlend mode="normal" in2="BackgroundImageFix" result="effect1_dropShadow_1082_804"/>
<feBlend mode="normal" in="SourceGraphic" in2="effect1_dropShadow_1082_804" result="shape"/>
</filter>
</defs>
</svg>
