<?xml version="1.0" encoding="utf-8"?>
<!-- Generator: Adobe Illustrator 23.0.1, SVG Export Plug-In . SVG Version: 6.00 Build 0)  -->
<svg version="1.1" id="a594ac37-6d44-4297-8862-1cbd9c01c0b7"
	 xmlns="http://www.w3.org/2000/svg" xmlns:xlink="http://www.w3.org/1999/xlink" x="0px" y="0px" viewBox="0 0 1126.2 855"
	 style="enable-background:new 0 0 1126.2 855;" xml:space="preserve">
<style type="text/css">
	.st0{fill:#F2F2F2;}
	.st1{fill:#262626;}
	.st2{opacity:0.1;enable-background:new    ;}
	.st3{fill:#3C3C3C;}
	.st4{fill:#DF5252;}
	.st5{fill:#23BE87;}
	.st6{fill:#313131;}
	.st7{fill:#2F2E41;}
	.st8{fill:#FBBEBE;}
</style>
<title>code review</title>
<path class="st0" d="M544.9,755.9C302.5,737.5,13.4,549.7,28.1,356.3S322.8-17.1,565.2,1.3s381.9,379.9,367.2,573.3
	C917.7,767.9,787.3,774.4,544.9,755.9z"/>
<ellipse class="st1" cx="565.2" cy="756" rx="506" ry="31"/>
<ellipse class="st2" cx="565.2" cy="755.5" rx="431" ry="20.5"/>
<ellipse class="st1" cx="212.2" cy="836.5" rx="212.2" ry="18.5"/>
<ellipse class="st2" cx="212.2" cy="836.2" rx="180.7" ry="12.2"/>
<rect x="196.2" y="162" class="st3" width="752" height="590"/>
<path class="st0" d="M563.6,242.6H378.1c-1.2,0-2.3-1-2.3-2.2s1-2.3,2.2-2.3c0,0,0,0,0,0h185.5c1.2,0,2.2,1,2.2,2.3
	C565.9,241.6,564.9,242.6,563.6,242.6z"/>
<path class="st0" d="M766.7,267.4H474.9c-1.2,0-2.3-1-2.3-2.3s1-2.3,2.3-2.3l0,0h291.8c1.2,0,2.3,1,2.3,2.3S768,267.4,766.7,267.4z"
	/>
<path class="st0" d="M564.5,292.2H379c-1.2,0-2.3-1-2.3-2.3s1-2.3,2.3-2.3h185.5c1.2,0,2.3,1,2.3,2.3S565.8,292.2,564.5,292.2z"/>
<path class="st0" d="M766.7,292.6H581.2c-1.2,0-2.3-1-2.3-2.3s1-2.3,2.3-2.3h185.5c1.2,0,2.3,1,2.3,2.3S768,292.6,766.7,292.6z"/>
<path class="st0" d="M565,316.9H379.5c-1.2,0-2.3-1-2.3-2.3s1-2.3,2.3-2.3H565c1.2,0,2.3,1,2.3,2.3S566.2,316.9,565,316.9z"/>
<path class="st0" d="M565.4,341.7H379.9c-1.2,0-2.3-1-2.3-2.3s1-2.3,2.3-2.3h185.5c1.2,0,2.3,1,2.3,2.3S566.7,341.7,565.4,341.7z"/>
<path class="st0" d="M649.6,243.1h-53.1c-1.2,0-2.3-1-2.3-2.3s1-2.3,2.3-2.3l0,0h53.1c1.2,0,2.3,1,2.3,2.3S650.9,243.1,649.6,243.1z
	"/>
<path class="st0" d="M649.6,316.9h-53.1c-1.2,0-2.3-1-2.3-2.3s1-2.3,2.3-2.3l0,0h53.1c1.2,0,2.3,1,2.3,2.3S650.9,316.9,649.6,316.9z
	"/>
<path class="st0" d="M649.6,341.2h-53.1c-1.2,0-2.3-1-2.3-2.2s1-2.3,2.2-2.3c0,0,0,0,0,0h53.1c1.2,0,2.3,1,2.3,2.2
	S650.9,341.2,649.6,341.2C649.7,341.2,649.6,341.2,649.6,341.2z"/>
<path class="st0" d="M738.8,341.2h-53.1c-1.2,0-2.2-1-2.2-2.3c0-1.2,1-2.2,2.2-2.2h53.1c1.2,0,2.3,1,2.3,2.2
	S740.1,341.2,738.8,341.2C738.8,341.2,738.8,341.2,738.8,341.2z"/>
<path class="st0" d="M430.8,267.4h-53.1c-1.2,0-2.3-1-2.3-2.3s1-2.3,2.3-2.3l0,0h53.1c1.2,0,2.3,1,2.3,2.3S432,267.4,430.8,267.4z"
	/>
<path class="st0" d="M563.9,607.4H378.3c-1.2,0-2.3-1-2.3-2.3c0-1.2,1-2.3,2.3-2.3l0,0h185.5c1.2,0,2.3,1,2.3,2.3
	C566.1,606.4,565.1,607.4,563.9,607.4z"/>
<path class="st0" d="M563,656.9H377.4c-1.2,0-2.3-1-2.3-2.3c0-1.2,1-2.3,2.3-2.3l0,0H563c1.2,0,2.3,1,2.3,2.3
	C565.2,655.9,564.2,656.9,563,656.9z"/>
<path class="st0" d="M563.4,681.7H377.9c-1.2,0-2.3-1-2.3-2.3c0-1.2,1-2.3,2.3-2.3l0,0h185.5c1.2,0,2.3,1,2.3,2.3
	C565.7,680.6,564.7,681.7,563.4,681.7z"/>
<path class="st0" d="M642.7,657.3h-53.1c-1.2,0-2.3-1-2.3-2.3c0-1.2,1-2.3,2.3-2.3h53.1c1.2,0,2.3,1,2.3,2.3
	C644.9,656.3,643.9,657.3,642.7,657.3L642.7,657.3z"/>
<path class="st0" d="M642.7,681.7h-53.1c-1.2,0-2.3-1-2.3-2.3c0-1.2,1-2.3,2.3-2.3h53.1c1.2,0,2.3,1,2.3,2.3
	C644.9,680.6,643.9,681.7,642.7,681.7L642.7,681.7z"/>
<path class="st0" d="M731.8,657.3h-53.1c-1.2,0-2.3-1-2.3-2.3c0-1.2,1-2.3,2.3-2.3h53.1c1.2,0,2.3,1,2.3,2.3
	C734.1,656.3,733.1,657.3,731.8,657.3z"/>
<path class="st0" d="M766.9,632.1H475.2c-1.2,0-2.3-1-2.3-2.3c0-1.2,1-2.3,2.3-2.3h291.8c1.2,0,2.3,1,2.3,2.3
	C769.2,631.1,768.2,632.1,766.9,632.1z"/>
<path class="st0" d="M431,632.1h-53.1c-1.2,0-2.3-1-2.3-2.3c0-1.2,1-2.3,2.3-2.3l0,0H431c1.2,0,2.3,1,2.3,2.3
	C433.3,631.1,432.3,632.1,431,632.1z"/>
<path class="st0" d="M766.9,706.9H475.2c-1.2,0-2.3-1-2.3-2.3c0-1.2,1-2.3,2.3-2.3h291.8c1.2,0,2.3,1,2.3,2.3
	C769.2,705.9,768.2,706.9,766.9,706.9L766.9,706.9z"/>
<path class="st0" d="M431,706.9h-53.1c-1.2,0-2.3-1-2.3-2.3c0-1.2,1-2.3,2.3-2.3l0,0H431c1.2,0,2.3,1,2.3,2.3
	C433.3,705.9,432.3,706.9,431,706.9z"/>
<polygon class="st4" points="519.1,402.1 447,473.3 519.1,544.4 535.3,528.2 480.8,473.7 535.7,418.8 "/>
<polygon class="st4" points="625.3,402.1 697.4,473.3 625.3,544.4 609.1,528.2 663.6,473.7 608.7,418.8 "/>
<circle class="st5" cx="216.2" cy="177" r="9"/>
<circle class="st5" cx="240.2" cy="177" r="9"/>
<circle class="st5" cx="264.2" cy="177" r="9"/>
<rect x="196.2" y="192" class="st2" width="752" height="3"/>
<path class="st5" d="M1126.2,608c0,63.8-37.9,86-84.7,86s-84.7-22.3-84.7-86s84.7-144.9,84.7-144.9S1126.2,544.2,1126.2,608z"/>
<polygon class="st6" points="1038.4,683.7 1039.3,630.4 1075.4,564.3 1039.4,622 1039.8,598 1064.7,550.2 1039.9,591.6 
	1039.9,591.6 1040.6,548.5 1067.3,510.5 1040.7,541.7 1041.2,462.6 1038.4,567.3 1038.7,563 1011.6,521.6 1038.2,571.3 
	1035.7,619.5 1035.6,618.2 1004.4,574.6 1035.5,622.7 1035.2,628.8 1035.2,628.9 1035.2,629.4 1028.8,751.7 1037.3,751.7 
	1038.4,688.5 1069.4,640.5 "/>
<path class="st7" d="M122.6,751.1c-2.6,1.4-5.3,2.6-8.2,3.5c-5.1,1.4-10.5,0.9-15.6,2.1c-2.1,0.5-4.4,1.5-5.1,3.5
	c-0.5,1.5,0,3.1,0.6,4.6c5.7,16.6,9.1,34.3,18.1,49.3c3.8,6.3,8.5,12,14,17c2.1,1.9,4.4,3.7,7.1,4c4,0.4,7.5-2.5,8-6.4
	c0.1-1.3-0.1-2.6-0.6-3.7c-0.8-1.8-2.3-3.2-3.3-4.9c-1.1-2.2-1.7-4.6-1.8-7c-0.9-7.1-1.8-14.5,0.7-21.3c1.7-4.5,4.7-8.4,7.2-12.4
	s4.6-8.8,4.1-13.5c-0.4-3.3-2-6.2-3.6-9.1c-1.7-2.8-5-10.4-8.4-11.4C132.3,744.4,125.7,749.5,122.6,751.1z"/>
<path class="st7" d="M215.1,808.5c0.1,1.6-0.2,3.2-0.7,4.7c-1.1,2.8-3.7,4.7-5,7.4c-1.9,3.7-1,8.2,0.2,12.1c0.8,2.5,1.8,5.1,3.9,6.6
	c1.8,1.1,3.8,1.8,6,1.9c18,2.5,36.4,1.1,54.6,1.6c3.3,0.1,6.8,0.2,9.7-1.4s4.7-5.7,2.7-8.4c-1.8-2.4-5.3-2.4-8.2-2.5
	c-7.8-0.4-15.1-3.4-20.9-8.6c-1.1-1-2.1-2.1-2.9-3.4c-0.6-1.1-1.1-2.3-1.5-3.5c-2.6-6.9-5.6-13.6-9.1-20.1c-1-1.8-2.1-3.7-3.9-4.7
	c-1.3-0.6-2.8-0.9-4.2-0.9c-4.5-0.3-16.3-1.8-19.8,1.7C212.6,794.3,215.1,804.4,215.1,808.5z"/>
<ellipse transform="matrix(7.088905e-02 -0.9975 0.9975 7.088905e-02 -150.0257 592.3745)" class="st8" cx="243" cy="376.7" rx="29" ry="29"/>
<path class="st8" d="M216.8,400.6c-1.7,4.6-4.6,8.9-8.9,11.4l40.1,8.2c-1.5-5.8-1.6-11.9-0.6-17.9c0.4-1.4,0.5-2.9,0.2-4.4
	c-0.8-2.9-4-4.3-7-5c-7.3-1.7-13.8-2.6-20.6-5.8C218,390.8,218.3,396.5,216.8,400.6z"/>
<path class="st7" d="M207.6,401.2c8.7-4,18.8-3.7,27.3,0.7c5.1,2.7,9.4,6.8,13.6,10.8c3.9,3.7,8,8,8.2,13.3c0.1,2.6-0.7,5.1-1.1,7.7
	c-1.5,10.9,4,21.5,13.8,26.5c3.2,5.3,3.8,11.7,3.9,17.9c0.2,23.4-7.2,47.2-1.9,70c1.2,5.4,3.2,10.6,4.2,16c1.4,7,1.3,14.2,2,21.3
	c0.8,7.7,2.5,15.2,5.1,22.5c-1.7,2.8-5.4,3.8-8.6,3.6s-6.3-1.6-9.2-3.1c-14.1-7.2-27.1-16.8-41.7-22.9c-9.7-4.1-20-6.6-29.4-11.3
	s-18.1-12.1-21-22.2c-1.2-4.4-1.3-9-1.4-13.5c-0.3-19.1-0.6-38.4,3.6-57.1c3.7-16.5,10.7-32.2,12.3-49c0.5-5.5,0.5-11.3,3.6-15.9
	C195.2,410,204.5,408.4,207.6,401.2z"/>
<path class="st7" d="M226.5,377.1c1.7-2.2,5-2.5,7.7-1.9s5.2,2.1,8,2.6c1.3,0.4,2.6,0.2,3.7-0.5c1-0.9,1.5-2.2,1.6-3.6
	c1-5.7,1.2-11.6,0.7-17.4c-0.1-0.8-0.1-1.6,0.2-2.4c0.7-1.6,2.8-2,4.5-2.6c5.8-1.9,9.5-7.6,9-13.6c0-1.4-0.6-2.8-1.7-3.7
	c-1.2-1-2.8-1-4.3-1c-7.8-0.1-15.6-0.1-23.4,0c-2.9,0-5.9,0.1-8.4,1.5c-1.8,1.1-3.2,2.8-4.9,4.1c-4.3,3.5-10.2,4.2-15.4,6
	c-2.6,0.7-4.9,2.1-6.8,4c-1.8,2-2.6,5-1.5,7.4c0.6,1,1.2,2,1.9,2.9c3.1,5,1,11.4,1.5,17.2c0.6,7.3,11.4,19.1,18.7,20.8
	C229.4,399.8,222.6,381.9,226.5,377.1z"/>
<path class="st7" d="M210.1,696.7c0.7,5.3,1.7,10.7,1.4,16c-0.4,7.5-3.1,14.7-3.6,22.2c-0.4,5.6,0.5,11.2-0.3,16.8
	c-0.5,3.6-1.7,7-2.4,10.5c-2.3,11.6,0.2,23.6,7,33.3c0.5,0.8,1.2,1.5,2,2c0.8,0.3,1.7,0.4,2.5,0.3c8.4-0.2,16.8-0.9,25.2-2.3
	c0.6,0,1.2-0.3,1.6-0.7c0.2-0.3,0.3-0.6,0.4-1c1.5-7.9-2-15.9-2.9-23.9c-1-8.6,1.1-17.2,3.1-25.6c0.9-4.1,2.1-8.2,3.5-12.2
	c1-2.7,2.2-5.3,3-8.1c1.2-4.3,2-8.7,2.2-13.2c0.6-7.1,0.9-14.1,0.9-21.2c0.2-6.7-0.4-13.4-1.7-20c-1.9-8.3-5.7-16.1-9.5-23.7
	c-2,0.5-4,1.4-5.6,2.7c-4.9,3.2-10,6-15.4,8.5c-3.6,1.7-10.5,2.8-12.8,6.3c-2.2,3.4-0.8,10.4-0.6,14.1
	C208.6,683.9,209.2,690.3,210.1,696.7z"/>
<path class="st2" d="M210.1,696.7c0.7,5.3,1.7,10.7,1.4,16c-0.4,7.5-3.1,14.7-3.6,22.2c-0.4,5.6,0.5,11.2-0.3,16.8
	c-0.5,3.6-1.7,7-2.4,10.5c-2.3,11.6,0.2,23.6,7,33.3c0.5,0.8,1.2,1.5,2,2c0.8,0.3,1.7,0.4,2.5,0.3c8.4-0.2,16.8-0.9,25.2-2.3
	c0.6,0,1.2-0.3,1.6-0.7c0.2-0.3,0.3-0.6,0.4-1c1.5-7.9-2-15.9-2.9-23.9c-1-8.6,1.1-17.2,3.1-25.6c0.9-4.1,2.1-8.2,3.5-12.2
	c1-2.7,2.2-5.3,3-8.1c1.2-4.3,2-8.7,2.2-13.2c0.6-7.1,0.9-14.1,0.9-21.2c0.2-6.7-0.4-13.4-1.7-20c-1.9-8.3-5.7-16.1-9.5-23.7
	c-2,0.5-4,1.4-5.6,2.7c-4.9,3.2-10,6-15.4,8.5c-3.6,1.7-10.5,2.8-12.8,6.3c-2.2,3.4-0.8,10.4-0.6,14.1
	C208.6,683.9,209.2,690.3,210.1,696.7z"/>
<path class="st7" d="M171,583c-3.8,10.4,1.8,21.6,6.7,31.5c12.1,24.4,20.5,50.4,28.9,76.3c0.6,1.9,1.3,4.1,0.6,6
	c-0.6,1.4-1.6,2.5-2.8,3.3c-5.8,4.4-13.1,5.9-20,8.2c-6.6,2.2-13,5.2-18.9,8.9c-5,3.1-9.6,6.6-14.3,10.2l-14.8,11.3
	c-1,0.6-1.8,1.5-2.5,2.4c-1.4,2.2-0.8,5.2-0.1,7.7c1.9,6.8,4.3,13.4,7.3,19.8c0.5,1.4,1.4,2.6,2.6,3.4c2.3,1.2,5.1-0.4,6.9-2.3
	s3.3-4.4,5.8-5.2c2.5-0.8,5.2,0.2,7.8-0.2c4.2-0.6,7-4.5,10-7.4c12.4-12.1,33-11.3,46.6-22c2-1.8,4-3.4,6.2-4.9
	c2.3-1.4,4.9-2.1,7.3-3.3c7.3-3.7,11.8-11.2,14.3-19s3.1-15.9,4.9-23.9c0.9-4.1,2.1-8.2,2.5-12.3c0.3-3.9,0.2-7.8-0.3-11.7
	l-4.9-60.7c-0.4-4.9-0.8-9.9-1.6-14.8c-14.6,0.5-29.1,1.1-43.7,1.3C193.8,585.9,182,586.7,171,583z"/>
<path class="st7" d="M165.6,597.2c2,3.2,6.8,3.1,10.1,1.4s5.9-4.7,9.2-6.4c4.5-2.3,9.7-2.2,14.8-2.1c8,0.2,16,0.5,23.7,2.6
	c7.9,2.3,15.6,6.6,23.8,5.7c1.4-0.2,3-0.6,3.8-1.8c0.5-0.9,0.7-1.9,0.6-2.8l0.3-7.2c0.2-1.2,0-2.5-0.6-3.6c-0.7-0.9-1.6-1.7-2.7-2.1
	c-11.7-5.6-25-6.7-37.9-7.1c-6.6-0.2-13.2-0.3-19.8-0.3c-5.6,0-12.3-0.8-17.7,0.7C165.9,576.3,161.9,591.3,165.6,597.2z"/>
<path class="st5" d="M238.8,409.7c-15.3-0.1-29.1-10.2-44.4-10.5c-1.8-0.1-3.7,0.2-5.4,0.9c-2.1,1.1-3.5,3.1-5.1,4.9
	c-4.5,4.9-11.1,7.5-15.7,12.3c-4.4,4.5-6.8,11.1-5.1,17.2s8.2,10.6,14.3,9.2c2.4-7.9,7.5-14.8,14.3-19.5c3.6-2.3,7.3-4.2,11.2-5.9
	c6.9-3.1,14.5-6.3,21.7-4c2.6,1,5.1,2.4,7.4,4l12,8C242.6,420.9,241.4,414.8,238.8,409.7z"/>
<path class="st5" d="M175.6,438.4c-2,2.5,0.9,6.2,0.4,9.4c-0.3,2.1-2.1,3.8-2.8,5.8c-0.8,2.1-0.4,4.4-0.6,6.6
	c-0.3,1.6-0.7,3.2-1.3,4.7c-1.3,4.6-2.2,9.3-2.7,14l-2.7,20c-0.5,3-0.7,6-0.8,9.1c0.1,2.3,0,4.6-0.5,6.8c-0.6,2.2-1.9,4.1-2.8,6.2
	s-1.3,4.6-0.1,6.5c-4,3.3-5.2,9.9-2.4,14.2c0.5,0.7,0.9,1.4,1.2,2.3c0.2,1.1,0,2.3-0.5,3.3l-2.7,7.2c-0.7,1.8-0.9,4.7,1,5.1
	c-1.6,1.7-2.8,3.6-3.7,5.8c-0.8,2.2-0.4,4.6,1,6.5c0.7,0.6,1.2,1.3,1.7,2.1c0.3,1.1,0.2,2.2-0.2,3.2c-0.8,3.2-0.3,6.6,1.5,9.3
	c1.8,2.8,5.1,4.2,8.4,3.6c5.4-1.2,10.3-3.1,15.7-2.1c11.7,2.2,23.5,4.3,34.9,8c13,4.1,25.6,10.2,39.1,11.5c0.9,0.2,1.8,0,2.6-0.4
	c0.7-0.7,1.1-1.5,1.2-2.5c1.4-6.6,2.8-13.1,4.2-19.7c1.7-7.3,3-14.6,3.9-22c0.5-4.8,0.6-9.6,0.7-14.4l1.1-38.2
	c0.5-5.6-0.2-11.3-2.2-16.6l-6.2-19.8c-3.5-11.3-11.7-21.4-14.6-32.9c-1.8-7.3-3.2-15.1-8.1-20.8c-7-8.1-19.1-9.4-29.8-8
	c-4.8,0.6-9.6,1.7-13.8,4.2c-4.8,2.9-8.3,7.4-11.8,11.8C181.4,431.8,178.5,434.8,175.6,438.4z"/>
<path class="st8" d="M200.4,550.8c0.9,3.8,2.7,7.3,3.8,11c1.9,6.2,1.7,12.9,3.6,19.1c0.8,2.6,1.9,5.1,2.5,7.8
	c1.3,6.2-0.6,12.6-3,18.5s-5.3,11.7-6.1,18c-0.5,4.4,0.2,9.5,3.7,12.3c3.6,3,8.7,2.8,13.3,2.4c1.7,0,3.3-0.4,4.8-1
	c3.5-1.7,5-5.9,5.9-9.7c2.8-12.8,2-26.1,1.2-39.2l-2.1-34.2c-0.4-6.6-0.8-13.3-2.9-19.6c-0.7-2.3-2-7-4.1-8.4
	c-2.1-1.5-8-1.5-10.6-1.6C198.3,525.5,198.5,542.4,200.4,550.8z"/>
<path class="st7" d="M213.8,424.4c-2.5-1.3-5.6-0.7-8,0.7c-2.3,1.6-4.3,3.5-6,5.8c-5.3,6.5-11,14-10.2,22.4c0.3,3.1,1.5,6.1,2.3,9.2
	c3.6,13.4-0.4,27.5,0.1,41.4c0.3,8,2,15.9,3.7,23.7c0.4,1.6,0.9,3.4,2.5,4c1.2,0.4,2.4-0.1,3.6-0.6c8.7-3.2,18.4-2,26,3.3
	c2.9-1.5,1.8-6.4,1.1-9.5c-1.9-9.5,0.7-19.2,3.8-28.3s6.9-18.2,7.4-27.9c0.6-10.9-3-21.6-6.6-31.9c-0.8-2.3-1.6-4.6-3.4-6.2
	c-1.5-1.2-3.3-2-5.2-2.4C221.2,426.9,217.4,426.3,213.8,424.4z"/>
</svg>
