<?xml version="1.0" encoding="utf-8"?>
<!-- Generator: Adobe Illustrator 23.0.1, SVG Export Plug-In . SVG Version: 6.00 Build 0)  -->
<svg version="1.1" id="acaf7998-b12f-450b-972e-34e26f1defdd"
	 xmlns="http://www.w3.org/2000/svg" xmlns:xlink="http://www.w3.org/1999/xlink" x="0px" y="0px" viewBox="0 0 797 667"
	 style="enable-background:new 0 0 797 667;" xml:space="preserve">
<style type="text/css">
	.st0{fill:#F1F1F1;}
	.st1{fill:#262626;}
	.st2{opacity:0.1;fill:#262626;enable-background:new    ;}
	.st3{fill:#313131;}
	.st4{fill:#2F2E41;}
	.st5{fill:#A0616A;}
	.st6{opacity:0.1;enable-background:new    ;}
	.st7{fill:#3C354C;}
	.st8{fill:#233F34;}
	.st9{fill:#23BE87;}
	.st10{fill:#DF5252;}
	.st11{fill:#3C3C3C;}
</style>
<title>just_saying</title>
<ellipse class="st0" cx="125" cy="160" rx="121" ry="114"/>
<path class="st1" d="M797,582c0,25.4-150.4,85-336,85s-336-59.6-336-85s150.4-7,336-7S797,556.6,797,582z"/>
<path class="st2" d="M797,590.8c0,25.4-150.4,85-336,85s-336-59.6-336-85s150.4-7,336-7S797,565.3,797,590.8z"/>
<g>
	<path class="st3" d="M699.9,552.4c-22.3-3.8-43.7-7-64.3-9.7l8.1-15.8c-2.7-1-14.8,8.1-14.8,8.1l10.7-45.8
		c-13.8,1.7-20.8,48.4-20.8,48.4l-15.4-15.8l7.5,17.8c-63-7.4-117.3-10.2-163.1-10.3l7-13.5c-2.7-1-14.8,8.1-14.8,8.1l10.7-45.8
		c-13.8,1.7-20.8,48.4-20.8,48.4l-15.4-15.8l7.9,18.8c-31.3,0.5-62.6,2.6-93.8,6.4c7-21,31-41,31-41c-18.3,5.4-27.8,14.5-32.9,23
		c-0.4-43.4,6.8-86.5,21.3-127.4c0,0-37.8,82.2-32.9,137.3l0.6,9.8c-32,4.6-48.1,9.4-48.1,9.4L699.9,552.4z"/>
	<ellipse class="st3" cx="461" cy="582" rx="336" ry="46"/>
</g>
<path class="st4" d="M464.7,58.8C458.9,76,450,91.6,431.8,91.6S400,76.9,399,58.8c-1.3-23.1,14.3-32.9,32.9-32.9
	C453.7,26,471.6,38.4,464.7,58.8z"/>
<rect x="404.7" y="54.4" class="st4" width="53.7" height="78.3"/>
<polygon class="st5" points="389,221.1 391.8,241.6 455.2,237.5 451.8,219.1 "/>
<path class="st5" d="M419.1,100.3c0,0,8.2,22.5-7.5,25.9c-15.7,3.4,2.7,18.4,2.7,18.4l24.6-1.4l17.1-4.8l5.5-9.6
	c0,0-21.2-10.9-15-28L419.1,100.3z"/>
<path class="st6" d="M419.1,100.3c0,0,8.2,22.5-7.5,25.9c-15.7,3.4,2.7,18.4,2.7,18.4l24.6-1.4l17.1-4.8l5.5-9.6
	c0,0-21.2-10.9-15-28L419.1,100.3z"/>
<path class="st5" d="M466.8,189.7l1.4,51.9c3.4,6.7,8.3,12.5,14.3,17.1c9.6,6.8,36.2,16.4,36.2,16.4s24.6,30,28,9.6
	s-21.2-23.2-21.2-23.2s-30.7-24.6-32.8-29.3s-4.1-34.8-3.4-41.6S466.8,189.7,466.8,189.7z"/>
<polygon class="st5" points="387.7,460 404,540.5 421.1,537.8 417,460 "/>
<polygon class="st5" points="465.5,457.2 499.6,523.4 515.3,518 497.5,442.9 "/>
<path class="st5" d="M377.4,184.9l-4.8,45l-56,51.9c0,0-37.5,23.2-17.1,28s30-19.1,30-19.1l60.7-40.9c0,0,2.7-60.1,0-62.8
	S377.4,184.9,377.4,184.9z"/>
<path class="st7" d="M456.8,232l-67.8,0l-2.7,10.2c0,0-96.9,168.6-81.9,184.9c15,16.4,18.4,5.5,21.8,16.4s24.6,34.1,38.2,32.1
	s56-10.2,80.5,0s86.7-15.7,86.7-23.9s-73-210.2-73-210.2L456.8,232z"/>
<g>
	<path class="st8" d="M422.5,534.3l-23.2,6.1c0,0,7.5,15,0,22.5s-15.7,28-3.4,28.7s25.3-7.5,25.3-7.5v-7.5h6.1l6.1-3.4
		c0,0-0.7-12.3,0-14.3s-3.4-18.4-6.1-18.4S422.5,534.3,422.5,534.3z"/>
	<path class="st8" d="M517.3,513.2l-23.9,7.5c0,0,10.9,32.1,10.2,37.5s-1.4,34.1,11.6,33.4s18.4-14.3,19.1-15.7s-2.7-13-2.7-13
		l2.7-4.1l2-2.7c0,0-1.4-3.4-4.8-13s-9.6-11.6-9.6-11.6L517.3,513.2z"/>
</g>
<g>
	<path class="st9" d="M487,139l8.9,6.8c0,0,8.9,48.5,1.4,49.8s-32.1,4.8-32.1,0S487,139,487,139z"/>
	<path class="st9" d="M397,134.9h-4.8c0,0-16.4,11.6-19.1,24.6s-10.2,26.6-4.1,28s24.6,6.8,27.3,4.8S397,134.9,397,134.9z"/>
	<path class="st9" d="M462.7,126.9c0,0-16.4,9.6-32.8,6.1s-19.1-8.2-19.1-8.2s-21.2,3.4-23.2,11.6c-2,8.2,0,20.5,0,20.5
		s-18.4,19.8-2.7,43.7l3.4,28c0,0,46.4-6.8,57.3,0S460,230,460,230l7.5-33.4l23.9-52.5c0,0,0-6.8-13-10.9S462.7,126.9,462.7,126.9z"
		/>
	<circle class="st10" cx="94.5" cy="162.5" r="11"/>
	<circle class="st10" cx="126.5" cy="162.5" r="11"/>
	<circle class="st10" cx="158.5" cy="162.5" r="11"/>
</g>
<circle class="st4" cx="431.8" cy="19.9" r="13"/>
<path class="st4" d="M416.2,13c0-6.7,5-12.2,11.7-12.9c-0.4,0-0.9-0.1-1.3-0.1c-7.2,0-13,5.8-13,13s5.8,13,13,13c0,0,0,0,0,0
	c0.4,0,0.9,0,1.3-0.1C421.3,25.2,416.2,19.6,416.2,13z"/>
<circle class="st5" cx="432.7" cy="85.3" r="28.7"/>
<path class="st4" d="M422.3,49.7c0,0-0.3-1.5-10.9,2.5s-16.9,33.3-11.6,50.5c2.1,6.9,0.4,11.9-2.4,15.4c-10.6,13.1-6.4,32.8,9,39.6
	c0.4,0.2,0.9,0.4,1.3,0.6l6.6,4c0,0-8.4-11.1-4.2-25.3c3.7-12.1,4.1-24.9,1.3-37.3c-0.5-2.1-1-4.2-1.7-6.4
	c-5.3-18.5-2.7-16.4,15.8-34.9c0,0,10.6,7.9,19.9,11.9s17.2,7.9,10.6,21.2s-22.5,25.2-11.9,42.4s11.9,10.6,10.6,17.2l0,0l-1.3,6.6
	l7.9-7.9l-5.3,10.6c0,0,17.2,0,22.5-13.2l2.6,2.6c0,0,10.6-18.5-9.3-35.7c0,0-6.6-4,2.6-17.2s2.1-41.7-9.8-47S422.3,49.7,422.3,49.7
	z"/>
<path class="st11" d="M308.6,299.7l-100.1-29.8C187.8,279.9,165,285,142,285C63.7,285,0,226.7,0,155S63.7,25,142,25
	s142,58.3,142,130c0,36.2-16.6,70.9-45.6,95.5L308.6,299.7z M208.3,267.7l0.4,0.1l88.7,26.4l-62.3-43.7l1-0.8
	C265.3,225.6,282,191,282,155c0-70.6-62.8-128-140-128S2,84.4,2,155s62.8,128,140,128c22.9,0,45.4-5.1,66-15.1L208.3,267.7z"/>
</svg>
