<?xml version="1.0" encoding="utf-8"?>
<!-- Generator: Adobe Illustrator 23.0.1, SVG Export Plug-In . SVG Version: 6.00 Build 0)  -->
<svg version="1.1" id="ba354ced-3c01-45f5-bde9-1adf156d6856"
	 xmlns="http://www.w3.org/2000/svg" xmlns:xlink="http://www.w3.org/1999/xlink" x="0px" y="0px" viewBox="0 0 902.3 674.1"
	 style="enable-background:new 0 0 902.3 674.1;" xml:space="preserve">
<style type="text/css">
	.st0{fill:#FBBEBE;}
	.st1{fill:#23BE87;}
	.st2{fill:#3C354C;}
	.st3{opacity:0.1;enable-background:new    ;}
	.st4{fill:none;stroke:#3F3D56;stroke-miterlimit:10;}
	.st5{fill:none;stroke:#F2FFFF;stroke-width:2;stroke-miterlimit:10;}
	.st6{fill:#57B894;}
	.st7{fill:#DF5252;}
	.st8{fill:#3F3D56;}
</style>
<title>metrics</title>
<path class="st0" d="M181.6,390.4c0,0,23.1,1.5,27.2-1.5s21.6,4.1,23.1,8.2c1.5,4.1-24.7,4.6-28.8,4.6s-23.6,6.2-23.6,6.2
	L181.6,390.4z"/>
<path class="st1" d="M240.2,338.8c-30.3,7.8-48.5,38.7-40.6,69c0.8,3.2,1.9,6.3,3.3,9.3l51.5-23.5L240.2,338.8z"/>
<path class="st1" d="M266.6,402.4l-51.5,23.5c13,28.5,46.6,41,75,28c28.5-13,41-46.6,28-75c-11.4-25-39.1-38.2-65.7-31.3
	L266.6,402.4z"/>
<path class="st2" d="M179,448l-8.2,77.8c0,0-2.6,30.8-10.3,37.5c0,0,0,9.8-2.6,12.8l-3.6,40.6c0,0,5.1,14.9,4.6,17.5
	s2.1,10.8,1.5,11.8s-24.7,0-24.7,0l5.1-82.7l15.9-115.1L179,448z"/>
<path class="st3" d="M179,448l-8.2,77.8c0,0-2.6,30.8-10.3,37.5c0,0,0,9.8-2.6,12.8l-3.6,40.6c0,0,5.1,14.9,4.6,17.5
	s2.1,10.8,1.5,11.8s-24.7,0-24.7,0l5.1-82.7l15.9-115.1L179,448z"/>
<line class="st4" x1="0" y1="673.6" x2="358.5" y2="673.6"/>
<g>
	<path class="st5" d="M351.5,613c0,0,211-123,483,0"/>
	<path class="st5" d="M394,593.7c-17.7-3.7-30.5-19.3-30.5-37.4V38.6c0-21.1,17.1-38.1,38.1-38.1h382.7c21.1,0,38.1,17.1,38.1,38.1
		c0,0,0,0,0,0v517.7c0,19.5-14.7,35.8-34,37.9"/>
	<rect x="387" y="62" class="st5" width="408" height="471.1"/>
	<circle class="st5" cx="593" cy="31" r="10"/>
	<path class="st5" d="M571.6,558.6c2.7-11.8,14.5-19.3,26.3-16.6c8.4,1.9,14.9,8.5,16.6,16.9"/>
</g>
<path class="st4" d="M341.4,96c-8.7,0.5-16.4,5.9-19.8,13.9c-5,12,1.4,26,11,34.8s21.9,13.7,33,20.3c15,8.8,28.5,21,36,36.7
	s8.3,35.2-0.5,50.1c-8.2,13.9-23.1,22.3-37.3,29.9"/>
<ellipse class="st6" cx="354" cy="97" rx="17.5" ry="8.5"/>
<ellipse class="st6" cx="368" cy="153" rx="17.5" ry="8.5"/>
<ellipse class="st6" cx="336" cy="162" rx="17.5" ry="8.5"/>
<ellipse class="st6" cx="386" cy="209" rx="17.5" ry="8.5"/>
<ellipse class="st6" cx="421" cy="209" rx="17.5" ry="8.5"/>
<path class="st4" d="M811.9,439.3c-8.1,0.5-15.2,5.5-18.4,12.9c-4.6,11.1,1.3,24.2,10.2,32.4s20.4,12.8,30.8,18.9
	c14,8.2,26.5,19.6,33.5,34.2c7,14.6,7.7,32.7-0.5,46.7c-7.6,13-21.5,20.7-34.7,27.9"/>
<ellipse class="st6" cx="823.6" cy="440.3" rx="16.3" ry="7.9"/>
<ellipse class="st6" cx="836.6" cy="492.4" rx="16.3" ry="7.9"/>
<ellipse class="st6" cx="806.8" cy="500.8" rx="16.3" ry="7.9"/>
<ellipse class="st6" cx="853.4" cy="544.6" rx="16.3" ry="7.9"/>
<ellipse class="st6" cx="886" cy="544.6" rx="16.3" ry="7.9"/>
<path class="st4" d="M851.4,471.3c6.6,0.4,12.4,4.5,15.1,10.5c3.8,9.1-1.1,19.8-8.4,26.4c-7.3,6.6-16.6,10.4-25.1,15.4
	c-11.4,6.7-21.7,16-27.4,27.9c-5.7,11.9-6.3,26.7,0.4,38.1c6.2,10.6,17.6,16.9,28.4,22.8"/>
<ellipse class="st6" cx="841.8" cy="472.1" rx="13.3" ry="6.5"/>
<ellipse class="st6" cx="831.1" cy="514.7" rx="13.3" ry="6.5"/>
<ellipse class="st6" cx="855.5" cy="521.5" rx="13.3" ry="6.5"/>
<ellipse class="st6" cx="817.4" cy="557.3" rx="13.3" ry="6.5"/>
<ellipse class="st6" cx="790.8" cy="557.3" rx="13.3" ry="6.5"/>
<polyline class="st4" points="455.5,161 455.5,387 720.5,387 "/>
<g>
	<rect x="489.5" y="312" class="st7" width="22" height="58"/>
	<rect x="534.5" y="292" class="st7" width="22" height="78"/>
	<rect x="579.5" y="268" class="st7" width="22" height="102"/>
	<rect x="624.5" y="225" class="st7" width="22" height="145"/>
	<rect x="669.5" y="191" class="st7" width="22" height="179"/>
</g>
<g>
	<rect x="478" y="305" class="st5" width="22" height="58"/>
	<rect x="523" y="285" class="st5" width="22" height="78"/>
	<rect x="572.5" y="261" class="st5" width="22" height="102"/>
	<rect x="617.5" y="218" class="st5" width="22" height="145"/>
	<rect x="662.5" y="184" class="st5" width="22" height="179"/>
</g>
<ellipse class="st8" cx="177.2" cy="252.4" rx="25.7" ry="20"/>
<path class="st8" d="M134,641.8c0,0-10.8,27.2-5.2,30.5s64.7,0.9,64.7,0.9s9.8-6.1-1.4-10.3c0,0-9.4-0.5-15.5-4.2
	s-13.1-10.8-13.1-10.8s-0.5-10.3-4.2-8c-2.3,1.5-3.8,3.9-4.2,6.6L134,641.8z"/>
<path class="st3" d="M134,641.8c0,0-10.8,27.2-5.2,30.5s64.7,0.9,64.7,0.9s9.8-6.1-1.4-10.3c0,0-9.4-0.5-15.5-4.2
	s-13.1-10.8-13.1-10.8s-0.5-10.3-4.2-8c-2.3,1.5-3.8,3.9-4.2,6.6L134,641.8z"/>
<path class="st8" d="M117.3,638.1c0,0-11.8,29.8-5.7,33.4s70.9,1,70.9,1s10.8-6.7-1.5-11.3c0,0-10.3-0.5-17-4.6
	s-14.4-11.8-14.4-11.8s-0.5-11.3-4.6-8.7c-2.5,1.6-4.2,4.3-4.6,7.2L117.3,638.1z"/>
<path class="st2" d="M165.1,447c0,0-5.7,52.9-8.2,64.2c-1.6,7.4-2.6,15-3.1,22.6c0,0-0.5,16.4-5.1,21.1c-2.7,2.7-4.2,6.4-4.1,10.3
	c0,0-4.6,51.9-2.1,58.1s6.1,14.2,3.5,18.3s-31.8,1.2-31.8-1.8s0-5.7-1.5-7.2s0-11.3,0-11.3s-6.2-45.7-0.5-59.1s8.2-49.9,8.2-49.9
	s-4.1-41.6-9.3-48.3s1-30.3,1-30.3L165.1,447z"/>
<path class="st0" d="M150.7,282.6c0.6,1.4,2,2.1,3.3,2.8c7.5,4.2,13.9,10.2,20.1,16.1c-1.6-5.3-1.2-10.9,0.9-15.9
	c0.7-1.7,1.7-3.6,1.2-5.4c-0.5-1.3-1.4-2.4-2.6-3.1c-2.5-2-5.2-3.8-7.9-5.4c-1.9-1.2-5.9-4.2-8.1-3.9c-0.1,3-0.2,5.7-1.5,8.4
	C155.8,276.9,150.9,283.1,150.7,282.6z"/>
<circle class="st0" cx="177" cy="268.1" r="21.1"/>
<path class="st8" d="M178,318c0,0,3.6-18-6.7-24.2s-22.1-13.4-22.1-13.4s-3.6-0.5-5.1,7.2c0,0-29.3,5.7-32.4,33.4s2.1,68.4,2.1,68.4
	s-4.6,35.5-10.3,54.5c0,0-4.6,4.1,15.9-2.1s56.5,17.5,56.5,17.5s3.6-3.6,3.6-6.2s4.1-17.5,4.1-17.5s3.6-63.2,5.1-70.4
	S182.6,319,178,318z"/>
<path class="st8" d="M172,270.3c1.3-0.7,2.7-1.1,4.1-1.1c1.4,0,2.9-0.4,4.1-1.2c2-1.5,2.1-4.5,3.6-6.5c2.1-3,6.3-3.3,9.9-3.2
	c2.2,0.1,4.6,0.2,6.5-1c1.9-1.2,2.8-3.6,3.4-5.7c0.8-2.6,1.3-5.8-0.6-7.7c-1.3-1.3-3.4-1.6-4.9-2.8c-1.5-1.2-2.1-3.2-3-4.9
	c-0.9-2.1-2.4-4-4.3-5.4c-2.8-1.9-6.3-2.3-9.6-2.3s-6.7,0.5-10.1,0.1c-2.7-0.3-5.5-1.2-8.2-0.8c-3.5,0.5-6.3,3.1-8.1,6.2
	s-2.4,6.6-3.2,10l-1.9,9.3c-0.6,2.9-1.2,5.9-0.7,8.8c1,6.1,6.3,10.9,6.7,17c0.7-3.4,3.1-6.3,6.4-7.6c0.4-0.2,0.9-0.3,1.3-0.2
	c0.5,0.2,0.8,0.7,1.2,1.1c0.9,1.2,3.6,2.9,5.2,2.1C171.3,273.8,170.2,271.5,172,270.3z"/>
<path class="st0" d="M118.9,366.3c0,0-3.6,22.6,11.3,20.6c0,0,7.7-1,8.7,0s39.1-5.7,44.2-11.3c0,0,6.2-2.1,9.3,1s33.9,6.2,24.7-3.1
	s-23.6-11.3-23.6-11.3l-19.5,1c0,0-10.3,3.1-16.4,0s-23.6-2.1-23.6-2.1L118.9,366.3z"/>
<path class="st8" d="M140,294.8c0,0-23.1,2.6-23.1,36v42.7c0,0,12.8-5.7,15.4-5.1s12.8-6.7,12.8-6.7s11.8-27.8,10.8-35.5
	S155.4,295.9,140,294.8z"/>
<ellipse class="st8" cx="177" cy="255" rx="19.8" ry="10.3"/>
<ellipse class="st8" cx="158.5" cy="256.8" rx="6.9" ry="17.2"/>
</svg>
