<?xml version="1.0" encoding="utf-8"?>
<!-- Generator: Adobe Illustrator 21.0.0, SVG Export Plug-In . SVG Version: 6.00 Build 0)  -->
<svg version="1.1" id="Layer_1" xmlns="http://www.w3.org/2000/svg" xmlns:xlink="http://www.w3.org/1999/xlink" x="0px" y="0px"
	 viewBox="0 0 279.5 63.8" style="enable-background:new 0 0 279.5 63.8;" xml:space="preserve">
<style type="text/css">
	.st0{fill:#333E48;}
	.st1{fill:#FF671B;}
</style>
<g>
	<path class="st0" d="M74.5,33l2.3-2.7c2,1.8,4,2.7,6.7,2.7c2.3,0,3.8-1.1,3.8-2.7v0c0-1.5-0.8-2.3-4.8-3.2
		c-4.5-1.1-7.1-2.4-7.1-6.3v-0.1c0-3.6,3-6.1,7.2-6.1c3.1,0,5.5,0.9,7.7,2.7l-2,2.8c-1.9-1.4-3.8-2.2-5.8-2.2
		c-2.2,0-3.4,1.1-3.4,2.5v0.1c0,1.6,1,2.4,5,3.3c4.5,1.1,6.8,2.7,6.8,6.2v0c0,4-3.1,6.3-7.6,6.3C80.2,36.4,77.1,35.3,74.5,33"/>
	<path class="st0" d="M97.2,27.1V14.9h3.7V27c0,3.9,2,6,5.4,6c3.3,0,5.3-2,5.3-5.9V14.9h3.7v12c0,6.3-3.6,9.5-9.1,9.5
		C100.7,36.4,97.2,33.3,97.2,27.1"/>
	<path class="st0" d="M140.2,23.9v12.2h-3.7v-12c0-3.9-2-6.1-5.4-6.1c-3.3,0-5.3,2-5.3,5.9v12.2H122v-12c0-6.3,3.6-9.5,9.1-9.5
		C136.6,14.6,140.2,17.8,140.2,23.9"/>
	<path class="st0" d="M146.4,25.6L146.4,25.6c0-6,4.5-11,10.9-11c3.7,0,6,1,8.1,2.9l-2.4,2.8c-1.6-1.4-3.2-2.3-5.9-2.3
		c-3.9,0-6.9,3.4-6.9,7.5v0.1c0,4.4,2.9,7.6,7.2,7.6c2,0,3.8-0.6,5.1-1.6v-4h-5.4v-3.2h9v8.9c-2.1,1.8-5.1,3.3-8.8,3.3
		C150.7,36.5,146.4,31.7,146.4,25.6"/>
	<polygon class="st0" points="173.8,14.9 189.5,14.9 189.5,18.2 177.6,18.2 177.6,23.8 188.2,23.8 188.2,27.1 177.6,27.1 
		177.6,32.8 189.7,32.8 189.7,36.1 173.8,36.1 	"/>
	<rect x="221.9" y="14.9" class="st0" width="3.7" height="21.2"/>
	<polygon class="st0" points="238.7,18.4 232,18.4 232,14.9 249.2,14.9 249.2,18.4 242.5,18.4 242.5,36.1 238.7,36.1 	"/>
	<polygon class="st0" points="261.2,27.8 252.8,14.9 257.2,14.9 263.1,24.3 269.1,14.9 273.4,14.9 265,27.7 265,36.1 261.2,36.1 	
		"/>
	<path class="st0" d="M211.6,14.9l-6.4,16.3l-6.4-16.3h-4.1l8.2,19.8c0.1,0.2,0.2,0.4,0.4,0.6c0.2,0.2,0.3,0.4,0.5,0.5
		c0.4,0.3,0.9,0.4,1.4,0.4c0.5,0,1-0.2,1.4-0.4c0.2-0.1,0.4-0.3,0.5-0.5c0.2-0.2,0.3-0.4,0.4-0.6l8.2-19.8H211.6z"/>
	<path class="st0" d="M277.7,16.2c0.3,0,0.4-0.1,0.4-0.3v0c0-0.2-0.1-0.3-0.4-0.3h-0.5v0.7H277.7z M276.8,15.2h0.9
		c0.3,0,0.5,0.1,0.6,0.2c0.1,0.1,0.2,0.2,0.2,0.4v0c0,0.3-0.2,0.5-0.5,0.6l0.6,0.8h-0.5l-0.5-0.7h0h-0.4v0.7h-0.4V15.2z M279.3,16.3
		L279.3,16.3c0-1-0.8-1.8-1.8-1.8c-1,0-1.8,0.8-1.8,1.8v0c0,1,0.8,1.8,1.8,1.8C278.6,18,279.3,17.2,279.3,16.3 M275.6,16.3
		L275.6,16.3c0-1.1,0.9-2,2-2c1.1,0,2,0.9,2,2v0c0,1.1-0.9,2-2,2S275.6,17.4,275.6,16.3"/>
</g>
<g>
	<polygon class="st1" points="25.3,5.7 25.3,16.1 38.5,16.1 38.5,5.7 31.9,0 	"/>
	<polygon class="st1" points="5.7,25.4 0,31.9 5.7,38.5 16.1,38.5 16.1,25.4 	"/>
	<polygon class="st1" points="8.7,18 16.1,25.3 25.3,16.1 18,8.7 9.3,9.4 	"/>
	<polygon class="st1" points="18,55.1 25.3,47.8 16.1,38.5 8.7,45.8 9.3,54.5 	"/>
	<polygon class="st1" points="38.5,58.2 38.5,47.8 25.3,47.8 25.3,58.2 31.9,63.8 	"/>
	<polygon class="st1" points="58.1,25.3 47.8,25.3 47.8,38.5 58.1,38.5 63.8,31.9 	"/>
	<polygon class="st1" points="55.1,45.8 47.8,38.5 38.5,47.8 45.8,55.1 54.5,54.5 	"/>
	<polygon class="st1" points="45.8,8.7 38.5,16.1 47.8,25.4 55.1,18 54.5,9.3 	"/>
</g>
<g>
	<path class="st0" d="M114.9,56.2l-6.1-8v8h-2.7V43.6h2.6l5.9,7.8v-7.8h2.7v12.6H114.9z"/>
	<path class="st0" d="M122.4,56.2V43.6h9.5V46h-6.8v2.6h5.9v2.5h-5.9v2.6h6.8v2.5H122.4z"/>
	<path class="st0" d="M147.8,52.4c-0.3,0.8-0.8,1.4-1.4,2c-0.6,0.6-1.3,1-2.1,1.3c-0.8,0.3-1.7,0.5-2.7,0.5h-4.9V43.6h4.9
		c1,0,1.9,0.2,2.7,0.5c0.8,0.3,1.5,0.8,2.1,1.3s1.1,1.2,1.4,2c0.3,0.8,0.5,1.6,0.5,2.5v0C148.3,50.8,148.1,51.6,147.8,52.4z
		 M145.4,49.9c0-0.6-0.1-1.1-0.3-1.5c-0.2-0.5-0.4-0.9-0.8-1.2s-0.7-0.6-1.2-0.8c-0.5-0.2-1-0.3-1.5-0.3h-2.1v7.6h2.1
		c0.6,0,1.1-0.1,1.5-0.3c0.5-0.2,0.9-0.4,1.2-0.8s0.6-0.7,0.8-1.2C145.3,51,145.4,50.5,145.4,49.9L145.4,49.9z"/>
	<path class="st0" d="M152.9,56.2V43.6h9.5V46h-6.8v2.6h5.9v2.5h-5.9v2.6h6.8v2.5H152.9z"/>
	<path class="st0" d="M174.8,56.2l-2.7-4h-2.2v4h-2.8V43.6h5.8c1.5,0,2.7,0.4,3.5,1.1c0.8,0.7,1.3,1.8,1.3,3.1v0
		c0,1-0.2,1.9-0.7,2.5c-0.5,0.6-1.1,1.1-2,1.4l3.1,4.5H174.8z M174.8,47.9c0-0.6-0.2-1-0.6-1.4c-0.4-0.3-0.9-0.4-1.6-0.4h-2.8v3.6
		h2.8c0.7,0,1.2-0.2,1.6-0.5S174.8,48.5,174.8,47.9L174.8,47.9z"/>
	<path class="st0" d="M182.3,56.2V43.6h2.8v10.1h6.3v2.5H182.3z"/>
	<path class="st0" d="M205,56.2l-1.2-2.8h-5.3l-1.2,2.8h-2.8l5.4-12.7h2.6l5.4,12.7H205z M201.2,46.8l-1.7,4.1h3.3L201.2,46.8z"/>
	<path class="st0" d="M220.8,56.2l-6.1-8v8H212V43.6h2.6l5.9,7.8v-7.8h2.7v12.6H220.8z"/>
	<path class="st0" d="M239.5,52.4c-0.3,0.8-0.8,1.4-1.4,2c-0.6,0.6-1.3,1-2.1,1.3c-0.8,0.3-1.7,0.5-2.7,0.5h-4.9V43.6h4.9
		c1,0,1.9,0.2,2.7,0.5c0.8,0.3,1.5,0.8,2.1,1.3s1.1,1.2,1.4,2c0.3,0.8,0.5,1.6,0.5,2.5v0C240,50.8,239.8,51.6,239.5,52.4z
		 M237.1,49.9c0-0.6-0.1-1.1-0.3-1.5c-0.2-0.5-0.4-0.9-0.8-1.2s-0.7-0.6-1.2-0.8c-0.5-0.2-1-0.3-1.5-0.3h-2.1v7.6h2.1
		c0.6,0,1.1-0.1,1.5-0.3c0.5-0.2,0.9-0.4,1.2-0.8s0.6-0.7,0.8-1.2C237,51,237.1,50.5,237.1,49.9L237.1,49.9z"/>
</g>
</svg>
