<svg xmlns="http://www.w3.org/2000/svg" viewBox="0 0 364.1 100.93"><defs><style>.cls-1,.cls-2{fill:#6ca57b;}.cls-2{font-size:14.04px;font-family:Lato-Italic, Lato;font-style:italic;letter-spacing:0.2em;}.cls-3{letter-spacing:0.14em;}.cls-4{letter-spacing:0.17em;}.cls-5{letter-spacing:0.17em;}.cls-6{letter-spacing:0.18em;}.cls-7{letter-spacing:0.2em;}.cls-8{letter-spacing:0.17em;}.cls-15,.cls-9{font-size:72.81px;fill:#fff;font-family:Lato-Bold, Lato;font-weight:700;}.cls-9{letter-spacing:-0.02em;}.cls-10{letter-spacing:0.01em;}.cls-11,.cls-15{letter-spacing:-0.02em;}.cls-12{letter-spacing:0em;}.cls-13{letter-spacing:-0.02em;}.cls-14{letter-spacing:-0.01em;}</style></defs><title>logo-light kopie 2</title><g id="Logo"><path class="cls-1" d="M17.09,28.83a12.26,12.26,0,0,1-.84,3.05A7.68,7.68,0,0,1,14.91,34a5.15,5.15,0,0,1-1.72,1.27,4.81,4.81,0,0,1-2,.42,3.9,3.9,0,0,1-1.83-.39,3.15,3.15,0,0,1-1.31-1.25,5.4,5.4,0,0,1-.67-2.13,11.46,11.46,0,0,1,.11-3,13,13,0,0,1,.84-3,8.06,8.06,0,0,1,1.33-2.14,5,5,0,0,1,1.71-1.27,4.73,4.73,0,0,1,2-.42,4,4,0,0,1,1.83.39,3.19,3.19,0,0,1,1.33,1.25,5.4,5.4,0,0,1,.68,2.12A10.75,10.75,0,0,1,17.09,28.83Zm-2.55,0a11.75,11.75,0,0,0,.18-2.34A4.44,4.44,0,0,0,14.44,25a1.47,1.47,0,0,0-.6-.74,1.52,1.52,0,0,0-.81-.2,2,2,0,0,0-.86.21,2.5,2.5,0,0,0-.82.76,5.83,5.83,0,0,0-.72,1.46,13.36,13.36,0,0,0-.56,2.35,12.77,12.77,0,0,0-.18,2.35,4.42,4.42,0,0,0,.27,1.46,1.51,1.51,0,0,0,.59.74,1.59,1.59,0,0,0,.8.21,2.23,2.23,0,0,0,.87-.22,2.43,2.43,0,0,0,.83-.76A5.8,5.8,0,0,0,14,31.2,12.53,12.53,0,0,0,14.54,28.84Z"/><path class="cls-1" d="M27.85,33.57l-.29,1.88-7.28,0,.29-1.88h2.58l1.14-7.34c0-.16.05-.32.08-.49s.07-.33.11-.51l-1.93,1.48a1,1,0,0,1-.37.17.74.74,0,0,1-.33,0,.71.71,0,0,1-.25-.11.45.45,0,0,1-.15-.16l-.61-1.07,4.53-3.52,2,0L25.61,33.59Z"/><path class="cls-1" d="M41.42,28.65a12.7,12.7,0,0,1-.84,3.05,7.69,7.69,0,0,1-1.35,2.14,5.06,5.06,0,0,1-1.72,1.27,4.76,4.76,0,0,1-2,.42,3.9,3.9,0,0,1-1.83-.39,3.17,3.17,0,0,1-1.32-1.25,5.24,5.24,0,0,1-.66-2.13,11.06,11.06,0,0,1,.11-3,12.59,12.59,0,0,1,.83-3A8.06,8.06,0,0,1,34,23.53a5.12,5.12,0,0,1,1.71-1.27,4.76,4.76,0,0,1,2-.42,4,4,0,0,1,1.84.4,3.22,3.22,0,0,1,1.33,1.24,5.4,5.4,0,0,1,.67,2.12A11.08,11.08,0,0,1,41.42,28.65Zm-2.55,0A11.63,11.63,0,0,0,39,26.32a4.2,4.2,0,0,0-.28-1.46,1.47,1.47,0,0,0-.6-.74,1.51,1.51,0,0,0-.8-.2,1.91,1.91,0,0,0-.86.21,2.52,2.52,0,0,0-.83.76A5.83,5.83,0,0,0,35,26.35a12.6,12.6,0,0,0-.55,2.35,11.94,11.94,0,0,0-.18,2.35,4.42,4.42,0,0,0,.27,1.46,1.46,1.46,0,0,0,.59.74,1.53,1.53,0,0,0,.79.21,2.15,2.15,0,0,0,.87-.22,2.54,2.54,0,0,0,.84-.76A5.64,5.64,0,0,0,38.31,31,13.28,13.28,0,0,0,38.87,28.66Z"/><path class="cls-1" d="M53.58,28.56a12.26,12.26,0,0,1-.84,3.05,7.69,7.69,0,0,1-1.35,2.14A5.06,5.06,0,0,1,49.67,35a4.76,4.76,0,0,1-2,.42,3.9,3.9,0,0,1-1.83-.39,3.23,3.23,0,0,1-1.32-1.25,5.4,5.4,0,0,1-.66-2.13,11.06,11.06,0,0,1,.11-3,12.14,12.14,0,0,1,.84-3.05,7.58,7.58,0,0,1,1.33-2.14,5.09,5.09,0,0,1,1.7-1.27,4.76,4.76,0,0,1,2-.42,4,4,0,0,1,1.84.4A3.16,3.16,0,0,1,53,23.39a5.57,5.57,0,0,1,.68,2.12A11.13,11.13,0,0,1,53.58,28.56Zm-2.55,0a10.94,10.94,0,0,0,.17-2.34,4.2,4.2,0,0,0-.28-1.46,1.47,1.47,0,0,0-.6-.74,1.51,1.51,0,0,0-.8-.2,1.94,1.94,0,0,0-.86.21,2.41,2.41,0,0,0-.82.76,5.5,5.5,0,0,0-.73,1.46,13.45,13.45,0,0,0-.55,2.35A11.94,11.94,0,0,0,46.38,31a4.42,4.42,0,0,0,.27,1.46,1.51,1.51,0,0,0,.59.74,1.56,1.56,0,0,0,.79.21,2.15,2.15,0,0,0,.87-.22,2.45,2.45,0,0,0,.84-.76,5.64,5.64,0,0,0,.73-1.46A12.46,12.46,0,0,0,51,28.57Z"/><path class="cls-1" d="M26.88,45.41A12.56,12.56,0,0,1,26,48.46a7.46,7.46,0,0,1-1.34,2.14A5.15,5.15,0,0,1,23,51.87a4.94,4.94,0,0,1-2,.43,4.11,4.11,0,0,1-1.84-.4,3.12,3.12,0,0,1-1.31-1.24,5.45,5.45,0,0,1-.67-2.14,11.1,11.1,0,0,1,.12-3,12.59,12.59,0,0,1,.83-3,8.06,8.06,0,0,1,1.33-2.14,5,5,0,0,1,3.67-1.69A4,4,0,0,1,25,39a3.17,3.17,0,0,1,1.33,1.24A5.24,5.24,0,0,1,27,42.37,11,11,0,0,1,26.88,45.41Zm-2.55,0a12.57,12.57,0,0,0,.17-2.35,4.32,4.32,0,0,0-.28-1.45,1.39,1.39,0,0,0-.6-.74,1.63,1.63,0,0,0-.81-.21,1.8,1.8,0,0,0-.85.22,2.29,2.29,0,0,0-.83.75,6,6,0,0,0-.72,1.46,12.6,12.6,0,0,0-.55,2.35,11.94,11.94,0,0,0-.18,2.35A4.42,4.42,0,0,0,20,49.27a1.42,1.42,0,0,0,.59.74,1.53,1.53,0,0,0,.79.21A2,2,0,0,0,22.2,50a2.29,2.29,0,0,0,.83-.75,5.89,5.89,0,0,0,.74-1.47A13.14,13.14,0,0,0,24.33,45.43Z"/><path class="cls-1" d="M39,45.32a12.12,12.12,0,0,1-.85,3,7.46,7.46,0,0,1-1.34,2.14,5.15,5.15,0,0,1-1.72,1.27,4.94,4.94,0,0,1-2,.43,4,4,0,0,1-1.83-.4A3.14,3.14,0,0,1,30,50.57a5.29,5.29,0,0,1-.66-2.14,11.06,11.06,0,0,1,.11-3,12.59,12.59,0,0,1,.83-3,8.06,8.06,0,0,1,1.33-2.14,5,5,0,0,1,3.67-1.69,4.11,4.11,0,0,1,1.84.4,3.29,3.29,0,0,1,1.33,1.24,5.4,5.4,0,0,1,.67,2.13A11,11,0,0,1,39,45.32Zm-2.55,0A11.77,11.77,0,0,0,36.66,43a4.09,4.09,0,0,0-.28-1.45,1.39,1.39,0,0,0-.6-.74,1.62,1.62,0,0,0-.8-.21,1.8,1.8,0,0,0-.86.22,2.29,2.29,0,0,0-.83.75A6,6,0,0,0,32.57,43,12.6,12.6,0,0,0,32,45.37a11.94,11.94,0,0,0-.18,2.35,4.42,4.42,0,0,0,.27,1.46,1.42,1.42,0,0,0,.59.74,1.53,1.53,0,0,0,.79.21,2,2,0,0,0,.87-.22,2.4,2.4,0,0,0,.84-.75,5.9,5.9,0,0,0,.73-1.47A13.14,13.14,0,0,0,36.49,45.34Z"/><path class="cls-1" d="M49.79,50.06l-.29,1.88L42.22,52l.29-1.87,2.58,0,1.14-7.33.09-.49c0-.17.06-.34.1-.51L44.5,43.24a1.29,1.29,0,0,1-.38.18.87.87,0,0,1-.32,0,.82.82,0,0,1-.25-.11,1.2,1.2,0,0,1-.16-.16l-.61-1.08,4.54-3.52h2l-1.8,11.53Z"/><path class="cls-1" d="M48.82,61.9A12.57,12.57,0,0,1,48,65a7.76,7.76,0,0,1-1.35,2.15,5.06,5.06,0,0,1-1.72,1.27,4.93,4.93,0,0,1-2,.42,3.91,3.91,0,0,1-1.83-.4,3.2,3.2,0,0,1-1.32-1.24A5.24,5.24,0,0,1,39.14,65a11.13,11.13,0,0,1,.11-3,12.05,12.05,0,0,1,.84-3,7.65,7.65,0,0,1,1.32-2.14,5.12,5.12,0,0,1,1.71-1.27,4.94,4.94,0,0,1,2-.43,4.11,4.11,0,0,1,1.84.4,3.25,3.25,0,0,1,1.33,1.25,5.4,5.4,0,0,1,.67,2.12A10.64,10.64,0,0,1,48.82,61.9Zm-2.55,0a11.73,11.73,0,0,0,.17-2.34,4.15,4.15,0,0,0-.28-1.46,1.47,1.47,0,0,0-.6-.74,1.62,1.62,0,0,0-.8-.21,2.11,2.11,0,0,0-.86.22,2.59,2.59,0,0,0-.83.75,5.91,5.91,0,0,0-.72,1.47A13.23,13.23,0,0,0,41.8,62a11.89,11.89,0,0,0-.18,2.35,4.35,4.35,0,0,0,.27,1.45,1.44,1.44,0,0,0,.59.75,1.55,1.55,0,0,0,.79.2,1.87,1.87,0,0,0,.87-.22,2.4,2.4,0,0,0,.84-.75,6,6,0,0,0,.73-1.46A13.28,13.28,0,0,0,46.27,61.92Z"/><text class="cls-2" transform="matrix(0.99, 0, 0, 1, 208.13, 90.68)">DIGI<tspan class="cls-3" x="38.2" y="0">T</tspan><tspan x="47.79" y="0">A</tspan><tspan class="cls-4" x="59.46" y="0">L</tspan><tspan class="cls-5" x="68.52" y="0"> </tspan><tspan class="cls-6" x="74.22" y="0">A</tspan><tspan x="85.57" y="0">GEN</tspan><tspan class="cls-7" x="121.06" y="0">C</tspan><tspan class="cls-8" x="132.56" y="0">Y</tspan></text><text class="cls-9" transform="matrix(0.99, 0, -0.15, 0.99, 51.11, 70.23)">B<tspan class="cls-10" x="46.86" y="0">y</tspan><tspan class="cls-11" x="86.07" y="0">t</tspan><tspan class="cls-12" x="111.62" y="0">e</tspan><tspan class="cls-13" x="150.8" y="0">c</tspan><tspan class="cls-14" x="184.73" y="0">o</tspan><tspan class="cls-11" x="225.98" y="0">d</tspan></text><text class="cls-15" transform="matrix(0.99, 0, -0.14, 0.96, 313.9, 70.23)">e</text></g></svg>