<svg
    width="855px"
    height="1033px"
    viewBox="0 0 855 1033"
    version="1.1"
    xmlns="http://www.w3.org/2000/svg"
    xmlnsXlink="http://www.w3.org/1999/xlink"
>
    <desc>Created by Bytecode</desc>
    <defs />
    <g
        id="Symbols"
        stroke="none"
        strokeWidth="1"
        fill="none"
        fillRule="evenodd"
    >
        <g
            id="Decoration/Web"
            transform="translate(0.000000, -13.000000)"
            strokeWidth="0.25"
        >
            <g id="web" transform="translate(0.000000, 14.000000)">
                <polygon
                    id="Shape"
                    stroke="#FFFFFF"
                    points="620.868178 0 423 136 805 51.8629562"
                />
                <polyline
                    id="Shape"
                    stroke="#00FFAA"
                    points="422.46079 136.086398 854 386.830962 803.255319 200.675579 568.92766 324.08773 619.704559 0 165 178.714496 422.46079 136.086398 395.525836 295.979828 568.92766 324.08773 422.46079 502.307436 304.410942 800 854 392.140444 568.92766 324.08773 803.255319 51.8959037 803.255319 200.675579 422.46079 136.086398 568.92766 324.08773"
                />
                <polygon
                    id="Shape"
                    stroke="#FFFFFF"
                    points="159.119344 589 423 502 18 502.948953"
                />
                <polyline
                    id="Shape"
                    stroke="#FFFFFF"
                    points="422.306339 501.923393 164.753401 179 103 363.611756 395.361744 296.022697 157.308184 588.978252 304.21424 799 395.361744 296.022697 673.413201 738.000827 854 386.685852"
                />
                <polyline
                    id="Shape"
                    stroke="#FFFFFF"
                    points="169.614233 173 396.169031 295.042564 18 502 105.040178 362.666647 423 501.049957 396.169031 295.042564"
                />
                <polyline
                    id="Shape"
                    stroke="#FFFFFF"
                    points="570.599238 323.139428 675.182006 737.009431 316.861138 796.215095 306 798 805 200"
                />
                <polyline
                    id="Shape"
                    stroke="#FFFFFF"
                    points="403.301701 908.622575 1.84126528 778.466119 103.207764 907.42726 231.514881 789.793146 306.457608 1031 674 737.540831 403.301701 908.622575 367.736209 789.413681 227.057081 781.369026 272.313444 634.535088 569.177091 324 0 774.614551 231.514881 789.793146 154.63398 1015.36605 103.207764 907.42726 403.301701 908.622575 231.514881 789.793146"
                />
                <polyline
                    id="Shape"
                    stroke="#FFFFFF"
                    points="436.970205 716.57922 180 721.009218 366.541811 790.330133 420.990112 502 475.728374 799 672 738.348953 271.692227 679.903399 651.283871 705.342616 394.796935 587.900134"
                />
                <polyline
                    id="Shape"
                    stroke="#00FFAA"
                    points="234.513274 789.192523 15 500.393192 572 322.712914 425.227336 135 106.272838 907"
                />
            </g>
        </g>
    </g>
</svg>
