<?xml version="1.0" encoding="UTF-8"?>
<svg width="531px" height="407px" viewBox="0 0 531 407" version="1.1" xmlns="http://www.w3.org/2000/svg" xmlns:xlink="http://www.w3.org/1999/xlink">
    <!-- Generator: sketchtool 62 (101010) - https://sketch.com -->
    <title>0D2271A1-FCE8-4FDA-873F-C9410DFBE6EF</title>
    <desc>Created with sketchtool.</desc>
    <defs>
        <circle id="path-1" cx="44.6455725" cy="44.2246957" r="43.668135"></circle>
        <circle id="path-3" cx="50.0507794" cy="49.5265305" r="43.668135"></circle>
    </defs>
    <g id="New-Case" stroke="none" stroke-width="1" fill="none" fill-rule="evenodd">
        <g id="Case-Youngpwr---Desktop-HD" transform="translate(-803.000000, -1215.000000)">
            <g id="Group-3" transform="translate(802.000000, 1208.000000)">
                <g id="app-match-copy">
                    <g id="Background_1_" transform="translate(0.912000, 34.000000)">
                        <rect id="Rectangle" fill="#262626" fill-rule="nonzero" x="0.888" y="0.4" width="530" height="257"></rect>
                        <rect id="Rectangle" fill="#DF5252" opacity="0.700567336" x="195.088" y="164" width="165" height="5"></rect>
                    </g>
                    <g id="Graphic_Element" transform="translate(35.000000, 0.038000)" fill-rule="nonzero">
                        <g id="Group" transform="translate(0.000000, 0.358000)">
                            <g id="Path">
                                <path d="M153.75313,278.388506 L63.7891298,283.756106 C47.6485298,284.738906 33.7381298,272.416106 32.7931298,256.237706 L20.3569298,47.9975063 C19.3741298,31.8569063 31.6969298,17.9465063 47.8753298,17.0015063 L137.83933,11.6339063 C153.97993,10.6511063 167.89033,22.9739063 168.83533,39.1523063 L181.27153,247.392506 C182.25433,263.533106 169.93153,277.405706 153.75313,278.388506 Z" fill="#212121" transform="translate(100.814230, 147.695006) rotate(-9.000000) translate(-100.814230, -147.695006) "></path>
                                <path d="M151.666356,268.748538 L62.3071557,274.078338 C51.3073557,274.720938 41.8573557,266.367138 41.2147557,255.367338 L28.7785557,46.8625384 C28.1359557,35.8627384 36.4897557,26.4127384 47.4895557,25.7701384 L136.848756,20.4403384 C147.848556,19.7977384 157.298556,28.1515384 157.941156,39.1513384 L170.377356,247.656138 C171.019956,258.655938 162.666156,268.105938 151.666356,268.748538 Z" fill="#5D9A7A" transform="translate(99.577956, 147.259338) rotate(-9.000000) translate(-99.577956, -147.259338) "></path>
                                <path d="M94.5533007,37.181292 L52.3307007,40.583292 C49.6469007,40.810092 47.3033007,38.806692 47.1143007,36.122892 L46.6229007,29.999292 C46.3961007,27.315492 48.3995007,24.971892 51.0833007,24.782892 L93.3059007,21.380892 C95.9897007,21.154092 98.3333007,23.157492 98.5223007,25.841292 L99.0137007,31.964892 C99.2027007,34.648692 97.2371007,36.992292 94.5533007,37.181292 Z" fill="#212121" transform="translate(72.815826, 30.982092) rotate(-9.000000) translate(-72.815826, -30.982092) "></path>
                            </g>
                            <g transform="translate(259.410000, 127.554000)" id="Path">
                                <path d="M103.25159,283.73579 L19.2599902,251.00099 C4.17779018,245.10419 -3.26880982,228.13199 2.59019018,213.04979 L78.3791902,18.7199902 C84.2759902,3.63779018 101.24819,-3.80880982 116.33039,2.05019018 L200.32199,34.8227902 C215.40419,40.7195902 222.85079,57.6917902 216.99179,72.7739902 L141.20279,267.10379 C135.30599,282.18599 118.33379,289.63259 103.25159,283.73579 Z" fill="#212121"></path>
                                <path d="M105.48179,273.98339 L22.0949902,241.47539 C11.8511902,237.46859 6.74819018,225.90179 10.7549902,215.65799 L86.6573902,21.0635902 C90.6641902,10.8197902 102.23099,5.71679018 112.47479,9.72359018 L195.86159,42.2315902 C206.10539,46.2383902 211.20839,57.8051902 207.20159,68.0489902 L131.29919,262.64339 C127.33019,272.92499 115.76339,277.99019 105.48179,273.98339 Z" fill="#5D9A7A"></path>
                                <path d="M168.45659,44.9909902 L128.65319,30.4001902 C126.12059,29.4929902 124.83539,26.6957902 125.78039,24.1631902 L127.89719,18.3797902 C128.80439,15.8471902 131.60159,14.5619902 134.13419,15.5069902 L173.93759,30.0977902 C176.47019,31.0049902 177.75539,33.8021902 176.81039,36.3347902 L174.69359,42.1181902 C173.74859,44.6507902 170.95139,45.9359902 168.45659,44.9909902 Z" fill="#212121"></path>
                            </g>
                        </g>
                    </g>
                    <g id="Text" transform="translate(217.888000, 48.354000)" fill="#FFFFFF" font-family="Helvetica" font-size="27.216" font-weight="normal">
                        <text id="IT’S-A-MATCH!">
                            <tspan x="0.112" y="26.646">IT’S A MATCH!</tspan>
                        </text>
                    </g>
                    <text id="#youngpwr" fill="#FFFFFF" transform="translate(383.737190, 316.046790) rotate(22.000000) translate(-383.737190, -316.046790) " font-family="Helvetica" font-size="18.144" font-weight="normal">
                        <tspan x="339.356151" y="323.04679">#youngpwr</tspan>
                    </text>
                    <text id="#ceo" fill="#FFFFFF" transform="translate(140.993930, 180.607106) rotate(-13.000000) translate(-140.993930, -180.607106) " font-family="Helvetica" font-size="18.144" font-weight="normal">
                        <tspan x="121.321688" y="187.607106">#ceo</tspan>
                    </text>
                </g>
                <g id="Group-1" transform="translate(128.988530, 120.172210) rotate(-13.000000) translate(-128.988530, -120.172210) translate(84.488530, 76.172210)">
                    <mask id="mask-2" fill="white">
                        <use xlink:href="#path-1"></use>
                    </mask>
                    <use id="Oval-Copy-9" fill="#FFFFFF" xlink:href="#path-1"></use>
                    <path d="M35.0854173,60.2038697 C35.0854173,60.2038697 16.5968172,72.8993751 16.0883807,80.2331865 C17.4442114,89.4774865 20.1712799,100.840272 20.1712799,100.840272 L75.2750116,76.2889518 C75.2750116,76.2889518 68.9657769,65.6503032 62.6873564,59.4720293 C56.9096689,54.9346187 35.0854173,60.2038697 35.0854173,60.2038697 Z" id="Path" fill="#F1C9A5" fill-rule="nonzero" mask="url(#mask-2)" transform="translate(45.681696, 79.234683) rotate(-335.000000) translate(-45.681696, -79.234683) "></path>
                    <path d="M36.7875426,64.7850599 C36.7875426,64.7850599 58.6040906,59.5389196 64.3894817,64.060923 C70.6601986,70.2237897 76.9771369,80.8778455 76.9771369,80.8778455 L49.4214193,93.1573574 L36.7875426,64.7927634 L36.7875426,64.7850599 Z" id="Path" fill="#F1C9A5" fill-rule="nonzero" mask="url(#mask-2)" transform="translate(56.882340, 77.690234) rotate(-335.000000) translate(-56.882340, -77.690234) "></path>
                    <rect id="Rectangle" fill="#F1C9A5" fill-rule="nonzero" mask="url(#mask-2)" transform="translate(44.176690, 54.364880) rotate(-359.010000) translate(-44.176690, -54.364880) " x="38.1678945" y="44.3040003" width="12.01759" height="20.1217597"></rect>
                    <rect id="Rectangle" fill="#F1C9A5" fill-rule="nonzero" mask="url(#mask-2)" transform="translate(47.175970, 54.412139) rotate(-359.010000) translate(-47.175970, -54.412139) " x="44.1754239" y="44.3512589" width="6.00109143" height="20.1217597"></rect>
                    <path d="M50.0791296,56.8728636 C51.1256279,56.4063778 52.0885201,55.7713895 52.9294554,54.9931893 L47.3751718,42.5287914 L36.3975656,47.4205669 L40.1954321,55.94073 C42.4525821,58.3288409 47.1363608,58.1670656 50.0791296,56.8728636 Z" id="Path" fill="#DDAC8C" fill-rule="nonzero" opacity="0.1" mask="url(#mask-2)" transform="translate(44.663510, 50.165887) rotate(-335.000000) translate(-44.663510, -50.165887) "></path>
                    <path d="M58.0212406,25.3929772 C52.9060613,13.914638 43.684872,10.2015108 35.8888457,13.6758269 C28.0928193,17.150143 24.6878355,26.486886 29.7953112,37.9652252 C36.6746112,53.372392 45.3642532,55.922278 53.1602795,52.447962 C60.9563059,48.9736459 64.615508,40.1838573 58.0212406,25.3929772 Z" id="Path" fill="#F1C9A5" fill-rule="nonzero" mask="url(#mask-2)" transform="translate(44.406649, 33.120901) rotate(-335.000000) translate(-44.406649, -33.120901) "></path>
                    <path d="M60.2318606,40.3666179 C57.5587172,41.2371228 54.6082447,39.2495983 53.6375932,35.9293539 C52.6669417,32.6091094 54.0535867,29.2041256 56.7190266,28.3259171 C59.3844664,27.4477086 62.3426424,29.4429367 63.3132939,32.7631811 C64.2839454,36.0834255 62.905004,39.4961129 60.2318606,40.3666179 Z" id="Path" fill="#F1C9A5" fill-rule="nonzero" mask="url(#mask-2)" transform="translate(58.475869, 34.344966) rotate(-335.000000) translate(-58.475869, -34.344966) "></path>
                    <path d="M28.1323604,27.8190119 C30.5666927,26.4169597 34.0410088,27.6572366 35.8359437,30.5923019 C37.6308786,33.5273671 37.1609601,37.0556083 34.7266277,38.4576605 C32.2922954,39.8597126 28.8179793,38.6194357 27.0230444,35.6843705 C25.1972951,32.7416016 25.698028,29.221064 28.1323604,27.8190119 Z" id="Path" fill="#F1C9A5" fill-rule="nonzero" mask="url(#mask-2)" transform="translate(31.422877, 33.138336) rotate(-335.000000) translate(-31.422877, -33.138336) "></path>
                    <path d="M57.9132343,27.2497143 C52.798055,15.7713751 43.5768657,12.058248 35.7808393,15.532564 L53.0214589,54.3046991 C60.8174852,50.830383 64.4689837,42.0405944 57.88242,27.2497143 L57.9132343,27.2497143 Z" id="Path" fill="#F1C9A5" fill-rule="nonzero" mask="url(#mask-2)" transform="translate(48.540246, 34.292862) rotate(-335.000000) translate(-48.540246, -34.292862) "></path>
                    <path d="M43.6977543,58.5475396 L47.7190248,88.5915147 L28.097998,65.4884682 C22.8056362,69.8332893 16.3808477,75.9499344 16.0881115,80.2331268 C17.4439422,89.4774268 20.1710107,100.840212 20.1710107,100.840212 L75.2747425,76.2888921 C75.2747425,76.2888921 68.9655077,65.6502435 62.6870872,59.4719696 C59.3129177,56.8296406 50.4615005,57.5152595 43.6977543,58.5475396 Z" id="Path" fill="#172D39" fill-rule="nonzero" mask="url(#mask-2)" transform="translate(45.681427, 79.235260) rotate(-335.000000) translate(-45.681427, -79.235260) "></path>
                    <path d="M50.8585213,85.761627 L46.8603616,55.7407626 L43.2461284,68.2621935 L30.9832763,62.8126522 C37.608358,70.4623104 44.2334396,78.1119687 50.8585213,85.761627 Z" id="Path" fill="#B2A1A1" fill-rule="nonzero" mask="url(#mask-2)" transform="translate(40.920899, 70.751195) rotate(-335.000000) translate(-40.920899, -70.751195) "></path>
                    <path d="M48.1301389,83.2585285 L32.5457897,76.3253035 C32.4195466,76.2716814 32.3286628,76.1582545 32.3038541,76.0233575 C32.2790455,75.8884606 32.3236274,75.7501204 32.4225324,75.6550918 L34.9878257,73.1052057 C35.0814173,73.0117689 35.1250048,72.8793975 35.1052382,72.748634 C35.0854716,72.6178704 35.0047064,72.5042965 34.8876791,72.4426975 L24.4724344,66.8421924 C24.3554071,66.7805934 24.2746418,66.6670195 24.2548753,66.5362559 C24.2351087,66.4054924 24.2786962,66.273121 24.3722878,66.1796842 C24.9038351,65.6558406 25.8436722,64.7082998 26.3521087,64.2229741 C27.3972899,63.1713215 28.5116624,62.1907767 29.6877603,61.2879088 C29.8580805,61.1573013 30.1004459,61.1808646 30.2424183,61.3418339 L48.5615395,82.6114275 C48.6827061,82.7556566 48.6894738,82.9640593 48.5779199,83.1158457 C48.466366,83.2676321 48.2654494,83.3233994 48.091621,83.2508249 L48.1301389,83.2585285 Z" id="Path" fill="#172D39" fill-rule="nonzero" mask="url(#mask-2)" transform="translate(36.453707, 72.242991) rotate(-335.000000) translate(-36.453707, -72.242991) "></path>
                    <path d="M35.4821482,72.9328428 L38.9641679,64.6514907 C38.9802805,64.6399189 39.0019803,64.6399189 39.018093,64.6514907 L44.9100817,66.8578235 C44.9485996,66.8578235 44.9871175,66.811602 44.9100817,66.7961949 L34.9428974,59.5979401 C34.9428974,59.5979401 34.9043794,59.5979401 34.8966759,59.5979401 L31.9384998,61.9090151 C31.9384998,61.9090151 31.9384998,61.9090151 31.9384998,61.9629401 C33.2404054,65.4988849 35.096969,71.9775985 35.3665944,72.8943249 C35.3739421,72.9111779 35.3905791,72.9220739 35.4089642,72.9220739 C35.4273492,72.9220739 35.4439862,72.9111779 35.4513339,72.8943249 L35.4821482,72.9328428 Z" id="Path" fill="#FFFFFF" fill-rule="nonzero" mask="url(#mask-2)" transform="translate(38.446529, 66.265391) rotate(-335.000000) translate(-38.446529, -66.265391) "></path>
                    <path d="M62.3603376,21.8743924 C62.3603376,21.8743924 59.0015753,21.1040341 60.4036274,27.1590506 C58.4161029,21.7665422 54.9417868,14.6484312 50.1039365,15.2339036 C49.6340179,20.5416725 41.514441,27.428676 34.6967698,28.6535458 C31.7231866,30.1942624 34.7506949,30.1942624 36.5148154,39.6080413 C34.8893594,35.7023245 33.8339684,33.3373244 31.7077794,35.193888 C27.4322907,27.3670473 27.2936262,15.1029426 39.2804019,9.77206295 C51.2671776,4.44118327 58.8629108,10.7658252 62.3911519,21.882096 L62.3603376,21.8743924 Z" id="Path" fill="#262421" fill-rule="nonzero" mask="url(#mask-2)" transform="translate(45.727623, 23.729879) rotate(-335.000000) translate(-45.727623, -23.729879) "></path>
                    <path d="M50.7407327,88.6789743 L55.9945766,72.4398206 C56.0388923,72.310151 56.0152034,72.1668977 55.9315031,72.0583973 C55.8478027,71.9498968 55.7152546,71.8906207 55.5785831,71.9005698 L51.9656025,72.1008629 C51.8341764,72.1072075 51.7074969,72.0509997 51.6240108,71.9492984 C51.5405248,71.8475972 51.5100759,71.7123941 51.5419054,71.5847229 L54.3383062,60.0986801 C54.3701357,59.9710088 54.3396868,59.8358057 54.2562007,59.7341045 C54.1727146,59.6324033 54.0460351,59.5761955 53.9146091,59.58254 C53.1442507,59.6287615 51.8346416,59.6903902 51.1336155,59.7443152 C49.6514958,59.8304206 48.1768095,60.0157215 46.7194622,60.2989732 C46.6118504,60.3177049 46.5162313,60.378775 46.4539813,60.4685308 C46.3917313,60.5582867 46.3680415,60.6692432 46.3882081,60.7765954 L49.9472636,88.6250492 C49.9738909,88.8052214 50.1187082,88.944754 50.2997454,88.9646681 C50.4807826,88.9845822 50.6524674,88.8798649 50.717622,88.7097887 L50.7407327,88.6789743 Z" id="Path" fill="#172D39" fill-rule="nonzero" mask="url(#mask-2)" transform="translate(51.198854, 74.274570) rotate(-335.000000) translate(-51.198854, -74.274570) "></path>
                    <path d="M57.0283241,69.9909031 L48.2089737,66.6598472 C48.1928611,66.6482753 48.1711612,66.6482753 48.1550486,66.6598472 L46.3280468,72.3481996 C46.3280468,72.3867176 46.2433074,72.3481996 46.2587145,72.3481996 L47.1227684,60.2735766 C47.1227684,60.2735766 47.2557344,60.1701207 47.2557344,60.2086386 L50.828192,59.6341791 C50.828192,59.6341791 50.828192,59.6341791 50.8744135,59.6341791 C52.6308305,62.9698307 56.1975896,68.678186 56.7060261,69.4870623 C56.7060261,69.5255802 56.7060261,69.5718017 56.6598046,69.5563945 L57.0283241,69.9909031 Z" id="Path" fill="#FFFFFF" fill-rule="nonzero" mask="url(#mask-2)" transform="translate(51.642583, 65.999749) rotate(-335.000000) translate(-51.642583, -65.999749) "></path>
                </g>
                <g id="Group-2" transform="translate(412.793022, 251.051782) rotate(14.000000) translate(-412.793022, -251.051782) translate(362.793022, 201.551782)">
                    <mask id="mask-4" fill="white">
                        <use xlink:href="#path-3"></use>
                    </mask>
                    <use id="Oval-Copy-8" fill="#FFFFFF" transform="translate(50.050779, 49.526531) rotate(-352.000000) translate(-50.050779, -49.526531) " xlink:href="#path-3"></use>
                    <ellipse id="Oval" fill="#3D1C0F" fill-rule="nonzero" mask="url(#mask-4)" transform="translate(50.995987, 42.812360) rotate(-78.290000) translate(-50.995987, -42.812360) " cx="50.9959871" cy="42.8123598" rx="20.9768575" ry="20.8227858"></ellipse>
                    <path d="M67.5519527,90.4948107 C66.9279624,83.499957 48.9400953,71.7673995 48.9400953,71.7673995 C48.9400953,71.7673995 27.978645,67.2068782 22.5553223,71.6749565 C17.0010387,78.6775138 10.9075043,88.0065532 10.9075043,88.0065532 L64.0622294,110.254502 C64.0622294,110.254502 67.3901774,98.8917165 67.5519527,90.4948107 Z" id="Path" fill="#F1C9A5" fill-rule="nonzero" mask="url(#mask-4)" transform="translate(39.229728, 89.983666) rotate(-11.000000) translate(-39.229728, -89.983666) "></path>
                    <path d="M48.8920307,69.2136604 C48.8920307,69.2136604 66.8490835,80.9462179 67.4730737,87.9410716 C67.2958913,96.3687918 64.0141648,107.700763 64.0141648,107.700763 L37.459913,96.5921957 L48.8920307,69.2136604 Z" id="Path" fill="#F1C9A5" fill-rule="nonzero" mask="url(#mask-4)" transform="translate(52.466493, 88.457212) rotate(-11.000000) translate(-52.466493, -88.457212) "></path>
                    <rect id="Rectangle" fill="#F1C9A5" fill-rule="nonzero" mask="url(#mask-4)" transform="translate(45.941306, 67.278508) rotate(-78.290000) translate(-45.941306, -67.278508) " x="36.3272335" y="61.5354862" width="19.2281441" height="11.4860428"></rect>
                    <rect id="Rectangle" fill="#F1C9A5" fill-rule="nonzero" mask="url(#mask-4)" transform="translate(48.739957, 67.855167) rotate(-78.290000) translate(-48.739957, -67.855167) " x="39.1258854" y="64.9778788" width="19.2281441" height="5.75457677"></rect>
                    <path d="M40.3007269,64.0872567 C40.1158409,67.2303187 43.3051244,70.3887878 46.1323395,71.5751397 C47.140655,71.9968211 48.2091784,72.2568024 49.2985123,72.345498 L54.3366558,60.3125008 L43.7442287,55.8829404 L40.3007269,64.0872567 Z" id="Path" fill="#DDAC8C" fill-rule="nonzero" opacity="0.1" mask="url(#mask-4)" transform="translate(47.314853, 64.114219) rotate(-11.000000) translate(-47.314853, -64.114219) "></path>
                    <path d="M64.2170045,51.6993198 C68.8391546,40.6292705 65.3879492,31.7778533 57.8692519,28.6270877 C50.3505545,25.4763221 41.6223946,29.2279672 36.9848374,40.2980164 C32.3472802,51.3680657 34.6737624,62.9080336 42.2078669,66.0510956 C49.7419714,69.1941576 59.5794474,62.7693691 64.2170045,51.6993198 Z" id="Path" fill="#F1C9A5" fill-rule="nonzero" mask="url(#mask-4)" transform="translate(50.453359, 47.201051) rotate(-11.000000) translate(-50.453359, -47.201051) "></path>
                    <path d="M59.0434426,56.0248423 C56.6938497,54.7383439 56.1237845,51.4026923 57.7646478,48.6139951 C59.4055111,45.8252979 62.6641268,44.5927246 65.0599412,45.8561123 C67.4557557,47.1195 67.9795993,50.4782623 66.3387361,53.2669595 C64.6978728,56.0556566 61.4007391,57.3113407 59.0434426,56.0248423 Z" id="Path" fill="#F1C9A5" fill-rule="nonzero" mask="url(#mask-4)" transform="translate(62.058067, 50.945449) rotate(-11.000000) translate(-62.058067, -50.945449) "></path>
                    <path d="M33.1214923,44.5230917 C33.9380722,41.3800297 36.7036586,39.4541339 39.284359,40.2244922 C41.8650595,40.9948506 43.2671116,44.1841341 42.4428282,47.3580104 C41.6185448,50.5318867 38.8606619,52.4269683 36.2799615,51.6412027 C33.6992611,50.8554372 32.3357268,47.6661537 33.1523067,44.5230917 L33.1214923,44.5230917 Z" id="Path" fill="#F1C9A5" fill-rule="nonzero" mask="url(#mask-4)" transform="translate(37.797500, 45.936726) rotate(-11.000000) translate(-37.797500, -45.936726) "></path>
                    <path d="M64.2495532,50.9635662 C68.8717032,39.893517 65.4204979,31.0420997 57.9018005,27.8913341 L42.2404156,65.315342 C49.7514094,68.458404 59.611996,62.0336155 64.2495532,50.9635662 Z" id="Path" fill="#F1C9A5" fill-rule="nonzero" mask="url(#mask-4)" transform="translate(54.290179, 47.002190) rotate(-11.000000) translate(-54.290179, -47.002190) "></path>
                    <path d="M58.0338108,25.3115167 C49.8988268,21.9142364 38.7363345,27.8922171 35.1156503,36.4817125 L35.1156503,36.566452 L38.4744126,37.9762077 L43.8206995,33.4465007 L39.429657,38.3844976 L43.2814486,39.1933739 L45.900667,34.34782 L43.7590708,39.4629993 L46.5323608,40.2949863 L50.2377844,35.6728363 L48.1270026,40.7957192 L51.7862047,42.1977714 L53.7043969,37.6218429 L53.1959604,42.6522828 L57.6563352,44.4549213 L59.6053418,41.2194163 L60.1985177,46.7814035 L64.5972638,48.8844817 L64.5972638,48.7997423 C68.1640229,40.2718756 66.1379805,28.7704256 58.0107,25.3654418 L58.0338108,25.3115167 Z" id="Path" fill="#3D1C0F" fill-rule="nonzero" mask="url(#mask-4)" transform="translate(50.701390, 36.613960) rotate(-11.000000) translate(-50.701390, -36.613960) "></path>
                    <path d="M36.7035945,33.4915653 C36.7035945,33.4915653 36.3492297,21.9361903 27.8983987,24.3936333 C19.4475678,26.8510764 23.7538709,46.9882433 14.5326816,41.9732106 C16.4354667,47.0190577 21.9281216,46.9959469 25.656656,39.192217 C29.3851903,31.388487 31.8195227,35.733308 31.8195227,35.733308" id="Path" fill="#3D1C0F" fill-rule="nonzero" mask="url(#mask-4)" transform="translate(25.618138, 34.754908) rotate(-11.000000) translate(-25.618138, -34.754908) "></path>
                    <path d="M72.2543447,39.5642298 C72.2543447,39.5642298 77.0536771,38.2546206 74.1109083,46.381901 C71.1681395,54.5091815 75.004524,58.438009 79.9348173,56.2578949 C69.9201589,53.2149795 87.2763322,42.1372266 83.0701757,34.4028289 C78.8640192,26.6684312 70.4131883,34.5183827 70.4131883,34.5183827" id="Path" fill="#3D1C0F" fill-rule="nonzero" mask="url(#mask-4)" transform="translate(77.076976, 43.923886) rotate(-11.000000) translate(-77.076976, -43.923886) "></path>
                    <path d="M54.0561735,30.9014733 C61.0895451,33.8442422 65.234073,40.3614737 64.1863857,46.1930863 C64.6076284,45.5958403 64.9640066,44.9553926 65.2494802,44.2825976 C67.8841057,37.9810664 63.6394312,30.2004472 55.7355547,26.8879064 C47.8316782,23.5753655 39.3038114,26.0174015 36.6691859,32.2804147 C36.389438,32.9574896 36.1828364,33.6625175 36.0528992,34.383493 C39.5041046,29.5918641 47.0228019,27.9587045 54.0561735,30.9014733 Z" id="Path" fill="#FF9800" fill-rule="nonzero" mask="url(#mask-4)" transform="translate(51.041708, 35.800534) rotate(-11.000000) translate(-51.041708, -35.800534) "></path>
                    <path d="M67.5574018,90.4920607 C67.4033301,88.6354971 66.0166851,86.4630866 64.0907893,84.2598617 C59.9847793,83.3739496 53.4675478,81.1784284 46.2878081,78.1740309 C39.1080684,75.1696334 32.9760161,72.0727929 29.4554785,69.7694214 C26.5281168,69.9389003 24.0167487,70.4781511 22.5838821,71.6722065 C17.0295985,78.6747638 10.9360641,88.0038032 10.9360641,88.0038032 L64.0907893,110.251752 C64.0907893,110.251752 67.3956265,98.8889665 67.5574018,90.4920607 Z" id="Path" fill="#8BC34A" fill-rule="nonzero" mask="url(#mask-4)" transform="translate(39.246733, 90.010587) rotate(-11.000000) translate(-39.246733, -90.010587) "></path>
                </g>
            </g>
        </g>
    </g>
</svg>