<svg xmlns="http://www.w3.org/2000/svg" viewBox="0 0 265.11 543.49"><defs><style>.cls-1,.cls-2{fill:none;stroke-miterlimit:10;stroke-width:0.25px;}.cls-1{stroke:#0fa;}.cls-2{stroke:#fff;}</style></defs><title>Middel 2</title><g id="Layer_2" data-name="Layer 2"><g id="Layer_1-2" data-name="Layer 1"><polyline class="cls-1" points="130.97 71.76 264.91 203.52 249.16 105.7 176.43 170.55 192.19 0.25 51.06 94.16 130.97 71.76 122.61 155.78 176.43 170.55 130.97 264.2 94.33 420.63 264.91 206.31 176.43 170.55 249.16 27.52 249.16 105.7 130.97 71.76 176.43 170.55"/><polygon class="cls-2" points="192.19 0.25 130.97 71.76 249.16 27.52 192.19 0.25"/><polygon class="cls-2" points="48.75 310.04 130.97 264.2 4.78 264.7 48.75 310.04"/><polyline class="cls-2" points="130.97 264.2 51.06 94.16 31.9 191.37 122.61 155.78 48.75 310.04 94.33 420.63 122.61 155.78 208.88 388.51 264.91 203.52"/><polyline class="cls-2" points="52.02 91.55 122.61 155.78 4.78 264.7 31.9 191.37 130.97 264.2 122.61 155.78"/><polyline class="cls-2" points="176.43 170.55 208.88 388.51 97.7 419.69 94.33 420.63 249.16 105.7"/><polyline class="cls-2" points="125.08 478.68 0.8 410.08 32.18 478.05 71.9 416.05 95.1 543.18 208.88 388.51 125.08 478.68 114.07 415.85 70.52 411.61 84.53 334.22 176.43 170.55 0.23 408.05 71.9 416.05 48.1 534.94 32.18 478.05 125.08 478.68 71.9 416.05"/><polyline class="cls-2" points="135.93 377.06 56.17 379.39 114.07 415.85 130.97 264.2 147.96 420.41 208.88 388.51 84.63 357.77 202.45 371.15 122.84 309.38"/><polyline class="cls-1" points="71.9 416.05 3.91 264.06 176.43 170.55 130.97 71.76 32.18 478.05"/></g></g></svg>