<svg id="Layer_1" data-name="Layer 1" xmlns="http://www.w3.org/2000/svg" viewBox="0 0 144 144"><defs><style>.cls-1{fill:#e8e8e8;}.cls-2,.cls-5{fill:none;}.cls-3{fill:#fff;}.cls-4{fill:#79deae;}.cls-5{stroke:#1a1a1a;stroke-linecap:round;stroke-width:2px;}</style></defs><g id="Group_272" data-name="Group 272"><g id="Group_269" data-name="Group 269"><path id="Path_400" data-name="Path 400" class="cls-1" d="M107.18,45.49a9,9,0,0,1-5.57,8.32h0a9,9,0,0,1-6.8,0h0a9,9,0,1,1,12.4-8.32Z"/><path id="Path_401" data-name="Path 401" class="cls-1" d="M118.86,78.75H97a35.07,35.07,0,0,0-13.33-9.32c-1.1-.43-2.21-.8-3.34-1.12a20.59,20.59,0,0,1,8.76-8.13,20,20,0,0,1,5.31-1.75,19.2,19.2,0,0,1,3.78-.35,19,19,0,0,1,3.76.35h0A20.67,20.67,0,0,1,118.86,78.75Z"/></g><g id="Group_270" data-name="Group 270"><path id="Path_402" data-name="Path 402" class="cls-2" d="M65.61,71.25a5.73,5.73,0,0,0-.7.13"/><path id="Path_403" data-name="Path 403" class="cls-1" d="M53.8,45.49a9,9,0,0,1-5.57,8.32h0a9,9,0,0,1-6.81,0h0a9,9,0,1,1,12.4-8.32Z"/><path id="Path_404" data-name="Path 404" class="cls-2" d="M65.61,71.25a5.73,5.73,0,0,0-.7.13"/><path id="Path_405" data-name="Path 405" class="cls-1" d="M62.49,68a32.28,32.28,0,0,0-4.41,1.4,35,35,0,0,0-13.34,9.32H24.14A20.69,20.69,0,0,1,41,58.42h0a20.83,20.83,0,0,1,7.55,0h0a20.48,20.48,0,0,1,3.92,1.14A20.68,20.68,0,0,1,62.49,68Z"/></g><g id="Group_271" data-name="Group 271"><path id="Path_406" data-name="Path 406" class="cls-3" d="M75.81,64.73a.37.37,0,0,0,0,.11h-.17Z"/><path id="Path_407" data-name="Path 407" class="cls-2" d="M65.61,71.25a5.73,5.73,0,0,0-.7.13"/><path id="Path_408" data-name="Path 408" class="cls-3" d="M75.81,64.73a.37.37,0,0,0,0,.11h-.17Z"/><path id="Path_409" data-name="Path 409" class="cls-3" d="M83.38,53.25A12.53,12.53,0,0,1,75.8,64.73a1.45,1.45,0,0,1-.22.09,12.37,12.37,0,0,1-8.12.45,9.5,9.5,0,0,1-1.3-.45,12.49,12.49,0,0,1-7.64-9.67,12.07,12.07,0,0,1-.15-1.9,12.5,12.5,0,0,1,25,0Z"/><path id="Path_410" data-name="Path 410" class="cls-2" d="M65.61,71.25a5.73,5.73,0,0,0-.7.13"/><path class="cls-3" d="M80,98.89c0,.2,0,.41,0,.61H42.12a28.55,28.55,0,0,1,7-18.75A28.07,28.07,0,0,1,54,76.25a28.49,28.49,0,0,1,10.94-4.87,5.4,5.4,0,0,1,.7-.13h0a23.74,23.74,0,0,1,3.74-.46c.5,0,1,0,1.5,0a25,25,0,0,1,2.73.14,21.36,21.36,0,0,1,2.51.36h0c.64.1,1.27.24,1.89.4a28.38,28.38,0,0,1,9.75,4.6,27.77,27.77,0,0,1,4.88,4.5c.18.2.35.41.51.62A18.27,18.27,0,0,0,80,98.89Z"/></g></g><path class="cls-4" d="M111.5,98.89A13.25,13.25,0,0,1,85,99.5c0-.2,0-.4,0-.61a13.26,13.26,0,0,1,26.51,0Z"/><path id="Path_41" data-name="Path 41" class="cls-5" d="M104.28,94.69,96,103.42l-4-4"/></svg>