<svg xmlns="http://www.w3.org/2000/svg" width="72.839" height="61.029" viewBox="0 0 72.839 61.029"><defs><style>.a{opacity:0.878;}.b{fill:#e8e8e8;}.c{fill:#fff;}.d{fill:#79deae;stroke:#271c25;stroke-width:2px;}.e{fill:none;stroke:#1a1a1a;stroke-linecap:round;}</style></defs><g transform="translate(0 0)"><g class="a"><g transform="translate(43.215)"><path class="b" d="M223.482,2022.511a6.927,6.927,0,0,1-4.287,6.4h-.01a6.97,6.97,0,0,1-5.229,0h-.01a6.914,6.914,0,1,1,9.535-6.4Z" transform="translate(-202.845 -2015.6)"/><path class="b" d="M232.194,2048.758h-16.8a27.063,27.063,0,0,0-10.256-7.17,25.966,25.966,0,0,0-2.566-.855,15.858,15.858,0,0,1,6.738-6.257,15.543,15.543,0,0,1,4.085-1.346,15.261,15.261,0,0,1,2.9-.27,15.089,15.089,0,0,1,2.893.27h.01A15.9,15.9,0,0,1,232.194,2048.758Z" transform="translate(-202.57 -2016.27)"/></g><path class="b" d="M190.768,2043.4a4.8,4.8,0,0,0-.538.1" transform="translate(-158.876 -2016.679)"/><path class="b" d="M180.782,2022.511a6.927,6.927,0,0,1-4.287,6.4h-.01a6.97,6.97,0,0,1-5.229,0h-.01a6.914,6.914,0,1,1,9.535-6.4Z" transform="translate(-157.973 -2015.6)"/><path class="b" d="M190.768,2043.4a4.8,4.8,0,0,0-.538.1" transform="translate(-158.876 -2016.679)"/><path class="b" d="M187.1,2040.511a25.156,25.156,0,0,0-3.393,1.077,27.063,27.063,0,0,0-10.256,7.17H157.61A15.9,15.9,0,0,1,170.6,2033.13h.01a15.759,15.759,0,0,1,5.806,0h.01a14.99,14.99,0,0,1,3.009.875A15.878,15.878,0,0,1,187.1,2040.511Z" transform="translate(-157.61 -2016.27)"/><g transform="translate(13.831 3.268)"><path class="c" d="M198.943,2038.179a.35.35,0,0,0-.038.087c-.048,0-.087-.01-.135-.01A1.26,1.26,0,0,0,198.943,2038.179Z" transform="translate(-173.039 -2019.744)"/><path class="c" d="M190.768,2043.4a4.8,4.8,0,0,0-.538.1" transform="translate(-172.708 -2019.947)"/><path class="c" d="M198.943,2038.179a.35.35,0,0,0-.038.087c-.048,0-.087-.01-.135-.01A1.26,1.26,0,0,0,198.943,2038.179Z" transform="translate(-173.039 -2019.744)"/><path class="c" d="M204.224,2028.612a9.105,9.105,0,0,1-.269,2.24,9.577,9.577,0,0,1-5.546,6.584,1.4,1.4,0,0,1-.173.077,9.586,9.586,0,0,1-6.248.345,8.645,8.645,0,0,1-1-.345,9.6,9.6,0,0,1-5.873-7.44,9.085,9.085,0,0,1-.115-1.461,9.612,9.612,0,0,1,19.224,0Z" transform="translate(-172.505 -2019)"/><path class="c" d="M190.768,2043.4a4.8,4.8,0,0,0-.538.1" transform="translate(-172.708 -2019.947)"/><path class="c" d="M216.215,2065.107H172a21.954,21.954,0,0,1,5.363-14.417,21.31,21.31,0,0,1,3.749-3.461,21.941,21.941,0,0,1,8.41-3.748,4.911,4.911,0,0,1,.538-.1h.019a18.864,18.864,0,0,1,2.874-.355q.577-.028,1.154-.029a18.821,18.821,0,0,1,2.1.106,16.1,16.1,0,0,1,1.932.278h.019c.49.077.971.183,1.451.308a21.889,21.889,0,0,1,7.5,3.537,21.308,21.308,0,0,1,3.749,3.461A21.954,21.954,0,0,1,216.215,2065.107Z" transform="translate(-172 -2019.932)"/></g></g><g transform="translate(45.101 37.289)"><ellipse class="d" cx="11.37" cy="11.37" rx="11.37" ry="11.37" transform="translate(0 0)"/><path class="e" d="M735.954,1213.766l-7.091,7.491-3.467-3.467" transform="translate(-719.414 -1205.341)"/></g></g></svg>