<svg id="Layer_1" data-name="Layer 1" xmlns="http://www.w3.org/2000/svg" viewBox="0 0 144 144"><defs><style>.cls-1{fill:#afadad;}.cls-2{fill:#f1f1f1;}.cls-3{fill:#14cba0;stroke:#f1f1f1;stroke-miterlimit:10;}.cls-4,.cls-6,.cls-7{fill:none;}.cls-4{stroke:#fff;}.cls-4,.cls-6{stroke-linecap:round;}.cls-5{fill:#79deae;}.cls-6{stroke:#1a1a1a;stroke-width:2px;}</style></defs><g id="Group_277" data-name="Group 277"><g id="Group_278" data-name="Group 278"><g id="Group_185" data-name="Group 185"><g id="Group_184" data-name="Group 184"><g id="Group_179" data-name="Group 179"><path id="Path_343" data-name="Path 343" class="cls-1" d="M41.21,65.84,69.43,95,75,81.11,54.49,59.87Z"/><path id="Path_344" data-name="Path 344" class="cls-2" d="M102.82,39.55,107.5,30l-8.27,3.47A161.37,161.37,0,0,0,49.6,66.2l-4.52,4.37,19,19.71,6-5.79A161.26,161.26,0,0,0,102.82,39.55Z"/><circle id="Ellipse_27" data-name="Ellipse 27" class="cls-3" cx="76.86" cy="58.91" r="5.08"/><path id="Path_345" data-name="Path 345" class="cls-1" d="M47.77,73.36l-1.09,4.71,9.88,10.22,4.74-.93Z"/></g></g></g><g id="Group_275" data-name="Group 275"><line id="Line_7" data-name="Line 7" class="cls-4" x1="43.66" y1="91.03" x2="26.5" y2="108.18"/><line id="Line_8" data-name="Line 8" class="cls-4" x1="43.66" y1="82.82" x2="35.45" y2="91.03"/><line id="Line_9" data-name="Line 9" class="cls-4" x1="51.86" y1="91.77" x2="43.66" y2="99.98"/></g></g></g><path class="cls-5" d="M108.31,98.39A13.25,13.25,0,0,1,81.82,99c0-.2,0-.4,0-.61a13.26,13.26,0,0,1,26.51,0Z"/><path id="Path_41" data-name="Path 41" class="cls-6" d="M101.08,94.19l-8.26,8.73-4-4"/><rect class="cls-7" x="0.5" width="144" height="144"/></svg>