<svg xmlns="http://www.w3.org/2000/svg" width="77.639" height="76.139" viewBox="0 0 77.639 76.139"><defs><style>.a{opacity:0.97;}.b{fill:#afadad;}.c{fill:#f1f1f1;}.d{fill:#14cba0;stroke:#f1f1f1;stroke-miterlimit:10;}.e,.g{fill:none;stroke-linecap:round;}.e{stroke:#fff;}.f{fill:#79deae;stroke:#271c25;stroke-width:2px;}.g{stroke:#1a1a1a;}</style></defs><g transform="translate(0.707 -3.738)"><g class="a" transform="translate(0 0)"><g transform="translate(0 0)"><g transform="translate(0 0)"><g transform="translate(9.723)"><g transform="translate(0)"><g transform="matrix(0.695, 0.719, -0.719, 0.695, 47.353, 0)"><path class="b" d="M0,11.693H34.647L29.427,0H4.214Z" transform="translate(0 50.238)"/><path class="c" d="M15.209,8.536,12.126,0,9.354,7.129A137.566,137.566,0,0,0,0,56.99v5.375H23.387V55.259A137.585,137.585,0,0,0,15.209,8.536Z" transform="translate(5.197 0)"/><ellipse class="d" cx="4.331" cy="4.331" rx="4.331" ry="4.331" transform="translate(12.559 31.615)"/><path class="b" d="M0,0,2.245,3.465H14.374L16.616,0Z" transform="translate(8.503 62.364)"/></g></g></g><g transform="translate(0 57.532)"><line class="e" x1="14.638" y2="14.638" transform="translate(0 7.001)"/><line class="e" x1="7.001" y2="7.001" transform="translate(7.637)"/><line class="e" x1="7.001" y2="7.001" transform="translate(14.638 7.637)"/></g></g></g></g><g transform="translate(42.956 53.624)"><ellipse class="f" cx="12.29" cy="12.29" rx="12.29" ry="12.29" transform="translate(0 0)"/><path class="g" d="M736.809,1213.766l-7.665,8.1-3.748-3.748" transform="translate(-718.93 -1204.658)"/></g></g></svg>