<svg id="Layer_1" data-name="Layer 1" xmlns="http://www.w3.org/2000/svg" viewBox="0 0 144 144"><defs><style>.cls-1{fill:#f1f1f1;}.cls-2{fill:#e2e2e2;}.cls-3{fill:#79deae;}.cls-4{fill:none;stroke:#1a1a1a;stroke-linecap:round;stroke-width:2px;}</style></defs><g id="Group_182" data-name="Group 182"><g id="Group_181" data-name="Group 181"><path class="cls-1" d="M83.6,105.9a.25.25,0,0,0,0,.07l0,0Z"/><path class="cls-1" d="M99.75,84.14a13.12,13.12,0,0,1,7.56,2.37L93.47,97.88l-5.86,4.82a13.05,13.05,0,0,1-1.12-5.31A13.26,13.26,0,0,1,99.75,84.14Z"/><path class="cls-1" d="M111.9,34V82.73l-.63.52A18.23,18.23,0,0,0,83.6,88.89V57.27Z"/><path class="cls-2" d="M83.6,88.89a18.2,18.2,0,0,0,0,17v.1L55.3,82.73V34L83.6,57.27Z"/><path id="Path_350" data-name="Path 350" class="cls-1" d="M55.3,82.73,27,106V57.27L55.3,34Z"/></g></g><path class="cls-3" d="M113,97.39a13.25,13.25,0,0,1-25.39,5.31,13.05,13.05,0,0,1-1.12-5.31,13.26,13.26,0,0,1,26.51,0Z"/><path class="cls-3" d="M113,97.39a13.25,13.25,0,0,1-25.39,5.31,13.05,13.05,0,0,1-1.12-5.31,13.26,13.26,0,0,1,26.51,0Z"/><path id="Path_41" data-name="Path 41" class="cls-4" d="M105.78,93.19l-8.27,8.73-4-4"/></svg>