<svg xmlns="http://www.w3.org/2000/svg" width="207" height="27"><defs><clipPath id="clip_0"><path clip-rule="evenodd" d="M-172-73h1366v4855H-172z"/></clipPath></defs><g clip-path="url(#clip_0)"><path fill="#000" d="M.004 18.362a8.208 8.208 0 0 1 2.574-6.206l4.171 3.09a4.206 4.206 0 0 0-1.197 3.027c0 1.843.896 2.85 2.273 2.85 3.83 0 4.994-10.36 6.224-20.123h5.06l5.548 13.538h.212L30.653 1.04H37v21.773h-5.125V10.852h-.211l-5.092 11.96h-3.52l-5.125-11.96h-.211C16.95 18.515 14.668 26 7.809 26 2.717 26 .004 22.788.004 18.362z"/></g><defs><clipPath id="clip_1"><path clip-rule="evenodd" d="M-172-73h1366v4855H-172z"/></clipPath></defs><g clip-path="url(#clip_1)"><path fill="#000" d="M52.52 0C45.34 0 41 5.004 41 11.512 41 18.07 45.25 23 52.52 23S64 18.029 64 11.512C64 4.995 59.701 0 52.52 0zm-.064 4.93c3.638 0 5.909 2.45 5.909 6.582 0 4.076-2.262 6.509-5.845 6.509-3.582 0-5.885-2.376-5.885-6.509 0-4.133 2.182-6.582 5.82-6.582z" fill-rule="evenodd"/></g><defs><clipPath id="clip_2"><path clip-rule="evenodd" d="M-172-73h1366v4855H-172z"/></clipPath></defs><g clip-path="url(#clip_2)"><path fill="#000" d="M78.516 0C71.333 0 67 5.004 67 11.512 67 18.07 71.3 23 78.548 23S90 18.029 90 11.512C90 4.995 85.7 0 78.516 0zm-.064 4.93c3.64 0 5.91 2.45 5.91 6.582 0 4.076-2.27 6.509-5.846 6.509s-5.879-2.368-5.879-6.509c0-4.14 2.175-6.582 5.815-6.582z" fill-rule="evenodd"/></g><defs><clipPath id="clip_3"><path clip-rule="evenodd" d="M-172-73h1366v4855H-172z"/></clipPath></defs><g clip-path="url(#clip_3)"><path fill="#000" d="M94 1h5.93l.07 22h-6V1z"/></g><defs><clipPath id="clip_4"><path clip-rule="evenodd" d="M-172-73h1366v4855H-172z"/></clipPath></defs><g clip-path="url(#clip_4)"><path fill="#000" d="M102 1h5.801l3.724 14.789h.22L115.346 1h5.314l3.603 14.789h.21L128.2 1h5.8l-6.775 22H121.4l-3.246-13.294h-.243L114.584 23h-5.833L102 1z"/></g><defs><clipPath id="clip_5"><path clip-rule="evenodd" d="M-172-73h1366v4855H-172z"/></clipPath></defs><g clip-path="url(#clip_5)"><path fill="#000" d="M138 1h14v4.523h-8.606v4.158h7.696v4.646h-7.696v4.15h8.598V23H138V1z"/></g><defs><clipPath id="clip_6"><path clip-rule="evenodd" d="M-172-73h1366v4855H-172z"/></clipPath></defs><g clip-path="url(#clip_6)"><path fill="#000" d="M161.406 15.892h3.818c2.012 1.626 2.795 4.042 2.795 7.108H174c0-3.79-1.174-6.547-3.458-8.296v-.179c1.86-.886 3.154-2.911 3.154-6.059C173.696 3.35 170.24 1 164.65 1H156v21.96h5.406v-7.068zm6.493-7.41c0 1.806-1.086 2.758-2.947 2.758h-3.586V5.855h3.339c1.932 0 3.194.822 3.194 2.627z" fill-rule="evenodd"/></g><defs><clipPath id="clip_7"><path clip-rule="evenodd" d="M-172-73h1366v4855H-172z"/></clipPath></defs><g clip-path="url(#clip_7)"><path fill="#000" d="M186.047 14.945h-2.558v8.717H178V1h5.489v8.558h2.688L191.034 1h6.306l-6.581 11.268c2.68 6.802 5.06 9.637 7.982 9.637 1.676 0 2.744-1.196 2.744-3.346a4.41 4.41 0 0 0-1.222-3.145l4.145-3.213c1.698 1.695 2.637 4.044 2.59 6.484 0 4.877-2.865 8.315-8.095 8.315-6.339-.025-10.112-4.434-12.856-12.055z"/></g></svg>
