<svg xmlns="http://www.w3.org/2000/svg" viewBox="0 0 57.27 45.5"><defs><style>.cls-1,.cls-4,.cls-5{fill:none;}.cls-1,.cls-3,.cls-4,.cls-5{stroke:#23be87;stroke-miterlimit:10;}.cls-2,.cls-3{fill:#1a1a1a;}.cls-3,.cls-4{stroke-width:2px;}.cls-5{stroke-width:0.5px;}</style></defs><title>Asset 77</title><g id="Layer_2" data-name="Layer 2"><g id="ecommerce"><circle class="cls-1" cx="40.28" cy="8.5" r="8"/><path class="cls-1" d="M56.77,37.5H21.91c0-.29,0-.59,0-.89a17.43,17.43,0,0,1,34.85.89Z"/><circle class="cls-2" cx="26.6" cy="14.85" r="10.78"/><path class="cls-2" d="M46.27,45.5h-42c0-.38,0-.77,0-1.16C4.74,31.81,14.5,22,26.08,22.52,37.49,23,46.42,33.22,46.27,45.5Z"/><circle class="cls-3" cx="26.28" cy="14.5" r="8"/><path class="cls-3" d="M42.77,43.5H7.91c0-.29,0-.59,0-.89a17.43,17.43,0,0,1,34.85.89Z"/><path class="cls-4" d="M1.06,11.74a5.86,5.86,0,0,1,.66.57,7.39,7.39,0,0,1,0,10.46,7.45,7.45,0,0,1-1.2,1"/><path class="cls-1" d="M3.2,26.4a11.35,11.35,0,0,0,1.17-1,11.1,11.1,0,0,0,0-15.69c-.2-.2-.41-.39-.63-.58"/><path class="cls-5" d="M5.32,28.52a14.21,14.21,0,0,0,1.17-1.05,14.07,14.07,0,0,0-.06-19.9c-.2-.2-.41-.4-.62-.58"/></g></g></svg>
