<svg xmlns="http://www.w3.org/2000/svg" viewBox="0 0 39.29 39.14"><defs><style>.cls-1{fill:#23be87;}.cls-2{fill:#1a1a1a;}.cls-2,.cls-3{stroke:#23be87;stroke-miterlimit:10;stroke-width:2px;}.cls-3{fill:none;}</style></defs><title>Laag 2</title><g id="Layer_2" data-name="Layer 2"><g id="Layer_3" data-name="Layer 3"><g id="Laag_2" data-name="Laag 2"><path class="cls-1" d="M19.57,9.83a9.75,9.75,0,0,1,9.74,9.53L18.59,15.55l-4-1.44,1.48,4,4.13,11.17-.6,0a9.74,9.74,0,0,1,0-19.48m0-2a11.74,11.74,0,0,0,0,23.48,11.26,11.26,0,0,0,3.3-.48l-4.95-13.4L31,22.09a11.06,11.06,0,0,0,.28-2.52A11.74,11.74,0,0,0,19.57,7.83Z"/><path class="cls-1" d="M28.37,30.46l-4,4a15.47,15.47,0,0,0,5.21-2.85l-1.18-1.18Z"/><path class="cls-1" d="M34.47,24.36l-3.35,3.35,1.09,1.09a15.26,15.26,0,0,0,2.26-4.44Z"/><path class="cls-1" d="M19.57,4.92A14.66,14.66,0,0,1,34.22,19.57,14,14,0,0,1,34,22.09l-2.64-.94L18.25,16.49l-2-.72.74,2,4.95,13.4,1,2.67a15,15,0,0,1-3.34.38,14.66,14.66,0,1,1,0-29.31m0-1a15.66,15.66,0,1,0,0,31.31,15.92,15.92,0,0,0,4.66-.7l-1.36-3.7-4.95-13.4L31,22.09l3.71,1.32a15.19,15.19,0,0,0,.48-3.84A15.64,15.64,0,0,0,19.57,3.92Z"/><path class="cls-1" d="M19.57.5A19.09,19.09,0,0,1,38.64,19.57,18.75,18.75,0,0,1,35,30.83l-3.12-3.12,3-3,.09-.08,0-.12c.09-.3.19-.63.28-1l.11-.44-.43-.15L31.2,21.62,18.09,17l-1-.36.37,1L22.4,31l1.36,3.7.16.42.43-.1.11,0,.14,0,.09-.1,3.68-3.67,3.21,3.21A19.07,19.07,0,1,1,19.57.5m0-.5A19.57,19.57,0,1,0,32.32,34.41l-3.95-3.95-4,4-.11,0-1.36-3.7-4.95-13.4L31,22.09l3.71,1.32c-.08.32-.17.64-.27.95l-3.35,3.35L35,31.59A19.56,19.56,0,0,0,19.57,0Z"/><path class="cls-2" d="M24.34,34.49l-.09.09,0,0Z"/><path class="cls-2" d="M35.24,23.59l-.77.77c.1-.31.19-.63.27-.95Z"/><path class="cls-3" d="M37.88,34.47l-2.75,2.75-6.76-6.76-4,4-.11,0-1.36-3.7-4.95-13.4L31,22.09l3.71,1.32c-.08.32-.17.64-.27.95l-3.35,3.35Z"/></g></g></g></svg>