<svg xmlns="http://www.w3.org/2000/svg" viewBox="0 0 300.24 587">
  <title>Asset 82icon</title>
  <g id="Layer_2" data-name="Layer 2">
    <g id="Layer_3" data-name="Layer 3">
      <g>
        <g>
          <g>
            <g>
              <g style="isolation: isolate">
                <polygon points="87.96 384.98 88.1 436.54 43.23 462.45 43.09 410.89 87.96 384.98" style="fill: #1b9368"/>
                <polygon points="43.23 462.45 7.99 441.97 7.84 390.41 43.09 410.89 43.23 462.45" style="fill: #136648"/>
                <polygon points="43.09 410.89 7.84 390.41 52.72 364.5 87.96 384.98 43.09 410.89" style="fill: #1ea374"/>
              </g>
              <g style="isolation: isolate">
                <polygon points="108.24 158.88 108.39 210.44 63.52 236.35 63.37 184.79 108.24 158.88" style="fill: #1b9368"/>
                <polygon points="63.52 236.35 28.28 215.87 28.13 164.31 63.37 184.79 63.52 236.35" style="fill: #136648"/>
                <polygon points="63.37 184.79 28.13 164.31 73 138.41 108.24 158.88 63.37 184.79" style="fill: #1ea374"/>
              </g>
              <g style="isolation: isolate">
                <polygon points="300.1 391.8 300.24 443.37 255.37 469.27 255.22 417.71 300.1 391.8" style="fill: #1b9368"/>
                <polygon points="255.37 469.27 220.13 448.79 219.98 397.23 255.22 417.71 255.37 469.27" style="fill: #136648"/>
                <polygon points="255.22 417.71 219.98 397.23 264.86 371.32 300.1 391.8 255.22 417.71" style="fill: #1ea374"/>
              </g>
              <g style="isolation: isolate">
                <polygon points="268.47 227.08 268.62 278.64 223.74 304.54 223.6 252.98 268.47 227.08" style="fill: #1b9368"/>
                <polygon points="223.74 304.54 188.5 284.06 188.36 232.5 223.6 252.98 223.74 304.54" style="fill: #136648"/>
                <polygon points="223.6 252.98 188.36 232.5 233.23 206.6 268.47 227.08 223.6 252.98" style="fill: #1ea374"/>
              </g>
              <g style="isolation: isolate">
                <polygon points="193.13 131.95 193.2 157.73 170.77 170.68 170.69 144.9 193.13 131.95" style="fill: #1b9368"/>
                <polygon points="170.77 170.68 153.15 160.44 153.07 134.66 170.69 144.9 170.77 170.68" style="fill: #136648"/>
                <polygon points="170.69 144.9 153.07 134.66 175.51 121.71 193.13 131.95 170.69 144.9" style="fill: #1ea374"/>
              </g>
              <g style="isolation: isolate">
                <polygon points="185.23 493.03 185.3 518.81 162.86 531.76 162.79 505.98 185.23 493.03" style="fill: #1b9368"/>
                <polygon points="162.86 531.76 145.24 521.52 145.17 495.74 162.79 505.98 162.86 531.76" style="fill: #136648"/>
                <polygon points="162.79 505.98 145.17 495.74 167.61 482.79 185.23 493.03 162.79 505.98" style="fill: #1ea374"/>
              </g>
              <line x1="63.68" y1="238.94" x2="53.23" y2="362.1" style="fill: #23be87"/>
              <line x1="103.29" y1="245.03" x2="146.78" y2="334.64" style="fill: #23be87"/>
              <line x1="204.77" y1="267.43" x2="153.37" y2="330.69" style="fill: #ff6193"/>
              <g style="isolation: isolate">
                <polygon points="186.77 320.64 186.91 372.2 142.04 398.11 141.9 346.55 186.77 320.64" style="fill: #1b9368"/>
                <polygon points="142.04 398.11 106.8 377.63 106.66 326.07 141.9 346.55 142.04 398.11" style="fill: #136648"/>
                <polygon points="141.9 346.55 106.66 326.07 151.53 300.16 186.77 320.64 141.9 346.55" style="fill: #1ea374"/>
              </g>
              <line x1="173.14" y1="362.31" x2="221.9" y2="388.67" style="fill: #fff"/>
              <line x1="248.25" y1="270.07" x2="260.11" y2="368.9" style="fill: #fff"/>
              <line x1="159.96" y1="154.1" x2="112.52" y2="198.91" style="fill: #fff"/>
              <line x1="181.05" y1="154.1" x2="204.77" y2="214.72" style="fill: #ff6193"/>
              <line x1="233.76" y1="455.88" x2="181.05" y2="491.46" style="fill: #fff"/>
              <line x1="80.89" y1="451.93" x2="141.51" y2="495.41" style="fill: #fff"/>
              <path d="M267.49,530.4a18.29,18.29,0,1,0-7.84,27.29l12.22,17.52,5.74-4-12.17-17.43A18.29,18.29,0,0,0,267.49,530.4Zm-8.17,20.66a12.5,12.5,0,1,1,3.1-17.41A12.5,12.5,0,0,1,259.32,551.06Z" style="fill: #fff"/>
              <g>
                <rect x="4.48" y="18.98" width="17.79" height="56.76" style="fill: #ff6193"/>
                <rect x="24.9" y="47.78" width="17.79" height="27.96" style="fill: #ff6193"/>
                <rect x="45.99" y="62.18" width="17.79" height="13.55" style="fill: #ff6193"/>
              </g>
              <line x1="15" y1="138.29" x2="74.3" y2="138.29" style="fill: #fff"/>
            </g>
            <line x1="3.42" y1="93.82" x2="62.72" y2="93.82" style="fill: none;stroke: #fff;stroke-miterlimit: 10"/>
            <line x1="27.58" y1="94.87" x2="68.65" y2="156.15" style="fill: none;stroke: #fff;stroke-miterlimit: 10"/>
          </g>
          <rect x="264.07" y="222.63" width="15.81" height="15.81" style="fill: none;stroke: #ff6193;stroke-miterlimit: 10;stroke-width: 2px"/>
          <rect x="99.9" y="203.12" width="15.81" height="15.81" style="fill: none;stroke: #ff6193;stroke-miterlimit: 10;stroke-width: 2px"/>
          <rect x="1.57" y="382.24" width="13.84" height="13.84" style="fill: none;stroke: #ff6193;stroke-miterlimit: 10"/>
          <g>
            <path d="M267,40.85v14.5h0a21.59,21.59,0,0,0-21.09-17.13h-11.2a19.11,19.11,0,0,1-19.1-19.11h0A19.11,19.11,0,0,1,234.67,0h35.58a19.11,19.11,0,0,1,19.11,19.11h0C289.36,29.66,285.41,40.85,267,40.85Z" style="fill: #ff6193"/>
            <g>
              <circle cx="232.7" cy="19.77" r="5.27" style="fill: #1a1a1a"/>
              <circle cx="251.15" cy="19.77" r="5.27" style="fill: #1a1a1a"/>
              <circle cx="268.28" cy="19.77" r="5.27" style="fill: #1a1a1a"/>
            </g>
          </g>
          <rect x="196.86" y="223.95" width="63.25" height="63.25" style="fill: none;stroke: #ff6193;stroke-miterlimit: 10;stroke-width: 0.5px"/>
          <g style="opacity: 0.8">
            <path d="M44.81,541.6v27.92a1.16,1.16,0,0,1-1.15,1.15H18.18A1.15,1.15,0,0,1,17,569.52V533.41a1.15,1.15,0,0,1,1.14-1.15H35.47a1.14,1.14,0,0,1,.81.34l8.19,8.19A1.17,1.17,0,0,1,44.81,541.6Z" style="fill: #fff;stroke: #000;stroke-miterlimit: 10"/>
            <polygon points="35.94 541.13 44.8 541.13 35.94 532.26 35.94 541.13" style="opacity: 0.05"/>
          </g>
          <g style="opacity: 0.8">
            <path d="M39.7,546.33v27.92a1.14,1.14,0,0,1-1.15,1.14H13.08a1.14,1.14,0,0,1-1.15-1.14V538.14A1.14,1.14,0,0,1,13.08,537H30.36a1.11,1.11,0,0,1,.81.34l8.19,8.19A1.11,1.11,0,0,1,39.7,546.33Z" style="fill: #fff"/>
            <polygon points="30.84 545.85 39.7 545.85 30.84 536.99 30.84 545.85" style="opacity: 0.05"/>
          </g>
          <g style="opacity: 0.6000000000000001">
            <path d="M34.65,552v27.92A1.15,1.15,0,0,1,33.5,581H8a1.15,1.15,0,0,1-1.15-1.15V543.78A1.14,1.14,0,0,1,8,542.63H25.31a1.11,1.11,0,0,1,.81.34l8.19,8.19A1.11,1.11,0,0,1,34.65,552Z" style="fill: #fff"/>
            <polygon points="25.79 551.49 34.65 551.49 25.79 542.63 25.79 551.49" style="opacity: 0.05"/>
          </g>
          <g>
            <path d="M27.77,557.93v27.92A1.14,1.14,0,0,1,26.62,587H1.15A1.14,1.14,0,0,1,0,585.85V549.74a1.14,1.14,0,0,1,1.15-1.14H18.43a1.14,1.14,0,0,1,.81.33l8.19,8.19A1.14,1.14,0,0,1,27.77,557.93Z" style="fill: #fff"/>
            <polygon points="18.91 557.46 27.77 557.46 18.91 548.6 18.91 557.46" style="opacity: 0.05"/>
          </g>
        </g>
        <g>
          <path d="M209.82,80.62v8.06h0a12,12,0,0,1,11.73-9.53h6.23a10.63,10.63,0,0,0,10.63-10.63h0a10.63,10.63,0,0,0-10.63-10.63H208a10.63,10.63,0,0,0-10.63,10.63h0C197.36,74.39,199.56,80.62,209.82,80.62Z" style="fill: #fff"/>
          <g>
            <circle cx="227.6" cy="68.89" r="2.93" style="fill: #1a1a1a"/>
            <circle cx="217.34" cy="68.89" r="2.93" style="fill: #1a1a1a"/>
            <circle cx="207.81" cy="68.89" r="2.93" style="fill: #1a1a1a"/>
          </g>
        </g>
      </g>
    </g>
  </g>
</svg>
