<svg xmlns="http://www.w3.org/2000/svg" viewBox="0 0 303.52 591.5">
  <title>Laag 2icon</title>
  <g style="isolation: isolate">
    <g id="Layer_2" data-name="Layer 2">
      <g id="Layer_3" data-name="Layer 3">
        <g id="Laag_2" data-name="Laag 2">
          <g>
            <g style="opacity: 0.8">
              <g style="isolation: isolate">
                <polygon points="177.74 104.92 197.61 93.49 197.65 116.33 177.78 127.77 177.74 104.92" style="fill: #1b9368"/>
                <polygon points="177.74 104.92 156.6 92.63 176.46 81.2 197.61 93.49 177.74 104.92" style="fill: #1ea374"/>
                <polygon points="177.78 127.77 156.64 115.48 156.6 92.63 177.74 104.92 177.78 127.77" style="fill: #136648"/>
              </g>
              <g style="isolation: isolate">
                <polygon points="105.91 144.91 119.3 137.2 119.33 150.13 105.93 157.85 105.91 144.91" style="fill: #1b9368"/>
                <polygon points="105.91 144.91 91.81 136.72 105.21 129.01 119.3 137.2 105.91 144.91" style="fill: #1ea374"/>
                <polygon points="105.93 157.85 91.83 149.66 91.81 136.72 105.91 144.91 105.93 157.85" style="fill: #136648"/>
              </g>
              <g style="isolation: isolate">
                <polygon points="138.47 194.5 138.54 217.32 118.67 228.79 118.61 205.97 138.47 194.5" style="fill: #1b9368"/>
                <polygon points="118.67 228.79 97.53 216.5 97.47 193.68 118.61 205.97 118.67 228.79" style="fill: #136648"/>
                <polygon points="118.61 205.97 97.47 193.68 117.33 182.21 138.47 194.5 118.61 205.97" style="fill: #1ea374"/>
              </g>
              <g style="isolation: isolate">
                <polygon points="95.75 211.92 115.61 200.48 115.65 223.33 95.78 234.76 95.75 211.92" style="fill: #1b9368"/>
                <polygon points="95.75 211.92 74.6 199.63 94.46 188.19 115.61 200.48 95.75 211.92" style="fill: #1ea374"/>
                <polygon points="95.78 234.76 74.64 222.47 74.6 199.63 95.75 211.92 95.78 234.76" style="fill: #136648"/>
              </g>
              <g style="isolation: isolate">
                <polygon points="140.19 198.33 157.93 188.12 157.96 210.96 140.22 221.17 140.19 198.33" style="fill: #1b9368"/>
                <polygon points="140.19 198.33 119.04 186.04 136.78 175.83 157.93 188.12 140.19 198.33" style="fill: #1ea374"/>
                <polygon points="140.22 221.17 119.08 208.88 119.04 186.04 140.19 198.33 140.22 221.17" style="fill: #136648"/>
              </g>
              <g style="isolation: isolate">
                <polygon points="116.62 223.94 136.49 212.5 136.53 235.34 116.66 246.78 116.62 223.94" style="fill: #1b9368"/>
                <polygon points="116.62 223.94 95.48 211.65 115.34 200.22 136.49 212.5 116.62 223.94" style="fill: #1ea374"/>
                <polygon points="116.66 246.78 95.51 234.5 95.48 211.65 116.62 223.94 116.66 246.78" style="fill: #136648"/>
              </g>
              <g style="isolation: isolate">
                <polygon points="208.47 161.49 208.54 184.32 188.67 195.79 188.6 172.96 208.47 161.49" style="fill: #1b9368"/>
                <polygon points="188.67 195.79 167.53 183.5 167.46 160.68 188.6 172.96 188.67 195.79" style="fill: #136648"/>
                <polygon points="188.6 172.96 167.46 160.68 187.33 149.21 208.47 161.49 188.6 172.96" style="fill: #1ea374"/>
              </g>
              <g style="isolation: isolate">
                <polygon points="137.62 235.94 157.49 224.5 157.52 247.34 137.66 258.78 137.62 235.94" style="fill: #1b9368"/>
                <polygon points="137.62 235.94 116.48 223.65 136.34 212.21 157.49 224.5 137.62 235.94" style="fill: #1ea374"/>
                <polygon points="137.66 258.78 116.52 246.49 116.48 223.65 137.62 235.94 137.66 258.78" style="fill: #136648"/>
              </g>
              <g style="isolation: isolate">
                <polygon points="55.62 210.95 75.49 199.51 75.53 222.35 55.66 233.79 55.62 210.95" style="fill: #1b9368"/>
                <polygon points="55.62 210.95 34.48 198.66 54.34 187.22 75.49 199.51 55.62 210.95" style="fill: #1ea374"/>
                <polygon points="55.66 233.79 34.52 221.5 34.48 198.66 55.62 210.95 55.66 233.79" style="fill: #136648"/>
              </g>
              <g style="isolation: isolate">
                <polygon points="96.47 211.5 96.53 234.32 76.67 245.79 76.61 222.97 96.47 211.5" style="fill: #1b9368"/>
                <polygon points="76.67 245.79 55.53 233.5 55.46 210.68 76.61 222.97 76.67 245.79" style="fill: #136648"/>
                <polygon points="76.61 222.97 55.46 210.68 75.33 199.21 96.47 211.5 76.61 222.97" style="fill: #1ea374"/>
              </g>
              <g style="isolation: isolate">
                <polygon points="97.62 234.94 117.49 223.5 117.52 246.34 97.66 257.78 97.62 234.94" style="fill: #1b9368"/>
                <polygon points="97.62 234.94 76.47 222.66 96.34 211.21 117.49 223.5 97.62 234.94" style="fill: #1ea374"/>
                <polygon points="97.66 257.78 76.51 245.49 76.47 222.66 97.62 234.94 97.66 257.78" style="fill: #136648"/>
              </g>
              <g style="isolation: isolate">
                <polygon points="35.62 221.94 55.49 210.5 55.53 233.34 35.66 244.78 35.62 221.94" style="fill: #1b9368"/>
                <polygon points="35.62 221.94 14.48 209.66 34.34 198.22 55.49 210.5 35.62 221.94" style="fill: #1ea374"/>
                <polygon points="35.66 244.78 14.51 232.5 14.48 209.66 35.62 221.94 35.66 244.78" style="fill: #136648"/>
              </g>
              <g style="isolation: isolate">
                <polygon points="54.62 232.94 74.49 221.5 74.53 244.34 54.66 255.78 54.62 232.94" style="fill: #1b9368"/>
                <polygon points="54.62 232.94 33.48 220.66 53.34 209.22 74.49 221.5 54.62 232.94" style="fill: #1ea374"/>
                <polygon points="54.66 255.78 33.52 243.49 33.48 220.66 54.62 232.94 54.66 255.78" style="fill: #136648"/>
              </g>
              <g style="isolation: isolate">
                <polygon points="69.62 240.94 89.48 229.51 89.52 252.34 69.66 263.78 69.62 240.94" style="fill: #1b9368"/>
                <polygon points="69.62 240.94 48.48 228.66 68.34 217.22 89.48 229.51 69.62 240.94" style="fill: #1ea374"/>
                <polygon points="69.66 263.78 48.51 251.5 48.48 228.66 69.62 240.94 69.66 263.78" style="fill: #136648"/>
              </g>
              <g style="isolation: isolate">
                <polygon points="138.47 235.5 138.54 258.32 118.67 269.79 118.61 246.97 138.47 235.5" style="fill: #1b9368"/>
                <polygon points="118.67 269.79 97.53 257.5 97.47 234.68 118.61 246.97 118.67 269.79" style="fill: #136648"/>
                <polygon points="118.61 246.97 97.47 234.68 117.33 223.21 138.47 235.5 118.61 246.97" style="fill: #1ea374"/>
              </g>
            </g>
            <g style="isolation: isolate">
              <polygon points="168.56 239.62 98.79 280.17 28.56 239.62 98.33 199.07 168.56 239.62" style="fill: #1ea474"/>
              <polygon points="168.56 239.62 168.45 280.38 98.67 320.93 98.79 280.17 168.56 239.62" style="fill: #1b9368"/>
              <polygon points="98.79 280.17 98.67 320.93 28.44 280.38 28.56 239.62 98.79 280.17" style="fill: #136648"/>
            </g>
            <g style="isolation: isolate">
              <polygon points="147.56 315.63 77.78 356.17 7.55 315.63 77.33 275.08 147.56 315.63" style="fill: #1ea474"/>
              <polygon points="147.56 315.63 147.44 356.38 77.67 396.93 77.78 356.17 147.56 315.63" style="fill: #1b9368"/>
              <polygon points="77.78 356.17 77.67 396.93 7.44 356.38 7.55 315.63 77.78 356.17" style="fill: #136648"/>
            </g>
            <g style="isolation: isolate">
              <polygon points="243.56 296.62 173.79 337.17 103.56 296.62 173.33 256.07 243.56 296.62" style="fill: #1ea474"/>
              <polygon points="243.56 296.62 243.45 337.38 173.67 377.92 173.79 337.17 243.56 296.62" style="fill: #1b9368"/>
              <polygon points="173.79 337.17 173.67 377.92 103.44 337.38 103.56 296.62 173.79 337.17" style="fill: #136648"/>
            </g>
            <g style="isolation: isolate">
              <polygon points="234.56 299.62 164.79 340.17 94.56 299.62 164.33 259.07 234.56 299.62" style="fill: #1ea474"/>
              <polygon points="234.56 299.62 234.45 340.38 164.67 380.93 164.79 340.17 234.56 299.62" style="fill: #1b9368"/>
              <polygon points="164.79 340.17 164.67 380.93 94.44 340.38 94.56 299.62 164.79 340.17" style="fill: #136648"/>
            </g>
            <g style="isolation: isolate">
              <polygon points="212.56 387.63 142.78 428.17 72.55 387.63 142.33 347.08 212.56 387.63" style="fill: #1ea474"/>
              <polygon points="212.56 387.63 212.44 428.38 142.67 468.93 142.78 428.17 212.56 387.63" style="fill: #1b9368"/>
              <polygon points="142.78 428.17 142.67 468.93 72.44 428.38 72.55 387.63 142.78 428.17" style="fill: #136648"/>
            </g>
            <g style="isolation: isolate">
              <polygon points="256.56 377.62 186.78 418.17 116.55 377.62 186.33 337.07 256.56 377.62" style="fill: #1ea474"/>
              <polygon points="256.56 377.62 256.44 418.38 186.67 458.92 186.78 418.17 256.56 377.62" style="fill: #1b9368"/>
              <polygon points="186.78 418.17 186.67 458.92 116.44 418.38 116.55 377.62 186.78 418.17" style="fill: #136648"/>
            </g>
            <g style="isolation: isolate">
              <polygon points="201.56 411.62 131.78 452.17 61.55 411.62 131.33 371.07 201.56 411.62" style="fill: #1ea474"/>
              <polygon points="201.56 411.62 201.44 452.38 131.67 492.93 131.78 452.17 201.56 411.62" style="fill: #1b9368"/>
              <polygon points="131.78 452.17 131.67 492.93 61.44 452.38 61.55 411.62 131.78 452.17" style="fill: #136648"/>
            </g>
            <g style="isolation: isolate">
              <polygon points="156.56 357.62 86.78 398.17 16.55 357.62 86.33 317.07 156.56 357.62" style="fill: #1ea474"/>
              <polygon points="156.56 357.62 156.44 398.38 86.67 438.93 86.78 398.17 156.56 357.62" style="fill: #1b9368"/>
              <polygon points="86.78 398.17 86.67 438.93 16.44 398.38 16.55 357.62 86.78 398.17" style="fill: #136648"/>
            </g>
            <g style="isolation: isolate">
              <polygon points="74.62 244.94 94.48 233.5 94.52 256.34 74.66 267.78 74.62 244.94" style="fill: #1b9368"/>
              <polygon points="74.62 244.94 53.48 232.65 73.34 221.21 94.48 233.5 74.62 244.94" style="fill: #1ea374"/>
              <polygon points="74.66 267.78 53.52 255.49 53.48 232.65 74.62 244.94 74.66 267.78" style="fill: #136648"/>
            </g>
            <g style="isolation: isolate">
              <polygon points="28.62 274.95 48.49 263.51 48.52 286.35 28.66 297.79 28.62 274.95" style="fill: #1b9368"/>
              <polygon points="28.62 274.95 7.48 262.66 27.34 251.22 48.49 263.51 28.62 274.95" style="fill: #1ea374"/>
              <polygon points="28.66 297.79 7.52 285.5 7.48 262.66 28.62 274.95 28.66 297.79" style="fill: #136648"/>
            </g>
            <g style="isolation: isolate">
              <polygon points="97.62 279.94 117.49 268.5 117.52 291.34 97.66 302.78 97.62 279.94" style="fill: #1b9368"/>
              <polygon points="97.62 279.94 76.47 267.66 96.34 256.21 117.49 268.5 97.62 279.94" style="fill: #1ea374"/>
              <polygon points="97.66 302.78 76.51 290.49 76.47 267.66 97.62 279.94 97.66 302.78" style="fill: #136648"/>
            </g>
            <g style="isolation: isolate">
              <polygon points="142.62 286.94 162.49 275.5 162.52 298.35 142.66 309.78 142.62 286.94" style="fill: #1b9368"/>
              <polygon points="142.62 286.94 121.47 274.66 141.34 263.21 162.49 275.5 142.62 286.94" style="fill: #1ea374"/>
              <polygon points="142.66 309.78 121.51 297.5 121.47 274.66 142.62 286.94 142.66 309.78" style="fill: #136648"/>
            </g>
            <g style="isolation: isolate">
              <polygon points="134.62 279.94 154.49 268.5 154.53 291.34 134.66 302.78 134.62 279.94" style="fill: #1b9368"/>
              <polygon points="134.62 279.94 113.48 267.65 133.34 256.21 154.49 268.5 134.62 279.94" style="fill: #1ea374"/>
              <polygon points="134.66 302.78 113.51 290.49 113.48 267.65 134.62 279.94 134.66 302.78" style="fill: #136648"/>
            </g>
            <g style="isolation: isolate">
              <polygon points="54.62 281.94 74.49 270.5 74.53 293.35 54.66 304.79 54.62 281.94" style="fill: #1b9368"/>
              <polygon points="54.62 281.94 33.48 269.65 53.34 258.21 74.49 270.5 54.62 281.94" style="fill: #1ea374"/>
              <polygon points="54.66 304.79 33.52 292.5 33.48 269.65 54.62 281.94 54.66 304.79" style="fill: #136648"/>
            </g>
            <g style="isolation: isolate">
              <polygon points="250.62 81.94 270.49 70.5 270.52 93.34 250.66 104.78 250.62 81.94" style="fill: #1b9368"/>
              <polygon points="250.62 81.94 229.47 69.66 249.34 58.21 270.49 70.5 250.62 81.94" style="fill: #1ea374"/>
              <polygon points="250.66 104.78 229.51 92.49 229.47 69.66 250.62 81.94 250.66 104.78" style="fill: #136648"/>
            </g>
            <g style="isolation: isolate">
              <polygon points="283.62 23.95 303.48 12.51 303.52 35.34 283.66 46.78 283.62 23.95" style="fill: #1b9368"/>
              <polygon points="283.62 23.95 262.48 11.66 282.34 0.22 303.48 12.51 283.62 23.95" style="fill: #1ea374"/>
              <polygon points="283.66 46.78 262.52 34.5 262.48 11.66 283.62 23.95 283.66 46.78" style="fill: #136648"/>
            </g>
            <g>
              <rect x="0.5" width="172" height="10" style="fill: #fff;opacity: 0.08"/>
              <rect y="15.5" width="106" height="10" style="fill: #fff;opacity: 0.08"/>
              <rect y="31.5" width="106" height="10" style="fill: #fff;opacity: 0.08"/>
              <rect y="47.5" width="134" height="10" style="fill: #fff;opacity: 0.08"/>
              <rect y="64.5" width="50" height="10" style="fill: #fff;opacity: 0.08"/>
            </g>
            <g>
              <rect x="0.5" y="87" width="172" height="10" style="fill: #fff;opacity: 0.08"/>
              <rect y="102.5" width="106" height="10" style="fill: #fff;opacity: 0.08"/>
              <rect y="118.5" width="106" height="10" style="fill: #fff;opacity: 0.08"/>
              <rect y="134.5" width="134" height="10" style="fill: #fff;opacity: 0.08"/>
              <rect y="151.5" width="50" height="10" style="fill: #fff;opacity: 0.08"/>
            </g>
            <path d="M109,328.5,48.19,370A11.65,11.65,0,0,0,43,379.73V575.5l23,16V391.34a10.9,10.9,0,0,1,4.86-9.08L132,342.5Z" style="fill: #2495bc;mix-blend-mode: screen"/>
            <g style="isolation: isolate">
              <polygon points="156.86 346.28 207.88 316.9 207.98 375.56 156.96 404.95 156.86 346.28" style="fill: #1a8257"/>
              <polygon points="156.86 346.28 104 315.57 155.02 286.18 207.88 316.9 156.86 346.28" style="fill: #1d9161"/>
              <polygon points="156.96 404.95 104.09 374.23 104 315.57 156.86 346.28 156.96 404.95" style="fill: #125a3c"/>
            </g>
            <g style="isolation: isolate">
              <polygon points="201.49 265.19 201.59 301.05 193.08 305.97 192.98 270.1 201.49 265.19" style="fill: #2a5027"/>
              <polygon points="193.08 305.97 182.51 299.82 182.41 263.95 192.98 270.1 193.08 305.97" style="fill: #1d381b"/>
              <polygon points="192.98 270.1 182.41 263.95 190.92 259.04 201.49 265.19 192.98 270.1" style="fill: #2e592b"/>
            </g>
            <g style="isolation: isolate">
              <polygon points="192.62 260.94 212.48 249.5 212.52 272.34 192.66 283.78 192.62 260.94" style="fill: #1b9368"/>
              <polygon points="192.62 260.94 171.48 248.66 191.34 237.22 212.48 249.5 192.62 260.94" style="fill: #1ea374"/>
              <polygon points="192.66 283.78 171.52 271.49 171.48 248.66 192.62 260.94 192.66 283.78" style="fill: #136648"/>
            </g>
          </g>
        </g>
      </g>
    </g>
  </g>
</svg>
