<svg xmlns="http://www.w3.org/2000/svg" viewBox="0 0 291.79 552.33">
  <title>Laag 2 (2)icon</title>
  <g id="Layer_2" data-name="Layer 2">
    <g id="Layer_3" data-name="Layer 3">
      <g id="Laag_2" data-name="Laag 2">
        <g>
          <rect x="151.23" y="24.12" width="140.56" height="5.82" style="fill: #fff;opacity: 0.08"/>
          <rect x="150.82" y="33.13" width="86.62" height="5.82" style="fill: #fff;opacity: 0.08"/>
          <rect x="150.82" y="42.44" width="86.62" height="5.82" style="fill: #fff;opacity: 0.08"/>
          <rect x="150.82" y="51.75" width="109.51" height="5.82" style="fill: #fff;opacity: 0.08"/>
          <rect x="21.79" y="235.83" width="164.52" height="5.82" transform="translate(208.1 477.47) rotate(180)" style="fill: #fff;opacity: 0.08"/>
          <rect x="85.4" y="244.84" width="101.39" height="5.82" transform="translate(272.19 495.5) rotate(180)" style="fill: #fff;opacity: 0.08"/>
          <rect x="85.4" y="254.15" width="101.39" height="5.82" transform="translate(272.19 514.12) rotate(180)" style="fill: #fff;opacity: 0.08"/>
          <rect x="58.62" y="263.46" width="128.17" height="5.82" transform="translate(245.41 532.74) rotate(180)" style="fill: #fff;opacity: 0.08"/>
          <rect x="44.79" y="522.11" width="123.36" height="3.1" transform="translate(212.94 1047.32) rotate(180)" style="fill: #fff;opacity: 0.08"/>
          <rect x="92.49" y="526.92" width="76.03" height="3.1" transform="translate(261 1056.94) rotate(180)" style="fill: #fff;opacity: 0.08"/>
          <rect x="92.49" y="531.88" width="76.03" height="3.1" transform="translate(261 1066.87) rotate(180)" style="fill: #fff;opacity: 0.08"/>
          <rect x="72.4" y="536.85" width="96.11" height="3.1" transform="translate(240.91 1076.8) rotate(180)" style="fill: #fff;opacity: 0.08"/>
          <rect x="89.11" y="396.54" width="178.41" height="2.45" style="fill: #fff;opacity: 0.08"/>
          <rect x="88.59" y="400.33" width="109.95" height="2.45" style="fill: #fff;opacity: 0.08"/>
          <rect x="88.59" y="404.24" width="109.95" height="2.45" style="fill: #fff;opacity: 0.08"/>
          <rect x="88.59" y="408.16" width="138.99" height="2.45" style="fill: #fff;opacity: 0.08"/>
          <circle cx="73.81" cy="45.9" r="45.9" style="fill: #fff"/>
          <circle cx="242.62" cy="255.16" r="26.45" style="fill: #fff"/>
          <circle cx="31.9" cy="403.85" r="31.9" style="fill: #fff"/>
          <circle cx="234.06" cy="534.44" r="17.89" style="fill: #fff"/>
          <polygon points="231.79 537.95 30.88 405.11 28.9 403.8 30.85 402.4 240.59 252.28 239.96 257.48 60.14 54.06 68.44 46.84 245.27 252.85 247.83 255.83 244.65 258.04 32.74 405.09 32.71 402.38 231.79 537.95" style="fill: #fff"/>
          <polygon points="235.29 539.45 43.03 405.82 42.51 405.45 43.03 405.08 254.74 254.67 254.56 256.07 75.55 45.16 77.84 43.22 256.02 254.83 256.7 255.63 255.84 256.23 43.55 405.81 43.55 405.08 235.29 539.45" style="fill: #fff"/>
          <polyline points="51.25 41.45 69.14 59.34 96.37 32.12" style="fill: none;stroke: #1a1a1a;stroke-miterlimit: 10;stroke-width: 10px"/>
          <polyline points="231.17 253.56 240.88 263.27 255.66 248.49" style="fill: none;stroke: #1a1a1a;stroke-miterlimit: 10;stroke-width: 7px"/>
          <polyline points="226.95 533.95 235.25 538.95 240.79 528.95" style="fill: none;stroke: #1a1a1a;stroke-miterlimit: 10;stroke-width: 4px"/>
          <polyline points="20.13 401.81 29.84 411.53 44.62 396.75" style="fill: none;stroke: #1a1a1a;stroke-miterlimit: 10;stroke-width: 6px"/>
        </g>
      </g>
    </g>
  </g>
</svg>
