<svg width="75" height="55" viewBox="0 0 75 55" fill="none" xmlns="http://www.w3.org/2000/svg">
<path d="M48.2901 52.0505H35.7001C33.3782 52.0505 32.6982 51.3911 31.8341 49.4091L31.7135 49.1367C31.2774 48.0963 30.5804 46.5509 29.961 45.1837C29.8988 45.0458 29.8389 44.9126 29.7813 44.7849C29.7117 44.63 29.646 44.4836 29.5837 44.347C27.2398 43.7308 24.9588 43.0052 22.8047 42.191C22.6237 42.5666 22.3712 42.8952 22.0644 43.1545C21.7576 43.4137 21.4036 43.5975 21.0264 43.6935C20.9769 43.7062 20.9255 43.7139 20.8752 43.7215L17.7716 44.1458L10.2151 45.2491C10.1378 45.2597 9.99904 45.2707 9.91321 45.2707C9.585 45.271 9.26108 45.1889 8.96625 45.0306C8.67141 44.8723 8.41347 44.6421 8.21218 44.3576C8.01526 44.076 7.88184 43.7473 7.82284 43.3983C7.76385 43.0494 7.78095 42.69 7.87275 42.3497L10.0172 34.9126L9.96425 34.8638L9.91321 34.8167C8.81771 33.8763 7.79383 32.8395 6.85174 31.7165C6.84285 31.7055 6.8154 31.6741 6.78873 31.6427C6.75548 31.6041 6.72107 31.5646 6.71141 31.5515L5.89955 30.461C5.62645 30.0547 5.38255 29.6256 5.17004 29.1778C5.0819 29.0051 5.00071 28.835 4.9288 28.672H3.66115C3.14048 28.6778 2.63899 28.4567 2.26662 28.0572C1.89426 27.6578 1.68143 27.1125 1.6748 26.5411V21.5005C1.68143 20.9291 1.89426 20.3838 2.26662 19.9844C2.63899 19.5849 3.14048 19.3638 3.66115 19.3696H5.20097C5.47191 18.856 5.78054 18.3676 6.12378 17.9091L6.48486 17.4266L7.18422 16.5805C8.06185 15.6063 8.99811 14.6979 9.98667 13.8615L7.92881 6.87412C7.83108 6.52972 7.80942 6.16473 7.86562 5.80932C7.92182 5.45391 8.05426 5.11828 8.252 4.83016C8.45354 4.54399 8.71214 4.31232 9.00795 4.15293C9.30376 3.99353 9.62891 3.91065 9.95845 3.91065C10.0907 3.9129 10.2227 3.92595 10.3532 3.94969L20.6405 5.43142C20.7167 5.44245 20.7923 5.45846 20.8667 5.47937C21.4901 5.54991 22.0656 5.87876 22.4757 6.39888C22.5094 6.44131 22.5631 6.52109 22.6412 6.6382C26.509 5.18385 30.4769 4.07237 34.5067 3.31448C38.4608 2.54972 42.4665 2.15073 46.4816 2.1217C54.6113 2.1217 60.9608 3.94629 65.3541 7.54922C67.7089 9.52354 69.6179 12.0665 70.9331 14.9809C72.2484 17.8953 72.9345 21.1031 72.9385 24.3554C72.9424 27.6078 72.264 30.8175 70.9558 33.7357C69.6476 36.654 67.7447 39.2025 65.3947 41.1836C62.4276 43.727 58.5048 45.3471 53.4024 46.1363L53.0746 47.4148C52.5944 49.3981 51.9968 51.8668 48.5839 52.0425C48.5089 52.048 48.4145 52.0505 48.2901 52.0505ZM48.031 20.6506C37.7388 20.6611 27.4743 21.8227 17.3966 24.1173C22.4119 25.2645 27.4778 26.1268 32.5741 26.7006C37.7093 27.2834 42.8684 27.5773 48.031 27.5811H48.4563C60.6829 27.5331 64.0362 25.5104 64.9095 24.6431C65.0239 24.5404 65.1172 24.4122 65.1832 24.2671C65.1832 24.2625 65.1887 24.2111 65.1941 24.1615C65.1995 24.1118 65.2053 24.0567 65.2064 24.041C65.2052 24.0383 65.2043 24.0354 65.2037 24.0325C65.1935 23.9975 65.1806 23.9636 65.1651 23.9311C65.0894 23.7901 64.9912 23.6654 64.8751 23.5628C63.9801 22.7039 60.5885 20.7007 48.4571 20.6544L48.031 20.6506ZM44.1886 11.2659C48.7256 11.2271 53.2571 11.6222 57.7316 12.4468C56.1462 11.9073 54.5214 11.5193 52.8751 11.2871C50.6664 10.8412 48.4254 10.6155 46.1796 10.6128L45.8154 10.6082C44.6224 10.6082 43.3489 10.6621 42.0306 10.7635C38.2917 10.8865 34.5728 11.4124 30.9275 12.3335C35.3193 11.6339 39.7508 11.2772 44.1886 11.2659Z" fill="#4A5568"/>
<path d="M35.8396 54.3134C34.8105 54.3134 33.8092 54.2552 32.8755 53.5526C32.0014 52.8944 31.6291 52.0195 31.2348 51.0915L31.1134 50.8076L31.103 50.783L31.0929 50.7584C30.6476 49.67 29.8434 47.8488 29.3111 46.6424L29.0846 46.129L29.0513 46.0543C26.8995 45.4667 24.7891 44.7814 22.7784 44.0235C22.3094 44.7517 21.6093 45.261 20.8156 45.4514L20.7089 45.4764L20.601 45.4917L17.4031 45.9398L9.61934 47.102C9.47589 47.1257 9.33103 47.1378 9.18596 47.1381C8.73965 47.1378 8.29953 47.0234 7.90056 46.8038C7.5016 46.5842 7.15476 46.2656 6.88761 45.8732C6.62045 45.4808 6.44033 45.0254 6.36155 44.5432C6.28277 44.0611 6.30749 43.5654 6.43377 43.0955L6.43841 43.0777L6.44382 43.0599L7.92874 37.7902L8.51985 35.6915C7.46404 34.7449 6.47524 33.7117 5.56199 32.6007L5.52101 32.5549L5.43016 32.4527L5.34897 32.3415L4.51121 31.1878L4.48454 31.1504L4.45825 31.1122C4.17511 30.6782 3.92245 30.2211 3.70245 29.7451C3.67539 29.6899 3.64639 29.6318 3.61856 29.5724H3.36108C2.46993 29.5717 1.61544 29.1829 0.985254 28.4913C0.355073 27.7997 0.000716813 26.8618 0 25.8837L0 21.943C0.000614305 20.9649 0.354872 20.027 0.984981 19.3354C1.61509 18.6437 2.46954 18.2547 3.3607 18.254H3.93209C4.17963 17.8126 4.45167 17.3883 4.74665 16.9835L4.8375 16.8596C4.93067 16.7281 5.025 16.5987 5.11779 16.4777L5.14717 16.4379L5.17848 16.3997L5.86469 15.551L5.88557 15.5256L5.90645 15.5005L5.94511 15.4543L5.95554 15.442L5.96637 15.4301C6.75713 14.5327 7.59765 13.6898 8.48312 12.9062L6.49485 5.98975L6.48712 5.96471L6.48055 5.94052C6.35413 5.47062 6.32929 4.97484 6.408 4.49256C6.48671 4.01027 6.66681 3.55478 6.93398 3.16227C7.20116 2.76975 7.54804 2.45103 7.94709 2.23141C8.34613 2.0118 8.78634 1.89735 9.23274 1.89715C9.3765 1.89729 9.52006 1.90906 9.66225 1.93237L20.3633 3.51085L24.1404 4.0735C27.8818 2.76329 31.7067 1.76011 35.5837 1.07226C39.351 0.380343 43.1629 0.0217678 46.9825 0C55.5364 0 62.2361 1.98371 66.8966 5.89809C69.419 8.09273 71.4577 10.8838 72.8608 14.0634C74.264 17.243 74.9953 20.7291 75.0003 24.262C75.0054 27.7949 74.284 31.2836 72.89 34.468C71.496 37.6524 69.4653 40.4505 66.9491 42.6538C63.8691 45.3563 59.8512 47.0973 54.6654 47.9769L54.5289 48.5103L54.4466 48.8557C53.9239 51.066 53.2094 54.0931 49.185 54.3057C49.0783 54.3112 48.9661 54.3142 48.8521 54.3142L35.8396 54.3134ZM21.5942 40.5674C22.0512 40.7528 22.5019 40.9196 22.8016 41.0287C25.4377 42.0614 28.1261 42.9256 30.8532 43.617C30.9762 43.9141 31.2681 44.5751 31.638 45.4123C32.245 46.7888 33.0008 48.5006 33.4504 49.5991C33.4941 49.7001 33.5347 49.796 33.5733 49.8864L33.5757 49.8923C34.1741 51.2981 34.2514 51.4789 35.84 51.4789H48.8521C48.9205 51.4789 48.992 51.4789 49.0643 51.4734C50.0695 51.4203 50.7016 51.136 51.1133 50.5522C51.5069 49.9963 51.7002 49.1791 51.9453 48.1441L51.9472 48.1348C51.9753 48.016 52.0043 47.8942 52.0342 47.7695L52.6353 45.4153C58.1637 44.7135 62.3177 43.0854 65.3343 40.4384C67.544 38.5041 69.3281 36.048 70.554 33.2527C71.78 30.4574 72.4161 27.3948 72.4153 24.2926C72.4145 21.1903 71.7767 18.1282 70.5493 15.3337C69.3219 12.5392 67.5365 10.0842 65.3258 8.15125C61.1277 4.62512 54.9557 2.8366 46.9825 2.8366C42.6758 2.86957 38.3808 3.33258 34.1505 4.21989C29.8691 5.0894 25.6665 6.37405 21.5919 8.05875C21.5532 7.98788 20.77 6.69624 20.7085 6.61605C20.5608 6.42468 20.4623 6.4077 20.1356 6.35084H20.1329L20.0103 6.3292L20.02 6.32072L9.28686 4.73714C9.26911 4.73373 9.25114 4.73189 9.23312 4.73163C9.18866 4.73196 9.14488 4.74361 9.10522 4.76567C9.06555 4.78773 9.0311 4.81959 9.00457 4.85875C8.97803 4.89791 8.96014 4.9433 8.95231 4.99133C8.94447 5.03937 8.94691 5.08875 8.95941 5.13558L11.487 13.9237C10.1878 14.9688 8.96711 16.1267 7.83673 17.3862L7.79807 17.432L7.11147 18.2807C7.01908 18.4042 6.93944 18.5136 6.86753 18.6151L6.76547 18.7551C6.24603 19.4608 5.82494 20.2473 5.51598 21.0889H3.3607C3.15474 21.0892 2.95731 21.1792 2.81171 21.3391C2.66611 21.499 2.58423 21.7157 2.58402 21.9417V25.8837C2.58423 26.1098 2.66616 26.3266 2.81184 26.4865C2.95753 26.6464 3.15506 26.7364 3.36108 26.7366H5.35748C5.5039 27.3214 5.71432 27.8847 5.98415 28.4139C6.14412 28.7622 6.32654 29.0974 6.53003 29.4171L6.53235 29.4204L7.37049 30.575L7.45748 30.6726C8.37318 31.7867 9.37004 32.8171 10.4382 33.7536C10.8132 34.1118 11.1561 34.4224 11.4858 34.7024L11.2222 35.6962L8.91263 43.9005C8.90013 43.9473 8.89769 43.9967 8.90553 44.0447C8.91337 44.0928 8.93125 44.1381 8.95779 44.1773C8.98432 44.2165 9.01878 44.2483 9.05844 44.2704C9.0981 44.2924 9.14188 44.3041 9.18635 44.3044C9.20449 44.3042 9.22259 44.3023 9.24047 44.2989L17.0656 43.1312L20.2744 42.6814C20.6579 42.5914 20.9153 42.0152 21.1875 41.4055C21.3101 41.1189 21.4459 40.8393 21.5942 40.5678V40.5674ZM12.1554 24.9078C11.3988 24.7007 10.725 24.5068 10.1378 24.3328C9.71792 24.2055 9.35838 24.0969 9.04678 23.9989V23.9463C9.37965 23.8419 9.77359 23.7209 10.2371 23.5835C10.9287 23.3794 11.7402 23.1485 12.6615 22.9011C24.4433 19.7683 36.523 18.1854 48.6457 18.1861C48.7976 18.1861 48.9433 18.1861 49.0933 18.1882C61.1714 18.2357 65.6939 20.1825 67.3528 21.8234C67.6587 22.1147 67.9104 22.4681 68.0942 22.8642C68.2483 23.2052 68.3277 23.5809 68.3262 23.9615L68.3235 24.0519C68.3175 24.356 68.2606 24.6563 68.1557 24.9379C67.9833 25.3693 67.7283 25.7548 67.408 26.0683C65.7816 27.7321 61.2758 29.7098 49.0941 29.7574C48.9437 29.7574 48.7976 29.7595 48.6453 29.7595C36.348 29.7673 24.0953 28.1382 12.1554 24.9078ZM10.0067 20.3722C9.98622 20.3832 9.96418 20.3938 9.94408 20.4044C14.9169 15.4029 26.9687 8.30315 42.2165 7.78081H42.237C43.6535 7.66794 45.0159 7.61108 46.2862 7.60854C46.4185 7.60854 46.5476 7.61236 46.679 7.61321C49.085 7.61579 51.4854 7.86696 53.8485 8.36341C60.7543 9.44925 65.1928 12.173 67.3087 16.6483C67.5136 17.0809 67.6957 17.5261 67.8542 17.9815C67.7699 17.9049 67.6838 17.8288 67.5959 17.7533C62.6598 13.5228 52.4888 12.56 44.61 12.5175C27.7751 12.56 15.3967 17.7367 10.8445 19.9665C10.5472 20.1116 10.2572 20.2585 9.97307 20.4044C9.98351 20.3938 9.9955 20.3832 10.0067 20.3722Z" fill="white"/>
</svg>
