<svg width="838" height="839" viewBox="0 0 838 839" fill="none" xmlns="http://www.w3.org/2000/svg">
<path fill-rule="evenodd" clip-rule="evenodd" d="M326.538 511.709C283.65 511.686 241.178 520.116 201.55 536.518C161.922 552.919 125.915 576.971 95.5883 607.298C65.2617 637.624 41.21 673.631 24.8082 713.259C8.4065 752.887 -0.0235548 795.36 4.94321e-05 838.248L141.367 838.248C141.367 789.317 161.482 742.39 196.081 707.791C230.681 673.191 277.607 653.077 326.538 653.077C369.426 653.1 411.898 644.67 451.526 628.268C491.154 611.867 527.161 587.815 557.488 557.488C587.814 527.162 611.866 491.155 628.268 451.527C644.67 411.899 653.1 369.427 653.076 326.538C653.076 277.607 673.191 230.681 707.79 196.081C742.389 161.482 789.316 141.367 838.247 141.367V0C795.359 -0.0235596 752.886 8.40649 713.258 24.8082C673.63 41.2099 637.624 65.2617 607.297 95.5883C576.97 125.915 552.919 161.922 536.517 201.55C520.115 241.178 511.685 283.65 511.709 326.538C511.709 375.469 491.594 422.396 456.995 456.995C422.395 491.595 375.469 511.709 326.538 511.709Z" fill="white" fill-opacity="0.4"/>
</svg>
