<svg width="903" height="783" viewBox="0 0 903 783" fill="none" xmlns="http://www.w3.org/2000/svg">
<path fill-rule="evenodd" clip-rule="evenodd" d="M739 619L739 689.594C763.594 689.594 787.18 699.607 804.57 716.879C821.961 734.15 832 758.081 832 782.506L903 783C903.012 761.591 898.899 739.39 890.655 719.608C882.411 699.827 870.322 681.853 855.08 666.715C839.837 651.577 821.74 639.571 801.822 631.384C781.904 623.196 760.557 618.988 739 619ZM460.999 421.079L461.027 421.079L461.026 525.086L459.999 525.078C459.987 546.738 464.101 569.2 472.345 589.213C480.588 609.226 492.677 627.41 507.92 642.726C523.162 658.041 541.26 670.188 561.178 678.471C580.479 686.498 601.123 690.744 621.999 690.989L621.999 691L623.999 691L738.999 691L738.999 619L623.837 619C599.302 618.958 575.781 609.41 558.429 591.975C543.989 577.465 534.616 558.309 531.853 538.079L532.42 538.079L532.42 421.079C532.432 399.523 528.175 378.175 519.891 358.258C511.608 338.34 499.462 320.242 484.146 305C468.83 289.757 450.646 277.668 430.633 269.424C410.932 261.309 388.857 257.196 367.511 257.081L367.511 257.079L366.686 257.079L366.499 257.079L257.907 257.079L257.907 257.025C233.196 257.025 209.497 246.915 192.023 229.525C174.574 212.159 164.028 188.738 163.998 164.181L163.998 164.079C164.01 142.539 159.776 121.208 151.539 101.305C143.301 81.4021 131.222 63.3181 115.99 48.0869C100.759 32.8558 82.6753 20.7761 62.7726 12.5385C42.8698 4.30091 21.5386 0.0670231 -0.00154528 0.0788611L-0.00155459 71.0789C24.5734 71.0789 48.1418 81.1812 65.5189 98.5584C82.8961 115.936 92.9984 139.38 92.9981 163.955C92.9981 164.072 92.9981 164.189 92.9983 164.306L92.9983 409.079L163.998 409.079L163.998 298.911C173.612 305.535 183.929 311.138 194.785 315.61C214.798 323.854 236.247 328.091 257.907 328.079L257.907 328.079L366.999 328.079C391.71 328.079 415.921 338.119 433.395 355.509C450.868 372.899 460.999 396.486 460.999 421.079ZM-0.00162042 573.079L0.121985 502.079C24.6969 502.079 48.1418 491.977 65.5189 474.6C82.896 457.222 92.9984 433.654 92.9984 409.079L163.998 409.079C164.01 430.619 159.776 451.95 151.539 471.853C143.301 491.756 131.221 509.84 115.99 525.071C100.759 540.302 82.6752 552.382 62.7725 560.619C42.8697 568.857 21.5385 573.091 -0.00162042 573.079Z" fill="white" fill-opacity="0.32"/>
</svg>
