<svg width="680" height="1055" viewBox="0 0 680 1055" fill="none" xmlns="http://www.w3.org/2000/svg">
<path fill-rule="evenodd" clip-rule="evenodd" d="M141.367 -61.9998H0V216.752L0.00667732 216.752C-0.016927 259.641 8.41313 302.113 24.8149 341.741C41.2166 381.369 65.2683 417.376 95.5949 447.703C125.921 478.029 161.928 502.081 201.556 518.483C241.184 534.884 283.656 543.314 326.544 543.291C375.475 543.291 422.402 563.406 457.001 598.005C491.601 632.604 511.716 679.531 511.716 728.462C511.692 771.35 520.122 813.823 536.524 853.451C552.925 893.079 576.977 929.085 607.304 959.412C637.63 989.739 673.637 1013.79 713.265 1030.19C752.893 1046.59 795.365 1055.02 838.254 1055V913.633C789.323 913.633 742.396 893.518 707.797 858.919C673.197 824.32 653.083 777.393 653.083 728.462C653.106 685.574 644.676 643.101 628.274 603.473C611.873 563.845 587.821 527.838 557.494 497.512C527.168 467.185 491.161 443.134 451.533 426.732C411.905 410.33 369.433 401.9 326.545 401.924C277.614 401.924 230.687 381.809 196.088 347.209C161.489 312.61 141.374 265.683 141.374 216.752L141.367 216.752V-61.9998Z" fill="white" fill-opacity="0.4"/>
</svg>
