<svg width="291" height="525" viewBox="0 0 291 525" fill="none" xmlns="http://www.w3.org/2000/svg">
<path fill-rule="evenodd" clip-rule="evenodd" d="M57 427V427L15 427L15 498L56.9998 498V498C78.5562 498.012 99.9035 493.778 119.821 485.541C139.739 477.303 157.837 465.224 173.079 449.992C188.322 434.761 200.411 416.677 208.654 396.775C216.898 376.872 221.135 355.541 221.123 334L221 334V257L221.054 257C221.054 232.425 231.164 208.857 248.554 191.48C265.944 174.103 289.406 164 314 164V164C335.556 164.012 356.903 159.778 376.821 151.54C396.739 143.303 414.836 131.223 430.079 115.992C445.321 100.761 457.41 82.6768 465.654 62.7741C473.898 42.8714 478.135 21.5401 478.123 0H407.069C407.069 24.575 396.959 48.1434 379.569 65.5205C362.179 82.8976 338.593 93 313.999 93V93.0004C292.485 93.0049 271.182 97.2383 251.302 105.46C231.384 113.698 213.287 125.777 198.044 141.008C182.802 156.24 170.713 174.324 162.469 194.226C154.225 214.129 149.988 235.46 150 257L150 334L150.07 334C150.07 358.575 139.96 382.144 122.57 399.521C105.18 416.898 81.5934 427 57 427Z" fill="#295D59"/>
<path d="M15.1286 524.5C16.9176 524.5 18.7799 522.949 20.5808 519.727C22.3583 516.546 23.9753 511.911 25.3395 506.14C28.066 494.606 29.7571 478.646 29.7571 461C29.7571 443.354 28.066 427.394 25.3395 415.86C23.9753 410.089 22.3583 405.454 20.5808 402.273C18.7799 399.051 16.9176 397.5 15.1286 397.5C13.3395 397.5 11.4772 399.051 9.67631 402.273C7.89883 405.454 6.28182 410.089 4.91765 415.86C2.19118 427.394 0.499998 443.354 0.499997 461C0.499996 478.646 2.19117 494.606 4.91764 506.14C6.28181 511.911 7.89883 516.546 9.67631 519.727C11.4772 522.949 13.3395 524.5 15.1286 524.5Z" stroke="#1B1B1B"/>
<mask id="mask0_878_858" style="mask-type:alpha" maskUnits="userSpaceOnUse" x="0" y="397" width="31" height="128">
<ellipse rx="64" ry="15.1286" transform="matrix(-4.37114e-08 1 1 4.37114e-08 15.1286 461)" fill="#C4C4C4"/>
</mask>
<g mask="url(#mask0_878_858)">
<ellipse rx="64" ry="15.1286" transform="matrix(-4.37114e-08 1 1 4.37114e-08 8.75845 461)" fill="#1B1B1B"/>
</g>
</svg>
