<svg width="753" height="1117" viewBox="0 0 753 1117" fill="none" xmlns="http://www.w3.org/2000/svg">
<path fill-rule="evenodd" clip-rule="evenodd" d="M610.884 0H752.251V278.752H610.884V0ZM550.695 580.483C511.067 596.884 468.595 605.315 425.707 605.291C376.776 605.291 329.849 625.406 295.25 660.005C260.65 694.604 240.535 741.531 240.535 790.462C240.559 833.35 232.129 875.823 215.727 915.451C199.326 955.079 175.274 991.085 144.947 1021.41C114.621 1051.74 78.6141 1075.79 38.986 1092.19C-0.64209 1108.59 -43.1144 1117.02 -86.0027 1117V975.633C-37.0718 975.633 9.85492 955.518 44.4543 920.919C79.0536 886.32 99.1684 839.393 99.1683 790.462C99.1447 747.574 107.575 705.102 123.977 665.473C140.378 625.845 164.43 589.839 194.757 559.512C225.083 529.186 261.09 505.134 300.718 488.732C340.346 472.33 382.818 463.9 425.706 463.924C474.637 463.924 521.564 443.809 556.163 409.21C590.762 374.61 610.877 327.684 610.877 278.753L752.244 278.753C752.268 321.641 743.838 364.113 727.436 403.741C711.034 443.37 686.983 479.376 656.656 509.703C626.329 540.029 590.323 564.081 550.695 580.483Z" fill="white" fill-opacity="0.4"/>
</svg>
