<svg width="553" height="875" viewBox="0 0 553 875" fill="none" xmlns="http://www.w3.org/2000/svg">
<path fill-rule="evenodd" clip-rule="evenodd" d="M630 768H245V768.476C208.341 768.407 173.198 753.309 147.271 727.382C121.329 701.44 106.228 666.269 106.177 629.586H106.178C106.178 592.835 121.285 557.59 147.272 531.603C173.258 505.617 208.504 490.509 245.255 490.509L245.255 384.332C213.042 384.314 181.143 390.646 151.379 402.965C121.615 415.284 94.5717 433.348 71.7942 456.126C49.0167 478.903 30.9521 505.947 18.6332 535.71C6.33814 565.417 0.00723655 597.251 0.00046677 629.4H2.64186e-05C-0.0177035 661.612 6.31388 693.512 18.6328 723.275C30.9517 753.039 49.0163 780.082 71.7937 802.86C94.5712 825.637 121.615 843.702 151.378 856.021C181.064 868.307 212.874 874.638 245 874.654V875H630V768ZM245.263 490.508L245.263 384.331C282.014 384.331 317.259 369.224 343.246 343.237C369.233 317.25 384.34 282.005 384.34 245.254L384.325 245.254C384.307 213.042 390.638 181.142 402.957 151.379C415.276 121.615 433.341 94.5713 456.118 71.7938C478.896 49.0163 505.939 30.9517 535.703 18.6328C565.467 6.3139 597.366 -0.0176392 629.579 6.10352e-05V106.177C592.828 106.177 557.583 121.285 531.596 147.271C505.609 173.258 490.502 208.503 490.502 245.254L490.517 245.254C490.535 277.466 484.203 309.366 471.884 339.13C459.566 368.893 441.501 395.937 418.723 418.715C395.946 441.492 368.902 459.557 339.139 471.875C309.375 484.194 277.475 490.526 245.263 490.508Z" fill="#DFE4E1"/>
</svg>
