<svg width="276" height="498" viewBox="0 0 276 498" fill="none" xmlns="http://www.w3.org/2000/svg">
<path fill-rule="evenodd" clip-rule="evenodd" d="M42 427V427L0 427L3.8147e-06 498L41.9998 498V498C63.5562 498.012 84.9035 493.778 104.821 485.541C124.739 477.303 142.837 465.224 158.079 449.992C173.322 434.761 185.411 416.677 193.654 396.775C201.898 376.872 206.135 355.541 206.123 334L206 334.001V257.001L206.054 257C206.054 232.426 216.164 208.857 233.554 191.48C250.944 174.103 274.406 164 299 164V164C320.556 164.012 341.903 159.778 361.821 151.54C381.739 143.303 399.836 131.223 415.079 115.992C430.321 100.761 442.41 82.6769 450.654 62.7742C458.898 42.8714 463.135 21.5402 463.123 6.10352e-05H392.069C392.069 24.575 381.959 48.1435 364.569 65.5206C347.179 82.8977 323.593 93.0001 298.999 93.0001V93.0005C277.485 93.0049 256.182 97.2384 236.302 105.46C216.384 113.698 198.287 125.777 183.044 141.009C167.802 156.24 155.713 174.324 147.469 194.226C139.225 214.129 134.988 235.46 135 257L135 334.001L135.07 334C135.07 358.575 124.96 382.144 107.57 399.521C90.1796 416.898 66.5934 427 42 427Z" fill="#295D59"/>
</svg>
