<svg width="539" height="498" viewBox="0 0 539 498" fill="none" xmlns="http://www.w3.org/2000/svg">
<path fill-rule="evenodd" clip-rule="evenodd" d="M116.999 71L0 71L3.10351e-06 1.93612e-05L117 2.44755e-05C138.556 -0.0117462 159.903 4.22215 179.821 12.4596C199.739 20.6972 217.836 32.7769 233.079 48.0081C248.321 63.2393 260.41 81.3232 268.654 101.226C276.898 121.129 281.135 142.46 281.123 164L281 164V241H281.054C281.054 265.575 291.164 289.143 308.554 306.521C325.944 323.898 349.406 334 374 334V334C395.556 333.989 416.903 338.223 436.821 346.46C456.739 354.698 474.836 366.777 490.079 382.008C505.321 397.24 517.41 415.324 525.654 435.226C533.898 455.129 538.135 476.46 538.123 498H467.069C467.069 473.425 456.959 449.857 439.569 432.48C422.179 415.103 398.593 405 373.999 405V405C352.485 404.996 331.182 400.762 311.302 392.54C291.384 384.303 273.287 372.223 258.044 356.992C242.802 341.761 230.713 323.677 222.469 303.774C214.225 283.871 209.988 262.54 210 241L210 164L210.07 164C210.07 139.425 199.959 115.857 182.569 98.4795C165.179 81.1025 141.593 71.0002 117 71C117 71 117 71 116.999 71Z" fill="#295D59"/>
</svg>
