<svg width="517" height="839" viewBox="0 0 517 839" fill="none" xmlns="http://www.w3.org/2000/svg">
<path fill-rule="evenodd" clip-rule="evenodd" d="M4.53766 511.71C-38.3503 511.686 -80.8225 520.116 -120.45 536.518C-160.078 552.92 -196.085 576.971 -226.412 607.298C-256.738 637.625 -280.79 673.631 -297.192 713.259C-313.593 752.887 -322.024 795.36 -322 838.248L-180.633 838.248C-180.633 789.317 -160.518 742.39 -125.919 707.791C-91.3193 673.192 -44.3925 653.077 4.53836 653.077C47.4264 653.1 89.8985 644.67 129.526 628.269C169.154 611.867 205.161 587.815 235.488 557.489C265.814 527.162 289.866 491.155 306.268 451.527C322.67 411.899 331.1 369.427 331.076 326.539C331.076 277.608 351.191 230.681 385.79 196.082C420.389 161.482 467.316 141.367 516.247 141.367V0.000244141C473.359 -0.0233154 430.886 8.40674 391.258 24.8084C351.63 41.2101 315.624 65.2619 285.297 95.5885C254.97 125.915 230.919 161.922 214.517 201.55C198.115 241.178 189.685 283.65 189.709 326.539C189.709 375.469 169.594 422.396 134.995 456.996C100.395 491.595 53.4686 511.71 4.53766 511.71Z" fill="#B791C4"/>
</svg>
