<svg width="569" height="514" viewBox="0 0 569 514" fill="none" xmlns="http://www.w3.org/2000/svg">
<path fill-rule="evenodd" clip-rule="evenodd" d="M116.999 71L0 71L3.10351e-06 1.93612e-05L117 2.44755e-05C138.556 -0.0117462 159.903 4.22215 179.821 12.4596C199.739 20.6972 217.836 32.7769 233.079 48.0081C248.321 63.2393 260.41 81.3232 268.654 101.226C276.898 121.129 281.135 142.46 281.123 164L281 164V241H281.054C281.054 265.575 291.164 289.143 308.554 306.521C325.944 323.898 349.406 334 374 334V334C395.556 333.989 416.903 338.223 436.821 346.46C456.739 354.698 474.836 366.777 490.079 382.008C505.321 397.24 517.41 415.324 525.654 435.226C533.898 455.129 538.135 476.46 538.123 498H467.069C467.069 473.425 456.959 449.857 439.569 432.48C422.179 415.103 398.593 405 373.999 405V405C352.485 404.996 331.182 400.762 311.302 392.54C291.384 384.303 273.287 372.223 258.044 356.992C242.802 341.761 230.713 323.677 222.469 303.774C214.225 283.871 209.988 262.54 210 241L210 164L210.07 164C210.07 139.425 199.959 115.857 182.569 98.4795C165.179 81.1025 141.593 71.0002 117 71C117 71 117 71 116.999 71Z" fill="#295D59"/>
<path d="M568.5 498.129C568.5 496.339 566.949 494.477 563.727 492.676C560.546 490.899 555.911 489.282 550.14 487.918C538.606 485.191 522.646 483.5 505 483.5C487.354 483.5 471.394 485.191 459.86 487.918C454.089 489.282 449.454 490.899 446.273 492.676C443.051 494.477 441.5 496.339 441.5 498.129C441.5 499.918 443.051 501.78 446.273 503.581C449.454 505.358 454.089 506.975 459.86 508.339C471.394 511.066 487.354 512.757 505 512.757C522.646 512.757 538.606 511.066 550.14 508.339C555.911 506.975 560.546 505.358 563.727 503.581C566.949 501.78 568.5 499.918 568.5 498.129Z" stroke="#1B1B1B"/>
<mask id="mask0_796_1262" style="mask-type:alpha" maskUnits="userSpaceOnUse" x="441" y="483" width="128" height="31">
<ellipse rx="64" ry="15.1286" transform="matrix(1 0 0 -1 505 498.129)" fill="#C4C4C4"/>
</mask>
<g mask="url(#mask0_796_1262)">
<ellipse rx="64" ry="15.1286" transform="matrix(1 0 0 -1 505 504.499)" fill="#1B1B1B"/>
</g>
</svg>
