<svg width="246" height="491" viewBox="0 0 246 491" fill="none" xmlns="http://www.w3.org/2000/svg">
<path fill-rule="evenodd" clip-rule="evenodd" d="M245.254 245C245.238 212.874 238.908 181.064 226.621 151.378C214.302 121.615 196.238 94.5712 173.46 71.7938C150.683 49.0163 123.639 30.9517 93.8756 18.6328C64.112 6.31389 32.2122 -0.0176928 4.64114e-06 3.7133e-05L0 106.177C36.7507 106.177 71.9961 121.285 97.9827 147.271C123.947 173.236 139.051 208.443 139.077 245.159C139.033 281.853 123.932 317.034 97.9828 342.983C71.9961 368.969 36.7507 384.077 1.39235e-05 384.077L4.64115e-06 490.254C32.2122 490.272 64.1121 483.94 93.8757 471.621C123.639 459.302 150.683 441.238 173.46 418.46C196.238 395.683 214.302 368.639 226.621 338.876C238.94 309.112 245.272 277.212 245.254 245Z" fill="#295D59"/>
</svg>
