<svg width="421" height="421" viewBox="0 0 421 421" fill="none" xmlns="http://www.w3.org/2000/svg">
<path fill-rule="evenodd" clip-rule="evenodd" d="M322.521 65.5205C305.143 82.8976 281.575 93 257 93C235.46 92.9882 214.129 97.2221 194.226 105.46C174.323 113.697 156.239 125.777 141.008 141.008C125.777 156.239 113.697 174.323 105.46 194.226C97.222 214.129 92.9882 235.46 93 257C93 281.575 82.8976 305.143 65.5205 322.521C48.1434 339.898 24.575 350 0 350L6.20702e-06 421C21.5401 421.012 42.8714 416.778 62.7741 408.54C82.6769 400.303 100.761 388.223 115.992 372.992C131.223 357.761 143.303 339.677 151.54 319.774C159.778 299.871 164.012 278.54 164 257C164 232.425 174.102 208.857 191.479 191.48C208.857 174.102 232.425 164 257 164C278.54 164.012 299.871 159.778 319.774 151.54C339.677 143.303 357.761 131.223 372.992 115.992C388.223 100.761 400.303 82.6769 408.54 62.7741C416.778 42.8714 421.012 21.5401 421 6.20702e-06L350 0C350 24.575 339.898 48.1434 322.521 65.5205Z" fill="white"/>
</svg>
