<svg width="360" height="556" viewBox="0 0 360 556" fill="none" xmlns="http://www.w3.org/2000/svg">
<path fill-rule="evenodd" clip-rule="evenodd" d="M307.538 454.774C315.776 434.871 320.01 413.54 319.998 392L320 392L320 321L249 321L249 392C249 416.575 238.896 440.143 221.519 457.521C204.142 474.897 180.574 485 156 485L156 485L-9.77598e-05 485L-9.15527e-05 556L155.998 556L155.998 556C177.538 556.012 198.869 551.778 218.772 543.54C238.675 535.303 256.759 523.223 271.99 507.992C287.221 492.761 299.301 474.677 307.538 454.774Z" fill="#A473B6"/>
<path d="M347.5 318.13C347.5 316.341 345.949 314.479 342.727 312.678C339.546 310.9 334.911 309.283 329.14 307.919C317.606 305.193 301.646 303.502 284 303.502C266.354 303.502 250.394 305.193 238.86 307.919C233.089 309.283 228.454 310.9 225.273 312.678C222.051 314.479 220.5 316.341 220.5 318.13C220.5 319.919 222.051 321.782 225.273 323.582C228.454 325.36 233.089 326.977 238.86 328.341C250.394 331.068 266.354 332.759 284 332.759C301.646 332.759 317.606 331.068 329.14 328.341C334.911 326.977 339.546 325.36 342.727 323.582C345.949 321.782 347.5 319.919 347.5 318.13Z" stroke="#1B1B1B"/>
<mask id="mask0_387_722" style="mask-type:alpha" maskUnits="userSpaceOnUse" x="220" y="303" width="128" height="31">
<ellipse rx="64" ry="15.1286" transform="matrix(1 8.74233e-08 8.74223e-08 -1 284 318.13)" fill="#C4C4C4"/>
</mask>
<g mask="url(#mask0_387_722)">
<ellipse rx="64" ry="15.1286" transform="matrix(1 8.74237e-08 8.74218e-08 -1 284 324.5)" fill="#1B1B1B"/>
</g>
<rect x="-0.5" y="0.5" width="151" height="288" rx="19.5" transform="matrix(-1 0 0 1 359 0.00146484)" stroke="#1B1B1B"/>
<rect x="-0.5" y="0.5" width="145" height="282" rx="17.5" transform="matrix(-1 0 0 1 356 3.00146)" fill="#F6F9F8" stroke="#1B1B1B"/>
<mask id="mask1_387_722" style="mask-type:alpha" maskUnits="userSpaceOnUse" x="211" y="3" width="146" height="284">
<path d="M357 3.00146H229C219.059 3.00146 211 11.0603 211 21.0015V268.001C211 277.943 219.059 286.001 229 286.001H339C348.941 286.001 357 277.943 357 268.001V3.00146Z" fill="white"/>
</mask>
<g mask="url(#mask1_387_722)">
<rect x="321.625" y="254.626" width="20.75" height="20.75" rx="10.375" stroke="#1B1B1B" stroke-width="1.25"/>
<rect x="289.625" y="254.626" width="20.75" height="20.75" rx="10.375" stroke="#1B1B1B" stroke-width="1.25"/>
<rect x="257.625" y="254.626" width="20.75" height="20.75" rx="10.375" stroke="#1B1B1B" stroke-width="1.25"/>
<rect x="225.625" y="254.626" width="20.75" height="20.75" rx="10.375" stroke="#1B1B1B" stroke-width="1.25"/>
<rect x="212" y="243" width="144" height="1" fill="#1B1B1B"/>
<rect x="221.625" y="73.6265" width="20.75" height="20.75" rx="10.375" stroke="#1B1B1B" stroke-width="1.25"/>
<rect x="249" y="73.0015" width="61" height="4" fill="#1B1B1B"/>
<rect x="249" y="82.0015" width="97" height="2" fill="#1B1B1B"/>
<rect x="249" y="89.0015" width="92" height="2" fill="#1B1B1B"/>
<rect x="249" y="96.0015" width="61" height="2" fill="#1B1B1B"/>
<rect x="249" y="103.001" width="41" height="2" fill="#1B1B1B"/>
<rect x="221.625" y="117.626" width="20.75" height="20.75" rx="10.375" stroke="#1B1B1B" stroke-width="1.25"/>
<rect x="249" y="117.001" width="61" height="4" fill="#1B1B1B"/>
<rect x="249" y="125.001" width="97" height="2" fill="#1B1B1B"/>
<rect x="249" y="131.001" width="92" height="2" fill="#1B1B1B"/>
<rect x="249" y="137.001" width="61" height="2" fill="#1B1B1B"/>
<rect x="249" y="143.001" width="42" height="2" fill="#1B1B1B"/>
<rect x="221.625" y="157.626" width="20.75" height="20.75" rx="10.375" stroke="#1B1B1B" stroke-width="1.25"/>
<rect x="249" y="157.001" width="61" height="4" fill="#1B1B1B"/>
<rect x="249" y="165.001" width="97" height="2" fill="#1B1B1B"/>
<rect x="249" y="171.001" width="92" height="2" fill="#1B1B1B"/>
<rect x="249" y="177.001" width="61" height="2" fill="#1B1B1B"/>
<rect x="249" y="183.001" width="42" height="2" fill="#1B1B1B"/>
<rect x="221.625" y="197.626" width="20.75" height="20.75" rx="10.375" stroke="#1B1B1B" stroke-width="1.25"/>
<rect x="249" y="197.001" width="61" height="4" fill="#1B1B1B"/>
<rect x="249" y="205.001" width="97" height="2" fill="#1B1B1B"/>
<rect x="249" y="211.001" width="92" height="2" fill="#1B1B1B"/>
<rect x="249" y="217.001" width="61" height="2" fill="#1B1B1B"/>
<rect x="249" y="223.001" width="42" height="2" fill="#1B1B1B"/>
<path d="M330 27.0015C330 22.5832 333.582 19.0015 338 19.0015C342.418 19.0015 346 22.5832 346 27.0015C346 31.4197 342.418 35.0015 338 35.0015C333.582 35.0015 330 31.4197 330 27.0015Z" fill="#093632"/>
<path d="M341.335 26.936V27.7085H334.513V26.936H341.335ZM338.307 23.7573V31.0034H337.486V23.7573H338.307Z" fill="white"/>
<rect x="221.5" y="43.5015" width="125" height="17" rx="8.5" stroke="#1B1B1B"/>
<g clip-path="url(#clip0_387_722)">
<path d="M235.932 56.1597L233.561 53.7886C233.516 53.7437 233.457 53.7202 233.395 53.7202H233.137C233.752 53.0073 234.125 52.0796 234.125 51.064C234.125 48.8198 232.307 47.0015 230.062 47.0015C227.818 47.0015 226 48.8198 226 51.064C226 53.3081 227.818 55.1265 230.062 55.1265C231.078 55.1265 232.006 54.7534 232.719 54.1382V54.396C232.719 54.4585 232.744 54.5171 232.787 54.562L235.158 56.9331C235.25 57.0249 235.398 57.0249 235.49 56.9331L235.932 56.4917C236.023 56.3999 236.023 56.2515 235.932 56.1597ZM230.062 54.189C228.336 54.189 226.938 52.7905 226.938 51.064C226.938 49.3374 228.336 47.939 230.062 47.939C231.789 47.939 233.188 49.3374 233.188 51.064C233.188 52.7905 231.789 54.189 230.062 54.189Z" fill="#1B1B1B"/>
</g>
<path d="M242.769 52.9233C242.769 52.8237 242.753 52.7358 242.722 52.6597C242.692 52.5815 242.64 52.5112 242.563 52.4487C242.489 52.3862 242.386 52.3267 242.253 52.27C242.122 52.2134 241.956 52.1558 241.755 52.0972C241.544 52.0347 241.354 51.9653 241.184 51.8892C241.014 51.811 240.868 51.7222 240.747 51.6226C240.626 51.5229 240.533 51.4087 240.469 51.2798C240.404 51.1509 240.372 51.0034 240.372 50.8374C240.372 50.6714 240.406 50.5181 240.475 50.3774C240.543 50.2368 240.641 50.1147 240.768 50.0112C240.896 49.9058 241.05 49.8237 241.228 49.7651C241.405 49.7065 241.604 49.6772 241.822 49.6772C242.143 49.6772 242.414 49.7388 242.637 49.8618C242.861 49.9829 243.032 50.1421 243.149 50.3394C243.267 50.5347 243.325 50.7437 243.325 50.9663H242.763C242.763 50.8062 242.729 50.6646 242.66 50.5415C242.592 50.4165 242.488 50.3188 242.35 50.2485C242.211 50.1763 242.035 50.1401 241.822 50.1401C241.621 50.1401 241.455 50.1704 241.324 50.231C241.193 50.2915 241.096 50.3735 241.031 50.4771C240.969 50.5806 240.938 50.6987 240.938 50.8315C240.938 50.9214 240.956 51.0034 240.993 51.0776C241.032 51.1499 241.092 51.2173 241.172 51.2798C241.254 51.3423 241.357 51.3999 241.482 51.4526C241.609 51.5054 241.761 51.5562 241.937 51.605C242.179 51.6733 242.388 51.7495 242.563 51.8335C242.739 51.9175 242.884 52.0122 242.997 52.1177C243.112 52.2212 243.197 52.3394 243.252 52.4722C243.309 52.603 243.337 52.7515 243.337 52.9175C243.337 53.0913 243.302 53.2485 243.231 53.3892C243.161 53.5298 243.061 53.6499 242.93 53.7495C242.799 53.8491 242.642 53.9263 242.458 53.981C242.276 54.0337 242.073 54.0601 241.849 54.0601C241.651 54.0601 241.457 54.0327 241.266 53.978C241.076 53.9233 240.903 53.8413 240.747 53.7319C240.593 53.6226 240.469 53.4878 240.375 53.3276C240.283 53.1655 240.237 52.978 240.237 52.7651H240.8C240.8 52.9116 240.828 53.0376 240.885 53.1431C240.941 53.2466 241.019 53.3325 241.116 53.4009C241.216 53.4692 241.328 53.52 241.453 53.5532C241.58 53.5845 241.712 53.6001 241.849 53.6001C242.046 53.6001 242.213 53.5728 242.35 53.5181C242.486 53.4634 242.59 53.3853 242.66 53.2837C242.732 53.1821 242.769 53.062 242.769 52.9233ZM245.291 54.0601C245.07 54.0601 244.87 54.0229 244.69 53.9487C244.513 53.8726 244.359 53.7661 244.23 53.6294C244.104 53.4927 244.006 53.3306 243.938 53.1431C243.869 52.9556 243.835 52.7505 243.835 52.5278V52.4048C243.835 52.147 243.873 51.9175 243.949 51.7163C244.025 51.5132 244.129 51.3413 244.26 51.2007C244.391 51.0601 244.539 50.9536 244.705 50.8813C244.871 50.8091 245.043 50.7729 245.221 50.7729C245.447 50.7729 245.643 50.812 245.807 50.8901C245.973 50.9683 246.108 51.0776 246.214 51.2183C246.319 51.3569 246.397 51.521 246.448 51.7104C246.499 51.8979 246.524 52.103 246.524 52.3257V52.5688H244.157V52.1265H245.982V52.0854C245.975 51.9448 245.945 51.8081 245.895 51.6753C245.846 51.5425 245.768 51.4331 245.66 51.3472C245.553 51.2612 245.406 51.2183 245.221 51.2183C245.098 51.2183 244.984 51.2446 244.881 51.2974C244.777 51.3481 244.688 51.4243 244.614 51.5259C244.54 51.6274 244.482 51.7515 244.441 51.8979C244.4 52.0444 244.38 52.2134 244.38 52.4048V52.5278C244.38 52.6782 244.4 52.8198 244.441 52.9526C244.484 53.0835 244.546 53.1987 244.626 53.2983C244.708 53.3979 244.807 53.4761 244.922 53.5327C245.039 53.5894 245.172 53.6177 245.32 53.6177C245.512 53.6177 245.674 53.5786 245.807 53.5005C245.939 53.4224 246.056 53.3179 246.155 53.187L246.483 53.4478C246.415 53.5513 246.328 53.6499 246.223 53.7437C246.117 53.8374 245.987 53.9136 245.833 53.9722C245.681 54.0308 245.5 54.0601 245.291 54.0601ZM249.026 53.4595V51.8276C249.026 51.7026 249.001 51.5942 248.95 51.5024C248.901 51.4087 248.827 51.3364 248.728 51.2856C248.628 51.2349 248.505 51.2095 248.358 51.2095C248.222 51.2095 248.102 51.2329 247.998 51.2798C247.896 51.3267 247.816 51.3882 247.758 51.4644C247.701 51.5405 247.673 51.6226 247.673 51.7104H247.131C247.131 51.5972 247.16 51.4849 247.219 51.3735C247.277 51.2622 247.361 51.1616 247.471 51.0718C247.582 50.98 247.715 50.9077 247.869 50.855C248.025 50.8003 248.199 50.7729 248.391 50.7729C248.621 50.7729 248.824 50.812 249 50.8901C249.178 50.9683 249.316 51.0864 249.416 51.2446C249.518 51.4009 249.568 51.5972 249.568 51.8335V53.3101C249.568 53.4155 249.577 53.5278 249.595 53.647C249.614 53.7661 249.643 53.8687 249.68 53.9546V54.0015H249.114C249.087 53.939 249.065 53.856 249.05 53.7524C249.034 53.647 249.026 53.5493 249.026 53.4595ZM249.12 52.0796L249.126 52.4604H248.578C248.424 52.4604 248.286 52.4731 248.165 52.4985C248.044 52.522 247.942 52.5581 247.86 52.6069C247.778 52.6558 247.716 52.7173 247.673 52.7915C247.63 52.8638 247.608 52.9487 247.608 53.0464C247.608 53.146 247.631 53.2368 247.676 53.3188C247.721 53.4009 247.788 53.4663 247.878 53.5151C247.97 53.562 248.082 53.5854 248.215 53.5854C248.381 53.5854 248.527 53.5503 248.654 53.48C248.781 53.4097 248.882 53.3237 248.956 53.2222C249.032 53.1206 249.073 53.022 249.079 52.9263L249.311 53.187C249.297 53.269 249.26 53.3599 249.199 53.4595C249.139 53.5591 249.058 53.6548 248.956 53.7466C248.856 53.8364 248.737 53.9116 248.599 53.9722C248.462 54.0308 248.308 54.0601 248.136 54.0601C247.921 54.0601 247.732 54.0181 247.57 53.9341C247.41 53.8501 247.285 53.7378 247.195 53.5972C247.107 53.4546 247.063 53.2954 247.063 53.1196C247.063 52.9497 247.097 52.8003 247.163 52.6714C247.229 52.5405 247.325 52.4321 247.45 52.3462C247.575 52.2583 247.726 52.1919 247.901 52.147C248.077 52.1021 248.273 52.0796 248.49 52.0796H249.12ZM250.963 51.3296V54.0015H250.421V50.8315H250.948L250.963 51.3296ZM251.953 50.814L251.95 51.3179C251.905 51.3081 251.862 51.3022 251.821 51.3003C251.782 51.2964 251.737 51.2944 251.687 51.2944C251.562 51.2944 251.451 51.314 251.355 51.353C251.26 51.3921 251.179 51.4468 251.112 51.5171C251.046 51.5874 250.993 51.6714 250.954 51.769C250.917 51.8647 250.893 51.9702 250.881 52.0854L250.729 52.1733C250.729 51.9819 250.747 51.8022 250.784 51.6343C250.823 51.4663 250.883 51.3179 250.963 51.189C251.043 51.0581 251.145 50.9565 251.268 50.8843C251.393 50.8101 251.541 50.7729 251.713 50.7729C251.752 50.7729 251.797 50.7778 251.848 50.7876C251.898 50.7954 251.934 50.8042 251.953 50.814ZM253.664 53.6147C253.793 53.6147 253.912 53.5884 254.021 53.5356C254.131 53.4829 254.221 53.4106 254.291 53.3188C254.361 53.2251 254.401 53.1187 254.411 52.9995H254.927C254.917 53.187 254.854 53.3618 254.736 53.5239C254.621 53.6841 254.47 53.814 254.282 53.9136C254.095 54.0112 253.889 54.0601 253.664 54.0601C253.426 54.0601 253.218 54.0181 253.04 53.9341C252.864 53.8501 252.718 53.7349 252.601 53.5884C252.485 53.4419 252.398 53.2739 252.34 53.0845C252.283 52.8931 252.255 52.6909 252.255 52.478V52.355C252.255 52.1421 252.283 51.9409 252.34 51.7515C252.398 51.5601 252.485 51.3911 252.601 51.2446C252.718 51.0981 252.864 50.9829 253.04 50.8989C253.218 50.8149 253.426 50.7729 253.664 50.7729C253.912 50.7729 254.129 50.8237 254.314 50.9253C254.5 51.0249 254.646 51.1616 254.751 51.3354C254.858 51.5073 254.917 51.7026 254.927 51.9214H254.411C254.401 51.7905 254.364 51.6724 254.3 51.5669C254.237 51.4614 254.151 51.3774 254.042 51.3149C253.935 51.2505 253.809 51.2183 253.664 51.2183C253.498 51.2183 253.358 51.2515 253.245 51.3179C253.134 51.3823 253.045 51.4702 252.979 51.5815C252.914 51.6909 252.867 51.813 252.838 51.9478C252.811 52.0806 252.797 52.2163 252.797 52.355V52.478C252.797 52.6167 252.811 52.7534 252.838 52.8882C252.865 53.0229 252.911 53.145 252.976 53.2544C253.042 53.3638 253.131 53.4517 253.242 53.5181C253.355 53.5825 253.496 53.6147 253.664 53.6147ZM256.078 49.5015V54.0015H255.536V49.5015H256.078ZM255.949 52.2964L255.724 52.2876C255.726 52.0708 255.758 51.8706 255.82 51.687C255.883 51.5015 255.971 51.3403 256.084 51.2036C256.197 51.0669 256.332 50.9614 256.488 50.8872C256.646 50.811 256.821 50.7729 257.013 50.7729C257.169 50.7729 257.31 50.7944 257.435 50.8374C257.56 50.8784 257.666 50.9448 257.754 51.0366C257.844 51.1284 257.912 51.2476 257.959 51.394C258.006 51.5386 258.029 51.7153 258.029 51.9243V54.0015H257.484V51.9185C257.484 51.7524 257.46 51.6196 257.411 51.52C257.362 51.4185 257.291 51.3452 257.197 51.3003C257.104 51.2534 256.988 51.23 256.852 51.23C256.717 51.23 256.594 51.2583 256.482 51.3149C256.373 51.3716 256.278 51.4497 256.198 51.5493C256.12 51.6489 256.059 51.7632 256.014 51.8921C255.971 52.019 255.949 52.1538 255.949 52.2964ZM258.85 53.7144C258.85 53.6226 258.878 53.5454 258.935 53.4829C258.993 53.4185 259.077 53.3862 259.187 53.3862C259.296 53.3862 259.379 53.4185 259.436 53.4829C259.494 53.5454 259.523 53.6226 259.523 53.7144C259.523 53.8042 259.494 53.8804 259.436 53.9429C259.379 54.0054 259.296 54.0366 259.187 54.0366C259.077 54.0366 258.993 54.0054 258.935 53.9429C258.878 53.8804 258.85 53.8042 258.85 53.7144ZM260.432 53.7144C260.432 53.6226 260.46 53.5454 260.517 53.4829C260.575 53.4185 260.659 53.3862 260.769 53.3862C260.878 53.3862 260.961 53.4185 261.018 53.4829C261.076 53.5454 261.105 53.6226 261.105 53.7144C261.105 53.8042 261.076 53.8804 261.018 53.9429C260.961 54.0054 260.878 54.0366 260.769 54.0366C260.659 54.0366 260.575 54.0054 260.517 53.9429C260.46 53.8804 260.432 53.8042 260.432 53.7144ZM262.014 53.7144C262.014 53.6226 262.042 53.5454 262.099 53.4829C262.157 53.4185 262.241 53.3862 262.351 53.3862C262.46 53.3862 262.543 53.4185 262.6 53.4829C262.658 53.5454 262.688 53.6226 262.688 53.7144C262.688 53.8042 262.658 53.8804 262.6 53.9429C262.543 54.0054 262.46 54.0366 262.351 54.0366C262.241 54.0366 262.157 54.0054 262.099 53.9429C262.042 53.8804 262.014 53.8042 262.014 53.7144Z" fill="#1B1B1B"/>
</g>
<path d="M308 3.00146H254V5.00146C254 8.31517 256.686 11.0015 260 11.0015H302C305.314 11.0015 308 8.31517 308 5.00146V3.00146Z" fill="#1B1B1B"/>
<circle r="2" transform="matrix(-1 0 0 1 269 7.00146)" fill="white"/>
<rect width="16" height="4" rx="2" transform="matrix(-1 0 0 1 289 5.00146)" fill="white"/>
<defs>
<clipPath id="clip0_387_722">
<rect width="10" height="10" fill="white" transform="translate(226 47.0015)"/>
</clipPath>
</defs>
</svg>
