<svg width="82" height="83" viewBox="0 0 82 83" fill="none" xmlns="http://www.w3.org/2000/svg">
<path d="M3.03857 3.03848H78.9617V3.06518V3.24014V3.41481V3.58919V3.76327V3.93705V4.11054V4.28375V4.45666V4.62928V4.80161V4.97366V5.14542V5.3169V5.48809V5.659V5.82963V5.99999V6.17006V6.33985V6.50937V6.67862V6.84759V7.01629V7.18472V7.35287V7.52076V7.68838V7.85573V8.02282V8.18964V8.3562V8.5225V8.68854V8.85432V9.01984V9.1851V9.3501V9.51486V9.67935V9.8436V10.0076V10.1713V10.3348V10.4981V10.6611V10.8238V10.9863V11.1486V11.3106V11.4724V11.634V11.7953V11.9563V12.1172V12.2778V12.4381V12.5983V12.7582V12.9178V13.0773V13.2365V13.3955V13.5543V13.7128V13.8711V14.0292V14.1871V14.3447V14.5022V14.6594V14.8164V14.9732V15.1297V15.2861V15.4423V15.5982V15.7539V15.9095V16.0648V16.2199V16.3748V16.5295V16.684V16.8383V16.9924V17.1463V17.3V17.4535V17.6068V17.76V17.9129V18.0656V18.2182V18.3706V18.5227V18.6747V18.8265V18.9781V19.1296V19.2808V19.4319V19.5828V19.7335V19.884V20.0344V20.1846V20.3346V20.4844V20.6341V20.7836V20.933V21.0821V21.2311V21.38V21.5286V21.6771V21.8255V21.9737V22.1217V22.2695V22.4173V22.5648V22.7122V22.8595V23.0066V23.1535V23.3003V23.4469V23.5934V23.7398V23.886V24.032V24.178V24.3237V24.4694V24.6149V24.7602V24.9055V25.0505V25.1955V25.3403V25.485V25.6296V25.774V25.9183V26.0625V26.2065V26.3504V26.4942V26.6379V26.7814V26.9249V27.0682V27.2114V27.3544V27.4974V27.6402V27.783V27.9256V28.0681V28.2105V28.3528V28.495V28.6371V28.779V28.9209V29.0627V29.2043V29.3459V29.4874V29.6287V29.77V29.9112V30.0523V30.1932V30.3341V30.4749V30.6157V30.7563V30.8968V31.0373V31.1777V31.3179V31.4581V31.5983V31.7383V31.8783V32.0181V32.1579V32.2977V32.4373V32.5769V32.7164V32.8559V32.9952V33.1345V33.2738V33.4129V33.5521V33.6911V33.8301V33.969V34.1078V34.2466V34.3854V34.5241V34.6627V34.8013V34.9398V35.0783V35.2167V35.355V35.4934V35.6316V35.7699V35.908V36.0462V36.1843V36.3223V36.4603V36.5983V36.7362V36.8742V37.012V37.1498V37.2876V37.4254V37.5631V37.7009V37.8385V37.9762V38.1138V38.2514V38.389V38.5265V38.6641V38.8016V38.9391V39.0766V39.214V39.3515V39.4889V39.6263V39.7637V39.9011V40.0385V40.1759V40.3132V40.4506V40.588V40.7253V40.8627V41V41.1374V41.2747V41.4121V41.5494V41.6868V41.8242V41.9615V42.0989V42.2363V42.3737V42.5111V42.6486V42.786V42.9235V43.061V43.1985V43.336V43.4735V43.611V43.7486V43.8862V44.0239V44.1615V44.2992V44.4369V44.5746V44.7124V44.8502V44.988V45.1259V45.2638V45.4017V45.5397V45.6777V45.8158V45.9539V46.092V46.2302V46.3684V46.5067V46.645V46.7834V46.9218V47.0602V47.1988V47.3373V47.476V47.6147V47.7534V47.8922V48.031V48.17V48.3089V48.448V48.5871V48.7263V48.8655V49.0048V49.1442V49.2836V49.4231V49.5627V49.7024V49.8421V49.9819V50.1218V50.2617V50.4018V50.5419V50.6821V50.8224V50.9628V51.1032V51.2437V51.3844V51.5251V51.6659V51.8068V51.9478V52.0889V52.23V52.3713V52.5127V52.6541V52.7957V52.9374V53.0791V53.221V53.363V53.505V53.6472V53.7895V53.9319V54.0744V54.2171V54.3598V54.5026V54.6456V54.7887V54.9319V55.0752V55.2186V55.3622V55.5058V55.6496V55.7935V55.9376V56.0818V56.226V56.3705V56.515V56.6597V56.8045V56.9495V57.0946V57.2398V57.3852V57.5307V57.6763V57.8221V57.968V58.114V58.2603V58.4066V58.5531V58.6997V58.8465V58.9935V59.1406V59.2878V59.4352V59.5828V59.7305V59.8784V60.0264V60.1746V60.3229V60.4714V60.6201V60.7689V60.9179V61.0671V61.2164V61.3659V61.5156V61.6654V61.8154V61.9656V62.116V62.2665V62.4172V62.5681V62.7192V62.8705V63.0219V63.1735V63.3253V63.4773V63.6295V63.7818V63.9344V64.0871V64.2401V64.3932V64.5465V64.7V64.8537V65.0076V65.1617V65.316V65.4705V65.6252V65.7801V65.9353V66.0906V66.2461V66.4018V66.5578V66.7139V66.8703V67.0269V67.1836V67.3406V67.4979V67.6553V67.813V67.9708V68.1289V68.2872V68.4458V68.6045V68.7635V68.9227V69.0822V69.2419V69.4018V69.5619V69.7223V69.8829V70.0437V70.2048V70.3661V70.5276V70.6894V70.8514V71.0137V71.1762V71.339V71.502V71.6652V71.8287V71.9924V72.1564V72.3207V72.4852V72.6499V72.8149V72.9802V73.1457V73.3115V73.4775V73.6438V73.8104V73.9772V74.1443V74.3117V74.4793V74.6472V74.8153V74.9837V75.1524V75.3214V75.4907V75.6602V75.83V76V76.1704V76.341V76.5119V76.6831V76.8546V77.0264V77.1984V77.3708V77.5434V77.7163V77.8895V78.063V78.2368V78.4108V78.5852V78.7599V78.9349V78.9616H3.03857V3.03848Z" stroke="#1B1B1B"/>
<rect width="6" height="6" fill="#1B1B1B"/>
<rect x="76" width="6" height="6" fill="#1B1B1B"/>
<rect x="76.5" y="76.6538" width="5" height="5" fill="white" stroke="#1B1B1B"/>
<path d="M0 76.1538H6V82.1538H0V76.1538Z" fill="#1B1B1B"/>
<path fill-rule="evenodd" clip-rule="evenodd" d="M31.5797 25.4692L34.8656 53.2839L40.9458 45.9737L47.7256 57.7166L49.5797 56.6461L51.4405 55.5718L44.6607 43.8289L54.0594 42.2024L31.5797 25.4692Z" fill="#1B1B1B"/>
</svg>
