<svg width="428" height="488" viewBox="0 0 428 488" fill="none" xmlns="http://www.w3.org/2000/svg">
<path d="M-60 488L-59.8568 405.744C-31.3858 405.744 -4.22414 394.04 15.9079 373.908C36.0399 353.776 47.7439 326.471 47.7439 298L130 298C130.014 322.955 125.109 347.668 115.565 370.726C106.022 393.784 92.0268 414.735 74.3809 432.381C56.735 450.027 35.7841 464.022 12.7261 473.565C-10.332 483.109 -35.045 488.014 -60 488Z" fill="#DFE4E1"/>
<path d="M238.001 108L238.001 190C209.53 190 182.225 201.96 162.093 222.092C141.961 242.224 130 269.529 130 298L48.0006 298C47.9868 273.045 52.8919 248.332 62.4355 225.274C71.979 202.216 85.9737 181.265 103.62 163.619C121.265 145.973 142.216 131.978 165.274 122.435C188.332 112.891 213.045 107.986 238.001 108Z" fill="#DFE4E1"/>
<path d="M238 190L238 108C266.471 108 293.776 96.0399 313.908 75.9079C334.04 55.7759 346.001 28.471 346.001 7.16867e-06L428 1.52588e-05C428.014 24.955 423.109 49.668 413.566 72.7261C404.022 95.7842 390.027 116.735 372.381 134.381C354.736 152.027 333.785 166.022 310.727 175.565C287.669 185.109 262.955 190.014 238 190Z" fill="#DFE4E1"/>
</svg>
