<svg width="428" height="565" viewBox="0 0 428 565" fill="none" xmlns="http://www.w3.org/2000/svg">
<rect x="346" y="488" width="82" height="77" fill="white" fill-opacity="0.3"/>
<path d="M-60 4.53821e-05L-59.8568 82.2561C-31.3858 82.2561 -4.22414 93.9601 15.9079 114.092C36.0399 134.224 47.7439 161.529 47.7439 190L130 190C130.014 165.045 125.109 140.332 115.565 117.274C106.022 94.2159 92.0268 73.265 74.3809 55.6191C56.735 37.9732 35.7841 23.9785 12.7261 14.4349C-10.332 4.89142 -35.045 -0.0136934 -60 4.53821e-05Z" fill="white" fill-opacity="0.3"/>
<path d="M238.001 380L238.001 298C209.53 298 182.225 286.04 162.093 265.908C141.961 245.776 130 218.471 130 190L48.0006 190C47.9868 214.955 52.8919 239.668 62.4355 262.726C71.979 285.784 85.9737 306.735 103.62 324.381C121.265 342.027 142.216 356.022 165.274 365.565C188.332 375.109 213.045 380.014 238.001 380Z" fill="white" fill-opacity="0.3"/>
<path d="M238 298L238 380C266.471 380 293.776 391.96 313.908 412.092C334.04 432.224 346.001 459.529 346.001 488L428 488C428.014 463.045 423.109 438.332 413.566 415.274C404.022 392.216 390.027 371.265 372.381 353.619C354.736 335.973 333.785 321.978 310.727 312.435C287.669 302.891 262.955 297.986 238 298Z" fill="white" fill-opacity="0.3"/>
</svg>
