<svg width="404" height="509" viewBox="0 0 404 509" fill="none" xmlns="http://www.w3.org/2000/svg">
<path d="M509 4.53821e-05L508.857 82.2561C480.386 82.2561 453.224 93.9601 433.092 114.092C412.96 134.224 401.256 161.529 401.256 190L319 190C318.986 165.045 323.891 140.332 333.435 117.274C342.978 94.2159 356.973 73.265 374.619 55.6191C392.265 37.9732 413.216 23.9785 436.274 14.4349C459.332 4.89142 484.045 -0.0136934 509 4.53821e-05Z" fill="#B791C4"/>
<path d="M210.999 380L210.999 298C239.47 298 266.775 286.04 286.907 265.908C307.039 245.776 319 218.471 319 190L400.999 190C401.013 214.955 396.108 239.668 386.565 262.726C377.021 285.784 363.026 306.735 345.38 324.381C327.735 342.027 306.784 356.022 283.726 365.565C260.668 375.109 235.955 380.014 210.999 380Z" fill="#B791C4"/>
<path d="M0.5 493.129C0.5 491.339 2.05097 489.477 5.27337 487.676C8.45383 485.899 13.0892 484.282 18.8602 482.918C30.3943 480.191 46.3538 478.5 64 478.5C81.6462 478.5 97.6057 480.191 109.14 482.918C114.911 484.282 119.546 485.899 122.727 487.676C125.949 489.477 127.5 491.339 127.5 493.129C127.5 494.918 125.949 496.78 122.727 498.581C119.546 500.358 114.911 501.975 109.14 503.339C97.6057 506.066 81.6462 507.757 64 507.757C46.3538 507.757 30.3943 506.066 18.8602 503.339C13.0892 501.975 8.45383 500.358 5.27337 498.581C2.05097 496.78 0.5 494.918 0.5 493.129Z" stroke="#1B1B1B"/>
<mask id="mask0_986_1092" style="mask-type:alpha" maskUnits="userSpaceOnUse" x="0" y="478" width="128" height="31">
<ellipse cx="64" cy="493.129" rx="64" ry="15.1286" transform="rotate(180 64 493.129)" fill="#C4C4C4"/>
</mask>
<g mask="url(#mask0_986_1092)">
<ellipse cx="64" cy="499.499" rx="64" ry="15.1286" transform="rotate(180 64 499.499)" fill="#1B1B1B"/>
<path d="M103 488H21V502H103V488Z" fill="url(#paint0_linear_986_1092)"/>
</g>
<path d="M211 298L211 380C182.529 380 155.224 391.96 135.092 412.092C114.96 432.224 102.999 459.529 102.999 488L20.9996 488C20.9858 463.045 25.8909 438.332 35.4345 415.274C44.978 392.216 58.9728 371.265 76.6186 353.619C94.2645 335.973 115.215 321.978 138.273 312.435C161.331 302.891 186.045 297.986 211 298Z" fill="#B791C4"/>
<defs>
<linearGradient id="paint0_linear_986_1092" x1="62" y1="488" x2="62" y2="498.5" gradientUnits="userSpaceOnUse">
<stop stop-color="#A473B6"/>
<stop offset="1" stop-color="white" stop-opacity="0"/>
</linearGradient>
</defs>
</svg>
