<svg width="252" height="504" viewBox="0 0 252 504" fill="none" xmlns="http://www.w3.org/2000/svg">
<g style="mix-blend-mode:multiply">
<mask id="mask0_879_861" style="mask-type:alpha" maskUnits="userSpaceOnUse" x="1" y="0" width="250" height="504">
<path d="M250.261 57.1681C250.261 37.1574 250.261 27.152 246.321 19.509C242.855 12.7859 237.325 7.31991 230.523 3.89434C222.79 0 212.668 0 192.422 0H59.575C39.3296 0 29.207 0 21.4743 3.89434C14.6724 7.31991 9.14233 12.7859 5.6766 19.509C1.7366 27.152 1.7366 37.1574 1.7366 57.1681V446.832C1.7366 466.843 1.7366 476.848 5.6766 484.491C9.14233 491.214 14.6724 496.68 21.4743 500.106C29.207 504 39.3296 504 59.575 504H192.422C212.668 504 222.79 504 230.523 500.106C237.325 496.68 242.855 491.214 246.321 484.491C250.261 476.848 250.261 466.843 250.261 446.832V57.1681Z" fill="black"/>
</mask>
<g mask="url(#mask0_879_861)">
<g filter="url(#filter0_i_879_861)">
<path fill-rule="evenodd" clip-rule="evenodd" d="M246.321 19.509C250.261 27.152 250.261 37.1574 250.261 57.1681V446.832C250.261 466.843 250.261 476.848 246.321 484.491C242.855 491.214 237.325 496.68 230.523 500.106C222.79 504 212.668 504 192.422 504H59.575C39.3296 504 29.207 504 21.4743 500.106C14.6724 496.68 9.14232 491.214 5.67661 484.491C1.7366 476.848 1.7366 466.843 1.7366 446.832V57.1681C1.7366 37.1574 1.7366 27.152 5.67661 19.509C9.14232 12.7859 14.6724 7.31991 21.4743 3.89434C29.207 0 39.3296 0 59.575 0H192.422C212.668 0 222.79 0 230.523 3.89434C237.325 7.31991 242.855 12.7859 246.321 19.509ZM238.192 49.3792C238.192 36.2952 238.192 29.7533 235.616 24.7559C233.35 20.36 229.734 16.7861 225.287 14.5463C220.231 12 213.612 12 200.375 12H188.758C188.182 12 187.895 12 187.664 12.0829C187.278 12.2218 186.974 12.5225 186.833 12.9042C186.749 13.1319 186.749 13.4163 186.749 13.985V13.9852C186.749 18.5348 186.749 20.8097 186.079 22.6313C184.954 25.685 182.52 28.0906 179.431 29.202C177.588 29.865 175.286 29.865 170.683 29.865H81.508C76.9049 29.865 74.6033 29.865 72.7603 29.202C69.6708 28.0906 67.2371 25.685 66.1126 22.6313C65.4418 20.8097 65.4418 18.5348 65.4418 13.985C65.4418 13.4163 65.4418 13.1319 65.3579 12.9042C65.2174 12.5225 64.9131 12.2218 64.527 12.0829C64.2966 12 64.0089 12 63.4335 12H51.8164C38.5791 12 31.9604 12 26.9044 14.5463C22.457 16.7861 18.8412 20.36 16.5752 24.7559C13.999 29.7533 13.999 36.2952 13.999 49.3791V453.885C13.999 466.969 13.999 473.511 16.5752 478.508C18.8412 482.904 22.457 486.478 26.9044 488.718C31.9604 491.264 38.5794 491.264 51.8164 491.264H200.375C213.612 491.264 220.231 491.264 225.287 488.718C229.734 486.478 233.35 482.904 235.616 478.508C238.192 473.511 238.192 466.969 238.192 453.885V49.3792Z" fill="#EBEBEB"/>
</g>
<rect width="5.90897" height="4.80982" transform="matrix(-1 0 0 1 251.651 42.948)" fill="url(#paint0_linear_879_861)"/>
<rect width="5.90897" height="4.80982" transform="matrix(-1 0 0 1 251.651 458.306)" fill="url(#paint1_linear_879_861)"/>
<rect width="5.90897" height="4.80982" transform="matrix(-1 0 0 1 6.25684 42.948)" fill="url(#paint2_linear_879_861)"/>
<rect width="5.90897" height="4.80982" transform="matrix(-1 0 0 1 6.25684 458.307)" fill="url(#paint3_linear_879_861)"/>
<rect width="5.84049" height="4.86621" transform="matrix(4.37616e-08 1 1 -4.36612e-08 54.5732 -2.40454)" fill="url(#paint4_linear_879_861)"/>
<rect width="5.84049" height="4.86621" transform="matrix(4.42239e-08 1 1 -4.32049e-08 200.905 499.534)" fill="url(#paint5_linear_879_861)"/>
</g>
<mask id="path-9-inside-1_879_861" fill="white">
<path fill-rule="evenodd" clip-rule="evenodd" d="M243.804 20.9454C247.479 28.074 247.479 37.4059 247.479 56.0697V447.932C247.479 466.596 247.479 475.928 243.804 483.057C240.571 489.327 235.413 494.425 229.069 497.62C221.857 501.253 212.416 501.253 193.533 501.253H58.4612C39.5785 501.253 30.1372 501.253 22.9249 497.62C16.5809 494.425 11.423 489.327 8.19058 483.057C4.51578 475.928 4.51578 466.596 4.51578 447.932V56.0698C4.51578 37.4059 4.51578 28.074 8.19058 20.9454C11.423 14.6748 16.5809 9.57673 22.9249 6.38174C30.1372 2.74951 39.5785 2.74951 58.4612 2.74951H193.533C212.416 2.74951 221.857 2.74951 229.069 6.38174C235.413 9.57673 240.571 14.6748 243.804 20.9454ZM238.192 49.3792C238.192 36.2952 238.192 29.7533 235.616 24.7559C233.35 20.36 229.734 16.7861 225.287 14.5463C220.231 12 213.612 12 200.375 12H188.758C188.182 12 187.895 12 187.664 12.0829C187.278 12.2218 186.974 12.5225 186.833 12.9042C186.749 13.1319 186.749 13.4163 186.749 13.985V13.9852C186.749 18.5348 186.749 20.8097 186.079 22.6313C184.954 25.685 182.52 28.0906 179.431 29.202C177.588 29.865 175.286 29.865 170.683 29.865H81.508C76.9049 29.865 74.6033 29.865 72.7603 29.202C69.6708 28.0906 67.2371 25.685 66.1126 22.6313C65.4418 20.8097 65.4418 18.5348 65.4418 13.985C65.4418 13.4163 65.4418 13.1319 65.3579 12.9042C65.2174 12.5225 64.9131 12.2218 64.527 12.0829C64.2966 12 64.0089 12 63.4335 12H51.8164C38.5791 12 31.9604 12 26.9044 14.5463C22.457 16.7861 18.8412 20.36 16.5752 24.7559C13.999 29.7533 13.999 36.2952 13.999 49.3791V453.885C13.999 466.969 13.999 473.511 16.5752 478.508C18.8412 482.904 22.457 486.478 26.9044 488.718C31.9604 491.264 38.5794 491.264 51.8164 491.264H200.375C213.612 491.264 220.231 491.264 225.287 488.718C229.734 486.478 233.35 482.904 235.616 478.508C238.192 473.511 238.192 466.969 238.192 453.885V49.3792Z"/>
</mask>
<path fill-rule="evenodd" clip-rule="evenodd" d="M243.804 20.9454C247.479 28.074 247.479 37.4059 247.479 56.0697V447.932C247.479 466.596 247.479 475.928 243.804 483.057C240.571 489.327 235.413 494.425 229.069 497.62C221.857 501.253 212.416 501.253 193.533 501.253H58.4612C39.5785 501.253 30.1372 501.253 22.9249 497.62C16.5809 494.425 11.423 489.327 8.19058 483.057C4.51578 475.928 4.51578 466.596 4.51578 447.932V56.0698C4.51578 37.4059 4.51578 28.074 8.19058 20.9454C11.423 14.6748 16.5809 9.57673 22.9249 6.38174C30.1372 2.74951 39.5785 2.74951 58.4612 2.74951H193.533C212.416 2.74951 221.857 2.74951 229.069 6.38174C235.413 9.57673 240.571 14.6748 243.804 20.9454ZM238.192 49.3792C238.192 36.2952 238.192 29.7533 235.616 24.7559C233.35 20.36 229.734 16.7861 225.287 14.5463C220.231 12 213.612 12 200.375 12H188.758C188.182 12 187.895 12 187.664 12.0829C187.278 12.2218 186.974 12.5225 186.833 12.9042C186.749 13.1319 186.749 13.4163 186.749 13.985V13.9852C186.749 18.5348 186.749 20.8097 186.079 22.6313C184.954 25.685 182.52 28.0906 179.431 29.202C177.588 29.865 175.286 29.865 170.683 29.865H81.508C76.9049 29.865 74.6033 29.865 72.7603 29.202C69.6708 28.0906 67.2371 25.685 66.1126 22.6313C65.4418 20.8097 65.4418 18.5348 65.4418 13.985C65.4418 13.4163 65.4418 13.1319 65.3579 12.9042C65.2174 12.5225 64.9131 12.2218 64.527 12.0829C64.2966 12 64.0089 12 63.4335 12H51.8164C38.5791 12 31.9604 12 26.9044 14.5463C22.457 16.7861 18.8412 20.36 16.5752 24.7559C13.999 29.7533 13.999 36.2952 13.999 49.3791V453.885C13.999 466.969 13.999 473.511 16.5752 478.508C18.8412 482.904 22.457 486.478 26.9044 488.718C31.9604 491.264 38.5794 491.264 51.8164 491.264H200.375C213.612 491.264 220.231 491.264 225.287 488.718C229.734 486.478 233.35 482.904 235.616 478.508C238.192 473.511 238.192 466.969 238.192 453.885V49.3792Z" fill="#1B1B1B"/>
<path d="M243.804 20.9454L243.359 21.1745L243.359 21.1745L243.804 20.9454ZM243.804 483.057L244.248 483.286L244.248 483.286L243.804 483.057ZM229.069 497.62L229.294 498.067L229.294 498.067L229.069 497.62ZM22.9249 497.62L22.7 498.067L22.7 498.067L22.9249 497.62ZM8.19058 483.057L7.74616 483.286L7.74616 483.286L8.19058 483.057ZM8.19058 20.9454L7.74616 20.7163L7.74616 20.7163L8.19058 20.9454ZM22.9249 6.38174L22.7 5.93517L22.7 5.93517L22.9249 6.38174ZM229.069 6.38174L229.294 5.93517L229.294 5.93517L229.069 6.38174ZM235.616 24.7559L236.06 24.5268L236.06 24.5268L235.616 24.7559ZM225.287 14.5463L225.062 14.9929L225.062 14.9929L225.287 14.5463ZM187.664 12.0829L187.833 12.5534L187.833 12.5534L187.664 12.0829ZM186.833 12.9042L186.364 12.7314L186.364 12.7314L186.833 12.9042ZM186.079 22.6313L185.609 22.4585L185.609 22.4585L186.079 22.6313ZM179.431 29.202L179.262 28.7315L179.262 28.7315L179.431 29.202ZM72.7603 29.202L72.5911 29.6725L72.5911 29.6725L72.7603 29.202ZM66.1126 22.6313L66.5818 22.4585L66.5818 22.4585L66.1126 22.6313ZM65.3579 12.9042L65.8271 12.7314L65.8271 12.7314L65.3579 12.9042ZM64.527 12.0829L64.6962 11.6124L64.6962 11.6124L64.527 12.0829ZM26.9044 14.5463L27.1293 14.9929L27.1293 14.9929L26.9044 14.5463ZM16.5752 24.7559L16.1308 24.5268L16.1308 24.5268L16.5752 24.7559ZM16.5752 478.508L16.1308 478.737L16.1308 478.737L16.5752 478.508ZM26.9044 488.718L26.6795 489.164L26.6795 489.164L26.9044 488.718ZM225.287 488.718L225.512 489.164L225.512 489.164L225.287 488.718ZM235.616 478.508L236.06 478.737L236.06 478.737L235.616 478.508ZM246.979 56.0697C246.979 46.7295 246.978 39.7547 246.521 34.223C246.064 28.6974 245.154 24.656 243.359 21.1745L244.248 20.7163C246.128 24.3633 247.056 28.5522 247.517 34.1407C247.979 39.7231 247.979 46.7462 247.979 56.0697H246.979ZM246.979 447.932V56.0697H247.979V447.932H246.979ZM243.359 482.828C245.154 479.346 246.064 475.305 246.521 469.779C246.978 464.247 246.979 457.273 246.979 447.932H247.979C247.979 457.256 247.979 464.279 247.517 469.861C247.056 475.45 246.128 479.639 244.248 483.286L243.359 482.828ZM228.844 497.174C235.095 494.026 240.176 489.004 243.359 482.828L244.248 483.286C240.967 489.651 235.732 494.825 229.294 498.067L228.844 497.174ZM193.533 500.753C202.983 500.753 210.04 500.752 215.637 500.3C221.229 499.849 225.32 498.949 228.844 497.174L229.294 498.067C225.606 499.924 221.371 500.84 215.718 501.297C210.071 501.753 202.966 501.753 193.533 501.753V500.753ZM58.4612 500.753H193.533V501.753H58.4612V500.753ZM23.1498 497.174C26.6742 498.949 30.7652 499.849 36.3569 500.3C41.9543 500.752 49.0117 500.753 58.4612 500.753V501.753C49.028 501.753 41.9234 501.753 36.2764 501.297C30.6237 500.84 26.3879 499.924 22.7 498.067L23.1498 497.174ZM8.63501 482.828C11.8187 489.004 16.8994 494.026 23.1498 497.174L22.7 498.067C16.2624 494.825 11.0273 489.651 7.74616 483.286L8.63501 482.828ZM5.01578 447.932C5.01578 457.273 5.01618 464.247 5.47343 469.779C5.93018 475.305 6.84026 479.346 8.63501 482.828L7.74616 483.286C5.8661 479.639 4.93877 475.45 4.47683 469.861C4.01538 464.279 4.01578 457.256 4.01578 447.932H5.01578ZM5.01578 56.0698V447.932H4.01578V56.0698H5.01578ZM8.63501 21.1745C6.84026 24.656 5.93018 28.6974 5.47343 34.2231C5.01618 39.7547 5.01578 46.7295 5.01578 56.0698H4.01578C4.01578 46.7462 4.01538 39.7231 4.47683 34.1407C4.93877 28.5522 5.8661 24.3633 7.74616 20.7163L8.63501 21.1745ZM23.1498 6.8283C16.8994 9.97616 11.8187 14.9985 8.63501 21.1745L7.74616 20.7163C11.0273 14.3512 16.2624 9.17731 22.7 5.93517L23.1498 6.8283ZM58.4612 3.24951C49.0117 3.24951 41.9543 3.24989 36.3569 3.70192C30.7652 4.15349 26.6742 5.05334 23.1498 6.8283L22.7 5.93517C26.3879 4.0779 30.6237 3.16165 36.2764 2.70516C41.9234 2.24913 49.028 2.24951 58.4612 2.24951V3.24951ZM193.533 3.24951H58.4612V2.24951H193.533V3.24951ZM228.844 6.8283C225.32 5.05334 221.229 4.15349 215.637 3.70192C210.04 3.24989 202.983 3.24951 193.533 3.24951V2.24951C202.966 2.24951 210.071 2.24913 215.718 2.70516C221.371 3.16165 225.606 4.0779 229.294 5.93517L228.844 6.8283ZM243.359 21.1745C240.176 14.9985 235.095 9.97616 228.844 6.8283L229.294 5.93517C235.732 9.17731 240.967 14.3512 244.248 20.7163L243.359 21.1745ZM236.06 24.5268C237.391 27.1082 238.044 30.0668 238.368 33.9939C238.693 37.9149 238.692 42.8455 238.692 49.3792H237.692C237.692 42.8288 237.692 37.9465 237.372 34.0762C237.052 30.212 236.417 27.4009 235.172 24.985L236.06 24.5268ZM225.512 14.0997C230.053 16.3867 233.746 20.0364 236.06 24.5268L235.172 24.985C232.954 20.6837 229.416 17.1855 225.062 14.9929L225.512 14.0997ZM200.375 11.5C206.985 11.5 211.973 11.4996 215.939 11.8199C219.911 12.1407 222.902 12.7854 225.512 14.0997L225.062 14.9929C222.616 13.7609 219.769 13.1325 215.858 12.8167C211.942 12.5004 207.002 12.5 200.375 12.5V11.5ZM188.758 11.5H200.375V12.5H188.758V11.5ZM187.495 11.6124C187.828 11.4926 188.225 11.5 188.758 11.5V12.5C188.139 12.5 187.961 12.5074 187.833 12.5534L187.495 11.6124ZM186.364 12.7314C186.556 12.2096 186.971 11.8008 187.495 11.6124L187.833 12.5534C187.585 12.6428 187.391 12.8354 187.302 13.077L186.364 12.7314ZM186.249 13.985C186.249 13.4602 186.242 13.0639 186.364 12.7314L187.302 13.077C187.257 13.2 187.249 13.3724 187.249 13.985H186.249ZM186.249 13.9852V13.985H187.249V13.9852H186.249ZM185.609 22.4585C186.242 20.7416 186.249 18.5788 186.249 13.9852H187.249C187.249 18.4909 187.257 20.8778 186.548 22.8041L185.609 22.4585ZM179.262 28.7315C182.213 27.6696 184.536 25.3721 185.609 22.4585L186.548 22.8041C185.372 25.9979 182.827 28.5115 179.6 29.6725L179.262 28.7315ZM170.683 29.365C175.329 29.365 177.521 29.3576 179.262 28.7315L179.6 29.6725C177.654 30.3725 175.243 30.365 170.683 30.365V29.365ZM81.508 29.365H170.683V30.365H81.508V29.365ZM72.9296 28.7315C74.6698 29.3576 76.8618 29.365 81.508 29.365V30.365C76.9479 30.365 74.5368 30.3725 72.5911 29.6725L72.9296 28.7315ZM66.5818 22.4585C67.6547 25.3721 69.9777 27.6696 72.9296 28.7315L72.5911 29.6725C69.3639 28.5115 66.8195 25.9979 65.6434 22.8041L66.5818 22.4585ZM65.9418 13.985C65.9418 16.266 65.942 17.9543 66.0247 19.3006C66.1071 20.6429 66.2703 21.6125 66.5818 22.4585L65.6434 22.8041C65.2841 21.8284 65.1118 20.7498 65.0266 19.3619C64.9416 17.9778 64.9418 16.2538 64.9418 13.985H65.9418ZM65.8271 12.7314C65.9495 13.0639 65.9418 13.4602 65.9418 13.985H64.9418C64.9418 13.3724 64.934 13.2 64.8887 13.077L65.8271 12.7314ZM64.6962 11.6124C65.22 11.8008 65.635 12.2096 65.8271 12.7314L64.8887 13.077C64.7998 12.8354 64.6063 12.6428 64.3577 12.5534L64.6962 11.6124ZM63.4335 11.5C63.9659 11.5 64.3631 11.4926 64.6962 11.6124L64.3577 12.5534C64.2301 12.5074 64.052 12.5 63.4335 12.5V11.5ZM51.8164 11.5H63.4335V12.5H51.8164V11.5ZM26.6795 14.0997C29.2893 12.7854 32.2804 12.1407 36.2522 11.8199C40.2183 11.4996 45.2059 11.5 51.8164 11.5V12.5C45.1896 12.5 40.2492 12.5004 36.3327 12.8167C32.4218 13.1325 29.5756 13.7609 27.1293 14.9929L26.6795 14.0997ZM16.1308 24.5268C18.4455 20.0364 22.1385 16.3867 26.6795 14.0997L27.1293 14.9929C22.7755 17.1855 19.2369 20.6837 17.0196 24.985L16.1308 24.5268ZM13.499 49.3791C13.499 42.8455 13.4986 37.9149 13.8227 33.9939C14.1474 30.0668 14.8 27.1082 16.1308 24.5268L17.0196 24.985C15.7742 27.4009 15.1388 30.212 14.8193 34.0762C14.4994 37.9465 14.499 42.8288 14.499 49.3791H13.499ZM13.499 453.885V49.3791H14.499V453.885H13.499ZM16.1308 478.737C14.8 476.156 14.1474 473.197 13.8227 469.27C13.4986 465.349 13.499 460.418 13.499 453.885H14.499C14.499 460.435 14.4994 465.317 14.8193 469.188C15.1388 473.052 15.7742 475.863 17.0196 478.279L16.1308 478.737ZM26.6795 489.164C22.1385 486.877 18.4455 483.227 16.1308 478.737L17.0196 478.279C19.2369 482.58 22.7755 486.078 27.1293 488.271L26.6795 489.164ZM51.8164 491.764C45.2061 491.764 40.2184 491.764 36.2523 491.444C32.2804 491.123 29.2892 490.478 26.6795 489.164L27.1293 488.271C29.5756 489.503 32.4218 490.131 36.3328 490.447C40.2493 490.763 45.1897 490.764 51.8164 490.764V491.764ZM200.375 491.764H51.8164V490.764H200.375V491.764ZM225.512 489.164C222.902 490.478 219.911 491.123 215.939 491.444C211.973 491.764 206.985 491.764 200.375 491.764V490.764C207.001 490.764 211.942 490.763 215.858 490.447C219.769 490.131 222.616 489.503 225.062 488.271L225.512 489.164ZM236.06 478.737C233.746 483.227 230.053 486.877 225.512 489.164L225.062 488.271C229.416 486.078 232.954 482.58 235.172 478.279L236.06 478.737ZM238.692 453.885C238.692 460.418 238.693 465.349 238.368 469.27C238.044 473.197 237.391 476.156 236.06 478.737L235.172 478.279C236.417 475.863 237.052 473.052 237.372 469.188C237.692 465.317 237.692 460.435 237.692 453.885H238.692ZM238.692 49.3792V453.885H237.692V49.3792H238.692Z" fill="url(#paint6_linear_879_861)" mask="url(#path-9-inside-1_879_861)"/>
<g filter="url(#filter1_ii_879_861)">
<path d="M251.998 80.3939C251.998 80.0144 251.687 79.7068 251.303 79.7068H250.26V99.6332H251.303C251.687 99.6332 251.998 99.3255 251.998 98.9461V80.3939Z" fill="url(#paint7_linear_879_861)"/>
</g>
<g filter="url(#filter2_ii_879_861)">
<path d="M251.998 116.47C251.998 116.091 251.687 115.783 251.303 115.783H250.26V154.261H251.303C251.687 154.261 251.998 153.954 251.998 153.574V116.47Z" fill="url(#paint8_linear_879_861)"/>
</g>
<g filter="url(#filter3_ii_879_861)">
<path d="M1.7373 129.52H0.694546C0.310613 129.52 -0.000626385 129.827 -0.000626385 130.207V188.612C-0.000626385 188.991 0.310613 189.299 0.694546 189.299H1.7373V129.52Z" fill="url(#paint9_linear_879_861)"/>
</g>
<g filter="url(#filter4_ii_879_861)">
<path d="M251.998 163.535C251.998 163.156 251.687 162.848 251.303 162.848H250.26V201.326H251.303C251.687 201.326 251.998 201.019 251.998 200.639V163.535Z" fill="url(#paint10_linear_879_861)"/>
</g>
</g>
<g style="mix-blend-mode:screen">
<mask id="mask1_879_861" style="mask-type:alpha" maskUnits="userSpaceOnUse" x="1" y="0" width="250" height="504">
<path d="M250.261 57.1681C250.261 37.1574 250.261 27.152 246.321 19.509C242.855 12.7859 237.325 7.31991 230.523 3.89434C222.79 0 212.668 0 192.422 0H59.575C39.3296 0 29.207 0 21.4743 3.89434C14.6724 7.31991 9.14233 12.7859 5.6766 19.509C1.7366 27.152 1.7366 37.1574 1.7366 57.1681V446.832C1.7366 466.843 1.7366 476.848 5.6766 484.491C9.14233 491.214 14.6724 496.68 21.4743 500.106C29.207 504 39.3296 504 59.575 504H192.422C212.668 504 222.79 504 230.523 500.106C237.325 496.68 242.855 491.214 246.321 484.491C250.261 476.848 250.261 466.843 250.261 446.832V57.1681Z" fill="black"/>
</mask>
<g mask="url(#mask1_879_861)">
<g filter="url(#filter5_ii_879_861)">
<path d="M250.261 57.1681C250.261 37.1574 250.261 27.152 246.321 19.509C242.855 12.7859 237.325 7.31991 230.523 3.89434C222.79 0 212.668 0 192.422 0H59.575C39.3296 0 29.207 0 21.4743 3.89434C14.6724 7.31991 9.14233 12.7859 5.6766 19.509C1.7366 27.152 1.7366 37.1574 1.7366 57.1681V446.832C1.7366 466.843 1.7366 476.848 5.6766 484.491C9.14233 491.214 14.6724 496.68 21.4743 500.106C29.207 504 39.3296 504 59.575 504H192.422C212.668 504 222.79 504 230.523 500.106C237.325 496.68 242.855 491.214 246.321 484.491C250.261 476.848 250.261 466.843 250.261 446.832V57.1681Z" fill="#050505"/>
</g>
<path d="M192.422 1H59.575C49.436 1 41.8912 1.00076 35.9129 1.48355C29.9459 1.96542 25.627 2.92261 21.9241 4.78747C15.3094 8.11876 9.9337 13.4332 6.56544 19.9672C4.68076 23.6232 3.71301 27.8878 3.22571 33.783C2.7374 39.6904 2.7366 47.1461 2.7366 57.1681V446.832C2.7366 456.854 2.7374 464.31 3.22571 470.217C3.71301 476.112 4.68076 480.377 6.56544 484.033C9.9337 490.567 15.3094 495.881 21.9241 499.213C25.627 501.077 29.9459 502.035 35.9129 502.516C41.8912 502.999 49.436 503 59.575 503H192.422C202.561 503 210.106 502.999 216.084 502.516C222.051 502.035 226.37 501.077 230.073 499.213C236.688 495.881 242.064 490.567 245.432 484.033C247.317 480.377 248.284 476.112 248.772 470.217C249.26 464.31 249.261 456.854 249.261 446.832V57.1681C249.261 47.1461 249.26 39.6904 248.772 33.783C248.284 27.8878 247.317 23.6232 245.432 19.9672C242.064 13.4332 236.688 8.11876 230.073 4.78747C226.37 2.92261 222.051 1.96542 216.084 1.48355C210.106 1.00076 202.561 1 192.422 1Z" stroke="url(#paint11_linear_879_861)" stroke-width="2"/>
<rect width="5.90897" height="4.80982" transform="matrix(-1 0 0 1 251.651 42.948)" fill="url(#paint12_linear_879_861)"/>
<rect width="5.90897" height="4.80982" transform="matrix(-1 0 0 1 251.651 458.306)" fill="url(#paint13_linear_879_861)"/>
<rect width="5.90897" height="4.80982" transform="matrix(-1 0 0 1 6.25684 42.948)" fill="url(#paint14_linear_879_861)"/>
<rect width="5.90897" height="4.80982" transform="matrix(-1 0 0 1 6.25684 458.307)" fill="url(#paint15_linear_879_861)"/>
<rect width="5.84049" height="4.86621" transform="matrix(4.37616e-08 1 1 -4.36612e-08 54.5732 -2.40454)" fill="url(#paint16_linear_879_861)"/>
<rect width="5.84049" height="4.86621" transform="matrix(4.42239e-08 1 1 -4.32049e-08 200.905 499.534)" fill="url(#paint17_linear_879_861)"/>
<path d="M33.9995 13.0001C44.4444 12.1807 50.4032 12.1652 60.9994 12.0001H63.4994C64.332 11.9966 64.6894 12.0755 64.9994 12.5001C65.3418 12.9211 65.4332 13.2698 65.4994 14.0001V19.0001C65.4917 21.403 65.7406 22.7224 66.9994 25.0001C68.4676 26.9694 70.9994 28.5001 70.9994 28.5001C70.9994 28.5001 74.5117 30.0575 76.7146 30.0001H176.499C178.668 29.8155 179.735 29.4594 181.499 28.5001C183.106 27.3354 183.908 26.5986 184.999 25.0001C186.196 22.8269 186.507 21.5036 186.499 19.0001V14.0001C186.519 13.1972 186.613 12.8579 186.999 12.5001C187.561 12.1305 187.895 12.0399 188.499 12.0001H191.499L217.999 12.5001C224.54 14.0018 228.572 15.4562 231.999 20.0001C236.736 25.3138 237.766 29.9777 237.999 40.0001V463.5C237.863 474.21 236.713 479.525 230.499 485.5C224.571 490.78 218.71 491.694 205.999 491.5H43.9994C31.9379 491.436 26.7358 490.303 21.4994 485.5C15.6559 479.659 13.9092 474.815 13.9994 463.5V40.0001C14.1514 30.0735 15.0743 25.313 19.9994 20.0001C26.0785 14.2054 28.8841 13.6282 33.9995 13.0001Z" stroke="black"/>
</g>
<path d="M193.533 2.99951H58.4612C49.0157 2.99951 41.9465 2.9997 36.3368 3.45273C30.7298 3.90553 26.6026 4.80948 23.0374 6.60502C16.7401 9.77644 11.6209 14.8367 8.4128 21.0599C6.59673 24.5829 5.68233 28.6611 5.22427 34.2025C4.76598 39.7468 4.76578 46.7337 4.76578 56.0698V447.932C4.76578 457.268 4.76598 464.255 5.22427 469.8C5.68233 475.341 6.59673 479.419 8.4128 482.942C11.6209 489.165 16.7401 494.226 23.0374 497.397C26.6026 499.193 30.7298 500.097 36.3368 500.549C41.9465 501.002 49.0157 501.003 58.4612 501.003H193.533C202.979 501.003 210.048 501.002 215.658 500.549C221.264 500.097 225.392 499.193 228.957 497.397C235.254 494.226 240.373 489.165 243.581 482.942C245.398 479.419 246.312 475.341 246.77 469.8C247.228 464.255 247.229 457.268 247.229 447.932V56.0697C247.229 46.7336 247.228 39.7468 246.77 34.2024C246.312 28.6611 245.398 24.5829 243.581 21.0599C240.373 14.8367 235.254 9.77644 228.957 6.60502C225.392 4.80948 221.264 3.90553 215.658 3.45273C210.048 2.9997 202.979 2.99951 193.533 2.99951Z" fill="#1B1B1B" stroke="url(#paint18_linear_879_861)" stroke-width="0.5"/>
<path d="M235.518 25.1226C238.094 30.1199 238.094 36.6619 238.094 49.7459V454.251C238.094 467.335 238.094 473.877 235.518 478.875C233.252 483.27 229.636 486.844 225.188 489.084C220.132 491.631 213.514 491.631 200.276 491.631H51.718C38.4807 491.631 31.862 491.631 26.8061 489.084C22.3587 486.844 18.7429 483.27 16.4768 478.875C13.9006 473.877 13.9006 467.335 13.9006 454.251V49.7458C13.9006 36.6619 13.9006 30.1199 16.4768 25.1226C18.7429 20.7267 22.3587 17.1528 26.8061 14.913C31.862 12.3667 38.4807 12.3667 51.718 12.3667H63.3351C63.9105 12.3667 64.1982 12.3667 64.4286 12.4496C64.8148 12.5885 65.119 12.8892 65.2595 13.2709C65.3434 13.4986 65.3434 13.783 65.3434 14.3517C65.3434 18.9015 65.3434 21.1764 66.0142 22.998C67.1387 26.0517 69.5724 28.4573 72.662 29.5687C74.5049 30.2317 76.8065 30.2317 81.4096 30.2317H170.585C175.188 30.2317 177.489 30.2317 179.332 29.5687C182.422 28.4573 184.856 26.0517 185.98 22.998C186.651 21.1764 186.651 18.9015 186.651 14.3517C186.651 13.783 186.651 13.4986 186.735 13.2709C186.875 12.8892 187.18 12.5885 187.566 12.4496C187.796 12.3667 188.084 12.3667 188.659 12.3667H200.276C213.514 12.3667 220.132 12.3667 225.188 14.913C229.636 17.1528 233.252 20.7267 235.518 25.1226Z" fill="#1B1B1B"/>
<g filter="url(#filter6_iiii_879_861)">
<path d="M251.998 80.3939C251.998 80.0144 251.687 79.7068 251.303 79.7068H250.26V99.6332H251.303C251.687 99.6332 251.998 99.3255 251.998 98.9461V80.3939Z" fill="url(#paint19_linear_879_861)"/>
</g>
<g filter="url(#filter7_iiii_879_861)">
<path d="M251.998 116.47C251.998 116.091 251.687 115.783 251.303 115.783H250.26V154.261H251.303C251.687 154.261 251.998 153.954 251.998 153.574V116.47Z" fill="url(#paint20_linear_879_861)"/>
</g>
<g filter="url(#filter8_iiii_879_861)">
<path d="M1.7373 129.52H0.694546C0.310613 129.52 -0.000626385 129.827 -0.000626385 130.207V188.612C-0.000626385 188.991 0.310613 189.299 0.694546 189.299H1.7373V129.52Z" fill="url(#paint21_linear_879_861)"/>
</g>
<g filter="url(#filter9_iiii_879_861)">
<path d="M251.998 163.535C251.998 163.156 251.687 162.848 251.303 162.848H250.26V201.326H251.303C251.687 201.326 251.998 201.019 251.998 200.639V163.535Z" fill="url(#paint22_linear_879_861)"/>
</g>
</g>
<g filter="url(#filter10_i_879_861)">
<path d="M139.382 18.89C139.382 17.5618 138.292 16.4851 136.949 16.4851H114.703C113.359 16.4851 112.27 17.5618 112.27 18.89C112.27 20.2182 113.359 21.2949 114.703 21.2949H136.949C138.292 21.2949 139.382 20.2182 139.382 18.89Z" fill="#161616"/>
</g>
<g filter="url(#filter11_f_879_861)">
<path d="M136.949 17.4851H114.703C113.901 17.4851 113.27 18.1251 113.27 18.89C113.27 19.655 113.901 20.2949 114.703 20.2949H136.949C137.751 20.2949 138.382 19.655 138.382 18.89C138.382 18.1251 137.751 17.4851 136.949 17.4851Z" stroke="black" stroke-opacity="0.32" stroke-width="2"/>
</g>
<path d="M136.949 16.9851H114.703C113.63 16.9851 112.77 17.8434 112.77 18.89C112.77 19.9366 113.63 20.7949 114.703 20.7949H136.949C138.022 20.7949 138.882 19.9366 138.882 18.89C138.882 17.8434 138.022 16.9851 136.949 16.9851Z" stroke="url(#paint23_linear_879_861)"/>
<path d="M106.709 18.8916C106.709 16.2352 104.53 14.0818 101.843 14.0818C99.1552 14.0818 96.9766 16.2352 96.9766 18.8916C96.9766 21.548 99.1552 23.7014 101.843 23.7014C104.53 23.7014 106.709 21.548 106.709 18.8916Z" fill="url(#paint24_radial_879_861)"/>
<path d="M106.709 18.8916C106.709 16.2352 104.53 14.0818 101.843 14.0818C99.1552 14.0818 96.9766 16.2352 96.9766 18.8916C96.9766 21.548 99.1552 23.7014 101.843 23.7014C104.53 23.7014 106.709 21.548 106.709 18.8916Z" fill="url(#paint25_radial_879_861)"/>
<path d="M99.4082 18.89C99.4082 17.5618 100.498 16.4851 101.841 16.4851C103.185 16.4851 104.274 17.5618 104.274 18.89C104.274 20.2182 103.185 21.2949 101.841 21.2949C100.498 21.2949 99.4082 20.2182 99.4082 18.89Z" fill="url(#paint26_linear_879_861)"/>
<path d="M99.4082 18.89C99.4082 17.5618 100.498 16.4851 101.841 16.4851C103.185 16.4851 104.274 17.5618 104.274 18.89C104.274 20.2182 103.185 21.2949 101.841 21.2949C100.498 21.2949 99.4082 20.2182 99.4082 18.89Z" fill="url(#paint27_radial_879_861)"/>
<path d="M99.4082 18.89C99.4082 17.5618 100.498 16.4851 101.841 16.4851C103.185 16.4851 104.274 17.5618 104.274 18.89C104.274 20.2182 103.185 21.2949 101.841 21.2949C100.498 21.2949 99.4082 20.2182 99.4082 18.89Z" fill="url(#paint28_radial_879_861)"/>
<path d="M99.4082 18.89C99.4082 17.5618 100.498 16.4851 101.841 16.4851C103.185 16.4851 104.274 17.5618 104.274 18.89C104.274 20.2182 103.185 21.2949 101.841 21.2949C100.498 21.2949 99.4082 20.2182 99.4082 18.89Z" fill="url(#paint29_radial_879_861)"/>
<path d="M99.4082 18.89C99.4082 17.5618 100.498 16.4851 101.841 16.4851C103.185 16.4851 104.274 17.5618 104.274 18.89C104.274 20.2182 103.185 21.2949 101.841 21.2949C100.498 21.2949 99.4082 20.2182 99.4082 18.89Z" fill="url(#paint30_radial_879_861)"/>
<defs>
<filter id="filter0_i_879_861" x="1.73633" y="0" width="248.524" height="504" filterUnits="userSpaceOnUse" color-interpolation-filters="sRGB">
<feFlood flood-opacity="0" result="BackgroundImageFix"/>
<feBlend mode="normal" in="SourceGraphic" in2="BackgroundImageFix" result="shape"/>
<feColorMatrix in="SourceAlpha" type="matrix" values="0 0 0 0 0 0 0 0 0 0 0 0 0 0 0 0 0 0 127 0" result="hardAlpha"/>
<feOffset/>
<feGaussianBlur stdDeviation="8"/>
<feComposite in2="hardAlpha" operator="arithmetic" k2="-1" k3="1"/>
<feColorMatrix type="matrix" values="0 0 0 0 0 0 0 0 0 0 0 0 0 0 0 0 0 0 0.32 0"/>
<feBlend mode="normal" in2="shape" result="effect1_innerShadow_879_861"/>
</filter>
<filter id="filter1_ii_879_861" x="250.26" y="77.7068" width="1.73828" height="23.9263" filterUnits="userSpaceOnUse" color-interpolation-filters="sRGB">
<feFlood flood-opacity="0" result="BackgroundImageFix"/>
<feBlend mode="normal" in="SourceGraphic" in2="BackgroundImageFix" result="shape"/>
<feColorMatrix in="SourceAlpha" type="matrix" values="0 0 0 0 0 0 0 0 0 0 0 0 0 0 0 0 0 0 127 0" result="hardAlpha"/>
<feOffset dy="4"/>
<feGaussianBlur stdDeviation="1"/>
<feComposite in2="hardAlpha" operator="arithmetic" k2="-1" k3="1"/>
<feColorMatrix type="matrix" values="0 0 0 0 1 0 0 0 0 1 0 0 0 0 1 0 0 0 0.64 0"/>
<feBlend mode="normal" in2="shape" result="effect1_innerShadow_879_861"/>
<feColorMatrix in="SourceAlpha" type="matrix" values="0 0 0 0 0 0 0 0 0 0 0 0 0 0 0 0 0 0 127 0" result="hardAlpha"/>
<feOffset dy="-4"/>
<feGaussianBlur stdDeviation="1"/>
<feComposite in2="hardAlpha" operator="arithmetic" k2="-1" k3="1"/>
<feColorMatrix type="matrix" values="0 0 0 0 1 0 0 0 0 1 0 0 0 0 1 0 0 0 0.64 0"/>
<feBlend mode="normal" in2="effect1_innerShadow_879_861" result="effect2_innerShadow_879_861"/>
</filter>
<filter id="filter2_ii_879_861" x="250.26" y="113.783" width="1.73828" height="42.4785" filterUnits="userSpaceOnUse" color-interpolation-filters="sRGB">
<feFlood flood-opacity="0" result="BackgroundImageFix"/>
<feBlend mode="normal" in="SourceGraphic" in2="BackgroundImageFix" result="shape"/>
<feColorMatrix in="SourceAlpha" type="matrix" values="0 0 0 0 0 0 0 0 0 0 0 0 0 0 0 0 0 0 127 0" result="hardAlpha"/>
<feOffset dy="4"/>
<feGaussianBlur stdDeviation="1"/>
<feComposite in2="hardAlpha" operator="arithmetic" k2="-1" k3="1"/>
<feColorMatrix type="matrix" values="0 0 0 0 1 0 0 0 0 1 0 0 0 0 1 0 0 0 0.64 0"/>
<feBlend mode="normal" in2="shape" result="effect1_innerShadow_879_861"/>
<feColorMatrix in="SourceAlpha" type="matrix" values="0 0 0 0 0 0 0 0 0 0 0 0 0 0 0 0 0 0 127 0" result="hardAlpha"/>
<feOffset dy="-4"/>
<feGaussianBlur stdDeviation="1"/>
<feComposite in2="hardAlpha" operator="arithmetic" k2="-1" k3="1"/>
<feColorMatrix type="matrix" values="0 0 0 0 1 0 0 0 0 1 0 0 0 0 1 0 0 0 0.64 0"/>
<feBlend mode="normal" in2="effect1_innerShadow_879_861" result="effect2_innerShadow_879_861"/>
</filter>
<filter id="filter3_ii_879_861" x="-0.000976562" y="127.52" width="1.73828" height="63.7791" filterUnits="userSpaceOnUse" color-interpolation-filters="sRGB">
<feFlood flood-opacity="0" result="BackgroundImageFix"/>
<feBlend mode="normal" in="SourceGraphic" in2="BackgroundImageFix" result="shape"/>
<feColorMatrix in="SourceAlpha" type="matrix" values="0 0 0 0 0 0 0 0 0 0 0 0 0 0 0 0 0 0 127 0" result="hardAlpha"/>
<feOffset dy="4"/>
<feGaussianBlur stdDeviation="1"/>
<feComposite in2="hardAlpha" operator="arithmetic" k2="-1" k3="1"/>
<feColorMatrix type="matrix" values="0 0 0 0 1 0 0 0 0 1 0 0 0 0 1 0 0 0 0.64 0"/>
<feBlend mode="normal" in2="shape" result="effect1_innerShadow_879_861"/>
<feColorMatrix in="SourceAlpha" type="matrix" values="0 0 0 0 0 0 0 0 0 0 0 0 0 0 0 0 0 0 127 0" result="hardAlpha"/>
<feOffset dy="-4"/>
<feGaussianBlur stdDeviation="1"/>
<feComposite in2="hardAlpha" operator="arithmetic" k2="-1" k3="1"/>
<feColorMatrix type="matrix" values="0 0 0 0 1 0 0 0 0 1 0 0 0 0 1 0 0 0 0.64 0"/>
<feBlend mode="normal" in2="effect1_innerShadow_879_861" result="effect2_innerShadow_879_861"/>
</filter>
<filter id="filter4_ii_879_861" x="250.26" y="160.848" width="1.73828" height="42.4785" filterUnits="userSpaceOnUse" color-interpolation-filters="sRGB">
<feFlood flood-opacity="0" result="BackgroundImageFix"/>
<feBlend mode="normal" in="SourceGraphic" in2="BackgroundImageFix" result="shape"/>
<feColorMatrix in="SourceAlpha" type="matrix" values="0 0 0 0 0 0 0 0 0 0 0 0 0 0 0 0 0 0 127 0" result="hardAlpha"/>
<feOffset dy="4"/>
<feGaussianBlur stdDeviation="1"/>
<feComposite in2="hardAlpha" operator="arithmetic" k2="-1" k3="1"/>
<feColorMatrix type="matrix" values="0 0 0 0 1 0 0 0 0 1 0 0 0 0 1 0 0 0 0.64 0"/>
<feBlend mode="normal" in2="shape" result="effect1_innerShadow_879_861"/>
<feColorMatrix in="SourceAlpha" type="matrix" values="0 0 0 0 0 0 0 0 0 0 0 0 0 0 0 0 0 0 127 0" result="hardAlpha"/>
<feOffset dy="-4"/>
<feGaussianBlur stdDeviation="1"/>
<feComposite in2="hardAlpha" operator="arithmetic" k2="-1" k3="1"/>
<feColorMatrix type="matrix" values="0 0 0 0 1 0 0 0 0 1 0 0 0 0 1 0 0 0 0.64 0"/>
<feBlend mode="normal" in2="effect1_innerShadow_879_861" result="effect2_innerShadow_879_861"/>
</filter>
<filter id="filter5_ii_879_861" x="1.73633" y="0" width="248.524" height="504" filterUnits="userSpaceOnUse" color-interpolation-filters="sRGB">
<feFlood flood-opacity="0" result="BackgroundImageFix"/>
<feBlend mode="normal" in="SourceGraphic" in2="BackgroundImageFix" result="shape"/>
<feColorMatrix in="SourceAlpha" type="matrix" values="0 0 0 0 0 0 0 0 0 0 0 0 0 0 0 0 0 0 127 0" result="hardAlpha"/>
<feOffset/>
<feGaussianBlur stdDeviation="5"/>
<feComposite in2="hardAlpha" operator="arithmetic" k2="-1" k3="1"/>
<feColorMatrix type="matrix" values="0 0 0 0 1 0 0 0 0 1 0 0 0 0 1 0 0 0 0.88 0"/>
<feBlend mode="normal" in2="shape" result="effect1_innerShadow_879_861"/>
<feColorMatrix in="SourceAlpha" type="matrix" values="0 0 0 0 0 0 0 0 0 0 0 0 0 0 0 0 0 0 127 0" result="hardAlpha"/>
<feOffset/>
<feGaussianBlur stdDeviation="2.5"/>
<feComposite in2="hardAlpha" operator="arithmetic" k2="-1" k3="1"/>
<feColorMatrix type="matrix" values="0 0 0 0 0 0 0 0 0 0 0 0 0 0 0 0 0 0 1 0"/>
<feBlend mode="normal" in2="effect1_innerShadow_879_861" result="effect2_innerShadow_879_861"/>
</filter>
<filter id="filter6_iiii_879_861" x="250.26" y="77.7068" width="1.73828" height="23.9263" filterUnits="userSpaceOnUse" color-interpolation-filters="sRGB">
<feFlood flood-opacity="0" result="BackgroundImageFix"/>
<feBlend mode="normal" in="SourceGraphic" in2="BackgroundImageFix" result="shape"/>
<feColorMatrix in="SourceAlpha" type="matrix" values="0 0 0 0 0 0 0 0 0 0 0 0 0 0 0 0 0 0 127 0" result="hardAlpha"/>
<feOffset dy="4"/>
<feGaussianBlur stdDeviation="1"/>
<feComposite in2="hardAlpha" operator="arithmetic" k2="-1" k3="1"/>
<feColorMatrix type="matrix" values="0 0 0 0 1 0 0 0 0 1 0 0 0 0 1 0 0 0 0.08 0"/>
<feBlend mode="normal" in2="shape" result="effect1_innerShadow_879_861"/>
<feColorMatrix in="SourceAlpha" type="matrix" values="0 0 0 0 0 0 0 0 0 0 0 0 0 0 0 0 0 0 127 0" result="hardAlpha"/>
<feOffset dy="-4"/>
<feGaussianBlur stdDeviation="1"/>
<feComposite in2="hardAlpha" operator="arithmetic" k2="-1" k3="1"/>
<feColorMatrix type="matrix" values="0 0 0 0 1 0 0 0 0 1 0 0 0 0 1 0 0 0 0.08 0"/>
<feBlend mode="normal" in2="effect1_innerShadow_879_861" result="effect2_innerShadow_879_861"/>
<feColorMatrix in="SourceAlpha" type="matrix" values="0 0 0 0 0 0 0 0 0 0 0 0 0 0 0 0 0 0 127 0" result="hardAlpha"/>
<feOffset dy="1"/>
<feGaussianBlur stdDeviation="0.5"/>
<feComposite in2="hardAlpha" operator="arithmetic" k2="-1" k3="1"/>
<feColorMatrix type="matrix" values="0 0 0 0 1 0 0 0 0 1 0 0 0 0 1 0 0 0 0.32 0"/>
<feBlend mode="normal" in2="effect2_innerShadow_879_861" result="effect3_innerShadow_879_861"/>
<feColorMatrix in="SourceAlpha" type="matrix" values="0 0 0 0 0 0 0 0 0 0 0 0 0 0 0 0 0 0 127 0" result="hardAlpha"/>
<feOffset dy="-1"/>
<feGaussianBlur stdDeviation="0.5"/>
<feComposite in2="hardAlpha" operator="arithmetic" k2="-1" k3="1"/>
<feColorMatrix type="matrix" values="0 0 0 0 1 0 0 0 0 1 0 0 0 0 1 0 0 0 0.32 0"/>
<feBlend mode="normal" in2="effect3_innerShadow_879_861" result="effect4_innerShadow_879_861"/>
</filter>
<filter id="filter7_iiii_879_861" x="250.26" y="113.783" width="1.73828" height="42.4785" filterUnits="userSpaceOnUse" color-interpolation-filters="sRGB">
<feFlood flood-opacity="0" result="BackgroundImageFix"/>
<feBlend mode="normal" in="SourceGraphic" in2="BackgroundImageFix" result="shape"/>
<feColorMatrix in="SourceAlpha" type="matrix" values="0 0 0 0 0 0 0 0 0 0 0 0 0 0 0 0 0 0 127 0" result="hardAlpha"/>
<feOffset dy="4"/>
<feGaussianBlur stdDeviation="1"/>
<feComposite in2="hardAlpha" operator="arithmetic" k2="-1" k3="1"/>
<feColorMatrix type="matrix" values="0 0 0 0 1 0 0 0 0 1 0 0 0 0 1 0 0 0 0.08 0"/>
<feBlend mode="normal" in2="shape" result="effect1_innerShadow_879_861"/>
<feColorMatrix in="SourceAlpha" type="matrix" values="0 0 0 0 0 0 0 0 0 0 0 0 0 0 0 0 0 0 127 0" result="hardAlpha"/>
<feOffset dy="-4"/>
<feGaussianBlur stdDeviation="1"/>
<feComposite in2="hardAlpha" operator="arithmetic" k2="-1" k3="1"/>
<feColorMatrix type="matrix" values="0 0 0 0 1 0 0 0 0 1 0 0 0 0 1 0 0 0 0.08 0"/>
<feBlend mode="normal" in2="effect1_innerShadow_879_861" result="effect2_innerShadow_879_861"/>
<feColorMatrix in="SourceAlpha" type="matrix" values="0 0 0 0 0 0 0 0 0 0 0 0 0 0 0 0 0 0 127 0" result="hardAlpha"/>
<feOffset dy="1"/>
<feGaussianBlur stdDeviation="0.5"/>
<feComposite in2="hardAlpha" operator="arithmetic" k2="-1" k3="1"/>
<feColorMatrix type="matrix" values="0 0 0 0 1 0 0 0 0 1 0 0 0 0 1 0 0 0 0.32 0"/>
<feBlend mode="normal" in2="effect2_innerShadow_879_861" result="effect3_innerShadow_879_861"/>
<feColorMatrix in="SourceAlpha" type="matrix" values="0 0 0 0 0 0 0 0 0 0 0 0 0 0 0 0 0 0 127 0" result="hardAlpha"/>
<feOffset dy="-1"/>
<feGaussianBlur stdDeviation="0.5"/>
<feComposite in2="hardAlpha" operator="arithmetic" k2="-1" k3="1"/>
<feColorMatrix type="matrix" values="0 0 0 0 1 0 0 0 0 1 0 0 0 0 1 0 0 0 0.32 0"/>
<feBlend mode="normal" in2="effect3_innerShadow_879_861" result="effect4_innerShadow_879_861"/>
</filter>
<filter id="filter8_iiii_879_861" x="-0.000976562" y="127.52" width="1.73828" height="63.7791" filterUnits="userSpaceOnUse" color-interpolation-filters="sRGB">
<feFlood flood-opacity="0" result="BackgroundImageFix"/>
<feBlend mode="normal" in="SourceGraphic" in2="BackgroundImageFix" result="shape"/>
<feColorMatrix in="SourceAlpha" type="matrix" values="0 0 0 0 0 0 0 0 0 0 0 0 0 0 0 0 0 0 127 0" result="hardAlpha"/>
<feOffset dy="4"/>
<feGaussianBlur stdDeviation="1"/>
<feComposite in2="hardAlpha" operator="arithmetic" k2="-1" k3="1"/>
<feColorMatrix type="matrix" values="0 0 0 0 1 0 0 0 0 1 0 0 0 0 1 0 0 0 0.08 0"/>
<feBlend mode="normal" in2="shape" result="effect1_innerShadow_879_861"/>
<feColorMatrix in="SourceAlpha" type="matrix" values="0 0 0 0 0 0 0 0 0 0 0 0 0 0 0 0 0 0 127 0" result="hardAlpha"/>
<feOffset dy="-4"/>
<feGaussianBlur stdDeviation="1"/>
<feComposite in2="hardAlpha" operator="arithmetic" k2="-1" k3="1"/>
<feColorMatrix type="matrix" values="0 0 0 0 1 0 0 0 0 1 0 0 0 0 1 0 0 0 0.08 0"/>
<feBlend mode="normal" in2="effect1_innerShadow_879_861" result="effect2_innerShadow_879_861"/>
<feColorMatrix in="SourceAlpha" type="matrix" values="0 0 0 0 0 0 0 0 0 0 0 0 0 0 0 0 0 0 127 0" result="hardAlpha"/>
<feOffset dy="1"/>
<feGaussianBlur stdDeviation="0.5"/>
<feComposite in2="hardAlpha" operator="arithmetic" k2="-1" k3="1"/>
<feColorMatrix type="matrix" values="0 0 0 0 1 0 0 0 0 1 0 0 0 0 1 0 0 0 0.32 0"/>
<feBlend mode="normal" in2="effect2_innerShadow_879_861" result="effect3_innerShadow_879_861"/>
<feColorMatrix in="SourceAlpha" type="matrix" values="0 0 0 0 0 0 0 0 0 0 0 0 0 0 0 0 0 0 127 0" result="hardAlpha"/>
<feOffset dy="-1"/>
<feGaussianBlur stdDeviation="0.5"/>
<feComposite in2="hardAlpha" operator="arithmetic" k2="-1" k3="1"/>
<feColorMatrix type="matrix" values="0 0 0 0 1 0 0 0 0 1 0 0 0 0 1 0 0 0 0.32 0"/>
<feBlend mode="normal" in2="effect3_innerShadow_879_861" result="effect4_innerShadow_879_861"/>
</filter>
<filter id="filter9_iiii_879_861" x="250.26" y="160.848" width="1.73828" height="42.4785" filterUnits="userSpaceOnUse" color-interpolation-filters="sRGB">
<feFlood flood-opacity="0" result="BackgroundImageFix"/>
<feBlend mode="normal" in="SourceGraphic" in2="BackgroundImageFix" result="shape"/>
<feColorMatrix in="SourceAlpha" type="matrix" values="0 0 0 0 0 0 0 0 0 0 0 0 0 0 0 0 0 0 127 0" result="hardAlpha"/>
<feOffset dy="4"/>
<feGaussianBlur stdDeviation="1"/>
<feComposite in2="hardAlpha" operator="arithmetic" k2="-1" k3="1"/>
<feColorMatrix type="matrix" values="0 0 0 0 1 0 0 0 0 1 0 0 0 0 1 0 0 0 0.08 0"/>
<feBlend mode="normal" in2="shape" result="effect1_innerShadow_879_861"/>
<feColorMatrix in="SourceAlpha" type="matrix" values="0 0 0 0 0 0 0 0 0 0 0 0 0 0 0 0 0 0 127 0" result="hardAlpha"/>
<feOffset dy="-4"/>
<feGaussianBlur stdDeviation="1"/>
<feComposite in2="hardAlpha" operator="arithmetic" k2="-1" k3="1"/>
<feColorMatrix type="matrix" values="0 0 0 0 1 0 0 0 0 1 0 0 0 0 1 0 0 0 0.08 0"/>
<feBlend mode="normal" in2="effect1_innerShadow_879_861" result="effect2_innerShadow_879_861"/>
<feColorMatrix in="SourceAlpha" type="matrix" values="0 0 0 0 0 0 0 0 0 0 0 0 0 0 0 0 0 0 127 0" result="hardAlpha"/>
<feOffset dy="1"/>
<feGaussianBlur stdDeviation="0.5"/>
<feComposite in2="hardAlpha" operator="arithmetic" k2="-1" k3="1"/>
<feColorMatrix type="matrix" values="0 0 0 0 1 0 0 0 0 1 0 0 0 0 1 0 0 0 0.32 0"/>
<feBlend mode="normal" in2="effect2_innerShadow_879_861" result="effect3_innerShadow_879_861"/>
<feColorMatrix in="SourceAlpha" type="matrix" values="0 0 0 0 0 0 0 0 0 0 0 0 0 0 0 0 0 0 127 0" result="hardAlpha"/>
<feOffset dy="-1"/>
<feGaussianBlur stdDeviation="0.5"/>
<feComposite in2="hardAlpha" operator="arithmetic" k2="-1" k3="1"/>
<feColorMatrix type="matrix" values="0 0 0 0 1 0 0 0 0 1 0 0 0 0 1 0 0 0 0.32 0"/>
<feBlend mode="normal" in2="effect3_innerShadow_879_861" result="effect4_innerShadow_879_861"/>
</filter>
<filter id="filter10_i_879_861" x="112.271" y="16.4851" width="27.1113" height="4.80981" filterUnits="userSpaceOnUse" color-interpolation-filters="sRGB">
<feFlood flood-opacity="0" result="BackgroundImageFix"/>
<feBlend mode="normal" in="SourceGraphic" in2="BackgroundImageFix" result="shape"/>
<feColorMatrix in="SourceAlpha" type="matrix" values="0 0 0 0 0 0 0 0 0 0 0 0 0 0 0 0 0 0 127 0" result="hardAlpha"/>
<feOffset/>
<feGaussianBlur stdDeviation="4"/>
<feComposite in2="hardAlpha" operator="arithmetic" k2="-1" k3="1"/>
<feColorMatrix type="matrix" values="0 0 0 0 0 0 0 0 0 0 0 0 0 0 0 0 0 0 0.48 0"/>
<feBlend mode="normal" in2="shape" result="effect1_innerShadow_879_861"/>
</filter>
<filter id="filter11_f_879_861" x="111.271" y="15.4851" width="29.1113" height="6.80981" filterUnits="userSpaceOnUse" color-interpolation-filters="sRGB">
<feFlood flood-opacity="0" result="BackgroundImageFix"/>
<feBlend mode="normal" in="SourceGraphic" in2="BackgroundImageFix" result="shape"/>
<feGaussianBlur stdDeviation="0.5" result="effect1_foregroundBlur_879_861"/>
</filter>
<linearGradient id="paint0_linear_879_861" x1="9.60244e-08" y1="2.57669" x2="5.90897" y2="2.57669" gradientUnits="userSpaceOnUse">
<stop offset="0.109375" stop-color="#D1D1D1"/>
<stop offset="0.317708" stop-color="#E3E3E3"/>
<stop offset="0.552083" stop-color="#D2D2D2"/>
<stop offset="0.807292" stop-color="#E6E6E6"/>
</linearGradient>
<linearGradient id="paint1_linear_879_861" x1="9.60244e-08" y1="2.57669" x2="5.90897" y2="2.57669" gradientUnits="userSpaceOnUse">
<stop offset="0.109375" stop-color="#D1D1D1"/>
<stop offset="0.317708" stop-color="#E3E3E3"/>
<stop offset="0.552083" stop-color="#D2D2D2"/>
<stop offset="0.807292" stop-color="#E6E6E6"/>
</linearGradient>
<linearGradient id="paint2_linear_879_861" x1="9.60244e-08" y1="2.57669" x2="5.90897" y2="2.57669" gradientUnits="userSpaceOnUse">
<stop offset="0.0988321" stop-color="#E6E6E6"/>
<stop offset="0.368786" stop-color="#D2D2D2"/>
<stop offset="0.624532" stop-color="#E3E3E3"/>
<stop offset="0.798581" stop-color="#D1D1D1"/>
</linearGradient>
<linearGradient id="paint3_linear_879_861" x1="9.60244e-08" y1="2.57669" x2="5.90897" y2="2.57669" gradientUnits="userSpaceOnUse">
<stop offset="0.0988321" stop-color="#E6E6E6"/>
<stop offset="0.368786" stop-color="#D2D2D2"/>
<stop offset="0.624532" stop-color="#E3E3E3"/>
<stop offset="0.798581" stop-color="#D1D1D1"/>
</linearGradient>
<linearGradient id="paint4_linear_879_861" x1="9.49117e-08" y1="2.6069" x2="5.84049" y2="2.6069" gradientUnits="userSpaceOnUse">
<stop offset="0.238306" stop-color="#D1D1D1"/>
<stop offset="0.416703" stop-color="#E3E3E3"/>
<stop offset="0.700226" stop-color="#D2D2D2"/>
<stop offset="0.926408" stop-color="#E6E6E6"/>
</linearGradient>
<linearGradient id="paint5_linear_879_861" x1="9.49117e-08" y1="2.6069" x2="5.84049" y2="2.6069" gradientUnits="userSpaceOnUse">
<stop offset="0.0988321" stop-color="#E6E6E6"/>
<stop offset="0.368786" stop-color="#D2D2D2"/>
<stop offset="0.624532" stop-color="#E3E3E3"/>
<stop offset="0.798581" stop-color="#D1D1D1"/>
</linearGradient>
<linearGradient id="paint6_linear_879_861" x1="231.949" y1="9.12077" x2="27.5307" y2="490.416" gradientUnits="userSpaceOnUse">
<stop stop-color="white" stop-opacity="0.16"/>
<stop offset="1" stop-color="white" stop-opacity="0.05"/>
</linearGradient>
<linearGradient id="paint7_linear_879_861" x1="251.998" y1="89.4982" x2="250.26" y2="89.4982" gradientUnits="userSpaceOnUse">
<stop stop-opacity="0"/>
<stop offset="0.333333" stop-color="#D0D0D0" stop-opacity="0.42"/>
<stop offset="1" stop-opacity="0.24"/>
</linearGradient>
<linearGradient id="paint8_linear_879_861" x1="251.998" y1="134.691" x2="250.26" y2="134.691" gradientUnits="userSpaceOnUse">
<stop stop-opacity="0"/>
<stop offset="0.333333" stop-color="#D0D0D0" stop-opacity="0.42"/>
<stop offset="1" stop-opacity="0.24"/>
</linearGradient>
<linearGradient id="paint9_linear_879_861" x1="1.7373" y1="158.894" x2="-0.000626445" y2="158.894" gradientUnits="userSpaceOnUse">
<stop stop-opacity="0.24"/>
<stop offset="0.573835" stop-color="#D0D0D0" stop-opacity="0.42"/>
<stop offset="1" stop-opacity="0"/>
</linearGradient>
<linearGradient id="paint10_linear_879_861" x1="251.998" y1="181.755" x2="250.26" y2="181.755" gradientUnits="userSpaceOnUse">
<stop stop-opacity="0"/>
<stop offset="0.333333" stop-color="#D0D0D0" stop-opacity="0.42"/>
<stop offset="1" stop-opacity="0.24"/>
</linearGradient>
<linearGradient id="paint11_linear_879_861" x1="125.999" y1="0" x2="125.999" y2="504" gradientUnits="userSpaceOnUse">
<stop stop-color="white" stop-opacity="0.64"/>
<stop offset="1" stop-color="white" stop-opacity="0.32"/>
</linearGradient>
<linearGradient id="paint12_linear_879_861" x1="9.60244e-08" y1="2.57669" x2="5.90897" y2="2.57669" gradientUnits="userSpaceOnUse">
<stop offset="0.123628" stop-color="#8F8F8F"/>
<stop offset="0.365738" stop-color="#525252"/>
<stop offset="0.827659" stop-color="#141414"/>
</linearGradient>
<linearGradient id="paint13_linear_879_861" x1="9.60244e-08" y1="2.57669" x2="5.90897" y2="2.57669" gradientUnits="userSpaceOnUse">
<stop offset="0.123628" stop-color="#8F8F8F"/>
<stop offset="0.365738" stop-color="#525252"/>
<stop offset="0.827659" stop-color="#141414"/>
</linearGradient>
<linearGradient id="paint14_linear_879_861" x1="9.60244e-08" y1="2.57669" x2="5.90897" y2="2.57669" gradientUnits="userSpaceOnUse">
<stop offset="0.088176" stop-color="#141414"/>
<stop offset="0.536358" stop-color="#525252"/>
<stop offset="0.756584" stop-color="#8F8F8F"/>
</linearGradient>
<linearGradient id="paint15_linear_879_861" x1="9.60244e-08" y1="2.57669" x2="5.90897" y2="2.57669" gradientUnits="userSpaceOnUse">
<stop offset="0.088176" stop-color="#141414"/>
<stop offset="0.529254" stop-color="#525252"/>
<stop offset="0.770792" stop-color="#8F8F8F"/>
</linearGradient>
<linearGradient id="paint16_linear_879_861" x1="9.49117e-08" y1="2.6069" x2="5.84049" y2="2.6069" gradientUnits="userSpaceOnUse">
<stop offset="0.420124" stop-color="#8F8F8F"/>
<stop offset="0.610413" stop-color="#525252"/>
<stop offset="0.976264" stop-color="#141414"/>
</linearGradient>
<linearGradient id="paint17_linear_879_861" x1="9.49117e-08" y1="2.6069" x2="5.84049" y2="2.6069" gradientUnits="userSpaceOnUse">
<stop offset="0.122861"/>
<stop offset="0.584624" stop-color="#292929"/>
<stop offset="0.87589" stop-color="#7A7A7A"/>
</linearGradient>
<linearGradient id="paint18_linear_879_861" x1="231.949" y1="9.12077" x2="27.5307" y2="490.416" gradientUnits="userSpaceOnUse">
<stop stop-color="white" stop-opacity="0.16"/>
<stop offset="1" stop-color="white" stop-opacity="0.05"/>
</linearGradient>
<linearGradient id="paint19_linear_879_861" x1="251.998" y1="89.4982" x2="250.26" y2="89.4982" gradientUnits="userSpaceOnUse">
<stop stop-color="white" stop-opacity="0.08"/>
<stop offset="0.276042" stop-color="white" stop-opacity="0.24"/>
<stop offset="1" stop-color="white" stop-opacity="0"/>
</linearGradient>
<linearGradient id="paint20_linear_879_861" x1="251.998" y1="134.691" x2="250.26" y2="134.691" gradientUnits="userSpaceOnUse">
<stop stop-color="white" stop-opacity="0.08"/>
<stop offset="0.276042" stop-color="white" stop-opacity="0.24"/>
<stop offset="1" stop-color="white" stop-opacity="0"/>
</linearGradient>
<linearGradient id="paint21_linear_879_861" x1="1.7373" y1="158.894" x2="-0.000626445" y2="158.894" gradientUnits="userSpaceOnUse">
<stop stop-color="white" stop-opacity="0"/>
<stop offset="0.630208" stop-color="white" stop-opacity="0.24"/>
<stop offset="1" stop-color="white" stop-opacity="0.08"/>
</linearGradient>
<linearGradient id="paint22_linear_879_861" x1="251.998" y1="181.755" x2="250.26" y2="181.755" gradientUnits="userSpaceOnUse">
<stop stop-color="white" stop-opacity="0.08"/>
<stop offset="0.276042" stop-color="white" stop-opacity="0.24"/>
<stop offset="1" stop-color="white" stop-opacity="0"/>
</linearGradient>
<linearGradient id="paint23_linear_879_861" x1="125.826" y1="16.4851" x2="125.826" y2="21.2949" gradientUnits="userSpaceOnUse">
<stop/>
<stop offset="0.483028" stop-color="#484848"/>
<stop offset="1"/>
</linearGradient>
<radialGradient id="paint24_radial_879_861" cx="0" cy="0" r="1" gradientUnits="userSpaceOnUse" gradientTransform="translate(100.974 21.1247) rotate(-51.9822) scale(4.79697 4.81078)">
<stop stop-color="#242424"/>
<stop offset="1" stop-color="#161616"/>
</radialGradient>
<radialGradient id="paint25_radial_879_861" cx="0" cy="0" r="1" gradientUnits="userSpaceOnUse" gradientTransform="translate(101.843 18.8916) rotate(90) scale(4.80982 4.86621)">
<stop offset="0.463542" stop-opacity="0.25"/>
<stop offset="0.645833" stop-opacity="0"/>
</radialGradient>
<linearGradient id="paint26_linear_879_861" x1="101.841" y1="16.4851" x2="101.841" y2="21.2949" gradientUnits="userSpaceOnUse">
<stop stop-color="#0B528D"/>
<stop offset="0.276042" stop-color="#3625AF"/>
<stop offset="0.510417" stop-color="#070D17"/>
<stop offset="0.734375" stop-color="#16618F"/>
<stop offset="1" stop-color="#021762"/>
</linearGradient>
<radialGradient id="paint27_radial_879_861" cx="0" cy="0" r="1" gradientUnits="userSpaceOnUse" gradientTransform="translate(103.753 18.3747) rotate(121.906) scale(2.63057 2.64429)">
<stop stop-color="#070D17"/>
<stop offset="1" stop-color="#070D17" stop-opacity="0"/>
</radialGradient>
<radialGradient id="paint28_radial_879_861" cx="0" cy="0" r="1" gradientUnits="userSpaceOnUse" gradientTransform="translate(101.494 19.2336) rotate(73.1161) scale(1.79517 1.81269)">
<stop offset="0.146834" stop-color="#070D17"/>
<stop offset="1" stop-color="#070D17" stop-opacity="0"/>
</radialGradient>
<radialGradient id="paint29_radial_879_861" cx="0" cy="0" r="1" gradientUnits="userSpaceOnUse" gradientTransform="translate(101.146 18.3747) rotate(51.014) scale(1.10497 1.10773)">
<stop stop-color="#6356D7"/>
<stop offset="1" stop-color="#15368A" stop-opacity="0"/>
</radialGradient>
<radialGradient id="paint30_radial_879_861" cx="0" cy="0" r="1" gradientUnits="userSpaceOnUse" gradientTransform="translate(101.841 18.89) rotate(90) scale(2.40491 2.4331)">
<stop offset="0.828125" stop-opacity="0"/>
<stop offset="1" stop-opacity="0.85"/>
</radialGradient>
</defs>
</svg>
