<svg width="84" height="754" viewBox="0 0 84 754" fill="none" xmlns="http://www.w3.org/2000/svg">
<rect x="11.5" y="155.5" width="61" height="597" rx="30.5" stroke="black" stroke-width="3"/>
<rect x="71" y="11" width="3" height="177" fill="#1B1B1B"/>
<path fill-rule="evenodd" clip-rule="evenodd" d="M73.9956 275H70.9956V277V298.379L64.0104 291.393C63.4246 290.808 62.4748 290.808 61.889 291.393C61.3033 291.979 61.3033 292.929 61.889 293.515L71.435 303.061C72.0208 303.646 72.9705 303.646 73.5563 303.061L83.1023 293.515C83.688 292.929 83.688 291.979 83.1023 291.393C82.5165 290.808 81.5667 290.808 80.9809 291.393L73.9956 298.379V277V275Z" fill="#1B1B1B"/>
<path fill-rule="evenodd" clip-rule="evenodd" d="M73.9956 441.5H70.9956V443.5V464.879L64.0104 457.893C63.4246 457.308 62.4748 457.308 61.889 457.893C61.3033 458.479 61.3033 459.429 61.889 460.015L71.435 469.561C72.0208 470.146 72.9705 470.146 73.5563 469.561L83.1023 460.015C83.688 459.429 83.688 458.479 83.1023 457.893C82.5165 457.308 81.5667 457.308 80.9809 457.893L73.9956 464.879V443.5V441.5Z" fill="#1B1B1B"/>
<path fill-rule="evenodd" clip-rule="evenodd" d="M73.9956 598H70.9956V600H73.9956V598ZM70.9956 602V623.379L64.0103 616.393C63.4245 615.808 62.4748 615.808 61.889 616.393C61.3032 616.979 61.3032 617.929 61.889 618.515L71.4349 628.061C72.0207 628.646 72.9705 628.646 73.5563 628.061L83.1022 618.515C83.688 617.929 83.688 616.979 83.1022 616.393C82.5164 615.808 81.5667 615.808 80.9809 616.393L73.9956 623.379V602H70.9956Z" fill="#1B1B1B"/>
<path fill-rule="evenodd" clip-rule="evenodd" d="M9.99556 218L12.9956 218L12.9956 216L12.9956 194.621L19.9808 201.607C20.5666 202.192 21.5164 202.192 22.1022 201.607C22.688 201.021 22.688 200.071 22.1022 199.485L12.5562 189.939C11.9704 189.354 11.0207 189.354 10.4349 189.939L0.888962 199.485C0.303175 200.071 0.303175 201.021 0.888961 201.607C1.47475 202.192 2.4245 202.192 3.01028 201.607L9.99556 194.621L9.99556 216L9.99556 218Z" fill="#1B1B1B"/>
<path fill-rule="evenodd" clip-rule="evenodd" d="M9.99556 402L12.9956 402L12.9956 400L12.9956 378.621L19.9808 385.607C20.5666 386.192 21.5164 386.192 22.1022 385.607C22.688 385.021 22.688 384.071 22.1022 383.485L12.5562 373.939C11.9704 373.354 11.0207 373.354 10.4349 373.939L0.888962 383.485C0.303175 384.071 0.303175 385.021 0.888961 385.607C1.47475 386.192 2.4245 386.192 3.01028 385.607L9.99556 378.621L9.99556 400L9.99556 402Z" fill="#1B1B1B"/>
<path fill-rule="evenodd" clip-rule="evenodd" d="M9.99556 558L12.9956 558L12.9956 556L12.9956 534.621L19.9808 541.607C20.5666 542.192 21.5164 542.192 22.1022 541.607C22.688 541.021 22.688 540.071 22.1022 539.485L12.5562 529.939C11.9704 529.354 11.0207 529.354 10.4349 529.939L0.888962 539.485C0.303175 540.071 0.303175 541.021 0.888961 541.607C1.47475 542.192 2.4245 542.192 3.01028 541.607L9.99556 534.621L9.99556 556L9.99556 558Z" fill="#1B1B1B"/>
<path fill-rule="evenodd" clip-rule="evenodd" d="M9.99556 714L12.9956 714L12.9956 712L12.9956 690.621L19.9808 697.607C20.5666 698.192 21.5164 698.192 22.1022 697.607C22.688 697.021 22.688 696.071 22.1022 695.485L12.5562 685.939C11.9704 685.354 11.0207 685.354 10.4349 685.939L0.888962 695.485C0.303175 696.071 0.303175 697.021 0.888961 697.607C1.47475 698.192 2.4245 698.192 3.01028 697.607L9.99556 690.621L9.99556 712L9.99556 714Z" fill="#1B1B1B"/>
<circle cx="72.5" cy="199.5" r="9" fill="#B791C4" stroke="#1B1B1B" stroke-width="3"/>
<circle cx="72.5" cy="10.5" r="9" fill="#B791C4" stroke="#1B1B1B" stroke-width="3"/>
<circle cx="72.5" cy="383.5" r="9" fill="#B791C4" stroke="#1B1B1B" stroke-width="3"/>
<circle cx="72.5" cy="539.5" r="9" fill="#B791C4" stroke="#1B1B1B" stroke-width="3"/>
<circle cx="72.5" cy="695.5" r="9" fill="#B791C4" stroke="#1B1B1B" stroke-width="3"/>
</svg>
