<svg width="561" height="546" viewBox="0 0 561 546" fill="none" xmlns="http://www.w3.org/2000/svg">
<path fill-rule="evenodd" clip-rule="evenodd" d="M452 71H569L569 -5.11423e-06L452 0C430.444 -0.0118349 409.096 4.22207 389.179 12.4596C369.261 20.6972 351.163 32.7769 335.921 48.0081C320.678 63.2392 308.589 81.3232 300.345 101.226C292.102 121.129 287.865 142.46 287.876 164H288V273H287.947C287.947 297.574 277.837 321.143 260.446 338.52C243.056 355.897 219.594 365.999 195.001 366H195C173.444 365.988 152.097 370.222 132.179 378.459C112.261 386.697 94.1639 398.776 78.9212 414.008C63.6786 429.239 51.5898 447.323 43.346 467.225C35.1022 487.128 30.8651 508.459 30.877 530H101.931C101.931 505.425 112.041 481.856 129.431 464.479C146.821 447.102 170.407 437 195.001 437C216.515 436.995 237.818 432.762 257.698 424.54C277.616 416.302 295.713 404.223 310.956 388.991C326.198 373.76 338.287 355.676 346.531 335.774C354.775 315.871 359.012 294.54 359 273V164H358.93C358.93 139.425 369.04 115.857 386.43 98.4795C403.82 81.1024 427.407 71.0001 452 71C452 71 452 71 452 71Z" fill="#CBD6D0"/>
<path d="M0.5 530.129C0.5 528.339 2.05097 526.477 5.27337 524.676C8.45383 522.899 13.0892 521.282 18.8602 519.918C30.3943 517.191 46.3538 515.5 64 515.5C81.6462 515.5 97.6057 517.191 109.14 519.918C114.911 521.282 119.546 522.899 122.727 524.676C125.949 526.477 127.5 528.339 127.5 530.129C127.5 531.918 125.949 533.78 122.727 535.581C119.546 537.358 114.911 538.975 109.14 540.339C97.6057 543.066 81.6462 544.757 64 544.757C46.3538 544.757 30.3943 543.066 18.8602 540.339C13.0892 538.975 8.45383 537.358 5.27337 535.581C2.05097 533.78 0.5 531.918 0.5 530.129Z" stroke="#1B1B1B"/>
<mask id="mask0_156_509" style="mask-type:alpha" maskUnits="userSpaceOnUse" x="0" y="515" width="128" height="31">
<ellipse cx="64" cy="530.128" rx="64" ry="15.1286" transform="rotate(180 64 530.128)" fill="#C4C4C4"/>
</mask>
<g mask="url(#mask0_156_509)">
<ellipse cx="64" cy="536.499" rx="64" ry="15.1286" transform="rotate(180 64 536.499)" fill="#1B1B1B"/>
</g>
</svg>
