<svg width="405" height="465" viewBox="0 0 405 465" fill="none" xmlns="http://www.w3.org/2000/svg">
<path fill-rule="evenodd" clip-rule="evenodd" d="M164.124 437.257L164.124 437L357 437L357 366L164 366L164 366.257C139.451 366.223 115.915 356.126 98.5538 338.778C81.1636 321.401 71.0536 297.832 71.0536 273.257L7.2269e-05 273.257C-0.011801 294.797 4.22529 316.129 12.4691 336.031C20.7129 355.934 32.8017 374.018 48.0443 389.249C63.287 404.48 81.3845 416.56 101.302 424.798C121.22 433.035 142.567 437.269 164.124 437.257ZM164.018 71L407 71L407 0L164.247 -2.12222e-05C164.186 -2.12274e-05 164.126 -2.12327e-05 164.066 -2.1238e-05C164.044 -2.12399e-05 164.022 -2.12418e-05 164 -2.12437e-05C142.528 0.0204237 121.267 4.25345 101.425 12.4596C81.5076 20.6971 63.41 32.7769 48.1674 48.008C32.9247 63.2392 20.8359 81.3231 12.5921 101.226C4.34835 121.129 0.111259 142.46 0.123129 164L2.07854e-05 164L1.12563e-05 273L71 273L71 164L71.1766 164C71.1766 139.425 81.2866 115.857 98.6769 98.4795C116.042 81.127 139.463 71.0286 164.018 71Z" fill="#CBD6D0"/>
<path d="M356.128 337.5C354.339 337.5 352.477 339.051 350.676 342.273C348.899 345.454 347.282 350.089 345.917 355.86C343.191 367.394 341.5 383.354 341.5 401C341.5 418.646 343.191 434.606 345.917 446.14C347.282 451.911 348.899 456.546 350.676 459.727C352.477 462.949 354.339 464.5 356.128 464.5C357.917 464.5 359.78 462.949 361.581 459.727C363.358 456.546 364.975 451.911 366.339 446.14C369.066 434.606 370.757 418.646 370.757 401C370.757 383.354 369.066 367.394 366.339 355.86C364.975 350.089 363.358 345.454 361.581 342.273C359.78 339.051 357.917 337.5 356.128 337.5Z" stroke="#1B1B1B"/>
<mask id="mask0_355_746" style="mask-type:alpha" maskUnits="userSpaceOnUse" x="341" y="337" width="31" height="128">
<ellipse rx="64" ry="15.1286" transform="matrix(-4.37114e-08 -1 -1 4.37114e-08 356.128 401)" fill="#C4C4C4"/>
</mask>
<g mask="url(#mask0_355_746)">
<ellipse rx="64" ry="15.1286" transform="matrix(-4.37114e-08 -1 -1 4.37114e-08 362.498 401)" fill="#1B1B1B"/>
</g>
</svg>
