<svg width="569" height="546" viewBox="0 0 569 546" fill="none" xmlns="http://www.w3.org/2000/svg">
<rect x="210" y="164" width="71" height="109" fill="#B791C4"/>
<path fill-rule="evenodd" clip-rule="evenodd" d="M117 71H-3.10351e-06L0 -5.11423e-06L117 0C138.556 -0.0118349 159.904 4.22207 179.821 12.4596C199.739 20.6972 217.837 32.7769 233.079 48.0081C248.322 63.2392 260.411 81.3232 268.655 101.226C276.898 121.129 281.135 142.46 281.124 164H281V273H281.053C281.053 297.574 291.163 321.143 308.554 338.52C325.944 355.897 349.406 365.999 373.999 366H374C395.556 365.988 416.903 370.222 436.821 378.459C456.739 386.697 474.836 398.776 490.079 414.008C505.321 429.239 517.41 447.323 525.654 467.225C533.898 487.128 538.135 508.459 538.123 530H467.069C467.069 505.425 456.959 481.856 439.569 464.479C422.179 447.102 398.593 437 373.999 437C352.485 436.995 331.182 432.762 311.302 424.54C291.384 416.302 273.287 404.223 258.044 388.991C242.802 373.76 230.713 355.676 222.469 335.774C214.225 315.871 209.988 294.54 210 273V164H210.07C210.07 139.425 199.96 115.857 182.57 98.4795C165.18 81.1024 141.593 71.0001 117 71C117 71 117 71 117 71Z" fill="#B791C4"/>
<path d="M568.5 530.129C568.5 528.339 566.949 526.477 563.727 524.676C560.546 522.899 555.911 521.282 550.14 519.918C538.606 517.191 522.646 515.5 505 515.5C487.354 515.5 471.394 517.191 459.86 519.918C454.089 521.282 449.454 522.899 446.273 524.676C443.051 526.477 441.5 528.339 441.5 530.129C441.5 531.918 443.051 533.78 446.273 535.581C449.454 537.358 454.089 538.975 459.86 540.339C471.394 543.066 487.354 544.757 505 544.757C522.646 544.757 538.606 543.066 550.14 540.339C555.911 538.975 560.546 537.358 563.727 535.581C566.949 533.78 568.5 531.918 568.5 530.129Z" stroke="#1B1B1B"/>
<mask id="mask0_355_722" style="mask-type:alpha" maskUnits="userSpaceOnUse" x="441" y="515" width="128" height="31">
<ellipse rx="64" ry="15.1286" transform="matrix(1 0 0 -1 505 530.129)" fill="#C4C4C4"/>
</mask>
<g mask="url(#mask0_355_722)">
<ellipse rx="64" ry="15.1286" transform="matrix(1 0 0 -1 505 536.499)" fill="#1B1B1B"/>
</g>
</svg>
