<svg width="438" height="294" viewBox="0 0 438 294" fill="none" xmlns="http://www.w3.org/2000/svg">
<rect x="1" y="1.00647" width="435" height="291" rx="4" fill="white" stroke="#1B1B1B" stroke-width="2"/>
<rect x="1" y="1.00647" width="86" height="194" fill="white" stroke="#1B1B1B" stroke-width="2"/>
<rect x="87" y="1.00647" width="85.2" height="194" fill="white" stroke="#1B1B1B" stroke-width="2"/>
<rect x="351" y="1.00647" width="85.2" height="194" fill="white" stroke="#1B1B1B" stroke-width="2"/>
<path d="M266 1.00647H351.2V195.006H266V1.00647Z" fill="white" stroke="#1B1B1B" stroke-width="2"/>
<path d="M266 1.00647H351.2V98.0065H266V1.00647Z" fill="#A473B6" stroke="#1B1B1B" stroke-width="2"/>
<path d="M87 1.00647H172.2V98.0065H87V1.00647Z" fill="white" stroke="#1B1B1B" stroke-width="2"/>
<path d="M221 195.006H436V288.006C436 290.216 434.209 292.006 432 292.006H221V195.006Z" fill="white" stroke="#1B1B1B" stroke-width="2"/>
<path d="M1 195.006H221V292.006H5C2.79086 292.006 1 290.216 1 288.006V195.006Z" fill="#CBD6D0" stroke="#1B1B1B" stroke-width="2"/>
<rect y="-1.41839" width="58.0274" height="58.0274" transform="matrix(0.705012 0.709196 -0.705012 0.709196 219.5 154.588)" fill="#1B1B1B" stroke="#1B1B1B" stroke-width="2"/>
<rect y="1.41839" width="54.0274" height="54.0274" transform="matrix(0.705012 0.709196 -0.705012 0.709196 221.5 155.412)" fill="#1B1B1B" stroke="white" stroke-width="2"/>
<path d="M218.783 186.6H224.933C225.647 186.6 226.361 186.655 227.076 186.764C227.805 186.858 228.458 187.061 229.032 187.374C229.607 187.671 230.073 188.093 230.43 188.64C230.787 189.187 230.966 189.914 230.966 190.821C230.966 191.759 230.702 192.541 230.174 193.166C229.661 193.776 228.978 194.214 228.124 194.479V194.526C228.667 194.604 229.157 194.761 229.591 194.995C230.042 195.214 230.422 195.503 230.733 195.863C231.059 196.207 231.307 196.613 231.478 197.082C231.649 197.551 231.734 198.052 231.734 198.583C231.734 199.459 231.548 200.193 231.175 200.788C230.803 201.366 230.321 201.835 229.731 202.195C229.141 202.554 228.473 202.812 227.728 202.968C226.998 203.125 226.268 203.203 225.538 203.203H218.783V186.6ZM222.417 193.237H225.049C225.329 193.237 225.6 193.205 225.864 193.143C226.144 193.08 226.392 192.979 226.61 192.838C226.827 192.697 226.998 192.51 227.122 192.275C227.262 192.041 227.332 191.759 227.332 191.431C227.332 191.087 227.254 190.806 227.099 190.587C226.959 190.352 226.773 190.172 226.54 190.047C226.307 189.922 226.043 189.836 225.748 189.789C225.453 189.727 225.166 189.696 224.886 189.696H222.417V193.237ZM222.417 200.107H225.678C225.958 200.107 226.237 200.076 226.517 200.014C226.812 199.951 227.076 199.842 227.309 199.685C227.542 199.529 227.728 199.326 227.868 199.076C228.023 198.826 228.101 198.521 228.101 198.161C228.101 197.77 228 197.458 227.798 197.223C227.611 196.973 227.371 196.785 227.076 196.66C226.781 196.535 226.462 196.449 226.121 196.402C225.779 196.355 225.461 196.332 225.166 196.332H222.417V200.107Z" fill="white"/>
<path d="M216.035 186.608L212.463 186.608C212.463 187.843 211.959 189.028 211.085 189.901C210.212 190.775 209.027 191.279 207.792 191.279L207.792 194.851C208.874 194.852 209.947 194.639 210.947 194.225C211.947 193.811 212.856 193.204 213.622 192.438C214.388 191.673 214.995 190.764 215.409 189.763C215.823 188.763 216.036 187.691 216.035 186.608Z" fill="white"/>
<path d="M216.035 194.92L212.463 194.92C212.463 196.155 211.959 197.34 211.085 198.213C210.212 199.087 209.027 199.591 207.792 199.591L207.792 203.163C208.874 203.164 209.947 202.951 210.947 202.537C211.947 202.123 212.856 201.516 213.622 200.75C214.388 199.985 214.995 199.076 215.409 198.075C215.823 197.075 216.036 196.003 216.035 194.92Z" fill="white"/>
</svg>
