<svg width="312" height="278" viewBox="0 0 312 278" fill="none" xmlns="http://www.w3.org/2000/svg">
<path d="M249.367 81.5007C262.893 81.5007 275.157 79.9903 284.055 77.538C288.5 76.3129 292.134 74.8451 294.668 73.194C297.181 71.5567 298.735 69.6545 298.735 67.5327C298.735 65.4109 297.181 63.5087 294.668 61.8714C292.134 60.2203 288.5 58.7525 284.055 57.5274C275.157 55.0751 262.893 53.5647 249.367 53.5647C235.841 53.5647 223.577 55.0751 214.679 57.5274C210.234 58.7525 206.6 60.2203 204.066 61.8714C201.553 63.5087 199.999 65.4109 199.999 67.5327C199.999 69.6545 201.553 71.5567 204.066 73.194C206.6 74.8451 210.234 76.3129 214.679 77.538C223.577 79.9903 235.841 81.5007 249.367 81.5007Z" fill="#1B1B1B" stroke="white"/>
<path d="M298.5 62.1911C298.5 63.7847 297.303 65.4257 294.83 67.0127C292.379 68.5849 288.8 70.0196 284.332 71.2319C275.404 73.6546 263.042 75.1591 249.368 75.1591C235.693 75.1591 223.332 73.6546 214.404 71.2319C209.936 70.0196 206.357 68.5849 203.906 67.0127C201.433 65.4257 200.236 63.7847 200.236 62.1911C200.236 60.5976 201.433 58.9566 203.906 57.3696C206.357 55.7974 209.936 54.3627 214.404 53.1504C223.332 50.7277 235.693 49.2231 249.368 49.2231C263.042 49.2231 275.404 50.7277 284.332 53.1504C288.8 54.3627 292.379 55.7974 294.83 57.3696C297.303 58.9566 298.5 60.5976 298.5 62.1911Z" fill="#1B1B1B" stroke="white"/>
<path d="M248.632 66.3095C262.158 66.3095 274.422 64.7991 283.32 62.3469C287.765 61.1217 291.399 59.6539 293.933 58.0028C296.445 56.3655 298 54.4634 298 52.3415C298 50.2197 296.445 48.3175 293.933 46.6803C291.399 45.0292 287.765 43.5613 283.32 42.3362C274.422 39.884 262.158 38.3735 248.632 38.3735C235.105 38.3735 222.841 39.884 213.944 42.3362C209.498 43.5613 205.865 45.0292 203.331 46.6803C200.818 48.3175 199.263 50.2197 199.263 52.3415C199.263 54.4634 200.818 56.3655 203.331 58.0028C205.865 59.6539 209.498 61.1217 213.944 62.3469C222.841 64.7991 235.105 66.3095 248.632 66.3095Z" fill="#A473B6" stroke="white"/>
<path d="M297.765 47.3298C297.765 48.9234 296.568 50.5644 294.094 52.1513C291.644 53.7236 288.064 55.1583 283.597 56.3706C274.669 58.7932 262.307 60.2978 248.632 60.2978C234.958 60.2978 222.596 58.7932 213.668 56.3706C209.201 55.1583 205.621 53.7236 203.171 52.1513C200.697 50.5644 199.5 48.9234 199.5 47.3298C199.5 45.7363 200.697 44.0953 203.171 42.5083C205.621 40.9361 209.201 39.5014 213.668 38.2891C222.596 35.8664 234.958 34.3618 248.632 34.3618C262.307 34.3618 274.669 35.8664 283.597 38.2891C288.064 39.5014 291.644 40.9361 294.094 42.5083C296.568 44.0953 297.765 45.7363 297.765 47.3298Z" fill="#A473B6" stroke="white"/>
<path d="M248.632 51.4484C262.158 51.4484 274.422 49.938 283.32 47.4858C287.765 46.2607 291.399 44.7928 293.933 43.1417C296.445 41.5044 298 39.6023 298 37.4804C298 35.3586 296.445 33.4565 293.933 31.8192C291.399 30.1681 287.765 28.7002 283.32 27.4751C274.422 25.0229 262.158 23.5125 248.632 23.5125C235.105 23.5125 222.841 25.0229 213.944 27.4751C209.498 28.7002 205.865 30.1681 203.331 31.8192C200.818 33.4565 199.263 35.3586 199.263 37.4804C199.263 39.6023 200.818 41.5044 203.331 43.1417C205.865 44.7928 209.498 46.2607 213.944 47.4858C222.841 49.938 235.105 51.4484 248.632 51.4484Z" fill="#1B1B1B" stroke="white"/>
<path d="M297.765 32.4685C297.765 34.062 296.568 35.703 294.094 37.29C291.644 38.8622 288.064 40.2969 283.597 41.5092C274.669 43.9319 262.307 45.4365 248.632 45.4365C234.958 45.4365 222.596 43.9319 213.668 41.5092C209.201 40.2969 205.621 38.8622 203.171 37.29C200.697 35.703 199.5 34.062 199.5 32.4685C199.5 30.8749 200.697 29.2339 203.171 27.647C205.621 26.0747 209.201 24.64 213.668 23.4277C222.596 21.0051 234.958 19.5005 248.632 19.5005C262.307 19.5005 274.669 21.0051 283.597 23.4277C288.064 24.64 291.644 26.0747 294.094 27.647C296.568 29.2339 297.765 30.8749 297.765 32.4685Z" fill="#1B1B1B" stroke="white"/>
<rect x="0.500488" y="0.500488" width="145" height="277" rx="19.5" stroke="#1B1B1B"/>
<rect x="3.50049" y="3.50049" width="139" height="271" rx="17.5" fill="white" stroke="#1B1B1B"/>
<path d="M46.0005 3.00049H100V5.00049C100 8.3142 97.3142 11.0005 94.0005 11.0005H52.0005C48.6868 11.0005 46.0005 8.3142 46.0005 5.00049V3.00049Z" fill="#1B1B1B"/>
<circle cx="85.0005" cy="7.00049" r="2" fill="white"/>
<rect x="65.0005" y="5.00049" width="16" height="4" rx="2" fill="white"/>
<path d="M15.5005 35.0005C15.5005 24.2309 24.2309 15.5005 35.0005 15.5005C45.77 15.5005 54.5005 24.2309 54.5005 35.0005C54.5005 45.77 45.77 54.5005 35.0005 54.5005C24.2309 54.5005 15.5005 45.77 15.5005 35.0005Z" stroke="#1B1B1B"/>
<path d="M17.5005 35.0005C17.5005 25.3355 25.3355 17.5005 35.0005 17.5005C44.6655 17.5005 52.5005 25.3355 52.5005 35.0005C52.5005 44.6655 44.6655 52.5005 35.0005 52.5005C25.3355 52.5005 17.5005 44.6655 17.5005 35.0005Z" stroke="#1B1B1B"/>
<g filter="url(#filter0_d_156_458)">
<rect x="31.0005" y="104" width="83" height="63.3739" fill="#1B1B1B"/>
<rect x="31.5005" y="104.5" width="82" height="62.3739" stroke="#1B1B1B"/>
</g>
<rect x="39.0005" y="115.066" width="27" height="1.00593" fill="white"/>
<rect x="39.0005" y="125.125" width="47" height="1.00593" fill="white"/>
<rect x="39.0005" y="135.185" width="37" height="1.00593" fill="white"/>
<rect x="39.0005" y="145.244" width="57" height="1.00593" fill="white"/>
<rect x="39.0005" y="155.303" width="27" height="1.00593" fill="white"/>
<path d="M96.0005 112L93.0005 115L96.0005 118" stroke="white"/>
<path d="M105 112L108 115L105 118" stroke="white"/>
<path d="M103 112L100.526 114.475L98.0507 116.95" stroke="white"/>
<g filter="url(#filter1_d_156_458)">
<rect x="129" y="104" width="83" height="63.3739" fill="white"/>
<rect x="129.5" y="104.5" width="82" height="62.3739" stroke="#1B1B1B"/>
</g>
<rect x="137" y="115.066" width="27" height="1.00593" fill="#1B1B1B"/>
<rect x="137" y="125.125" width="47" height="1.00593" fill="#1B1B1B"/>
<rect x="137" y="135.185" width="37" height="1.00593" fill="#1B1B1B"/>
<rect x="137" y="145.244" width="57" height="1.00593" fill="#1B1B1B"/>
<rect x="137" y="155.303" width="27" height="1.00593" fill="#1B1B1B"/>
<path d="M194 112L191 115L194 118" stroke="#1B1B1B"/>
<path d="M203 112L206 115L203 118" stroke="#1B1B1B"/>
<path d="M201 112L198.526 114.475L196.051 116.95" stroke="#1B1B1B"/>
<g filter="url(#filter2_d_156_458)">
<rect x="227" y="104" width="83" height="63.3739" fill="white"/>
<rect x="227.5" y="104.5" width="82" height="62.3739" stroke="#1B1B1B"/>
</g>
<rect x="235" y="115.066" width="27" height="1.00593" fill="#1B1B1B"/>
<rect x="235" y="125.125" width="47" height="1.00593" fill="#1B1B1B"/>
<rect x="235" y="135.185" width="37" height="1.00593" fill="#1B1B1B"/>
<rect x="235" y="145.244" width="57" height="1.00593" fill="#1B1B1B"/>
<rect x="235" y="155.303" width="27" height="1.00593" fill="#1B1B1B"/>
<path d="M292 112L289 115L292 118" stroke="#1B1B1B"/>
<path d="M301 112L304 115L301 118" stroke="#1B1B1B"/>
<path d="M299 112L296.526 114.475L294.051 116.95" stroke="#1B1B1B"/>
<defs>
<filter id="filter0_d_156_458" x="31.0005" y="104" width="85" height="65.3738" filterUnits="userSpaceOnUse" color-interpolation-filters="sRGB">
<feFlood flood-opacity="0" result="BackgroundImageFix"/>
<feColorMatrix in="SourceAlpha" type="matrix" values="0 0 0 0 0 0 0 0 0 0 0 0 0 0 0 0 0 0 127 0" result="hardAlpha"/>
<feOffset dx="2" dy="2"/>
<feComposite in2="hardAlpha" operator="out"/>
<feColorMatrix type="matrix" values="0 0 0 0 0.145098 0 0 0 0 0.227451 0 0 0 0 0.560784 0 0 0 0.25 0"/>
<feBlend mode="normal" in2="BackgroundImageFix" result="effect1_dropShadow_156_458"/>
<feBlend mode="normal" in="SourceGraphic" in2="effect1_dropShadow_156_458" result="shape"/>
</filter>
<filter id="filter1_d_156_458" x="129" y="104" width="85" height="65.3738" filterUnits="userSpaceOnUse" color-interpolation-filters="sRGB">
<feFlood flood-opacity="0" result="BackgroundImageFix"/>
<feColorMatrix in="SourceAlpha" type="matrix" values="0 0 0 0 0 0 0 0 0 0 0 0 0 0 0 0 0 0 127 0" result="hardAlpha"/>
<feOffset dx="2" dy="2"/>
<feComposite in2="hardAlpha" operator="out"/>
<feColorMatrix type="matrix" values="0 0 0 0 0.145098 0 0 0 0 0.227451 0 0 0 0 0.560784 0 0 0 0.25 0"/>
<feBlend mode="normal" in2="BackgroundImageFix" result="effect1_dropShadow_156_458"/>
<feBlend mode="normal" in="SourceGraphic" in2="effect1_dropShadow_156_458" result="shape"/>
</filter>
<filter id="filter2_d_156_458" x="227" y="104" width="85" height="65.3738" filterUnits="userSpaceOnUse" color-interpolation-filters="sRGB">
<feFlood flood-opacity="0" result="BackgroundImageFix"/>
<feColorMatrix in="SourceAlpha" type="matrix" values="0 0 0 0 0 0 0 0 0 0 0 0 0 0 0 0 0 0 127 0" result="hardAlpha"/>
<feOffset dx="2" dy="2"/>
<feComposite in2="hardAlpha" operator="out"/>
<feColorMatrix type="matrix" values="0 0 0 0 0.145098 0 0 0 0 0.227451 0 0 0 0 0.560784 0 0 0 0.25 0"/>
<feBlend mode="normal" in2="BackgroundImageFix" result="effect1_dropShadow_156_458"/>
<feBlend mode="normal" in="SourceGraphic" in2="effect1_dropShadow_156_458" result="shape"/>
</filter>
</defs>
</svg>
