<svg width="544" height="461" viewBox="0 0 544 461" fill="none" xmlns="http://www.w3.org/2000/svg">
<path fill-rule="evenodd" clip-rule="evenodd" d="M413 366L530 366L530 437L413 437C391.444 437.012 370.096 432.778 350.179 424.54C330.261 416.303 312.163 404.223 296.921 388.992C281.678 373.761 269.589 355.677 261.345 335.774C253.102 315.871 248.865 294.54 248.876 273L249 273L249 164L248.947 164C248.947 139.425 238.837 115.857 221.446 98.4795C204.056 81.1024 180.594 71 156 71L2.90384e-05 71L2.28314e-05 -1.47011e-05L156 -2.8339e-05C177.514 0.00433379 198.818 4.23779 218.698 12.4596C238.616 20.6972 256.713 32.7769 271.956 48.008C287.198 63.2392 299.287 81.3231 307.531 101.226C315.775 121.129 320.012 142.46 320 164L320 273L319.93 273C319.93 297.575 330.04 321.143 347.43 338.521C364.82 355.898 388.407 366 413 366C413 366 413 366 413 366Z" fill="#A473B6"/>
<path d="M528.871 333.5C527.082 333.5 525.22 335.051 523.419 338.273C521.642 341.454 520.025 346.089 518.66 351.86C515.934 363.394 514.243 379.354 514.243 397C514.243 414.646 515.934 430.606 518.661 442.14C520.025 447.911 521.642 452.546 523.419 455.727C525.22 458.949 527.082 460.5 528.871 460.5C530.66 460.5 532.523 458.949 534.324 455.727C536.101 452.546 537.718 447.911 539.082 442.14C541.809 430.606 543.5 414.646 543.5 397C543.5 379.354 541.809 363.394 539.082 351.86C537.718 346.089 536.101 341.454 534.324 338.273C532.523 335.051 530.66 333.5 528.871 333.5Z" stroke="#1B1B1B"/>
<mask id="mask0_156_447" style="mask-type:alpha" maskUnits="userSpaceOnUse" x="513" y="333" width="31" height="128">
<ellipse rx="64" ry="15.1286" transform="matrix(-1.31134e-07 -1 -1 1.31134e-07 528.871 397)" fill="#C4C4C4"/>
</mask>
<g mask="url(#mask0_156_447)">
<ellipse rx="64" ry="15.1286" transform="matrix(-1.31134e-07 -1 -1 1.31135e-07 535.242 397)" fill="#1B1B1B"/>
</g>
</svg>
