<svg width="325" height="332" viewBox="0 0 325 332" fill="none" xmlns="http://www.w3.org/2000/svg">
<g filter="url(#filter0_d_156_536)">
<rect x="42" y="43.001" width="146" height="278" fill="white"/>
<rect x="43" y="44.001" width="144" height="276" stroke="#1B1B1B" stroke-width="2"/>
</g>
<path d="M167.039 100.04H242.962V100.066V100.241V100.416V100.59V100.764V100.938V101.112V101.285V101.458V101.63V101.803V101.975V102.146V102.318V102.489V102.66V102.831V103.001V103.171V103.341V103.51V103.68V103.849V104.017V104.186V104.354V104.522V104.689V104.857V105.024V105.191V105.357V105.524V105.69V105.855V106.021V106.186V106.351V106.516V106.68V106.845V107.009V107.172V107.336V107.499V107.662V107.825V107.987V108.15V108.312V108.473V108.635V108.796V108.957V109.118V109.279V109.439V109.599V109.759V109.919V110.078V110.238V110.397V110.555V110.714V110.872V111.03V111.188V111.346V111.503V111.66V111.817V111.974V112.131V112.287V112.443V112.599V112.755V112.911V113.066V113.221V113.376V113.531V113.685V113.839V113.993V114.147V114.301V114.455V114.608V114.761V114.914V115.067V115.219V115.372V115.524V115.676V115.828V115.979V116.131V116.282V116.433V116.584V116.735V116.885V117.035V117.186V117.336V117.486V117.635V117.785V117.934V118.083V118.232V118.381V118.53V118.678V118.827V118.975V119.123V119.271V119.418V119.566V119.713V119.861V120.008V120.155V120.301V120.448V120.595V120.741V120.887V121.033V121.179V121.325V121.47V121.616V121.761V121.907V122.052V122.197V122.341V122.486V122.631V122.775V122.919V123.064V123.208V123.351V123.495V123.639V123.783V123.926V124.069V124.212V124.356V124.498V124.641V124.784V124.927V125.069V125.212V125.354V125.496V125.638V125.78V125.922V126.064V126.205V126.347V126.488V126.63V126.771V126.912V127.053V127.194V127.335V127.476V127.617V127.757V127.898V128.038V128.179V128.319V128.459V128.599V128.739V128.879V129.019V129.159V129.299V129.438V129.578V129.718V129.857V129.996V130.136V130.275V130.414V130.553V130.692V130.831V130.97V131.109V131.248V131.386V131.525V131.664V131.802V131.941V132.079V132.218V132.356V132.494V132.633V132.771V132.909V133.047V133.185V133.323V133.461V133.599V133.737V133.875V134.013V134.151V134.289V134.426V134.564V134.702V134.84V134.977V135.115V135.252V135.39V135.528V135.665V135.803V135.94V136.078V136.215V136.353V136.49V136.627V136.765V136.902V137.04V137.177V137.314V137.452V137.589V137.726V137.864V138.001V138.138V138.276V138.413V138.551V138.688V138.825V138.963V139.1V139.237V139.375V139.512V139.65V139.787V139.925V140.062V140.2V140.337V140.475V140.612V140.75V140.887V141.025V141.163V141.3V141.438V141.576V141.713V141.851V141.989V142.127V142.265V142.403V142.541V142.679V142.817V142.955V143.093V143.231V143.369V143.508V143.646V143.784V143.923V144.061V144.2V144.338V144.477V144.616V144.754V144.893V145.032V145.171V145.31V145.449V145.588V145.727V145.867V146.006V146.145V146.285V146.424V146.564V146.703V146.843V146.983V147.123V147.263V147.403V147.543V147.683V147.823V147.964V148.104V148.245V148.385V148.526V148.667V148.808V148.949V149.09V149.231V149.372V149.514V149.655V149.797V149.938V150.08V150.222V150.364V150.506V150.648V150.791V150.933V151.076V151.218V151.361V151.504V151.647V151.79V151.933V152.076V152.22V152.363V152.507V152.651V152.795V152.939V153.083V153.227V153.372V153.516V153.661V153.806V153.951V154.096V154.241V154.386V154.532V154.677V154.823V154.969V155.115V155.261V155.408V155.554V155.701V155.848V155.995V156.142V156.289V156.436V156.584V156.732V156.879V157.027V157.176V157.324V157.472V157.621V157.77V157.919V158.068V158.217V158.367V158.517V158.667V158.817V158.967V159.117V159.268V159.418V159.569V159.72V159.872V160.023V160.175V160.326V160.478V160.631V160.783V160.935V161.088V161.241V161.394V161.548V161.701V161.855V162.009V162.163V162.317V162.472V162.626V162.781V162.936V163.092V163.247V163.403V163.559V163.715V163.871V164.028V164.185V164.342V164.499V164.656V164.814V164.972V165.13V165.288V165.447V165.606V165.765V165.924V166.083V166.243V166.403V166.563V166.723V166.884V167.045V167.206V167.367V167.529V167.69V167.853V168.015V168.177V168.34V168.503V168.666V168.83V168.994V169.158V169.322V169.486V169.651V169.816V169.981V170.147V170.313V170.479V170.645V170.811V170.978V171.145V171.313V171.48V171.648V171.816V171.985V172.154V172.322V172.492V172.661V172.831V173.001V173.171V173.342V173.513V173.684V173.856V174.027V174.199V174.372V174.544V174.717V174.891V175.064V175.238V175.412V175.586V175.761V175.936V175.963H167.039V100.04Z" stroke="#1B1B1B"/>
<rect x="164" y="97.001" width="6" height="6" fill="#1B1B1B"/>
<rect x="240" y="97.001" width="6" height="6" fill="#1B1B1B"/>
<rect x="240.5" y="173.655" width="5" height="5" fill="white" stroke="#1B1B1B"/>
<path d="M164 173.155H170V179.155H164V173.155Z" fill="#1B1B1B"/>
<rect x="52" y="182.001" width="61" height="4" fill="#1B1B1B"/>
<rect x="52" y="190.001" width="97" height="4" fill="#1B1B1B"/>
<rect x="52" y="198.001" width="92" height="4" fill="#1B1B1B"/>
<rect x="52" y="206.001" width="61" height="4" fill="#1B1B1B"/>
<rect x="118" y="244.001" width="60" height="20" rx="10" fill="#1B1B1B"/>
<rect x="52.5" y="244.501" width="59" height="19" rx="9.5" stroke="#1B1B1B"/>
<rect x="52.5" y="289.501" width="22" height="22" rx="11" stroke="#1B1B1B"/>
<rect x="155.5" y="289.501" width="22" height="22" rx="11" stroke="#1B1B1B"/>
<path d="M121.5 300.501C121.5 294.426 126.425 289.501 132.5 289.501C138.575 289.501 143.5 294.426 143.5 300.501C143.5 306.576 138.575 311.501 132.5 311.501C126.425 311.501 121.5 306.576 121.5 300.501Z" stroke="#1B1B1B"/>
<circle cx="114.5" cy="108.501" r="27" stroke="#1B1B1B"/>
<rect x="86.5" y="289.501" width="22" height="22" rx="11" stroke="#1B1B1B"/>
<rect x="42.5" y="281.501" width="145" height="39" stroke="#1B1B1B"/>
<path fill-rule="evenodd" clip-rule="evenodd" d="M195.58 122.47L198.866 150.285L204.946 142.975L211.726 154.718L213.58 153.647L215.44 152.573L208.661 140.83L218.059 139.203L195.58 122.47Z" fill="#1B1B1B"/>
<rect y="-1.41839" width="58.0274" height="58.0274" transform="matrix(0.705012 0.709196 -0.705012 0.709196 41.5 2.69446)" fill="#1B1B1B" stroke="#1B1B1B" stroke-width="2"/>
<rect y="1.41839" width="54.0274" height="54.0274" transform="matrix(0.705012 0.709196 -0.705012 0.709196 43.5 3.51941)" fill="#1B1B1B" stroke="white" stroke-width="2"/>
<path d="M40.7832 34.707H46.9327C47.647 34.707 48.3613 34.7617 49.0756 34.8712C49.8055 34.965 50.4577 35.1682 51.0323 35.4809C51.6069 35.7779 52.0727 36.2 52.4299 36.7472C52.787 37.2944 52.9656 38.0213 52.9656 38.9281C52.9656 39.8661 52.7016 40.6478 52.1737 41.2731C51.6612 41.8828 50.9779 42.3206 50.1238 42.5863V42.6332C50.6674 42.7114 51.1565 42.8677 51.5913 43.1022C52.0417 43.3211 52.4221 43.6103 52.7327 43.9699C53.0588 44.3138 53.3073 44.7203 53.4781 45.1893C53.6489 45.6583 53.7343 46.1586 53.7343 46.6901C53.7343 47.5656 53.548 48.3004 53.1753 48.8945C52.8026 49.4729 52.3212 49.9419 51.7311 50.3015C51.141 50.6611 50.4732 50.919 49.7279 51.0754C48.998 51.2317 48.2681 51.3099 47.5383 51.3099H40.7832V34.707ZM44.417 41.3435H47.0491C47.3286 41.3435 47.6004 41.3122 47.8644 41.2497C48.1439 41.1871 48.3924 41.0855 48.6098 40.9448C48.8272 40.8041 48.998 40.6165 49.1222 40.382C49.262 40.1475 49.3319 39.8661 49.3319 39.5378C49.3319 39.1939 49.2542 38.9125 49.0989 38.6936C48.9592 38.4591 48.7728 38.2793 48.5399 38.1542C48.307 38.0292 48.043 37.9432 47.7479 37.8963C47.4529 37.8337 47.1656 37.8025 46.8861 37.8025H44.417V41.3435ZM44.417 48.2144H47.678C47.9576 48.2144 48.2371 48.1832 48.5166 48.1206C48.8116 48.0581 49.0756 47.9486 49.3086 47.7923C49.5415 47.636 49.7279 47.4327 49.8676 47.1826C50.0229 46.9325 50.1005 46.6276 50.1005 46.268C50.1005 45.8772 49.9996 45.5645 49.7977 45.33C49.6114 45.0799 49.3707 44.8923 49.0756 44.7672C48.7806 44.6422 48.4622 44.5562 48.1206 44.5093C47.779 44.4624 47.4606 44.4389 47.1656 44.4389H44.417V48.2144Z" fill="white"/>
<path d="M38.0352 34.7145L34.463 34.7145C34.463 35.9498 33.9585 37.1345 33.0851 38.0079C32.2116 38.8814 31.0269 39.3858 29.7917 39.3858L29.7917 42.958C30.8744 42.9586 31.9466 42.7458 32.947 42.3317C33.9474 41.9177 34.8564 41.3105 35.622 40.5449C36.3876 39.7793 36.9948 38.8703 37.4089 37.8699C37.8229 36.8695 38.0358 35.7972 38.0352 34.7145Z" fill="white"/>
<path d="M38.0352 43.0268L34.463 43.0268C34.463 44.262 33.9585 45.4467 33.0851 46.3202C32.2116 47.1936 31.0269 47.6981 29.7917 47.6981L29.7917 51.2703C30.8744 51.2709 31.9466 51.058 32.947 50.644C33.9474 50.2299 34.8564 49.6227 35.622 48.8571C36.3876 48.0915 36.9948 47.1825 37.4089 46.1821C37.8229 45.1817 38.0358 44.1095 38.0352 43.0268Z" fill="white"/>
<rect width="3.98408" height="15.6461" transform="matrix(0.7087 -0.705509 0.7087 0.705509 283 243.324)" fill="#1B1B1B"/>
<rect width="3.98408" height="27.7112" transform="matrix(0.7087 0.705509 -0.7087 0.705509 310.904 232.001)" fill="#1B1B1B"/>
<g filter="url(#filter1_d_156_536)">
<path d="M205 258.501V229.001C205 223.478 209.477 219.001 215 219.001H312C317.523 219.001 322 223.478 322 229.001V257.001C322 262.524 317.523 267.001 312 267.001H231C230.365 267.001 229.76 267.275 229.341 267.754L218.852 279.741C218.201 280.485 216.997 279.81 217.292 278.867L220.702 267.955C220.85 267.482 220.496 267.001 220 267.001H215H213.5C208.806 267.001 205 263.195 205 258.501Z" fill="white"/>
<path d="M205 258.501V229.001C205 223.478 209.477 219.001 215 219.001H312C317.523 219.001 322 223.478 322 229.001V257.001C322 262.524 317.523 267.001 312 267.001H231C230.365 267.001 229.76 267.275 229.341 267.754L218.852 279.741C218.201 280.485 216.997 279.81 217.292 278.867L220.702 267.955C220.85 267.482 220.496 267.001 220 267.001H215H213.5C208.806 267.001 205 263.195 205 258.501Z" stroke="#1B1B1B"/>
</g>
<rect x="215" y="229.001" width="39" height="4" fill="#1B1B1B"/>
<rect x="215" y="237.001" width="62" height="4" fill="#1B1B1B"/>
<rect x="215" y="245.001" width="59" height="4" fill="#1B1B1B"/>
<rect x="215" y="253.001" width="39" height="4" fill="#1B1B1B"/>
<rect x="230.5" y="302.501" width="29" height="29" fill="white" stroke="#1B1B1B"/>
<rect x="259.5" y="302.501" width="29" height="29" fill="#A473B6" stroke="#1B1B1B"/>
<rect x="288" y="302.001" width="30" height="30" fill="#1B1B1B"/>
<defs>
<filter id="filter0_d_156_536" x="42" y="43.001" width="148" height="280" filterUnits="userSpaceOnUse" color-interpolation-filters="sRGB">
<feFlood flood-opacity="0" result="BackgroundImageFix"/>
<feColorMatrix in="SourceAlpha" type="matrix" values="0 0 0 0 0 0 0 0 0 0 0 0 0 0 0 0 0 0 127 0" result="hardAlpha"/>
<feOffset dx="2" dy="2"/>
<feComposite in2="hardAlpha" operator="out"/>
<feColorMatrix type="matrix" values="0 0 0 0 0.145098 0 0 0 0 0.227451 0 0 0 0 0.560784 0 0 0 0.25 0"/>
<feBlend mode="normal" in2="BackgroundImageFix" result="effect1_dropShadow_156_536"/>
<feBlend mode="normal" in="SourceGraphic" in2="effect1_dropShadow_156_536" result="shape"/>
</filter>
<filter id="filter1_d_156_536" x="204.5" y="218.501" width="120" height="64.0608" filterUnits="userSpaceOnUse" color-interpolation-filters="sRGB">
<feFlood flood-opacity="0" result="BackgroundImageFix"/>
<feColorMatrix in="SourceAlpha" type="matrix" values="0 0 0 0 0 0 0 0 0 0 0 0 0 0 0 0 0 0 127 0" result="hardAlpha"/>
<feOffset dx="2" dy="2"/>
<feComposite in2="hardAlpha" operator="out"/>
<feColorMatrix type="matrix" values="0 0 0 0 0.145098 0 0 0 0 0.227451 0 0 0 0 0.560784 0 0 0 0.25 0"/>
<feBlend mode="normal" in2="BackgroundImageFix" result="effect1_dropShadow_156_536"/>
<feBlend mode="normal" in="SourceGraphic" in2="effect1_dropShadow_156_536" result="shape"/>
</filter>
</defs>
</svg>
