<svg width="280" height="98" viewBox="0 0 280 98" fill="none" xmlns="http://www.w3.org/2000/svg">
<g clip-path="url(#clip0_402_737)">
<path d="M100.191 73.8359C98.1133 73.8359 96.2402 73.3848 94.5723 72.4824C94.5723 72.4551 94.5586 72.4414 94.5312 72.4414C94.5039 72.4414 94.4766 72.4277 94.4492 72.4004C92.8633 71.498 91.6875 70.2676 90.9219 68.709C90.3477 67.4512 90.0605 66.1797 90.0605 64.8945C90.0605 63.6914 90.3203 62.4746 90.8398 61.2441C91.0859 60.6973 91.4961 60.4238 92.0703 60.4238C92.3164 60.4238 92.5762 60.5195 92.8496 60.7109C93.1504 60.875 93.3008 61.1895 93.3008 61.6543C93.3008 61.791 93.2734 61.9414 93.2188 62.1055C92.7812 63.0078 92.5625 63.9238 92.5625 64.8535C92.5625 65.7559 92.7812 66.6582 93.2188 67.5605C93.7383 68.6543 94.5859 69.5156 95.7617 70.1445C96.4727 70.4727 97.1699 70.6367 97.8535 70.6367C99.2754 70.6367 100.342 70.1309 101.053 69.1191C102.146 67.4785 102.693 65.6738 102.693 63.7051C102.693 60.5879 101.312 57.0879 98.5508 53.2051C96.6094 50.7168 94.8457 48.3105 93.2598 45.9863C90.0059 41.2832 87.8867 36.7441 86.9023 32.3691C86.5195 30.7832 86.3281 29.1699 86.3281 27.5293C86.3281 23.7832 87.2715 20.5977 89.1582 17.9727C90.5254 16.0859 92.3027 14.623 94.4902 13.584C96.6777 12.5449 99.002 12.0254 101.463 12.0254C103.35 12.0254 105.236 12.3809 107.123 13.0918C109.037 13.7754 110.719 14.9102 112.168 16.4961C114.301 18.9844 115.367 21.9512 115.367 25.3965C115.367 28.8691 114.26 32 112.045 34.7891C111.799 35.0352 111.471 35.1719 111.061 35.1992C110.65 35.1992 110.322 35.0762 110.076 34.8301C109.857 34.584 109.748 34.2422 109.748 33.8047C109.748 33.5312 109.83 33.2578 109.994 32.9844C110.924 31.5078 111.58 29.7578 111.963 27.7344C112.154 26.8047 112.25 25.9023 112.25 25.0273C112.25 23.9609 112.059 22.6895 111.676 21.2129C111.293 19.7363 110.268 18.4238 108.6 17.2754C107.479 16.5918 106.289 16.25 105.031 16.25C104.977 16.25 104.607 16.2637 103.924 16.291C103.268 16.3184 102.352 16.7148 101.176 17.4805C100 18.2188 99.125 19.1895 98.5508 20.3926C97.9219 21.7324 97.6074 23.209 97.6074 24.8223C97.6074 27.7207 98.7969 31.4121 101.176 35.8965C102.488 38.4395 103.992 41.0781 105.688 43.8125C107.246 46.4102 108.846 49.2129 110.486 52.2207C112.127 55.2285 112.947 58.1543 112.947 60.998C112.947 61.2988 112.879 62.3105 112.742 64.0332C112.633 65.7285 111.498 67.7656 109.338 70.1445C107.041 72.6055 103.992 73.8359 100.191 73.8359ZM143.445 54.8047C143.773 54.9414 143.992 55.1738 144.101 55.502C144.156 55.6387 144.183 55.7754 144.183 55.9121C144.183 56.0762 144.142 56.2402 144.06 56.4043C143.431 57.8535 142.365 59.918 140.861 62.5977C139.357 65.2773 137.58 67.8066 135.529 70.1855C133.478 72.5645 131.291 74.0273 128.966 74.5742C128.556 74.6562 128.16 74.6973 127.777 74.6973C126.054 74.6973 124.468 73.959 123.019 72.4824C120.367 69.502 118.794 64.9082 118.302 58.7012C118.111 56.2949 118.015 53.8203 118.015 51.2773C118.015 47.2031 118.248 42.9375 118.712 38.4805L114.324 38.4395C113.941 38.4395 113.626 38.3164 113.38 38.0703C113.134 37.7969 113.011 37.4824 113.011 37.127C113.011 36.7988 113.121 36.5391 113.339 36.3477C113.531 36.1562 113.777 36.0605 114.078 36.0605H118.959C119.451 31.3848 120.025 26.9141 120.681 22.6484L120.763 22.1562C120.845 21.5 120.927 20.9531 121.009 20.5156C121.146 19.5859 121.542 18.8203 122.199 18.2188C122.882 17.6172 123.689 17.2891 124.619 17.2344L126.095 17.1934H126.259C126.533 17.1934 126.929 17.248 127.449 17.3574C127.968 17.4395 128.529 17.6035 129.13 17.8496C129.732 18.0957 130.224 18.4512 130.607 18.916C130.853 19.2988 130.976 19.6816 130.976 20.0645C130.976 20.3105 130.935 20.5566 130.853 20.8027C129.869 23.7832 128.898 28.8965 127.941 36.1426L136.8 36.2246C137.074 36.2246 137.292 36.3203 137.457 36.5117C137.621 36.6758 137.716 36.8945 137.744 37.168L137.703 37.5371C137.703 37.8379 137.593 38.0977 137.375 38.3164C137.183 38.5078 136.937 38.6035 136.636 38.6035L127.654 38.5625C127.134 43.1016 126.779 47.627 126.587 52.1387C126.533 53.6426 126.505 55.0918 126.505 56.4863C126.505 59.248 126.656 62.0371 126.957 64.8535C127.285 67.6426 128.023 69.5703 129.171 70.6367C129.253 70.7188 129.404 70.8008 129.623 70.8828C129.732 70.9375 129.882 70.9648 130.074 70.9648C130.183 70.9648 130.361 70.9512 130.607 70.9238C130.853 70.8691 131.263 70.6777 131.837 70.3496L131.878 70.4316C133.984 68.5449 135.939 66.125 137.744 63.1719C139.548 60.1914 140.929 57.6074 141.886 55.4199C142.05 55.1191 142.269 54.9141 142.542 54.8047C142.707 54.75 142.857 54.7227 142.994 54.7227C143.158 54.7227 143.308 54.75 143.445 54.8047ZM145.847 74.1641C143.769 74.1641 141.964 73.1387 140.433 71.0879C138.19 67.8613 137.069 63.418 137.069 57.7578C137.069 53.9844 137.685 50.1973 138.915 46.3965C141.376 39.041 145.642 35.3633 151.712 35.3633C153.899 35.3633 156.278 35.8555 158.849 36.8398C159.56 35.9648 160.517 35.4863 161.72 35.4043L163.319 35.3223C164.632 35.3223 165.753 35.7871 166.683 36.7168C167.257 37.3184 167.544 38.043 167.544 38.8906C167.407 40.6133 167.106 43.0332 166.642 46.1504C165.356 54.791 164.7 61.2305 164.673 65.4688C164.673 68.0664 165.001 69.6387 165.657 70.1855L165.78 70.2266C165.917 70.2266 166.177 70.1172 166.56 69.8984C168.939 67.2734 171.468 62.4199 174.147 55.3379L174.189 55.2559L174.558 54.3945C174.776 53.875 175.146 53.6152 175.665 53.6152C175.829 53.6152 175.98 53.6562 176.116 53.7383C176.608 53.957 176.855 54.3125 176.855 54.8047C176.855 54.9688 176.814 55.1602 176.731 55.3789C176.649 55.5703 176.554 55.8027 176.444 56.0762L176.403 56.2402C175.146 59.4395 173.833 62.4336 172.466 65.2227C171.099 67.9844 169.636 70.1445 168.077 71.7031L168.118 71.7441C168.091 71.7441 168.064 71.7578 168.036 71.7852C168.009 71.7852 167.995 71.7988 167.995 71.8262C167.858 71.9355 167.735 72.0586 167.626 72.1953C166.86 73.0703 165.958 73.6582 164.919 73.959H164.058C163.046 73.959 161.911 73.3027 160.653 71.9902C159.423 70.6777 158.521 68.8594 157.946 66.5352C157.372 64.2109 157.017 61.6133 156.88 58.7422C155.485 65.0586 153.612 69.4336 151.261 71.8672V71.9082H151.179C149.812 73.3301 148.034 74.082 145.847 74.1641ZM148.964 70.3496C149.101 70.3496 149.306 70.2812 149.579 70.1445C150.974 68.6406 152.095 66.5762 152.942 63.9512C153.79 61.3262 154.515 58.6328 155.116 55.8711C155.718 53.082 156.374 50.5938 157.085 48.4062C157.331 44.9883 157.646 41.8848 158.028 39.0957C157.099 38.7129 156.333 38.5215 155.731 38.5215C154.419 38.5215 152.97 39.0957 151.384 40.2441C149.825 41.3926 148.54 43.5254 147.528 46.6426C146.243 51.373 145.601 55.666 145.601 59.5215C145.601 60.3418 145.683 62.0645 145.847 64.6895C146.038 67.2871 146.804 69.1191 148.144 70.1855C148.253 70.2949 148.444 70.3496 148.718 70.3496H148.964ZM223.758 54.5996C224.086 54.6543 224.346 54.8184 224.538 55.0918C224.674 55.2832 224.743 55.502 224.743 55.748L224.702 55.9941C224.155 58.7832 223.266 61.873 222.036 65.2637C220.805 68.6543 219.178 71.1426 217.155 72.7285C217.1 72.7559 217.059 72.7832 217.032 72.8105C216.977 72.8379 216.936 72.8652 216.909 72.8926C216.772 72.9473 216.649 73.002 216.54 73.0566C214.899 73.959 213.422 74.4102 212.11 74.4102C211.208 74.4102 210.374 74.2051 209.608 73.7949C208.131 72.8652 207.092 71.3066 206.491 69.1191C205.889 66.9043 205.547 64.3203 205.465 61.3672C205.411 59.6719 205.383 57.9492 205.383 56.1992C205.383 54.8867 205.397 53.5605 205.424 52.2207C205.452 51.0176 205.465 49.8281 205.465 48.6523C205.465 47.0664 205.424 45.1934 205.342 43.0332C205.288 40.873 204.919 39.5059 204.235 38.9316C204.18 38.9043 204.126 38.8906 204.071 38.8906C203.852 38.8906 203.538 39.0273 203.128 39.3008C201.76 41.0781 200.598 43.6621 199.641 47.0527C198.684 50.4434 197.987 53.916 197.549 57.4707C197.467 58.6191 197.358 59.7266 197.221 60.793C196.729 64.7031 196.278 67.7383 195.868 69.8984C195.676 70.8008 195.253 71.5527 194.596 72.1543C193.967 72.7559 193.202 73.084 192.299 73.1387H192.176C190.973 73.1387 189.961 72.7148 189.141 71.8672C188.43 71.0469 188.075 70.1172 188.075 69.0781V68.75C188.512 63.3086 188.731 58.4824 188.731 54.2715C188.731 51.9746 188.608 48.9941 188.362 45.3301C188.116 41.6387 187.364 39.4102 186.106 38.6445C185.997 38.6172 185.887 38.6035 185.778 38.6035C185.614 38.6035 185.395 38.6855 185.122 38.8496C184.848 38.9863 184.575 39.1777 184.301 39.4238C183.262 40.5449 182.223 42.582 181.184 45.5352C180.145 48.4883 179.215 52.7676 178.395 58.373H178.354C178.245 60.4512 178.19 62.3516 178.19 64.0742C178.19 67.2188 178.381 69.7617 178.764 71.7031C178.792 71.8398 178.805 71.9766 178.805 72.1133C178.805 72.5234 178.669 72.9062 178.395 73.2617C178.067 73.6445 177.629 73.9316 177.083 74.123C176.563 74.3418 176.071 74.4512 175.606 74.4512H175.483C174.471 74.3965 173.596 74.123 172.858 73.6309C172.12 73.1113 171.655 72.4551 171.463 71.6621C170.917 69.0098 170.616 65.4141 170.561 60.875V59.1934C170.561 55.2559 170.643 51.2363 170.807 47.1348C170.999 43.0059 171.176 39.8477 171.34 37.6602C171.395 36.8945 171.751 36.2656 172.407 35.7734C173.063 35.2539 173.856 34.9941 174.786 34.9941C176.481 34.9941 177.93 35.582 179.133 36.7578C179.68 37.4141 179.954 38.125 179.954 38.8906V39.1777C179.872 40.1621 179.749 41.4062 179.585 42.9102C181.553 38.0156 184.055 35.4727 187.09 35.2812C187.336 35.2539 187.596 35.2402 187.87 35.2402C190.44 35.2402 192.532 36.1426 194.145 37.9473C195.868 40.0254 196.948 42.7871 197.385 46.2324C198.178 43.3887 199.217 40.9277 200.503 38.8496C201.815 36.7441 203.428 35.5547 205.342 35.2812C205.753 35.2539 206.149 35.2402 206.532 35.2402C208.911 35.2402 210.811 35.9648 212.233 37.4141C214.147 39.6016 215.104 42.6504 215.104 46.5605C215.104 46.6152 215.09 47.6543 215.063 49.6777C215.063 51.6738 214.749 54.7773 214.12 58.9883C213.764 61.5586 213.518 63.9785 213.381 66.248C213.354 66.7676 213.34 67.2598 213.34 67.7246C213.34 69.2285 213.545 70.2812 213.956 70.8828C214.092 71.0195 214.256 71.1016 214.448 71.1289C215.952 71.1289 217.415 69.5977 218.836 66.5352C220.286 63.4453 221.461 59.7676 222.364 55.502C222.446 55.1738 222.61 54.9277 222.856 54.7637C223.075 54.627 223.294 54.5586 223.512 54.5586L223.758 54.5996ZM252.779 52.7949C254.229 52.8496 255.76 52.9863 257.373 53.2051C257.729 53.2598 258.002 53.4238 258.193 53.6973C258.33 53.8887 258.399 54.1074 258.399 54.3535V54.5996C258.344 54.9277 258.193 55.1875 257.947 55.3789C257.729 55.5156 257.482 55.584 257.209 55.584H257.045C255.568 55.3926 254.133 55.2695 252.738 55.2148C252.684 55.9531 252.602 56.6914 252.492 57.4297C252.164 59.9727 251.453 62.4883 250.359 64.9766C249.266 67.4375 247.748 69.5156 245.807 71.2109C243.893 72.8789 241.527 73.7949 238.711 73.959H238.26C236.701 73.959 235.32 73.6445 234.117 73.0156H233.994V72.9746C232.709 72.291 231.711 71.3066 231 70.0215C230.371 68.7363 230.057 67.4375 230.057 66.125C230.057 64.2109 230.713 62.2422 232.025 60.2188C232.682 59.1797 233.926 57.9902 235.758 56.6504C237.59 55.2832 240.242 54.2031 243.715 53.4102V52.3438C243.715 48.5156 243.168 45.1797 242.074 42.3359C241.008 39.8477 239.6 38.4668 237.85 38.1934C236.729 38.3848 235.69 38.7949 234.732 39.4238C233.393 40.3809 232.299 41.625 231.451 43.1562C230.631 44.6875 230.016 46.2461 229.606 47.832C229.195 49.3906 228.908 50.7168 228.744 51.8105C228.635 52.7129 228.58 53.2598 228.58 53.4512V53.5332C228.58 59.9863 228.43 66.5488 228.129 73.2207C227.856 79.8926 227.35 85.1562 226.611 89.0117C226.338 90.0781 225.791 90.9395 224.971 91.5957C224.15 92.252 223.166 92.5938 222.018 92.6211H221.977C221.457 92.6211 220.924 92.4844 220.377 92.2109C219.857 91.9648 219.42 91.623 219.065 91.1855C218.682 90.6934 218.49 90.1875 218.49 89.668C218.49 89.5039 218.504 89.3535 218.531 89.2168C219.215 85.9082 219.598 81.0957 219.68 74.7793V70.5547C219.68 65.6328 219.584 60.3418 219.393 54.6816C219.229 49.0215 219.051 44.4688 218.859 41.0234V40.9004C218.859 39.6426 219.338 38.5078 220.295 37.4961C221.553 36.293 223.057 35.6914 224.807 35.6914C225.846 35.7461 226.707 36.1152 227.391 36.7988C228.074 37.4551 228.43 38.2754 228.457 39.2598C228.484 40.4355 228.512 41.9258 228.539 43.7305C229.551 41.1875 231.164 39.082 233.379 37.4141C234.609 36.5938 235.949 36.0742 237.399 35.8555V35.7734H237.85C238.287 35.7188 238.725 35.6914 239.162 35.6914C240.584 35.6914 242.088 35.9512 243.674 36.4707C246.818 37.6191 249.102 39.7109 250.524 42.7461C251.973 45.7812 252.725 49.1309 252.779 52.7949ZM233.994 61.6133C232.955 63.1719 232.436 64.6758 232.436 66.125C232.436 67.0547 232.654 67.9707 233.092 68.873C233.557 69.6934 234.199 70.3359 235.02 70.8008C235.402 70.9102 235.772 70.9648 236.127 70.9648C237.193 70.9648 238.205 70.459 239.162 69.4473C240.365 68.1074 241.336 66.2344 242.074 63.8281C242.84 61.3945 243.346 58.7559 243.592 55.9121C239.217 56.9238 236.018 58.8242 233.994 61.6133ZM281.472 55.1328C281.664 55.3789 281.759 55.6387 281.759 55.9121C281.759 55.9395 281.746 56.0488 281.718 56.2402C281.718 56.4043 281.582 56.5957 281.308 56.8145C280.461 57.498 279.572 58.209 278.642 58.9473H278.601L278.519 59.0293C276.468 60.6426 274.254 62.4336 271.875 64.4023C273.16 66.8906 273.802 69.2832 273.802 71.5801C273.802 72.6191 273.515 74.1777 272.941 76.2559C272.394 78.3613 270.849 80.3438 268.306 82.2031C266.666 83.4062 265.066 84.0625 263.507 84.1719H263.056C261.197 84.1719 259.679 83.4199 258.504 81.916C257.793 80.959 257.437 79.9199 257.437 78.7988C257.437 77.8965 257.82 76.6113 258.586 74.9434C259.351 73.3027 260.978 71.2383 263.466 68.75C262.947 67.9844 262.332 67.1914 261.621 66.3711C257.875 62.0781 255.482 57.6348 254.443 53.041C254.06 51.4004 253.869 49.8418 253.869 48.3652C253.869 45.6309 254.498 43.1562 255.755 40.9414C257.123 38.7266 258.982 37.1953 261.334 36.3477C262.537 35.9102 263.795 35.6914 265.107 35.6914C266.42 35.6914 267.8 35.9102 269.25 36.3477C270.234 36.7305 270.986 37.209 271.505 37.7832C272.49 38.877 273.16 40.1621 273.515 41.6387C273.761 42.6777 273.884 43.6895 273.884 44.6738C273.884 45.1387 273.857 45.5898 273.802 46.0273C273.748 46.4102 273.556 46.6973 273.228 46.8887C273.009 47.0254 272.777 47.0938 272.531 47.0938C272.421 47.0938 272.312 47.0801 272.203 47.0527C271.929 46.9707 271.724 46.8203 271.587 46.6016C271.478 46.4375 271.423 46.2598 271.423 46.0684V45.8633C271.478 45.4531 271.505 45.043 271.505 44.6328C271.505 43.9219 271.396 43.0879 271.177 42.1309C270.959 41.1465 270.494 40.2578 269.783 39.4648C269.154 38.8086 268.361 38.4805 267.404 38.4805C267.021 38.4805 266.611 38.5352 266.173 38.6445C265.244 38.8633 264.574 39.5469 264.164 40.6953C263.836 41.5977 263.671 42.6641 263.671 43.8945C263.671 45.5625 264.082 47.9688 264.902 51.1133C265.722 54.2305 267.609 57.9766 270.562 62.3516C272.777 60.5469 274.964 58.7832 277.125 57.0605C277.179 57.0332 277.22 57.0059 277.248 56.9785C278.15 56.2676 278.998 55.584 279.791 54.9277C280.037 54.7637 280.296 54.6816 280.57 54.6816C280.625 54.6816 280.734 54.6953 280.898 54.7227C281.062 54.75 281.254 54.8867 281.472 55.1328ZM264.738 70.9238C262.851 72.8652 261.457 74.6699 260.554 76.3379C260.089 77.2402 259.857 78.0469 259.857 78.7578C259.857 79.3867 260.035 79.9609 260.39 80.4805C260.554 80.6992 260.732 80.877 260.923 81.0137C261.525 81.3418 262.099 81.5059 262.646 81.5059C263.494 81.5059 264.259 81.1094 264.943 80.3164C265.654 79.4961 266.05 78.2656 266.132 76.625V76.1328C266.132 74.6016 265.668 72.8652 264.738 70.9238Z" fill="#FFFEFC"/>
<g clip-path="url(#clip1_402_737)">
<path fill-rule="evenodd" clip-rule="evenodd" d="M36.1309 84.9999H36.0312C35.4607 84.9999 34.8787 84.9863 34.301 84.959C34.2206 84.0372 33.7999 83.1823 33.1162 82.5517C31.872 81.4066 29.8829 81.2664 28.4932 82.2213C27.8866 82.6387 27.4215 83.218 27.1477 83.8969C26.4552 83.7218 25.7532 83.5211 25.0607 83.3001C25.129 83.015 25.1636 82.7214 25.1636 82.4275C25.1636 80.3783 23.4959 78.7111 21.4462 78.7111C20.1979 78.7111 19.0399 79.3319 18.3481 80.3721C17.8312 80.081 17.3096 79.7697 16.7976 79.4461C17.0351 78.9462 17.1555 78.4103 17.1555 77.8531C17.1555 75.8041 15.4875 74.137 13.4374 74.137C12.5821 74.137 11.7473 74.4344 11.0862 74.9745C10.5352 74.4463 9.99157 73.8908 9.47041 73.323C9.99975 72.6663 10.2913 71.8389 10.2913 70.9933C10.2913 68.9435 8.62347 67.2758 6.57352 67.2758C6.0824 67.2758 5.60435 67.3705 5.15213 67.5572C4.91265 67.1601 4.67816 66.7537 4.45521 66.3491C5.25659 65.6434 5.71627 64.6268 5.71627 63.56C5.71627 61.401 3.81016 59.6735 1.66862 59.8582C1.46272 59.2088 1.27124 58.5368 1.09973 57.8602C1.77946 57.5865 2.35913 57.1216 2.77612 56.5157C3.20306 55.8952 3.42874 55.1678 3.42874 54.4119C3.42874 53.4769 3.07955 52.5829 2.44553 51.8946C1.81495 51.2109 0.959883 50.7904 0.037482 50.7101C0.017577 50.2987 0.0047672 49.8757 -0.000275832 49.4526C0.799712 49.2628 1.52501 48.803 2.04209 48.1578C2.5746 47.4924 2.8561 46.6899 2.8561 45.8369C2.8561 44.3444 1.96818 43.0019 0.593802 42.4165C0.722533 41.7143 0.877242 40.9971 1.0541 40.2845C3.33382 40.8793 5.71628 39.0575 5.71627 36.6891C5.71627 35.9694 5.5096 35.2708 5.11874 34.6688C4.73785 34.0822 4.20283 33.6165 3.57139 33.3215C3.75802 32.9347 3.95293 32.549 4.15118 32.175C4.56039 32.3247 4.99077 32.4007 5.43027 32.4007C7.48043 32.4007 9.14835 30.7336 9.14835 28.6845C9.14835 27.7435 8.79544 26.8456 8.15457 26.1557C8.4844 25.7539 8.82595 25.3551 9.17013 24.9704C9.76256 25.3435 10.4471 25.5408 11.1499 25.5408C13.2 25.5408 14.868 23.8731 14.868 21.8232C14.868 21.235 14.7264 20.6487 14.4587 20.1272C15.1189 19.6334 15.8058 19.1552 16.5007 18.7061C17.2065 19.4261 18.1499 19.8227 19.1573 19.8227C21.2075 19.8227 22.8754 18.1554 22.8754 16.1061C22.8754 15.8909 22.8564 15.6738 22.8192 15.4603C23.5033 15.191 24.2006 14.9407 24.8922 14.7163C25.4808 16.082 26.822 16.9644 28.309 16.9644C30.359 16.9644 32.0268 15.2974 32.0268 13.2483C32.0268 13.228 32.0264 13.2074 32.0261 13.187L32.0261 13.1826C32.8157 13.0952 33.6222 13.0331 34.4235 12.9982C34.8342 14.66 36.3186 15.8207 38.0334 15.8207C39.5896 15.8207 40.9933 14.8394 41.5267 13.3786C42.177 13.4782 42.8403 13.5986 43.4986 13.7366C43.7403 15.5768 45.325 16.9644 47.1847 16.9644C48.2322 16.9644 49.2363 16.5195 49.94 15.7437C50.4761 15.9683 51.0199 16.2117 51.5565 16.468C51.5018 16.7239 51.4741 16.987 51.4741 17.2499C51.4741 19.2992 53.142 20.9664 55.1921 20.9664C56.0612 20.9664 56.9066 20.6603 57.5729 20.1044C58.1397 20.5277 58.7013 20.9733 59.2422 21.4292C59.0217 21.9139 58.9099 22.4314 58.9099 22.9674C58.9099 25.0165 60.5777 26.6835 62.6276 26.6835C63.1374 26.6835 63.6303 26.5826 64.0929 26.3837C64.4487 26.8247 64.8055 27.2893 65.1535 27.765C64.4467 28.468 64.0575 29.4037 64.0575 30.3997C64.0575 32.7949 66.4968 34.6265 68.798 33.9739C69.0492 34.521 69.2927 35.089 69.5218 35.6628C68.2683 36.3012 67.4896 37.5707 67.4896 38.976C67.4896 41.0251 69.1574 42.6922 71.2074 42.6922C71.3125 42.6922 71.4161 42.6879 71.5155 42.6799C71.5937 43.125 71.6653 43.5799 71.7279 44.0322C70.2192 44.5444 69.2055 45.9589 69.2055 47.552C69.2055 49.2524 70.3549 50.7329 72.001 51.1528C71.9741 51.5917 71.9395 52.0364 71.8978 52.4749C69.702 52.0647 67.4896 53.8452 67.4896 56.1278C67.4896 56.9829 67.7873 57.8175 68.3278 58.4779C68.8608 59.1302 69.6051 59.5856 70.4236 59.7608C70.2806 60.2153 70.1254 60.6778 69.962 61.1353C67.6645 60.4693 65.2021 62.3013 65.2021 64.7038C65.2021 65.9164 65.7963 67.0553 66.7917 67.7509C66.5772 68.1019 66.3409 68.473 66.089 68.8538C65.5547 68.5697 64.9511 68.4195 64.3435 68.4195C62.2937 68.4195 60.6261 70.0867 60.6261 72.136C60.6261 72.9941 60.9253 73.8307 61.4687 74.4923C61.1209 74.8393 60.7559 75.1884 60.3834 75.5298C59.7257 75.0008 58.8978 74.7094 58.0523 74.7094C56.0023 74.7094 54.3345 76.3765 54.3345 78.4255C54.3345 78.918 54.4292 79.3958 54.6158 79.8459C53.8213 80.3253 52.9938 80.7813 52.1557 81.2014C51.5 80.0179 50.2527 79.2827 48.9006 79.2827C46.8506 79.2827 45.1829 80.9498 45.1829 82.9989C45.1829 83.2705 45.2125 83.5415 45.2707 83.8047C44.57 83.9901 43.8486 84.1574 43.1262 84.302C42.1613 82.2139 39.218 81.522 37.426 82.956C36.7795 83.4742 36.3197 84.1999 36.1309 84.9999ZM47.2548 22.3821C43.7113 20.8836 39.9462 20.1238 36.0642 20.1238C32.1817 20.1238 28.4167 20.8836 24.8739 22.3821C23.1713 23.1013 21.5282 23.9924 19.9904 25.031C18.4667 26.0601 17.0351 27.2408 15.7354 28.5402C14.4335 29.8418 13.2525 31.2727 12.225 32.793C11.1859 34.3303 10.2941 35.9726 9.57427 37.6743C8.07513 41.2171 7.31501 44.9804 7.31501 48.8598C7.31501 52.7398 8.07513 56.5033 9.57427 60.0457C10.2945 61.748 11.1863 63.3903 12.225 64.927C13.2518 66.4469 14.4328 67.8777 15.7354 69.1798C17.0347 70.4792 18.4663 71.66 19.9904 72.6894C21.527 73.727 23.17 74.6183 24.8739 75.3383C31.9593 78.335 40.1673 78.3353 47.2548 75.3383C48.9577 74.6184 50.6008 73.7272 52.1383 72.6894C53.6617 71.6601 55.0931 70.4793 56.3929 69.1798C57.6948 67.8785 58.876 66.4476 59.9037 64.927C60.9405 63.3933 61.8323 61.751 62.5544 60.0457C64.0535 56.5025 64.8137 52.7391 64.8137 48.8598C64.8137 44.9812 64.0535 41.2179 62.5544 37.6743C61.8336 35.9716 60.9417 34.3293 59.9037 32.793C58.8752 31.2716 57.6941 29.8408 56.3929 28.5402C55.0924 27.2403 53.661 26.0596 52.1383 25.031C50.6009 23.9933 48.9579 23.102 47.2548 22.3821ZM46.3714 73.2481C43.1071 74.6283 39.6393 75.328 36.0642 75.328C32.4886 75.328 29.0209 74.6283 25.7573 73.2481C24.1881 72.5849 22.6748 71.7638 21.2593 70.8078C19.8573 69.8615 18.5387 68.7742 17.3403 67.576C16.1428 66.3793 15.0549 65.0613 14.1067 63.6587C13.1504 62.2438 12.329 60.7312 11.6653 59.1629C10.2846 55.9 9.58446 52.4335 9.58446 48.8598C9.58446 45.2865 10.2846 41.8203 11.6653 38.5575C12.3293 36.9885 13.1507 35.4758 14.1067 34.0613C15.0537 32.6601 16.1417 31.3422 17.3403 30.1441C18.538 28.9466 19.8565 27.8594 21.2593 26.9126C22.6751 25.9563 24.1885 25.1352 25.7573 24.4719C32.2869 21.7112 39.8408 21.7111 46.3714 24.4719C47.9398 25.1351 49.4532 25.9563 50.8694 26.9126C52.2708 27.8587 53.5893 28.9459 54.7884 30.1441C55.9871 31.343 57.0749 32.6609 58.0216 34.0613C58.9784 35.4776 59.7998 36.9904 60.463 38.5575C61.8438 41.8208 62.5439 45.2871 62.5439 48.8598C62.5439 52.4328 61.8438 55.8992 60.463 59.1629C59.7996 60.7303 58.9782 62.2429 58.0216 63.6587C57.0745 65.0599 55.9867 66.3778 54.7884 67.576C53.5887 68.7747 52.2702 69.8621 50.8694 70.8078C49.4542 71.7635 47.9408 72.5845 46.3714 73.2481ZM45.3721 26.5773C42.3642 25.3056 39.1689 24.6607 35.8749 24.6607C32.5812 24.6607 29.3859 25.3056 26.3776 26.5773C24.9322 27.1887 23.5378 27.9453 22.233 28.8261C20.9413 29.6982 19.7264 30.7002 18.6221 31.8041C17.5181 32.9076 16.5158 34.1219 15.6428 35.4134C14.7611 36.7179 14.0042 38.1119 13.3931 39.5562C12.1208 42.563 11.4757 45.7568 11.4757 49.049C11.4757 52.3414 12.1208 55.5355 13.3931 58.5425C14.0049 59.9882 14.7618 61.382 15.6428 62.6851C16.5153 63.9763 17.5177 65.1907 18.6221 66.2947C19.7272 67.3989 20.9421 68.4009 22.233 69.2727C23.5371 70.1533 24.9315 70.9098 26.3776 71.5211C32.3944 74.0647 39.3565 74.0644 45.3721 71.5211C46.8182 70.9098 48.2127 70.1533 49.5168 69.2727C50.8097 68.3995 52.0246 67.3976 53.1276 66.2947C54.232 65.1908 55.2345 63.9764 56.1073 62.6851C56.9883 61.3812 57.7451 59.9874 58.3567 58.5425C59.629 55.5355 60.2741 52.3414 60.2741 49.049C60.2741 45.7568 59.629 42.5629 58.3567 39.5562C57.7457 38.112 56.9889 36.7182 56.1073 35.4134C55.2349 34.1228 54.2324 32.9084 53.1276 31.8041C52.0242 30.7008 50.8093 29.6988 49.5168 28.8261C48.2129 27.9456 46.8184 27.189 45.3721 26.5773ZM44.7832 70.1276C41.962 71.3203 38.9648 71.925 35.8749 71.925C32.7853 71.925 29.7881 71.3203 26.9666 70.1276C25.6111 69.5543 24.3033 68.8447 23.0793 68.0183C21.8678 67.2002 20.7282 66.2603 19.6921 65.2248C18.6562 64.1892 17.716 63.0502 16.8977 61.8394C16.0711 60.6169 15.3612 59.3094 14.7876 57.9535C13.5941 55.1329 12.989 52.137 12.989 49.049C12.989 45.9614 13.5941 42.9655 14.7876 40.1446C15.3613 38.7886 16.0713 37.4813 16.8977 36.259C17.7164 35.0476 18.6565 33.9085 19.6921 32.8734C20.7275 31.8385 21.8671 30.8987 23.0793 30.0801C24.3022 29.2542 25.61 28.5445 26.9666 27.9709C32.6111 25.585 39.14 25.5852 44.7832 27.9709C46.1391 28.5442 47.4471 29.2538 48.6708 30.0801C49.8827 30.8984 51.0223 31.8381 52.058 32.8734C53.0925 33.9074 54.0327 35.0465 54.8524 36.259C55.6785 37.4813 56.3884 38.7886 56.9625 40.1446C58.1558 42.965 58.7608 45.9609 58.7608 49.049C58.7608 52.1376 58.1558 55.1335 56.9625 57.9535C56.3886 59.3095 55.6786 60.6169 54.8524 61.8394C54.0331 63.0512 53.093 64.1901 52.058 65.2248C51.0228 66.2595 49.8831 67.1994 48.6708 68.0183C47.4458 68.8452 46.1378 69.5549 44.7832 70.1276ZM35.0633 41.752C33.9953 40.7213 32.5669 40.1482 31.0824 40.1546L31.0772 40.1624C29.5927 40.156 28.1643 40.7291 27.0962 41.7598C26.5742 42.2657 26.159 42.8712 25.8756 43.5405C25.5921 44.2097 25.446 44.9291 25.446 45.6559C25.446 46.3827 25.5921 47.1021 25.8756 47.7714C26.159 48.4406 26.5742 49.0462 27.0962 49.552L35.3959 57.604C35.5556 57.7571 35.7684 57.8427 35.9897 57.8427C36.211 57.8427 36.4238 57.7571 36.5835 57.604L44.8987 49.552C45.4212 49.0464 45.8365 48.4409 46.1202 47.7716C46.4039 47.1023 46.5501 46.3828 46.5501 45.6559C46.5501 44.929 46.4039 44.2095 46.1202 43.5402C45.8365 42.8709 45.4212 42.2655 44.8987 41.7598C43.8292 40.7307 42.4024 40.1557 40.9178 40.1557C39.4332 40.1557 38.0064 40.7307 36.9369 41.7598L36.0092 42.6611L35.0633 41.752ZM28.289 42.9832C29.0382 42.2593 30.0403 41.8558 31.0824 41.8585L31.0798 41.8559C32.1196 41.853 33.1193 42.2567 33.8654 42.9806L35.4089 44.4715C35.5686 44.6247 35.7814 44.7102 36.0027 44.7102C36.224 44.7102 36.4368 44.6247 36.5965 44.4715L38.1322 42.991C38.8817 42.2699 39.8814 41.8671 40.9217 41.8671C41.9619 41.8671 42.9617 42.2699 43.7112 42.991C44.0771 43.3324 44.3688 43.7454 44.5683 44.2043C44.7677 44.6632 44.8707 45.1582 44.8707 45.6585C44.8707 46.1588 44.7677 46.6538 44.5683 47.1127C44.3688 47.5716 44.0771 47.9846 43.7112 48.326C42.4223 49.5766 41.1353 50.7187 39.8484 51.8609C38.5693 52.996 37.2902 54.1312 36.0092 55.3728L28.289 48.3182C27.9234 47.9766 27.632 47.5636 27.4328 47.1047C27.2335 46.6458 27.1307 46.1509 27.1307 45.6507C27.1307 45.1505 27.2335 44.6556 27.4328 44.1968C27.632 43.7379 27.9234 43.3248 28.289 42.9832Z" fill="#FFFEFC"/>
</g>
</g>
<defs>
<clipPath id="clip0_402_737">
<rect width="280" height="98" fill="white"/>
</clipPath>
<clipPath id="clip1_402_737">
<rect width="72" height="72" fill="white" transform="matrix(-1 0 0 1 72 13)"/>
</clipPath>
</defs>
</svg>
