<svg width="509" height="711" viewBox="0 0 509 711" fill="none" xmlns="http://www.w3.org/2000/svg">
<path fill-rule="evenodd" clip-rule="evenodd" d="M-169 0L-169 71L-53.4209 71C-28.7098 71 -4.49827 81.04 12.9752 98.4302C30.4485 115.82 41.0004 139.406 41.0005 164L41.0003 164L41.0003 281L41.0007 281C40.9888 302.556 44.8263 323.903 53.1095 343.821C61.3927 363.739 73.5394 381.837 88.855 397.079C104.171 412.322 122.355 424.411 142.368 432.654C161.919 440.708 183.807 444.82 205 444.994L205 445L315.093 445L315.093 445.053C339.805 445.053 363.504 455.163 380.977 472.554C398.451 489.944 409.002 513.406 409.002 538L409.072 538L409 538L409 695L480 695L480 538.124L480.002 538.124C480.014 516.567 475.757 495.22 467.474 475.302C459.191 455.384 447.044 437.287 431.728 422.044C416.413 406.801 398.229 394.713 378.215 386.469C358.482 378.34 337.352 374.107 316 374.002L316 374L315.447 374C315.329 374 315.211 374 315.093 374L206.002 374C181.291 374 157.08 363.96 139.606 346.57C122.133 329.179 112.002 305.593 112.002 281L112 281L112 164C112.012 142.444 107.755 121.096 99.4718 101.179C91.1886 81.2609 79.0419 63.1633 63.7263 47.9207C48.4108 32.678 30.2266 20.5892 10.2135 12.3454C-9.20836 4.34516 -30.9365 0.234774 -51.9995 0.0097678L-51.9995 6.54985e-06L-53.7648 6.45103e-06L-53.89 6.44402e-06L-169 0Z" fill="#CBD6D0"/>
<path d="M507.512 695.129C507.512 693.34 505.961 691.477 502.739 689.676C499.558 687.899 494.923 686.282 489.152 684.918C477.618 682.191 461.658 680.5 444.012 680.5C426.366 680.5 410.406 682.191 398.872 684.918C393.101 686.282 388.466 687.899 385.286 689.676C382.063 691.477 380.512 693.34 380.512 695.129C380.512 696.918 382.063 698.78 385.286 700.581C388.466 702.358 393.101 703.975 398.872 705.34C410.406 708.066 426.366 709.757 444.012 709.757C461.658 709.757 477.618 708.066 489.152 705.34C494.923 703.975 499.558 702.358 502.739 700.581C505.961 698.78 507.512 696.918 507.512 695.129Z" stroke="#1B1B1B"/>
<mask id="mask0_344_635" style="mask-type:alpha" maskUnits="userSpaceOnUse" x="380" y="680" width="129" height="31">
<ellipse rx="64" ry="15.1286" transform="matrix(1 0 0 -1 444.012 695.129)" fill="#C4C4C4"/>
</mask>
<g mask="url(#mask0_344_635)">
<ellipse rx="64" ry="15.1286" transform="matrix(1 0 0 -1 444.012 701.499)" fill="#1B1B1B"/>
</g>
</svg>
