<svg width="414" height="530" viewBox="0 0 414 530" fill="none" xmlns="http://www.w3.org/2000/svg">
<path fill-rule="evenodd" clip-rule="evenodd" d="M-8 71V6.29444e-06L-152 0L-152 71L-8 71ZM156 164L156.124 164C156.135 142.46 151.901 121.129 143.664 101.226C135.426 81.3233 123.347 63.2393 108.115 48.0082C92.8843 32.777 74.8004 20.6973 54.8976 12.4597C34.9949 4.22217 13.6637 -0.0117224 -7.87646 0.000132568L-7.75287 71.0001C16.8221 71.0001 40.2669 81.1025 57.644 98.4796C75.0211 115.857 85.1235 139.425 85.1235 164H85L84.9998 273C84.988 294.54 89.2251 315.871 97.4688 335.774C105.713 355.676 117.801 373.76 133.044 388.991C148.287 404.223 166.384 416.302 186.302 424.54C205.876 432.635 227.677 436.864 248.883 436.997V437C273.476 437 297.062 447.102 314.453 464.479C331.843 481.857 341.953 505.425 341.953 530H413.006C413.018 508.46 408.781 487.129 400.537 467.226C392.294 447.323 380.205 429.239 364.962 414.008C349.719 398.777 331.622 386.697 311.704 378.46C291.822 370.237 270.516 366.004 249 366V366C224.406 366 200.944 355.897 183.554 338.52C166.163 321.143 156.053 297.574 156.053 273H156V164Z" fill="#DFE4E1"/>
</svg>
