<svg xmlns="http://www.w3.org/2000/svg" width="784.788" height="980.596" viewBox="0 0 784.788 980.596">
  <g id="Group_360" data-name="Group 360" transform="translate(316.932 -3186.472)">
    <path id="Path_553" data-name="Path 553" d="M-210,98.653c.43-1.263,51.98-51.351,92.36-21.525C-91.476,96.453-31.26,124.636.028,136.715c50.541,14.9,50.17-22.51,151.235-22.957s193.3,115.872,193.3,115.872" transform="translate(152.755 3674.568) rotate(47)" fill="none" stroke="#392b37" stroke-width="4" stroke-dasharray="40 49" opacity="0.449"/>
    <path id="Path_558" data-name="Path 558" d="M-210,116.746c.673-2,81.4-81.332,144.636-34.092C-24.392,113.262,69.906,157.9,118.9,177.031c79.147,23.6,78.567-35.653,236.833-36.361S658.452,324.194,658.452,324.194" transform="translate(65.583 3462.415) rotate(47)" fill="none" stroke="rgba(232,232,232,0.44)" stroke-width="4" stroke-dasharray="40 49" opacity="0.449"/>
    <path id="Path_555" data-name="Path 555" d="M-210,98.653c.43-1.263,51.98-51.351,92.36-21.525C-91.476,96.453-31.26,124.636.028,136.715c50.541,14.9,50.17-22.51,151.235-22.957s193.3,115.872,193.3,115.872" transform="translate(159.635 3475.079) rotate(80)" fill="none" stroke="#392b37" stroke-width="4" stroke-dasharray="40 49" opacity="0.449"/>
    <path id="Path_556" data-name="Path 556" d="M-210,98.653c.43-1.263,51.98-51.351,92.36-21.525C-91.476,96.453-31.26,124.636.028,136.715c50.541,14.9,50.17-22.51,151.235-22.957s193.3,115.872,193.3,115.872" transform="matrix(-0.799, 0.602, -0.602, -0.799, 266.009, 3498.376)" fill="none" stroke="rgba(255,255,255,0.27)" stroke-width="4" stroke-dasharray="40 49" opacity="0.233"/>
    <path id="Path_557" data-name="Path 557" d="M-210,98.653c.743-1.263,89.863-51.351,159.673-21.525C-5.1,96.453,99.005,124.636,153.1,136.715c87.375,14.9,86.735-22.51,261.455-22.957S748.738,229.63,748.738,229.63" transform="translate(422.232 3502.299) rotate(113)" fill="none" stroke="#392b37" stroke-width="4" stroke-dasharray="40 49" opacity="0.449"/>
  </g>
</svg>
