<svg xmlns="http://www.w3.org/2000/svg" width="784.788" height="980.521" viewBox="0 0 784.788 980.521">
  <g id="Group_361" data-name="Group 361" transform="translate(2.696 2.132)">
    <path id="Path_553" data-name="Path 553" d="M0,130.977c.43,1.263,51.98,51.351,92.36,21.525,26.163-19.325,86.379-47.507,117.667-59.587,50.541-14.9,50.17,22.51,151.235,22.957S554.567,0,554.567,0" transform="translate(733.565 488.987) rotate(133)" fill="none" stroke="#392b37" stroke-width="4" stroke-dasharray="40 49" opacity="0.449"/>
    <path id="Path_558" data-name="Path 558" d="M0,207.448c.673,2,81.4,81.332,144.636,34.092C185.607,210.933,279.905,166.3,328.9,147.163c79.147-23.6,78.567,35.653,236.833,36.361S868.451,0,868.451,0" transform="translate(779.896 307.327) rotate(133)" fill="none" stroke="rgba(255,255,255,0.19)" stroke-width="4" stroke-dasharray="40 49" opacity="0.449"/>
    <path id="Path_555" data-name="Path 555" d="M0,130.977c.43,1.263,51.98,51.351,92.36,21.525,26.163-19.325,86.379-47.507,117.667-59.587,50.541-14.9,50.17,22.51,151.235,22.957S554.567,0,554.567,0" transform="matrix(-0.174, 0.985, -0.985, -0.174, 678.133, 119.541)" fill="none" stroke="#392b37" stroke-width="4" stroke-dasharray="40 49" opacity="0.449"/>
    <path id="Path_556" data-name="Path 556" d="M0,130.977c.43,1.263,51.98,51.351,92.36,21.525,26.163-19.325,86.379-47.507,117.667-59.587,50.541-14.9,50.17,22.51,151.235,22.957S554.567,0,554.567,0" transform="matrix(0.799, 0.602, -0.602, 0.799, 279.633, 0)" fill="none" stroke="rgba(232,232,232,0.63)" stroke-width="4" stroke-dasharray="40 49" opacity="0.449"/>
    <path id="Path_557" data-name="Path 557" d="M0,130.977c.743,1.263,89.863,51.351,159.673,21.525C204.9,133.177,309,104.994,363.1,92.915c87.375-14.9,86.735,22.51,261.455,22.957S958.737,0,958.737,0" transform="matrix(0.391, 0.921, -0.921, 0.391, 282.25, 30.666)" fill="none" stroke="#392b37" stroke-width="4" stroke-dasharray="40 49" opacity="0.449"/>
  </g>
</svg>
