<svg xmlns="http://www.w3.org/2000/svg" viewBox="0 0 153.97 154.02"><defs><style>.cls-1{font-size:22px;fill:#46be85;font-family:Lato-Black, Lato;font-weight:800;}</style></defs><g id="Layer_2" data-name="Layer 2"><g id="Layer_1-2" data-name="Layer 1"><text class="cls-1" transform="translate(76.57 18.49) rotate(7.2)">G</text><text class="cls-1" transform="translate(92.08 20.51) rotate(22.16)">R</text><text class="cls-1" transform="matrix(0.8, 0.61, -0.61, 0.8, 105.67, 25.93)">A</text><text class="cls-1" transform="translate(117.27 34.76) rotate(50.08)">T</text><text class="cls-1" transform="translate(125.64 45.22) rotate(60.25)">I</text><text class="cls-1" transform="translate(129.45 51.51) rotate(69.93)">S</text><text class="cls-1" transform="translate(133.36 63.11) rotate(78.3)"> </text><text class="cls-1" transform="translate(134.78 67.48) rotate(88.62)">A</text><text class="cls-1" transform="translate(135.2 83.65) rotate(104.47)">D</text><text class="cls-1" transform="matrix(-0.5, 0.87, -0.87, -0.5, 131.37, 98.81)">V</text><text class="cls-1" transform="matrix(-0.66, 0.75, -0.75, -0.66, 122.83, 112.74)">I</text><text class="cls-1" transform="translate(118.13 118.37) rotate(141.24)">E</text><text class="cls-1" transform="matrix(-0.89, 0.45, -0.45, -0.89, 108.3, 126.21)">S</text><text class="cls-1" transform="translate(97.19 131.44) rotate(161.75)"> </text><text class="cls-1" transform="matrix(-0.98, 0.22, -0.22, -0.98, 92.67, 132.96)">·</text><text class="cls-1" transform="translate(86.04 134.35) rotate(173.21)"> </text><text class="cls-1" transform="translate(81.55 135.35) rotate(-176.83)">G</text><text class="cls-1" transform="matrix(-0.95, -0.31, 0.31, -0.95, 65.94, 134.43)">R</text><text class="cls-1" transform="translate(52 129.99) rotate(-146.73)">A</text><text class="cls-1" transform="translate(39.81 122.01) rotate(-133.95)">T</text><text class="cls-1" transform="matrix(-0.56, -0.83, 0.83, -0.56, 30.71, 112.15)">I</text><text class="cls-1" transform="translate(26.49 106.16) rotate(-114.15)">S</text><text class="cls-1" transform="translate(21.75 94.85) rotate(-105.77)"> </text><text class="cls-1" transform="matrix(-0.09, -1, 1, -0.09, 20.02, 90.6)">A</text><text class="cls-1" transform="translate(18.48 74.5) rotate(-79.6)">D</text><text class="cls-1" transform="translate(21.22 59.11) rotate(-64.21)">V</text><text class="cls-1" transform="matrix(0.61, -0.79, 0.79, 0.61, 28.76, 44.6)">I</text><text class="cls-1" transform="translate(33.05 38.65) rotate(-42.78)">E</text><text class="cls-1" transform="translate(42.32 30.13) rotate(-30.68)">S</text><text class="cls-1" transform="matrix(0.92, -0.38, 0.38, 0.92, 53.01, 24.15)"> </text><text class="cls-1" transform="translate(57.43 22.3) rotate(-16.57)">·</text><text class="cls-1" transform="translate(63.93 20.45) rotate(-10.85)"> </text></g></g></svg>