<svg xmlns="http://www.w3.org/2000/svg" width="124.061" height="123.758" viewBox="0 0 124.061 123.758"><defs><style>.a{fill:#65b888;}</style></defs><g transform="translate(0)"><path class="a" d="M294.67,1962.739a9.171,9.171,0,0,0,1.165.08,6.178,6.178,0,0,0,1-.076,6,6,0,0,0,.893-.21q.427-.138.865-.319L299,1958.9l-2.368-.3a.214.214,0,0,1-.152-.08.186.186,0,0,1-.051-.148l.062-.487,3.4.425-.544,4.377a7.983,7.983,0,0,1-1.031.456,6.407,6.407,0,0,1-1.115.29,8.649,8.649,0,0,1-1.251.109,10.65,10.65,0,0,1-1.438-.088,6.466,6.466,0,0,1-2.376-.75,5.4,5.4,0,0,1-1.729-1.507,5.749,5.749,0,0,1-.976-2.142,8,8,0,0,1,.647-5.182,5.685,5.685,0,0,1,1.481-1.83,5.485,5.485,0,0,1,2.1-1.027,7.043,7.043,0,0,1,2.619-.131,8.622,8.622,0,0,1,1.29.259,6.012,6.012,0,0,1,1.074.421,5.283,5.283,0,0,1,.9.581,6.368,6.368,0,0,1,.776.737l-.285.355a.241.241,0,0,1-.234.1.3.3,0,0,1-.142-.052,1.819,1.819,0,0,1-.349-.291,4.288,4.288,0,0,0-.62-.486,5.965,5.965,0,0,0-1.011-.5,6.276,6.276,0,0,0-1.52-.357,5.848,5.848,0,0,0-2.214.113,4.638,4.638,0,0,0-1.787.891,4.88,4.88,0,0,0-1.269,1.609,6.807,6.807,0,0,0-.657,2.259,6.9,6.9,0,0,0,.082,2.39,5.039,5.039,0,0,0,.828,1.882,4.529,4.529,0,0,0,1.483,1.3A5.5,5.5,0,0,0,294.67,1962.739Z" transform="translate(-225.782 -1950.822)"/><path class="a" d="M299.46,1958.957l-2.12,5.2-.828-.339,4.693-11.488,2.929,1.2a5.183,5.183,0,0,1,2.658,1.982,2.9,2.9,0,0,1,.062,2.654,3.281,3.281,0,0,1-.719,1.109,3.015,3.015,0,0,1-1.043.686,3.785,3.785,0,0,1-1.3.256,4.967,4.967,0,0,1-1.5-.209,1.474,1.474,0,0,1,.216.468l1.924,6.583-.721-.3a.484.484,0,0,1-.2-.14.611.611,0,0,1-.117-.236l-1.775-6.163a.866.866,0,0,0-.193-.372,1.369,1.369,0,0,0-.462-.275Zm.253-.617,2,.814a5.052,5.052,0,0,0,1.442.376,3.2,3.2,0,0,0,1.237-.1,2.475,2.475,0,0,0,.973-.559,2.806,2.806,0,0,0,.661-.99,2.285,2.285,0,0,0-.062-2.148,4.2,4.2,0,0,0-2.1-1.547l-2.1-.859Z" transform="translate(-218.899 -1949.396)"/><path class="a" d="M310.2,1970.2l-.557-.409a.306.306,0,0,1-.123-.172.427.427,0,0,1,0-.21l.951-3.771-4.913-3.608-3.307,2.044a.364.364,0,0,1-.2.061.329.329,0,0,1-.212-.066l-.55-.405,11.436-7,.719.53Zm-4.026-8.546,4.482,3.288,1.666-6.554c.025-.1.06-.219.1-.345s.088-.257.137-.393c-.115.09-.228.172-.335.25s-.209.144-.3.2Z" transform="translate(-214.366 -1945.282)"/><path class="a" d="M320.3,1966.844l-.573.5-2.877-3.272-8.747,7.69-.59-.673,8.745-7.688-2.894-3.3.573-.5Z" transform="translate(-208.463 -1942.487)"/><path class="a" d="M310.712,1973.063l-.464-.774,10.633-6.395.466.774Z" transform="translate(-205.865 -1936.52)"/><path class="a" d="M323.891,1975.58a.251.251,0,0,1-.222-.158.521.521,0,0,1,.045-.335,3.759,3.759,0,0,0,.158-.584,3.858,3.858,0,0,0,.06-.85,3.922,3.922,0,0,0-.869-2.163,2.5,2.5,0,0,0-.8-.612,2.233,2.233,0,0,0-.912-.213,2.441,2.441,0,0,0-.924.164,1.925,1.925,0,0,0-.875.63,2.42,2.42,0,0,0-.4.914,4.483,4.483,0,0,0-.092,1.1q.018.59.053,1.21t.018,1.222a4.175,4.175,0,0,1-.181,1.14,2.686,2.686,0,0,1-.549.973,2.762,2.762,0,0,1-1.091.711,4,4,0,0,1-1.466.285,3.436,3.436,0,0,1-1.4-.291,3.608,3.608,0,0,1-1.2-.869,4.451,4.451,0,0,1-.885-1.464,4.75,4.75,0,0,1-.362-2.126,4.956,4.956,0,0,1,.544-1.878l.45.089a.309.309,0,0,1,.211.182.349.349,0,0,1-.023.226c-.037.1-.08.226-.134.375s-.1.316-.158.513a3.7,3.7,0,0,0-.1.653,4.24,4.24,0,0,0,.029.787,4.126,4.126,0,0,0,.25.932,3.634,3.634,0,0,0,.688,1.148,2.853,2.853,0,0,0,.922.69,2.558,2.558,0,0,0,1.076.236,3.023,3.023,0,0,0,1.134-.214,2,2,0,0,0,.912-.641,2.345,2.345,0,0,0,.407-.918,4.65,4.65,0,0,0,.084-1.1q-.023-.591-.064-1.2t-.031-1.218a3.887,3.887,0,0,1,.181-1.14,2.633,2.633,0,0,1,.569-.981,2.879,2.879,0,0,1,1.142-.731,3.163,3.163,0,0,1,1.2-.216,2.987,2.987,0,0,1,1.2.277,3.482,3.482,0,0,1,1.072.793,4.2,4.2,0,0,1,.8,1.333,4.691,4.691,0,0,1,.343,1.729,4.159,4.159,0,0,1-.368,1.643Z" transform="translate(-204.215 -1932.763)"/><path class="a" d="M314.352,1989.52l-.033-.694a.3.3,0,0,1,.057-.2.429.429,0,0,1,.164-.133l3.535-1.627-.281-6.088-3.668-1.291a.369.369,0,0,1-.172-.115.331.331,0,0,1-.08-.207l-.031-.684,12.629,4.5.043.894Zm4.12-8.5.255,5.556,6.149-2.82c.1-.047.206-.092.331-.138s.255-.1.392-.142c-.14-.036-.277-.069-.4-.1s-.246-.072-.353-.1Z" transform="translate(-202.454 -1924.578)"/><path class="a" d="M318.285,1997.195a7.342,7.342,0,0,1-2.432-.982,5.6,5.6,0,0,1-1.647-1.606,5.246,5.246,0,0,1-.8-2.093,6.513,6.513,0,0,1,.105-2.448l.984-4.416,12.112,2.7-.984,4.416a6.507,6.507,0,0,1-.943,2.261,5.243,5.243,0,0,1-1.614,1.555,5.572,5.572,0,0,1-2.171.756A7.322,7.322,0,0,1,318.285,1997.195Zm.2-.908a6.976,6.976,0,0,0,2.337.155,4.873,4.873,0,0,0,1.9-.618,4.279,4.279,0,0,0,1.388-1.3,5.409,5.409,0,0,0,.8-1.914l.789-3.535-10.694-2.379-.787,3.535a5.448,5.448,0,0,0-.084,2.073,4.339,4.339,0,0,0,.7,1.769,4.845,4.845,0,0,0,1.458,1.362A6.959,6.959,0,0,0,318.488,1996.286Z" transform="translate(-202.936 -1917.775)"/><path class="a" d="M324.788,1995.246l-.329.629a.3.3,0,0,1-.15.148.436.436,0,0,1-.211.031l-11.083-1a5.267,5.267,0,0,1-.889-.153,4.636,4.636,0,0,1,.645.621l7.189,8.492a.45.45,0,0,1,.09.191.3.3,0,0,1-.033.215l-.324.622-8.647-10.267.366-.709Z" transform="translate(-205.107 -1909.79)"/><path class="a" d="M308.371,1998.828l.559-.707,9.735,7.7-.561.709Z" transform="translate(-207.646 -1905.942)"/><path class="a" d="M311.947,2014.755l-.491-.559,4.907-4.315-3.315-3.767-4.081,3.59-.481-.546,4.083-3.591-3.416-3.884-4.907,4.313-.491-.559,5.583-4.911,8.2,9.321Z" transform="translate(-212.027 -1903.661)"/><path class="a" d="M304.215,2016.384a.245.245,0,0,1,.129-.24.49.49,0,0,1,.337,0,3.744,3.744,0,0,0,.6.08,3.859,3.859,0,0,0,.852-.055,3.84,3.84,0,0,0,2.029-1.148,2.5,2.5,0,0,0,.5-.877,2.251,2.251,0,0,0,.09-.93,2.4,2.4,0,0,0-.288-.892,1.865,1.865,0,0,0-.739-.787,2.383,2.383,0,0,0-.957-.271,4.5,4.5,0,0,0-1.107.055c-.392.063-.787.132-1.193.21s-.809.137-1.21.181a4.2,4.2,0,0,1-1.154-.029,2.712,2.712,0,0,1-1.037-.415,2.741,2.741,0,0,1-.85-.99,4,4,0,0,1-.474-1.415,3.419,3.419,0,0,1,.1-1.423,3.7,3.7,0,0,1,.705-1.3,4.5,4.5,0,0,1,1.331-1.07,4.785,4.785,0,0,1,2.062-.641,4.979,4.979,0,0,1,1.933.293l-.029.456a.306.306,0,0,1-.152.234.339.339,0,0,1-.228.006c-.105-.024-.234-.051-.386-.082s-.328-.062-.53-.089a3.5,3.5,0,0,0-.661-.016,3.946,3.946,0,0,0-.778.133,4.118,4.118,0,0,0-.891.37,3.673,3.673,0,0,0-1.045.832,2.854,2.854,0,0,0-.563,1.006,2.573,2.573,0,0,0-.094,1.1,3.032,3.032,0,0,0,.364,1.1,2,2,0,0,0,.756.819,2.358,2.358,0,0,0,.963.282,4.6,4.6,0,0,0,1.105-.064q.579-.1,1.185-.222t1.2-.191a3.929,3.929,0,0,1,1.154.027,2.664,2.664,0,0,1,1.047.436,2.9,2.9,0,0,1,.877,1.033,3.149,3.149,0,0,1,.372,1.167,2.993,2.993,0,0,1-.115,1.229,3.36,3.36,0,0,1-.645,1.165,4.044,4.044,0,0,1-1.214.975,4.658,4.658,0,0,1-1.666.569,4.174,4.174,0,0,1-1.68-.146Z" transform="translate(-215.863 -1899.969)"/><path class="a" d="M298.017,2010.205l-3.97.929-.162-.692,3.97-.93Z" transform="translate(-221.391 -1895.132)"/><path class="a" d="M288.675,2008.566a9.2,9.2,0,0,0-1.169-.023,5.975,5.975,0,0,0-.99.119,5.843,5.843,0,0,0-.881.251c-.283.106-.565.224-.852.361l-.261,3.33,2.378.185a.235.235,0,0,1,.158.074.19.19,0,0,1,.055.148l-.039.489-3.418-.269.345-4.4a8.011,8.011,0,0,1,1.008-.5,6.239,6.239,0,0,1,1.1-.341,8.615,8.615,0,0,1,1.245-.168,10.855,10.855,0,0,1,1.44.021,6.427,6.427,0,0,1,2.409.643,5.443,5.443,0,0,1,1.8,1.424,5.785,5.785,0,0,1,1.072,2.1,7.4,7.4,0,0,1,.232,2.639,7.3,7.3,0,0,1-.641,2.567,5.682,5.682,0,0,1-1.4,1.9,5.474,5.474,0,0,1-2.054,1.124,7.039,7.039,0,0,1-2.61.248,8.254,8.254,0,0,1-1.3-.2,6.135,6.135,0,0,1-1.093-.37,5.44,5.44,0,0,1-.924-.54,6.173,6.173,0,0,1-.807-.7l.265-.366a.242.242,0,0,1,.23-.113.34.34,0,0,1,.146.045,1.9,1.9,0,0,1,.359.276,4.182,4.182,0,0,0,.643.454,5.815,5.815,0,0,0,1.033.46,6.234,6.234,0,0,0,1.534.286,5.931,5.931,0,0,0,2.208-.213,4.66,4.66,0,0,0,1.742-.973,4.874,4.874,0,0,0,1.195-1.666,6.791,6.791,0,0,0,.555-2.288,6.89,6.89,0,0,0-.193-2.38,5.032,5.032,0,0,0-.916-1.845,4.532,4.532,0,0,0-1.54-1.234A5.551,5.551,0,0,0,288.675,2008.566Z" transform="translate(-231.269 -1896.749)"/><path class="a" d="M283.9,2013.509l1.881-5.289.842.3-4.157,11.693-2.984-1.062a5.172,5.172,0,0,1-2.746-1.856,2.906,2.906,0,0,1-.185-2.648,3.326,3.326,0,0,1,.666-1.14,3.068,3.068,0,0,1,1.012-.735,3.76,3.76,0,0,1,1.288-.314,4.877,4.877,0,0,1,1.5.14,1.517,1.517,0,0,1-.238-.458l-2.224-6.489.735.263a.5.5,0,0,1,.208.13.63.63,0,0,1,.127.233l2.056,6.072a.881.881,0,0,0,.212.363,1.29,1.29,0,0,0,.474.253Zm-.222.628-2.033-.723a5.079,5.079,0,0,0-1.46-.31,3.146,3.146,0,0,0-1.23.164,2.428,2.428,0,0,0-.947.6,2.824,2.824,0,0,0-.614,1.021,2.284,2.284,0,0,0,.16,2.14,4.221,4.221,0,0,0,2.165,1.45l2.14.762Z" transform="translate(-238.054 -1898.799)"/><path class="a" d="M273.314,2002.17l.577.384a.333.333,0,0,1,.133.166.512.512,0,0,1,.008.212l-.78,3.812,5.073,3.377,3.21-2.194a.389.389,0,0,1,.195-.07.316.316,0,0,1,.212.058l.569.378-11.1,7.515-.744-.495Zm4.414,8.355-4.627-3.081-1.366,6.622c-.021.107-.051.224-.086.35s-.074.261-.119.4c.113-.094.22-.183.324-.265s.2-.154.294-.22Z" transform="translate(-243.425 -1902.099)"/><path class="a" d="M263.816,2005.469l.551-.53,3.021,3.139,8.394-8.072.62.644-8.392,8.074,3.038,3.161-.55.528Z" transform="translate(-249.923 -1904.152)"/><path class="a" d="M272.152,1996.407l.5.752-10.335,6.87-.5-.75Z" transform="translate(-251.819 -1907.568)"/><path class="a" d="M259.746,1995.4a.244.244,0,0,1,.228.148.5.5,0,0,1-.029.335,3.774,3.774,0,0,0-.131.593,3.841,3.841,0,0,0-.021.849,3.407,3.407,0,0,0,.308,1.109,3.449,3.449,0,0,0,.661,1.013,2.508,2.508,0,0,0,.83.575,2.239,2.239,0,0,0,.92.17,2.4,2.4,0,0,0,.916-.208,1.894,1.894,0,0,0,.844-.667,2.454,2.454,0,0,0,.357-.932,4.6,4.6,0,0,0,.039-1.107c-.027-.394-.064-.8-.105-1.207s-.068-.817-.076-1.22a4.165,4.165,0,0,1,.131-1.148,2.672,2.672,0,0,1,.5-1,2.749,2.749,0,0,1,1.058-.764,4.028,4.028,0,0,1,1.452-.349,3.405,3.405,0,0,1,1.407.226,3.623,3.623,0,0,1,1.24.813,4.452,4.452,0,0,1,.949,1.419,4.744,4.744,0,0,1,.46,2.108,4.964,4.964,0,0,1-.458,1.9l-.452-.069a.3.3,0,0,1-.218-.171.332.332,0,0,1,.014-.226c.029-.1.07-.23.115-.38s.092-.322.134-.518a3.573,3.573,0,0,0,.074-.659,3.968,3.968,0,0,0-.068-.786,3.9,3.9,0,0,0-.29-.918,3.611,3.611,0,0,0-.739-1.115,2.8,2.8,0,0,0-.953-.647,2.556,2.556,0,0,0-1.086-.189,3.045,3.045,0,0,0-1.123.269,2.005,2.005,0,0,0-.883.682,2.336,2.336,0,0,0-.362.936,4.562,4.562,0,0,0-.033,1.1c.031.391.072.793.119,1.2s.076.813.088,1.214a3.9,3.9,0,0,1-.131,1.148,2.677,2.677,0,0,1-.524,1.008,2.915,2.915,0,0,1-1.1.781,3.146,3.146,0,0,1-1.195.271,3.006,3.006,0,0,1-1.214-.22,3.407,3.407,0,0,1-1.107-.745,4.12,4.12,0,0,1-.865-1.294,4.655,4.655,0,0,1-.423-1.71,4.2,4.2,0,0,1,.29-1.66Z" transform="translate(-254.495 -1912.133)"/><path class="a" d="M268.639,1982.042l.062.689a.3.3,0,0,1-.049.207.4.4,0,0,1-.158.137l-3.455,1.789.559,6.069,3.722,1.121a.353.353,0,0,1,.177.107.336.336,0,0,1,.09.2l.062.68-12.824-3.917-.082-.891Zm-3.728,8.682-.511-5.537-6.012,3.1c-.1.049-.2.1-.324.152s-.251.108-.386.16c.142.027.279.057.407.086s.25.058.357.089Z" transform="translate(-256.632 -1921.198)"/><path class="a" d="M264.6,1974.736a7.371,7.371,0,0,1,2.475.87,5.593,5.593,0,0,1,1.715,1.53,5.221,5.221,0,0,1,.895,2.054,6.418,6.418,0,0,1,.008,2.449l-.782,4.457-12.221-2.143.781-4.457a6.477,6.477,0,0,1,.84-2.3,5.207,5.207,0,0,1,1.54-1.627,5.592,5.592,0,0,1,2.134-.855A7.3,7.3,0,0,1,264.6,1974.736Zm-.162.916a6.863,6.863,0,0,0-2.343-.046,4.86,4.86,0,0,0-1.867.7,4.3,4.3,0,0,0-1.327,1.366,5.442,5.442,0,0,0-.715,1.949l-.624,3.566,10.787,1.891.626-3.567a5.414,5.414,0,0,0-.01-2.075,4.289,4.289,0,0,0-.782-1.737,4.843,4.843,0,0,0-1.518-1.294A6.97,6.97,0,0,0,264.436,1975.652Z" transform="translate(-256.687 -1928.254)"/><path class="a" d="M258.381,1976.564l.3-.645a.312.312,0,0,1,.144-.155.439.439,0,0,1,.208-.039l11.118.492a5.761,5.761,0,0,1,.895.113,4.84,4.84,0,0,1-.674-.59l-7.569-8.156a.441.441,0,0,1-.1-.185.314.314,0,0,1,.021-.217l.3-.635,9.107,9.862-.335.724Z" transform="translate(-255.08 -1935.901)"/><path class="a" d="M273.09,1970.958l-.53.733-10.07-7.252.528-.733Z" transform="translate(-251.181 -1938.597)"/><path class="a" d="M270.494,1958.1l.516.536-4.7,4.537,3.483,3.611,3.913-3.777.5.524-3.913,3.775,3.594,3.724,4.7-4.537.518.536-5.352,5.165-8.616-8.93Z" transform="translate(-248.664 -1943.911)"/><path class="a" d="M276.215,1955.389a.242.242,0,0,1-.117.245.5.5,0,0,1-.335.017,4.005,4.005,0,0,0-.6-.05,3.82,3.82,0,0,0-.848.093,3.845,3.845,0,0,0-1.972,1.24,2.5,2.5,0,0,0-.46.9,2.2,2.2,0,0,0-.045.935,2.381,2.381,0,0,0,.327.879,1.9,1.9,0,0,0,.774.748,2.419,2.419,0,0,0,.969.228,4.573,4.573,0,0,0,1.107-.107c.384-.082.778-.172,1.179-.265s.8-.175,1.2-.24a4.23,4.23,0,0,1,1.156-.023,2.552,2.552,0,0,1,1.951,1.316,4.024,4.024,0,0,1,.54,1.389,3.448,3.448,0,0,1-.035,1.427,3.649,3.649,0,0,1-.641,1.335,4.438,4.438,0,0,1-1.282,1.13,4.762,4.762,0,0,1-2.029.737,4.973,4.973,0,0,1-1.945-.2l.008-.458a.314.314,0,0,1,.142-.241.361.361,0,0,1,.226-.016c.105.016.238.039.39.064s.331.047.534.064a3.4,3.4,0,0,0,.661-.016,4.078,4.078,0,0,0,.772-.169,3.983,3.983,0,0,0,.871-.411,3.636,3.636,0,0,0,1.005-.881,2.84,2.84,0,0,0,.515-1.031,2.577,2.577,0,0,0,.043-1.1,3.067,3.067,0,0,0-.415-1.078,2.012,2.012,0,0,0-.8-.785,2.311,2.311,0,0,0-.974-.234,4.577,4.577,0,0,0-1.1.113c-.382.086-.774.179-1.171.281s-.8.181-1.195.246a3.914,3.914,0,0,1-1.154.025,2.692,2.692,0,0,1-1.066-.384,2.941,2.941,0,0,1-.924-.994,3.181,3.181,0,0,1-.427-1.148,3,3,0,0,1,.059-1.234,3.417,3.417,0,0,1,.588-1.194,4.155,4.155,0,0,1,1.168-1.031,4.644,4.644,0,0,1,1.639-.646,4.159,4.159,0,0,1,1.684.068Z" transform="translate(-243.098 -1947.036)"/><path class="a" d="M279.733,1956.051l3.923-1.115.195.682-3.923,1.115Z" transform="translate(-234.819 -1946.918)"/></g></svg>