<svg xmlns="http://www.w3.org/2000/svg" xmlns:xlink="http://www.w3.org/1999/xlink" width="107.088" height="101.392" viewBox="0 0 107.088 101.392">
  <defs>
    <clipPath id="clip-path">
      <rect width="107.088" height="101.392" fill="none"/>
    </clipPath>
  </defs>
  <g id="Repeat_Grid_14" data-name="Repeat Grid 14" clip-path="url(#clip-path)">
    <g transform="translate(-648 -1281)">
      <circle id="Ellipse_5" data-name="Ellipse 5" cx="2.5" cy="2.5" r="2.5" transform="translate(648 1281)" fill="rgba(255,255,255,0.1)"/>
    </g>
    <g transform="translate(-630 -1281)">
      <circle id="Ellipse_5-2" data-name="Ellipse 5" cx="2.5" cy="2.5" r="2.5" transform="translate(648 1281)" fill="rgba(255,255,255,0.1)"/>
    </g>
    <g transform="translate(-612 -1281)">
      <circle id="Ellipse_5-3" data-name="Ellipse 5" cx="2.5" cy="2.5" r="2.5" transform="translate(648 1281)" fill="rgba(255,255,255,0.1)"/>
    </g>
    <g transform="translate(-594 -1281)">
      <circle id="Ellipse_5-4" data-name="Ellipse 5" cx="2.5" cy="2.5" r="2.5" transform="translate(648 1281)" fill="rgba(255,255,255,0.1)"/>
    </g>
    <g transform="translate(-576 -1281)">
      <circle id="Ellipse_5-5" data-name="Ellipse 5" cx="2.5" cy="2.5" r="2.5" transform="translate(648 1281)" fill="rgba(255,255,255,0.1)"/>
    </g>
    <g transform="translate(-558 -1281)">
      <circle id="Ellipse_5-6" data-name="Ellipse 5" cx="2.5" cy="2.5" r="2.5" transform="translate(648 1281)" fill="rgba(255,255,255,0.1)"/>
    </g>
    <g transform="translate(-648 -1263)">
      <circle id="Ellipse_5-7" data-name="Ellipse 5" cx="2.5" cy="2.5" r="2.5" transform="translate(648 1281)" fill="rgba(255,255,255,0.1)"/>
    </g>
    <g transform="translate(-630 -1263)">
      <circle id="Ellipse_5-8" data-name="Ellipse 5" cx="2.5" cy="2.5" r="2.5" transform="translate(648 1281)" fill="rgba(255,255,255,0.1)"/>
    </g>
    <g transform="translate(-612 -1263)">
      <circle id="Ellipse_5-9" data-name="Ellipse 5" cx="2.5" cy="2.5" r="2.5" transform="translate(648 1281)" fill="rgba(255,255,255,0.1)"/>
    </g>
    <g transform="translate(-594 -1263)">
      <circle id="Ellipse_5-10" data-name="Ellipse 5" cx="2.5" cy="2.5" r="2.5" transform="translate(648 1281)" fill="rgba(255,255,255,0.1)"/>
    </g>
    <g transform="translate(-576 -1263)">
      <circle id="Ellipse_5-11" data-name="Ellipse 5" cx="2.5" cy="2.5" r="2.5" transform="translate(648 1281)" fill="rgba(255,255,255,0.1)"/>
    </g>
    <g transform="translate(-558 -1263)">
      <circle id="Ellipse_5-12" data-name="Ellipse 5" cx="2.5" cy="2.5" r="2.5" transform="translate(648 1281)" fill="rgba(255,255,255,0.1)"/>
    </g>
    <g transform="translate(-648 -1245)">
      <circle id="Ellipse_5-13" data-name="Ellipse 5" cx="2.5" cy="2.5" r="2.5" transform="translate(648 1281)" fill="rgba(255,255,255,0.1)"/>
    </g>
    <g transform="translate(-630 -1245)">
      <circle id="Ellipse_5-14" data-name="Ellipse 5" cx="2.5" cy="2.5" r="2.5" transform="translate(648 1281)" fill="rgba(255,255,255,0.1)"/>
    </g>
    <g transform="translate(-612 -1245)">
      <circle id="Ellipse_5-15" data-name="Ellipse 5" cx="2.5" cy="2.5" r="2.5" transform="translate(648 1281)" fill="rgba(255,255,255,0.1)"/>
    </g>
    <g transform="translate(-594 -1245)">
      <circle id="Ellipse_5-16" data-name="Ellipse 5" cx="2.5" cy="2.5" r="2.5" transform="translate(648 1281)" fill="rgba(255,255,255,0.1)"/>
    </g>
    <g transform="translate(-576 -1245)">
      <circle id="Ellipse_5-17" data-name="Ellipse 5" cx="2.5" cy="2.5" r="2.5" transform="translate(648 1281)" fill="rgba(255,255,255,0.1)"/>
    </g>
    <g transform="translate(-558 -1245)">
      <circle id="Ellipse_5-18" data-name="Ellipse 5" cx="2.5" cy="2.5" r="2.5" transform="translate(648 1281)" fill="rgba(255,255,255,0.1)"/>
    </g>
    <g transform="translate(-648 -1227)">
      <circle id="Ellipse_5-19" data-name="Ellipse 5" cx="2.5" cy="2.5" r="2.5" transform="translate(648 1281)" fill="rgba(255,255,255,0.1)"/>
    </g>
    <g transform="translate(-630 -1227)">
      <circle id="Ellipse_5-20" data-name="Ellipse 5" cx="2.5" cy="2.5" r="2.5" transform="translate(648 1281)" fill="rgba(255,255,255,0.1)"/>
    </g>
    <g transform="translate(-612 -1227)">
      <circle id="Ellipse_5-21" data-name="Ellipse 5" cx="2.5" cy="2.5" r="2.5" transform="translate(648 1281)" fill="rgba(255,255,255,0.1)"/>
    </g>
    <g transform="translate(-594 -1227)">
      <circle id="Ellipse_5-22" data-name="Ellipse 5" cx="2.5" cy="2.5" r="2.5" transform="translate(648 1281)" fill="rgba(255,255,255,0.1)"/>
    </g>
    <g transform="translate(-576 -1227)">
      <circle id="Ellipse_5-23" data-name="Ellipse 5" cx="2.5" cy="2.5" r="2.5" transform="translate(648 1281)" fill="rgba(255,255,255,0.1)"/>
    </g>
    <g transform="translate(-558 -1227)">
      <circle id="Ellipse_5-24" data-name="Ellipse 5" cx="2.5" cy="2.5" r="2.5" transform="translate(648 1281)" fill="rgba(255,255,255,0.1)"/>
    </g>
    <g transform="translate(-648 -1209)">
      <circle id="Ellipse_5-25" data-name="Ellipse 5" cx="2.5" cy="2.5" r="2.5" transform="translate(648 1281)" fill="rgba(255,255,255,0.1)"/>
    </g>
    <g transform="translate(-630 -1209)">
      <circle id="Ellipse_5-26" data-name="Ellipse 5" cx="2.5" cy="2.5" r="2.5" transform="translate(648 1281)" fill="rgba(255,255,255,0.1)"/>
    </g>
    <g transform="translate(-612 -1209)">
      <circle id="Ellipse_5-27" data-name="Ellipse 5" cx="2.5" cy="2.5" r="2.5" transform="translate(648 1281)" fill="rgba(255,255,255,0.1)"/>
    </g>
    <g transform="translate(-594 -1209)">
      <circle id="Ellipse_5-28" data-name="Ellipse 5" cx="2.5" cy="2.5" r="2.5" transform="translate(648 1281)" fill="rgba(255,255,255,0.1)"/>
    </g>
    <g transform="translate(-576 -1209)">
      <circle id="Ellipse_5-29" data-name="Ellipse 5" cx="2.5" cy="2.5" r="2.5" transform="translate(648 1281)" fill="rgba(255,255,255,0.1)"/>
    </g>
    <g transform="translate(-558 -1209)">
      <circle id="Ellipse_5-30" data-name="Ellipse 5" cx="2.5" cy="2.5" r="2.5" transform="translate(648 1281)" fill="rgba(255,255,255,0.1)"/>
    </g>
    <g transform="translate(-648 -1191)">
      <circle id="Ellipse_5-31" data-name="Ellipse 5" cx="2.5" cy="2.5" r="2.5" transform="translate(648 1281)" fill="rgba(255,255,255,0.1)"/>
    </g>
    <g transform="translate(-630 -1191)">
      <circle id="Ellipse_5-32" data-name="Ellipse 5" cx="2.5" cy="2.5" r="2.5" transform="translate(648 1281)" fill="rgba(255,255,255,0.1)"/>
    </g>
    <g transform="translate(-612 -1191)">
      <circle id="Ellipse_5-33" data-name="Ellipse 5" cx="2.5" cy="2.5" r="2.5" transform="translate(648 1281)" fill="rgba(255,255,255,0.1)"/>
    </g>
    <g transform="translate(-594 -1191)">
      <circle id="Ellipse_5-34" data-name="Ellipse 5" cx="2.5" cy="2.5" r="2.5" transform="translate(648 1281)" fill="rgba(255,255,255,0.1)"/>
    </g>
    <g transform="translate(-576 -1191)">
      <circle id="Ellipse_5-35" data-name="Ellipse 5" cx="2.5" cy="2.5" r="2.5" transform="translate(648 1281)" fill="rgba(255,255,255,0.1)"/>
    </g>
    <g transform="translate(-558 -1191)">
      <circle id="Ellipse_5-36" data-name="Ellipse 5" cx="2.5" cy="2.5" r="2.5" transform="translate(648 1281)" fill="rgba(255,255,255,0.1)"/>
    </g>
  </g>
</svg>
