<svg xmlns="http://www.w3.org/2000/svg" viewBox="0 0 57.5 57.5"><defs><style>.cls-1{fill:#23be87;}.cls-2{fill:none;stroke:#23be87;stroke-miterlimit:10;stroke-width:0.5px;}</style></defs><title>Asset 74</title><g id="Layer_2" data-name="Layer 2"><g id="Layer_4" data-name="Layer 4"><path class="cls-1" d="M29,20.79a8.12,8.12,0,1,0,8.12,8.12A8.11,8.11,0,0,0,29,20.79Zm0,13.4a5.28,5.28,0,1,1,5.28-5.28A5.29,5.29,0,0,1,29,34.19ZM39.37,20.46a1.9,1.9,0,1,1-1.9-1.89A1.89,1.89,0,0,1,39.37,20.46Zm5.38,1.92a9.39,9.39,0,0,0-2.56-6.64,9.4,9.4,0,0,0-6.64-2.55c-2.61-.15-10.45-.15-13.07,0a9.44,9.44,0,0,0-6.64,2.55,9.4,9.4,0,0,0-2.55,6.63c-.15,2.62-.15,10.46,0,13.07a9.4,9.4,0,0,0,2.55,6.64,9.47,9.47,0,0,0,6.64,2.56c2.62.15,10.46.15,13.07,0a9.37,9.37,0,0,0,6.64-2.56,9.46,9.46,0,0,0,2.56-6.64c.14-2.61.14-10.44,0-13.06ZM41.37,38.25a5.37,5.37,0,0,1-3,3c-2.09.83-7,.64-9.34.64s-7.26.18-9.34-.64a5.37,5.37,0,0,1-3-3c-.83-2.09-.63-7-.63-9.34s-.19-7.26.63-9.33a5.35,5.35,0,0,1,3-3c2.09-.82,7-.63,9.34-.63s7.26-.19,9.34.63a5.38,5.38,0,0,1,3,3c.82,2.08.63,7,.63,9.33S42.19,36.17,41.37,38.25Z"/><circle class="cls-2" cx="28.75" cy="28.75" r="28.5"/></g></g></svg>