<!-- Link icon from https://fontawesome.com/icons/link?style=solid -->
<?xml version="1.0" encoding="UTF-8" standalone="no"?>
<svg
   xmlns:dc="http://purl.org/dc/elements/1.1/"
   xmlns:cc="http://creativecommons.org/ns#"
   xmlns:rdf="http://www.w3.org/1999/02/22-rdf-syntax-ns#"
   xmlns:svg="http://www.w3.org/2000/svg"
   xmlns="http://www.w3.org/2000/svg"
   id="svg3937"
   version="1.1"
   viewBox="0 0 58.5 58.5">
  <defs
     id="defs3927">
    <style
       id="style3925">.cls-1{fill:#23be87;}.cls-2{fill:none;stroke:#23be87;stroke-miterlimit:10;stroke-width:1.5px;}</style>
  </defs>
  <title
     id="title3929">Link</title>
  <g
     data-name="Layer 2"
     id="Layer_2">
    <g
       data-name="Layer 4"
       id="Layer_4">
      <circle
         id="circle3933"
         r="28.5"
         cy="29.25"
         cx="29.25"
         class="cls-2" />
      <text
         id="text3945"
         y="36.260834"
         x="21.592564"
         style="font-style:normal;font-weight:normal;font-size:26.65069199px;line-height:1.25;font-family:sans-serif;letter-spacing:0px;word-spacing:0px;fill:#000000;fill-opacity:1;stroke:none;stroke-width:0.66626728"
         xml:space="preserve"><tspan
           style="stroke-width:0.66626728"
           y="60.490421"
           x="21.592564"
           id="tspan3943" /></text>
      <path
         id="path2"
         d="m 32.529697,25.492454 c 3.37184,3.375339 3.325564,8.786864 0.02032,12.110452 -0.0062,0.0068 -0.01354,0.01411 -0.02032,0.02088 l -3.792452,3.792452 c -3.34492,3.344921 -8.78692,3.34447 -12.131332,0 -3.34492,-3.344355 -3.34492,-8.786975 0,-12.131332 l 2.094088,-2.094088 c 0.555324,-0.555323 1.511677,-0.186236 1.540345,0.598554 0.03657,1.000146 0.215922,2.004976 0.546858,2.975325 0.112081,0.328566 0.032,0.692009 -0.213494,0.937503 l -0.738569,0.738568 c -1.581656,1.581656 -1.631263,4.157025 -0.06518,5.754143 1.581543,1.612865 4.181066,1.622459 5.774742,0.02878 L 29.33715,34.43181 c 1.590968,-1.590967 1.584308,-4.162498 0,-5.746806 -0.208867,-0.208472 -0.419258,-0.370441 -0.583597,-0.483594 a 0.90505287,0.90505287 0 0 1 -0.392054,-0.711428 c -0.02235,-0.596352 0.188945,-1.210875 0.66018,-1.68211 l 1.188189,-1.188246 c 0.311579,-0.311579 0.800365,-0.349842 1.161664,-0.09769 a 8.6053677,8.6053677 0 0 1 1.158165,0.970517 z m 7.95371,-7.954103 c -3.344413,-3.344469 -8.786412,-3.34492 -12.131332,0 l -3.792453,3.792452 c -0.0068,0.0068 -0.01411,0.01411 -0.02032,0.02088 -3.305191,3.323588 -3.351524,8.735113 0.02032,12.110451 a 8.6037869,8.6037869 0 0 0 1.158109,0.970462 c 0.361299,0.252152 0.850141,0.213832 1.161664,-0.09769 l 1.188189,-1.188246 c 0.471235,-0.471234 0.682529,-1.085758 0.66018,-1.68211 a 0.90505287,0.90505287 0 0 0 -0.392056,-0.71142 c -0.164339,-0.113153 -0.37473,-0.275122 -0.583597,-0.483594 -1.584308,-1.584309 -1.590968,-4.15584 0,-5.746807 l 3.792452,-3.791888 c 1.593676,-1.593677 4.193143,-1.584082 5.774742,0.02878 1.566079,1.597118 1.516529,4.172487 -0.06518,5.754143 l -0.738569,0.738569 c -0.245494,0.245493 -0.325576,0.608937 -0.213494,0.937503 0.330936,0.970349 0.510287,1.975179 0.546857,2.975325 0.02872,0.78479 0.985022,1.153876 1.540346,0.598553 l 2.094088,-2.094088 c 3.344977,-3.344299 3.344977,-8.786919 5.6e-5,-12.131276 z"
         style="fill:#23fe80;stroke-width:0.0564353;fill-opacity:0" />
    </g>
  </g>
  <path
     id="path2-3"
     d="m 33.497606,25.002609 c 3.594,3.597729 3.544674,9.365802 0.02166,12.908371 -0.0066,0.0072 -0.01444,0.01504 -0.02166,0.02226 l -4.042325,4.042327 c -3.565307,3.565306 -9.365863,3.564824 -12.930629,0 -3.565306,-3.564706 -3.565306,-9.365924 0,-12.930628 l 2.232063,-2.232062 c 0.59191,-0.591911 1.611275,-0.198506 1.641833,0.637989 0.03897,1.066045 0.230148,2.137079 0.582888,3.171362 0.119465,0.350213 0.03411,0.737604 -0.227561,0.999272 l -0.78723,0.78723 c -1.685866,1.685867 -1.738742,4.430918 -0.06948,6.133266 1.685746,1.719131 4.456543,1.729357 6.155221,0.03069 l 4.042327,-4.041724 c 1.69579,-1.695791 1.688692,-4.436752 0,-6.125445 -0.22263,-0.222208 -0.446883,-0.394849 -0.62205,-0.515458 a 0.96468404,0.96468404 0 0 1 -0.417885,-0.758305 c -0.02382,-0.635644 0.201396,-1.290658 0.703678,-1.792941 l 1.266475,-1.266533 c 0.332108,-0.33211 0.853099,-0.372893 1.238202,-0.104129 a 9.1723483,9.1723483 0 0 1 1.234473,1.034463 z m 8.477754,-8.478176 c -3.564766,-3.564824 -9.365322,-3.565306 -12.930628,0 l -4.042324,4.042327 c -0.0072,0.0072 -0.01504,0.01504 -0.02165,0.02226 -3.522959,3.542569 -3.572346,9.310642 0.02165,12.908371 a 9.170664,9.170664 0 0 0 1.234413,1.034402 c 0.385103,0.268767 0.906154,0.227921 1.238202,-0.104128 l 1.266475,-1.266535 c 0.502282,-0.502282 0.727498,-1.157297 0.703678,-1.792939 a 0.96468404,0.96468404 0 0 0 -0.417888,-0.758297 c -0.175168,-0.120609 -0.399421,-0.293249 -0.62205,-0.515457 -1.688693,-1.688693 -1.69579,-4.429654 0,-6.125446 l 4.042326,-4.041724 c 1.698679,-1.698678 4.469416,-1.688451 6.155221,0.03068 1.669264,1.702348 1.61645,4.4474 -0.06948,6.133267 l -0.787231,0.78723 c -0.261669,0.261668 -0.347027,0.649058 -0.22756,0.999273 0.35274,1.034282 0.543909,2.105317 0.582888,3.17136 0.03062,0.836496 1.049921,1.229902 1.641833,0.637989 l 2.232062,-2.23206 c 3.565365,-3.564646 3.565365,-9.365864 5.9e-5,-12.930568 z"
     style="fill:#23be78;fill-opacity:1;stroke-width:0.06015364" />
</svg>
