<svg xmlns="http://www.w3.org/2000/svg" viewBox="0 0 58.5 58.5"><defs><style>.cls-1{fill:#23be87;}.cls-2{fill:none;stroke:#23be87;stroke-miterlimit:10;stroke-width:1.5px;}</style></defs><title>Twitter</title><g id="Layer_2" data-name="Layer 2"><g id="Layer_4" data-name="Layer 4"><path class="cls-1" d="M44.78,23.23c0,.3,0,.61,0,.92,0,9.34-7.11,20.1-20.1,20.1a20,20,0,0,1-10.85-3.17,16,16,0,0,0,1.71.09,14.18,14.18,0,0,0,8.77-3,7.09,7.09,0,0,1-6.61-4.9,9.82,9.82,0,0,0,1.34.11,7.65,7.65,0,0,0,1.86-.24,7.07,7.07,0,0,1-5.67-6.94v-.09a7,7,0,0,0,3.19.9,7.06,7.06,0,0,1-3.15-5.88,6.94,6.94,0,0,1,1-3.57,20,20,0,0,0,14.56,7.39,8.62,8.62,0,0,1-.17-1.61,7.07,7.07,0,0,1,12.23-4.84,14,14,0,0,0,4.48-1.7,7,7,0,0,1-3.1,3.89,14.16,14.16,0,0,0,4.06-1.09,15.33,15.33,0,0,1-3.54,3.65Z"/><circle class="cls-2" cx="29.25" cy="29.25" r="28.5"/></g></g></svg>
