<svg xmlns="http://www.w3.org/2000/svg" width="76.331" height="76.331" viewBox="0 0 76.331 76.331">
  <g id="Group_370" data-name="Group 370" transform="translate(-18.708)">
    <circle id="Ellipse_49" data-name="Ellipse 49" cx="38.165" cy="38.165" r="38.165" transform="translate(18.708)" fill="#392b37"/>
    <g id="Group_277" data-name="Group 277" transform="translate(29.181 5.969)">
      <g id="Group_278" data-name="Group 278" transform="translate(0 0)">
        <g id="Group_185" data-name="Group 185" transform="translate(6.861 0)">
          <g id="Group_184" data-name="Group 184" transform="translate(0)">
            <g id="Group_179" data-name="Group 179" transform="matrix(0.695, 0.719, -0.719, 0.695, 33.413, 0)">
              <path id="Path_343" data-name="Path 343" d="M0,8.251H24.447L20.764,0H2.973Z" transform="translate(0 35.449)" fill="#afadad"/>
              <path id="Path_344" data-name="Path 344" d="M10.732,6.023,8.557,0,6.6,5.031A97.069,97.069,0,0,0,0,40.213v3.792H16.5V38.992A97.082,97.082,0,0,0,10.732,6.023Z" transform="translate(3.667 0)" fill="#f1f1f1"/>
              <ellipse id="Ellipse_27" data-name="Ellipse 27" cx="3.056" cy="3.056" rx="3.056" ry="3.056" transform="translate(8.862 22.308)" fill="#14cba0" stroke="#f1f1f1" stroke-miterlimit="10" stroke-width="1"/>
              <path id="Path_345" data-name="Path 345" d="M0,0,1.584,2.445h8.558L11.724,0Z" transform="translate(6 44.005)" fill="#afadad"/>
            </g>
          </g>
        </g>
        <g id="Group_275" data-name="Group 275" transform="translate(0 40.595)">
          <line id="Line_7" data-name="Line 7" x1="10.329" y2="10.329" transform="translate(0 4.94)" fill="none" stroke="#fff" stroke-linecap="round" stroke-width="1"/>
          <line id="Line_8" data-name="Line 8" x1="4.94" y2="4.94" transform="translate(5.389)" fill="none" stroke="#fff" stroke-linecap="round" stroke-width="1"/>
          <line id="Line_9" data-name="Line 9" x1="4.94" y2="4.94" transform="translate(10.329 5.389)" fill="none" stroke="#fff" stroke-linecap="round" stroke-width="1"/>
        </g>
      </g>
    </g>
    <g id="Group_268" data-name="Group 268" transform="translate(61.364 44.307)">
      <circle id="Ellipse_1" data-name="Ellipse 1" cx="7.167" cy="7.167" r="7.167" transform="translate(0 0)" fill="#79deae"/>
      <path id="Path_41" data-name="Path 41" d="M732.052,1213.765l-4.47,4.722L725.4,1216.3" transform="translate(-721.625 -1208.455)" fill="none" stroke="#1a1a1a" stroke-linecap="round" stroke-width="1"/>
    </g>
  </g>
</svg>
