<svg xmlns="http://www.w3.org/2000/svg" viewBox="0 0 49.74 45"><defs><style>.cls-1,.cls-2{fill:none;stroke:#23be87;stroke-miterlimit:10;}.cls-2{stroke-width:2px;}.cls-3{fill:#23be87;}</style></defs><title>Asset 57</title><g id="Layer_2" data-name="Layer 2"><g id="Layer_3" data-name="Layer 3"><polygon class="cls-1" points="8.8 8.71 1.19 4.73 9.27 0.5 48.24 0.5 48.24 8.71 8.8 8.71"/><line class="cls-2" x1="40.56" y1="0.5" x2="40.56" y2="8.71"/><line class="cls-2" x1="10.14" y1="0.5" x2="10.14" y2="8.71"/><polygon class="cls-3" points="4.24 3.13 4.24 6.33 1.19 4.73 4.24 3.13"/><polygon class="cls-1" points="9 26.5 1.24 23.09 9.48 19.46 49.24 19.46 49.24 26.5 9 26.5"/><polyline class="cls-2" points="41.4 26.5 41.4 15.5 32.24 15.5"/><line class="cls-2" x1="10.37" y1="19.46" x2="10.37" y2="26.5"/><polygon class="cls-3" points="4.35 21.72 4.35 24.46 1.24 23.09 4.35 21.72"/><rect class="cls-1" x="2.24" y="35.5" width="47" height="9"/><line class="cls-2" x1="6.16" y1="35.5" x2="6.16" y2="40.5"/><line class="cls-2" x1="45.33" y1="35.5" x2="45.33" y2="40.5"/><line class="cls-2" x1="25.74" y1="35.5" x2="25.74" y2="40.5"/><line class="cls-2" x1="35.53" y1="35.5" x2="35.53" y2="40.5"/><line class="cls-2" x1="15.95" y1="35.5" x2="15.95" y2="40.5"/><line class="cls-1" x1="11.05" y1="35.5" x2="11.05" y2="40.5"/><line class="cls-1" x1="20.85" y1="35.5" x2="20.85" y2="40.5"/><line class="cls-1" x1="30.64" y1="35.5" x2="30.64" y2="40.5"/><line class="cls-1" x1="40.43" y1="35.5" x2="40.43" y2="40.5"/></g></g></svg>