<svg xmlns="http://www.w3.org/2000/svg" viewBox="0 0 33.6 34.04"><defs><style>.cls-1,.cls-2,.cls-3{fill:none;stroke:#23be87;stroke-miterlimit:10;}.cls-2{stroke-width:2px;}.cls-3{stroke-width:0.75px;}.cls-4{fill:#23be87;}</style></defs><title>Asset 72</title><g id="Layer_2" data-name="Layer 2"><g id="Layer_3" data-name="Layer 3"><path class="cls-1" d="M33.06,13a11.23,11.23,0,0,0-3.42-9.1,12.17,12.17,0,0,0-17.2.24,12.17,12.17,0,0,0-.24,17.2,11.69,11.69,0,0,0,4.65,2.86"/><path class="cls-2" d="M29.9,13a10.43,10.43,0,0,0-2.53-6.83,9,9,0,0,0-12.72.18,9,9,0,0,0-.18,12.73l.1.1A7,7,0,0,0,18.85,21h3"/><polygon class="cls-3" points="3.35 33.47 13.99 23.15 11.17 20.4 0.54 30.72 3.35 33.47"/><rect class="cls-4" x="17.85" y="23.04" width="4" height="11"/><rect class="cls-4" x="22.85" y="18.04" width="4.4" height="16"/><rect class="cls-4" x="28.5" y="14.04" width="4.35" height="20"/></g></g></svg>