<?xml version="1.0" encoding="UTF-8"?>
<svg width="607px" height="565px" viewBox="0 0 607 565" version="1.1" xmlns="http://www.w3.org/2000/svg" xmlns:xlink="http://www.w3.org/1999/xlink">
    <g id="Website" stroke="none" stroke-width="1" fill="none" fill-rule="evenodd" opacity="0.842261905">
        <g id="Services-Copy-11" transform="translate(-597.000000, -4721.000000)">
            <g id="Group-10" transform="translate(306.000000, 4602.000000)">
                <g id="Group-8" transform="translate(292.000000, 120.000000)">
                    <g id="Group-3-Copy-2" opacity="0.752883185" transform="translate(50.000000, 64.000000)" fill="#F2F2F2" font-family="Lato-Regular, Lato" font-size="16" font-weight="normal" letter-spacing="0.444444457">
                        <text id="Webshops-Zoekoptimal">
                            <tspan x="0" y="16">Websh</tspan>
                            <tspan x="0" y="35">ops</tspan>
                            <tspan x="0" y="54">Zoekop</tspan>
                            <tspan x="0" y="73">timalisa</tspan>
                            <tspan x="0" y="92">tie</tspan>
                            <tspan x="0" y="111">Digital </tspan>
                            <tspan x="0" y="130">Adverti</tspan>
                            <tspan x="0" y="149">sing</tspan>
                            <tspan x="0" y="168">IT-</tspan>
                            <tspan x="0" y="187">automa</tspan>
                            <tspan x="0" y="206">tisering</tspan>
                        </text>
                    </g>
                    <g id="Group-34">
                        <path d="M278.218892,255.329412 C277.438963,255.763394 276.734978,254.533333 277.517468,254.098019 C281.187574,252.055904 284.024418,247.960137 284.83336,243.719709 C285.512598,240.158655 284.367877,235.809509 280.557828,235.023637 C275.140134,233.905843 269.337595,237.184675 264.039792,237.97321 C260.049266,238.567385 256.585236,237.378592 256.255003,232.701519 C255.944397,228.300455 258.866999,224.586309 261.291692,221.284845 C264.85172,216.438705 268.736008,211.837069 271.912471,206.696726 C274.579079,202.380417 277.522588,196.777692 276.015634,191.485588 C275.164026,188.492971 272.909143,186.20369 270.408078,184.608427 C267.826801,182.962132 264.832947,183.004288 261.929971,183.531014 C254.802662,184.824087 248.125902,188.424634 241.630899,191.577 C235.813854,194.400106 229.870518,196.471508 223.687828,198.275775 C216.983762,200.232247 208.546615,202.765144 201.715405,200.075605 C201.370239,199.939819 201.115525,199.609229 201.219629,199.204977 C203.675042,189.664458 209.715229,181.999649 214.914901,173.952776 C219.556079,166.770318 223.171999,159.145446 223.476206,150.366837 C223.702334,143.832247 222.642517,136.610296 218.881533,131.194831 C215.713177,126.6318 210.849284,124.261758 205.635959,126.251511 C200.736653,128.121453 196.697916,132.236301 193.16946,136.091114 C189.193014,140.434935 185.603974,145.137745 181.950081,149.771332 C179.075691,153.416697 176.203861,157.103332 172.649379,160.060893 C167.674555,164.20059 162.122038,167.619203 156.373684,170.456952 C145.586509,175.782781 130.732436,181.036723 119.384633,174.495033 C119.179411,174.376553 119.037761,174.132493 119.038614,173.886658 C119.0416,172.76487 119.50367,171.706095 120.029739,170.74938 C121.924097,167.304144 124.894058,164.414476 127.615705,161.689881 C131.738067,157.562164 136.072905,153.665195 140.403476,149.777544 C150.404323,140.800581 160.617644,132.003778 169.904266,122.213431 C173.753995,118.154938 177.551671,113.901198 180.543392,109.102982 C182.397644,106.12989 184.523677,102.283508 183.926357,98.5808988 C183.303011,94.7189854 179.486562,92.9200428 176.231593,91.9966093 C167.078089,89.4002568 157.432648,90.9107651 148.999767,95.224411 C139.737038,99.9622773 131.951396,107.239253 124.285645,114.300568 C117.074284,120.942989 109.823244,127.55479 101.905765,133.286202 C93.5876548,139.308266 84.245994,144.947379 74.1333635,146.786702 C69.7848727,147.577456 65.3800631,147.537963 61.1147705,146.294589 C58.579573,145.555753 55.733769,144.346548 54.5975807,141.667659 C52.3836562,136.44611 57.8179898,130.370797 60.9082683,126.941535 C65.8378664,121.471045 71.5380074,116.818822 77.1566569,112.150623 C87.8350349,103.278384 99.6167486,95.5470137 108.739961,84.8239138 C112.503931,80.3997753 118.134954,72.7083418 112.111833,67.616367 C108.678949,64.7142741 103.556502,65.330636 99.5646964,66.3206313 C95.3373762,67.3683135 91.265786,69.1370814 87.4408036,71.2643953 C78.9272846,75.9987116 72.3486562,83.9089114 65.3856097,90.6977674 C57.8478558,98.0466297 49.5800913,104.58477 39.3514101,107.118554 C38.4899891,107.331552 38.1115441,105.955055 38.9733917,105.741613 C46.2137655,103.948439 52.6085046,100.121138 58.3432049,95.2603544 C68.3261315,86.7985794 76.4185398,75.397437 88.0982824,69.2999358 C95.2836174,65.5489586 111.627577,58.9504692 115.773406,70.5135786 C117.017538,73.9832214 115.348882,77.7501734 113.556921,80.6553725 C110.76189,85.1886722 106.965493,89.0528044 103.144778,92.6440334 C96.059707,99.3042033 88.1763607,104.80753 80.7235116,110.974255 C73.6141217,116.85654 66.1382331,122.667826 60.2149503,129.886227 C58.0526513,132.520741 54.4819566,136.945324 55.7243826,140.748219 C57.293628,145.550428 65.4380885,146.025679 69.3172563,145.893 C76.5495236,145.645834 83.551396,142.760603 89.8800032,139.297173 C96.3280744,135.768512 102.354608,131.423804 108.085895,126.759155 C118.647796,118.162482 127.99671,107.984745 138.937482,99.891278 C149.534368,92.0520774 161.773885,87.3350672 174.848797,90.1816919 C179.412323,91.1747934 184.929428,93.4942489 185.361206,99.0565935 C185.78701,104.540839 181.906988,109.924798 178.846576,113.977522 C173.722849,120.763272 167.612263,126.744955 161.489732,132.53716 C154.728494,138.933302 147.743688,145.066302 140.82928,151.280509 C135.294256,156.255778 129.620141,161.211967 124.676036,166.838655 C123.239055,168.473856 121.654023,170.257711 120.794735,172.317575 C120.668871,172.618878 120.452129,173.042211 120.458103,173.378126 C120.459383,173.443357 120.426957,173.537431 120.411597,173.624405 C120.567754,173.464656 121.685596,174.105868 121.800366,174.15823 C124.796354,175.51254 128.101667,175.994447 131.348956,175.982466 C138.348268,175.956285 145.284862,173.812553 151.706907,171.056452 C157.994982,168.358038 164.052235,164.893276 169.554834,160.728285 C177.907503,154.405361 183.527006,144.999741 190.387228,137.109066 C195.668818,131.034195 204.574435,121.027744 213.488159,124.819102 C224.358106,129.442482 226.064309,145.482979 224.297521,155.900339 C221.499502,172.401 207.103233,183.126762 202.729569,198.929412 C206.807133,200.285941 211.389432,199.657597 215.504541,198.849538 C220.218677,197.923442 224.827002,196.489701 229.398635,194.996055 C236.647542,192.6269 243.267129,189.007715 250.254922,185.951199 C255.714002,183.562963 263.031174,180.248188 269.038508,182.336896 C273.726191,183.967215 277.621999,188.823561 277.777729,194.00961 C277.947538,199.643841 274.759555,205.013157 271.783194,209.461701 C268.418575,214.490221 264.466876,219.051033 261.034844,224.024527 C259.794978,225.820808 258.414316,227.787486 257.834488,229.947193 C257.296474,231.95159 257.419778,235.070674 259.384108,236.20888 C261.256706,237.293837 263.954033,236.608694 265.901724,236.164062 C268.588811,235.55125 271.217873,234.690828 273.907947,234.090885 C278.360969,233.097783 283.64128,232.732137 285.717821,237.889786 C288.289711,244.276609 283.649813,252.307064 278.218892,255.329412 M298.223572,247.594491 C300.154622,239.522768 301.091988,231.291741 301.77208,223.00347 C303.090878,206.929692 302.620701,190.796452 299.868762,174.904609 C294.803914,145.661365 279.580782,119.173777 258.942517,98.8648957 C236.717514,76.9949193 209.256572,62.0096478 179.700317,54.1229665 C163.457048,49.7884645 146.698804,47.4414968 129.961893,46.5584441 C114.69951,45.7530467 99.387207,45.3909507 84.2498339,47.8945605 C69.4742662,50.3382647 55.6283847,56.3017548 44.0160539,66.1826266 C33.275384,75.3211128 24.8454898,89.2795581 23.1038748,103.735885 C22.5253276,108.53987 22.355518,112.822454 22.9720377,117.530589 C22.8700666,116.819709 22.7672422,116.108386 22.6648445,115.397506 C23.1785398,119.841169 23.8701513,124.179665 25.4176372,128.367731 C27.0525878,132.792313 29.007958,137.080666 31.2965476,141.177764 C35.2290476,148.216893 40.2025913,154.755476 45.2013078,161.000301 C54.6773657,172.839863 65.7977606,182.937727 77.8260822,191.887177 C90.0630391,200.991939 103.338907,207.822951 117.436516,213.238416 C132.084513,218.865103 147.226579,221.699747 162.744531,223.175199 C171.520017,224.00944 180.286971,223.882529 189.088057,224.113276 C193.443801,224.227319 197.806371,224.278793 202.157422,224.531728 C204.215617,224.651539 206.381756,225.063335 208.425444,224.847675 C210.603103,224.617371 212.840067,224.36133 215.039485,224.01654 C216.944083,224.154989 218.964305,224.272137 220.87445,224.168301 C220.932902,224.174957 220.991354,224.181169 221.049806,224.187382 C223.703614,224.58409 226.258438,225.132115 228.820941,226.103473 C229.328663,226.295615 229.832972,226.497075 230.337708,226.697204 C230.585596,226.806809 230.834763,226.914639 231.082225,227.026463 C232.588751,227.706724 234.079065,228.426035 235.551459,229.183064 C238.248787,230.569767 241.064725,231.99552 243.501364,233.837506 C243.721946,234.005242 243.941248,234.17564 244.16055,234.344707 C244.687898,234.782239 245.220793,235.212672 245.745155,235.654199 C247.026407,236.732499 248.285472,237.839199 249.522778,238.972081 C254.328646,243.371813 258.80044,248.159823 262.961629,253.218516 C264.045338,254.535108 265.106861,255.871668 266.147905,257.225091 C266.255423,257.36487 266.36166,257.505538 266.468751,257.645761 C266.927408,258.277654 267.391184,258.90511 267.845148,259.540553 C269.822278,262.307303 271.66373,265.16014 273.530356,268.006321 C275.524125,271.045531 278.740268,273.236301 282.159072,273.788763 C282.756819,275.828216 283.890874,277.655114 285.470786,279.019187 C286.386819,277.316537 287.42189,275.650274 288.311043,274.040811 C290.553554,269.980099 292.692387,265.823539 293.747937,261.244977 C294.172461,259.402548 294.769781,257.974132 295.778825,256.801758 C296.78275,253.798491 297.476068,250.7189 298.223572,247.594491" id="Fill-1" fill="#F1F1F1"></path>
                        <path d="M351.877898,470.906719 C343.343473,477.005552 333.742831,481.443446 324.172482,485.461558 C312.629697,490.307698 301.345892,495.223062 291.287874,503.050282 C287.82555,505.744702 284.558635,508.692944 281.412891,511.776085 C279.175074,513.968629 277.23293,516.456264 275.050578,518.706052 C271.022934,522.8564 265.958939,526.117926 260.440554,522.881249 C259.668304,522.428186 260.362475,521.192356 261.135152,521.645419 C267.563597,525.415921 272.98897,519.036642 276.999122,514.479824 C287.092126,503.012563 299.766834,494.487333 313.442052,488.380513 C321.286146,484.877589 329.314129,481.924022 337.008893,478.043471 C345.676008,473.672138 355.737867,468.355185 361.351396,459.87211 C363.550388,456.548903 364.742895,452.602678 363.570867,448.630716 C361.943597,443.117183 357.064344,439.276126 352.469672,436.519138 C346.561749,432.974946 340.053519,430.563635 333.551689,428.497558 C326.643681,426.302351 319.667408,424.511396 312.520046,423.383396 C303.001749,421.881319 293.384041,421.274275 283.812412,420.272743 C275.839041,419.438058 267.87847,418.434751 260.239598,415.817542 C247.672408,411.51144 235.891121,403.919849 227.519252,393.150156 C218.86323,382.01526 214.182373,367.704925 215.569009,353.366634 C217.116922,337.355868 224.103008,322.560963 226.016992,306.623415 C227.516693,294.137315 225.458498,278.778854 212.517983,274.034332 C202.411326,270.329061 190.700437,273.046555 180.859161,276.389287 C170.764877,279.817218 160.855335,284.649602 152.358029,291.323972 C139.59543,301.348173 129.502426,314.440428 121.191996,328.555072 C117.043181,335.6013 113.303103,342.898688 109.755448,350.288818 C105.979531,358.154644 102.094817,366.084368 99.0851763,374.306965 C92.6268653,391.953375 90.4270205,410.871559 91.5188364,429.664607 C92.4515092,445.719304 94.6752468,462.473788 103.621823,476.019994 C119.516086,500.084733 149.298043,507.939021 174.540793,516.232173 C206.700511,526.7973 243.03635,536.892057 275.823681,523.332094 C276.647983,522.991298 277.002535,524.375783 276.189327,524.712142 C268.508642,527.888913 260.44226,529.838729 252.223135,530.7027 C234.647415,532.550011 216.889513,529.651912 199.847542,525.270373 C183.382412,521.037045 167.112264,515.555906 151.08147,509.808076 C138.572306,505.3227 126.131834,499.785649 115.651851,491.233794 C105.226481,482.725869 97.6447814,471.255946 94.1171791,457.936494 C91.8341361,449.316746 90.8442913,440.160066 90.2431312,431.260315 C89.6014386,421.77127 89.7447955,412.214332 90.8916502,402.77188 C92.0393583,393.320554 94.1688047,384.013445 97.3448413,375.0742 C100.299443,366.758417 104.174771,358.780324 107.955807,350.844831 C120.959041,323.551402 137.556008,295.944689 164.577066,281.84602 C174.504528,276.666184 185.330102,272.553111 196.418071,271.268025 C206.000793,270.157775 216.875434,271.604828 222.928847,280.311994 C226.733776,285.784702 227.848632,292.94231 227.840952,299.55633 C227.831139,307.79357 225.928248,315.895912 223.798801,323.7786 C221.611756,331.873397 219.066745,339.897196 217.64811,348.191235 C216.242701,356.407619 216.413364,364.547679 218.643501,372.590559 C222.695465,387.20264 232.628047,399.151808 244.996414,406.976809 C251.166731,410.880434 257.884023,413.808708 264.855176,415.758968 C273.972415,418.310058 283.625109,418.858971 292.996209,419.722499 C302.476961,420.596677 311.987578,421.502804 321.306199,423.594618 C327.660832,425.021259 333.984319,426.968856 340.106425,429.235506 C346.281008,431.521237 352.536657,434.257369 357.754249,438.45786 C361.361636,441.361728 364.66951,445.379396 365.315042,450.235742 C366.515229,459.265067 358.220159,466.375194 351.877898,470.906719 M387.274238,446.802486 C387.208106,444.904589 386.970885,443.031097 386.607373,441.171361 C385.68494,436.450357 384.79792,431.023799 382.98548,426.365363 C382.651834,425.508047 382.264855,424.681794 381.862091,423.858203 C380.091037,420.233249 378.303343,416.509341 376.241735,413.046798 C373.648939,408.693659 369.271435,404.470093 366.088572,401.193035 C364.809453,399.876887 363.434764,398.775512 361.928237,397.757117 C357.886513,395.024535 353.262401,391.747921 348.535039,389.964954 C341.816894,387.430725 334.85214,385.379736 327.735924,384.55437 C310.214817,382.523792 292.37713,383.297684 275.152549,379.159761 C273.658396,378.579786 272.185575,377.947893 270.74134,377.248107 C270.422627,376.986741 270.107754,376.72005 269.796294,376.448922 C269.243773,375.679024 268.714718,374.893152 268.204009,374.093523 C266.172267,369.204784 264.619235,364.11769 263.320917,358.959153 C261.720952,350.732563 260.561298,342.421218 259.596626,334.087242 C259.024051,329.141703 258.514196,324.189064 258.004767,319.235981 C257.756453,316.820233 257.508565,314.404041 257.25385,311.98918 C256.887779,308.5222 256.416749,305.321467 255.791269,302.057721 C255.990092,302.95808 256.189341,303.858439 256.388163,304.758798 C255.410264,298.548142 254.037281,292.395172 252.563181,286.297227 C251.844263,283.324135 250.949563,280.388762 249.750229,277.58518 C247.970215,273.424626 245.800236,269.348828 243.591858,265.434552 C242.860568,264.138373 242.067412,262.886568 241.150099,261.723068 C238.363173,258.188639 235.362066,254.752277 232.02518,251.778297 C231.566097,251.369164 231.085254,250.977781 230.609531,250.590836 C227.33963,247.931028 224.525825,246.243465 221.444933,244.974798 C216.58232,242.563043 211.095081,240.835987 205.70128,240.465904 C200.471742,240.107358 195.193565,239.726625 190.033572,240.813356 C184.947817,241.884113 179.85353,243.058707 174.917532,244.744938 C172.162606,245.686565 169.465705,246.977419 166.676647,247.777492 C161.152288,249.362549 155.685529,251.578168 150.412898,253.923805 C147.797916,255.087304 145.214506,256.327128 142.665229,257.637951 C137.589714,260.248504 131.975331,262.713507 127.52487,266.441854 C125.757655,267.71629 124.012627,269.023563 122.296611,270.372548 C121.256421,271.19037 120.22647,272.021504 119.206333,272.866395 C118.693917,273.290615 118.196008,273.728592 117.65458,274.109325 C117.188244,274.437696 116.74324,274.791805 116.30677,275.156563 C106.418988,282.728186 97.3734274,291.507238 88.9738258,300.804585 L93.7937729,296.051188 C90.29561,299.472906 87.0824542,302.838269 84.0015621,306.623858 C82.2437341,308.784453 80.5417983,310.994304 78.8987412,313.251191 C74.4700388,319.334493 70.620737,325.780777 66.8507934,332.322024 C61.3443547,341.874968 56.5628068,352.202691 53.1572285,362.77048 C50.9147179,369.729734 48.9307616,376.861605 47.7412412,384.107962 C46.555134,391.332132 46.2517807,398.620201 46.087091,405.93667 C45.8259767,417.553029 47.0137906,429.141876 48.7592454,440.600705 C50.7517348,453.680091 53.3402645,466.968038 58.1218124,479.286401 C63.4247355,492.948425 71.1293124,505.072428 81.5593759,515.056249 C90.5217384,523.635616 101.546562,529.822754 112.68445,534.77273 C124.220836,539.899761 136.526911,543.246042 148.766001,545.997706 C160.142817,548.555452 171.614778,550.618867 182.968981,553.290212 C194.294598,555.955345 205.55707,558.924 216.952232,561.261205 C219.992592,561.884667 222.904528,562.410949 225.922274,562.639921 C225.534016,562.626165 225.146185,562.613297 224.757927,562.600428 C231.429993,563.30687 238.339281,564.000444 245.042493,563.851345 C244.797592,563.843358 244.55269,563.834927 244.307789,563.826496 C252.733417,564.057243 261.108699,563.878414 269.474168,562.508129 C274.761731,561.641939 280.031375,560.414983 285.179422,558.897819 C289.957556,557.489816 295.231467,555.79116 299.465187,552.990685 C303.806851,550.652592 308.029478,548.084639 311.949178,545.035223 C314.855141,542.774341 317.057546,539.404098 317.909154,535.711251 C328.642571,531.679383 339.08586,526.228419 348.724901,519.927682 C352.298583,517.591364 355.674295,514.960843 358.78036,511.985976 C364.153255,506.839865 369.66652,501.820664 373.676671,495.423191 C376.296774,491.242669 379.268015,486.530096 381.333036,481.826398 C383.346858,477.239405 384.678882,471.749835 385.834697,467.104711 C387.460261,460.567015 387.50634,453.455113 387.274238,446.802486" id="Fill-3" fill="#23BE87"></path>
                        <path d="M299.238205,308.434516 C297.79909,312.748162 296.514852,317.11772 295.325758,321.512571 C293.72622,327.42503 293.313642,331.981849 293.961308,338.331397 C294.46263,343.240993 296.00969,349.761827 296.849351,355.314409 C297.177877,357.485654 297.437712,359.631161 297.604535,361.768237 C298.031618,361.980791 298.460836,362.187133 298.892613,362.385487 C312.540952,356.98644 327.445797,357.214525 341.792147,355.960058 C357.107863,354.620835 372.293449,352.08572 387.452581,349.402393 C389.092225,349.112184 390.739122,348.830849 392.387726,348.546853 C388.560183,347.197424 384.685282,346.001975 380.737422,345.015529 C371.376562,342.676993 361.842906,341.221952 352.387754,339.37686 C344.511661,337.840615 336.66202,336.136634 329.265063,332.853364 C317.476097,327.620722 306.685081,319.372388 299.238205,308.434516" id="Fill-5" fill="#DF5252"></path>
                        <path d="M490.320287,242.101992 C480.821617,232.740746 468.816761,226.435128 456.812759,221.31076 C444.799371,216.182842 432.27698,211.301646 419.603553,208.288617 C393.885933,202.174253 366.543175,203.817441 341.506074,212.388821 C341.573912,212.887591 341.637057,213.386804 341.688683,213.887792 C343.042467,227.014216 338.522459,239.678256 332.253584,250.851758 C327.916613,258.582241 322.806539,265.91291 317.418711,272.970231 C331.660957,274.782042 345.845178,277.045586 360.039639,279.222156 C388.615435,283.605026 417.282537,286.947758 446.187713,287.513976 C459.741335,287.77978 473.300502,287.472264 486.822551,286.574568 C486.901909,286.448988 486.977854,286.32119 487.058066,286.19561 C491.301172,279.551858 495.990136,273.211185 500.255855,266.573202 C500.525076,266.154307 500.794297,265.735855 501.063091,265.31696 C502.261998,262.536453 503.402026,259.730653 504.497682,256.905772 C500.070686,251.703304 495.164981,246.876689 490.320287,242.101992" id="Fill-7" fill="#DF5252"></path>
                        <path d="M388.526691,60.7114272 C391.520545,67.5078269 397.364896,72.0238206 403.588119,75.375871 C416.151469,82.1429835 429.99223,86.6026216 443.352149,91.3054319 C457.348641,96.2318899 471.167216,101.561712 484.584734,108.024859 C493.36406,112.254194 501.944991,116.876242 510.400485,121.740132 C508.164374,117.316437 505.607417,113.067578 503.028274,108.750826 C498.963937,101.94777 493.794131,96.5904359 488.164815,91.1829583 C483.710513,86.9043682 478.800541,83.1684784 473.547964,80.0178883 C467.223196,76.2243116 460.774272,72.5665208 454.005781,69.6999276 C449.687583,67.8708104 445.258027,66.3265775 440.748687,65.0911912 C433.389275,63.0748135 426.006825,60.9954241 418.447311,59.9543981 C413.83088,59.3185114 409.193115,59.058033 404.538285,59.0886515 C399.011793,59.1245948 393.530527,59.1148324 388.065048,59.576771 C388.209684,59.9575043 388.361148,60.3360189 388.526691,60.7114272" id="Fill-9" fill="#DF5252"></path>
                        <path d="M519.358794,148.613689 C517.935892,142.838347 516.444298,137.022624 514.527327,131.395936 C513.685532,128.92472 512.699528,126.548021 511.614111,124.22901 C500.339693,117.677113 488.840853,111.531244 476.992154,106.178791 C462.613378,99.6828066 447.794718,94.6094691 432.996537,89.2809781 C425.911894,86.7298876 418.947994,83.9227563 412.000733,80.9980324 C406.559147,78.7069766 401.097934,76.2264415 396.338145,72.601488 C391.984961,69.2862685 388.432613,64.9814974 386.526735,59.720012 C384.776587,59.8979537 383.028145,60.1269262 381.279704,60.4295603 C373.864401,61.7128711 366.503709,63.8787909 359.385786,66.3872818 C353.574288,68.4351654 347.979958,71.0971921 342.656982,74.2713007 C336.156005,78.147414 329.599989,82.206794 323.875529,87.2668192 C319.225391,91.3776736 314.815462,95.9353794 310.754538,100.727383 C317.966752,99.9739034 325.295444,100.240594 332.507659,100.730932 C340.010427,101.241683 347.493568,102.102105 354.935751,103.211911 C362.229457,104.299087 369.207437,106.041674 376.263494,108.330067 C401.338142,116.462139 425.270201,129.479401 445.152429,147.427115 C455.574386,156.834955 464.559788,167.778152 472.706809,179.333718 C481.021932,191.1258 488.994023,203.863502 494.561047,217.338265 C498.047264,225.775634 499.841784,235.000207 504.088731,243.092786 C505.090095,245.000446 506.255723,246.813145 507.618039,248.439914 C511.812507,236.456135 515.216805,224.163952 518.129594,211.783021 C520.461703,201.870643 522.006629,191.743049 522.058255,181.52005 C522.101347,173.101762 522.153399,164.6036 520.879401,156.263855 C520.487303,153.691464 519.98086,151.136824 519.358794,148.613689" id="Fill-11" fill="#DF5252"></path>
                        <path d="M492.573592,216.495194 C486.595697,203.056818 478.755017,190.34219 470.256431,178.494196 C462.052665,167.056223 452.987478,156.326023 442.491709,147.102338 C422.239569,129.30461 397.911999,116.521202 372.528025,108.782731 C358.904432,104.628834 344.640426,102.991858 330.494604,102.161167 C323.492732,101.750259 316.31849,101.520399 309.327284,102.438952 C308.945426,102.90444 308.561434,103.368154 308.186829,103.836749 C306.298871,106.199691 304.599068,108.714838 303.080169,111.349797 L303.03409,111.429671 C301.280955,114.471987 300.640969,118.081853 301.284795,121.564808 C302.762309,129.55932 305.41953,137.410058 308.644206,144.554354 C313.956516,156.32203 320.975028,167.116129 327.376166,178.247918 C333.10788,188.215764 339.285877,199.187805 341.265994,210.830344 C354.769269,206.226489 368.893758,203.654099 383.102298,203.170417 C397.563846,202.678303 412.143152,204.342791 426.089724,208.393296 C438.755898,212.071943 451.435726,216.960683 463.420955,222.582045 C469.538367,225.450857 475.514982,228.693303 481.100779,232.571635 C486.325197,236.198363 490.834537,240.486272 495.334918,245.013803 C498.551061,248.249148 501.989065,251.608299 505.149742,255.219496 C505.818314,253.459603 506.468113,251.691723 507.100419,249.916742 C499.508053,241.243301 497.345754,227.223175 492.573592,216.495194" id="Fill-13" fill="#DF5252"></path>
                        <path d="M484.893762,288.280058 C455.939946,290.067907 426.949012,288.968307 398.109114,285.926878 C370.747157,283.041647 343.675754,277.833855 316.380355,274.398824 C316.152947,274.789764 315.925112,275.180259 315.695144,275.568093 C313.101068,279.941644 310.180172,284.102198 307.725613,288.564499 C304.82989,293.828203 302.567327,299.036882 300.59105,304.524678 C300.527478,304.701732 300.466466,304.880118 300.403321,305.057616 C304.136145,310.677647 308.77263,315.679542 314.011554,319.880033 C319.731322,324.466138 326.097475,328.145672 332.819886,330.882248 C341.612439,334.461052 351.148229,336.112228 360.370853,338.043406 C369.70142,339.997216 379.058014,341.986525 388.098882,345.132234 C390.605493,346.004637 393.096745,346.965789 395.56453,347.993059 C400.093071,347.188993 404.615638,346.301946 409.02898,345.076322 C415.584569,343.256524 421.472866,340.831013 427.296738,337.92892 C440.038004,331.579372 451.963501,323.509424 463.315144,314.795602 C468.683346,310.674985 472.769869,307.998314 477.040281,302.436857 C477.067161,302.391152 477.542884,301.743284 477.599629,301.662078 C477.792905,301.386513 477.984901,301.109172 478.173483,300.8305 C478.679499,300.084565 479.169728,299.327092 479.650571,298.56385 C480.4369,297.314708 481.19379,296.046484 481.942573,294.772936 C483.227665,292.587491 484.484597,290.382966 485.801262,288.21749 C485.498762,288.237015 485.196262,288.261421 484.893762,288.280058" id="Fill-15" fill="#DF5252"></path>
                        <path d="M464.949199,484.044857 C465.858405,477.811126 466.503084,471.516602 466.169012,465.20211 C465.476974,452.108524 460.736811,439.82921 451.525281,430.700042 C443.605669,422.851523 433.744766,417.829216 424.386039,412.167916 C419.614304,409.282242 414.708172,406.664146 410.228698,403.284583 C409.8238,402.978843 409.39117,402.681978 408.985419,402.361594 C408.739664,402.130403 408.46447,401.876137 408.33562,401.763869 C407.234844,400.812036 406.163507,399.823816 405.122464,398.801871 C402.867153,396.586251 400.818772,394.197572 398.836522,391.720143 C398.802816,391.678431 398.773804,391.642931 398.744791,391.606544 C398.702552,391.542645 398.657326,391.474308 398.603994,391.394434 C398.260535,390.882352 397.899583,390.384026 397.56167,389.867951 C396.96051,388.95073 395.673712,387.420253 395.545715,386.297578 L395.935679,387.260949 C395.805122,386.897965 395.695471,386.528325 395.59606,386.154692 C395.603313,386.07393 395.601607,385.941251 395.587954,385.740678 C395.58838,385.738903 395.588807,385.737572 395.589234,385.735797 C395.599047,385.704291 395.60758,385.677222 395.616967,385.647935 C395.663045,385.562736 395.706991,385.476206 395.755203,385.392782 C395.77867,385.354176 395.801709,385.316014 395.824749,385.277408 C396.148581,384.946818 396.778328,384.240376 396.847019,384.164052 C396.879872,384.127221 396.907605,384.095271 396.935764,384.063321 C397.407647,383.74915 397.867157,383.421666 398.353546,383.129238 C398.879615,382.812404 399.428296,382.547045 399.962471,382.247073 C399.974417,382.240417 399.983377,382.234648 399.995323,382.228436 C399.998737,382.227104 400.001723,382.226217 400.005136,382.224886 C401.495877,381.723897 402.966565,381.255746 404.498691,380.900307 C405.240221,380.72769 405.987298,380.568829 406.734375,380.426831 C407.098313,380.357606 409.51746,379.747901 407.341081,380.300807 C408.760997,379.940042 410.436907,380.008379 411.891808,379.967554 C413.414548,379.924511 414.938567,379.949361 416.4596,380.033229 C417.222037,380.074941 417.983194,380.132628 418.743497,380.203627 C419.022104,380.230251 420.927982,380.49428 420.931395,380.475642 C426.801346,381.470075 432.544153,383.093295 438.134216,385.202415 C439.4944,385.715384 440.837943,386.268735 442.184474,386.818535 C442.34575,386.884653 442.473321,386.936127 442.577425,386.977395 C442.676836,387.024876 442.79758,387.082119 442.949043,387.153118 C443.612495,387.464628 444.278934,387.768149 444.9394,388.087202 C447.78947,389.46503 450.559329,391.017251 453.300602,392.615177 C455.81276,394.079535 458.22892,395.701424 460.551215,397.471967 C460.753878,397.62639 460.898514,397.734664 461.002619,397.810988 C461.099897,397.899737 461.236,398.021767 461.427569,398.189946 C461.966438,398.66431 462.511706,399.128467 463.041187,399.61348 C464.25588,400.726393 465.423641,401.89433 466.53807,403.115073 C470.365186,407.309795 473.603941,412.275746 475.502139,418.087919 C477.843634,425.255734 477.686624,432.896137 476.768885,440.320436 C475.783306,448.301635 474.489255,456.251772 473.332587,464.208121 C472.812492,467.78515 472.292397,471.363067 471.771875,474.940096 C470.553342,475.058132 469.373634,475.685144 468.887245,476.862843 C465.470574,485.137801 464.590806,494.157364 466.298289,502.926654 C466.075147,502.479359 465.857552,502.03162 465.653183,501.584325 C463.149558,496.101855 464.092044,489.921373 464.949199,484.044857 M485.809752,524.635995 C484.945344,524.190475 483.972993,523.692593 483.065493,523.185836 C482.300069,522.546843 481.608458,521.781383 480.915993,521.046541 C479.505038,519.550233 478.189653,517.936775 477.080771,516.18487 C474.916766,512.767145 473.624421,508.611916 472.807372,504.638623 C471.806861,499.773402 471.723236,494.678764 472.627749,489.790469 C473.158938,489.660451 473.639354,489.289924 473.831776,488.658031 C478.266452,474.087218 481.025644,458.896936 484.027178,443.933408 C485.511519,436.533959 486.919061,428.817676 486.22873,421.233185 C485.604957,414.374661 483.687132,407.860927 480.607093,401.760319 C474.433363,389.531148 463.926928,379.897443 452.270225,373.550557 C439.656103,366.68227 425.508148,361.546365 411.131931,361.476899 C403.819452,361.442528 396.448948,362.749801 389.886106,366.191045 C383.917598,369.320335 378.392813,375.239007 377.338543,382.329609 C376.043638,391.037663 379.783715,398.628366 384.661688,405.432753 C389.245694,411.825789 394.334435,417.34154 400.424967,422.190786 C405.709544,426.398377 411.245849,429.373244 417.382033,432.002878 C419.935151,433.096709 422.507467,434.141729 425.069544,435.213373 C425.757316,435.50092 426.444234,435.790242 427.129445,436.083114 L427.374773,436.188281 C428.658158,436.853455 430.023035,437.381512 431.32178,438.016955 C433.775059,439.217285 436.184819,440.522783 438.490048,442.008886 C439.596371,442.722428 440.645947,443.5083 441.716004,444.275535 C441.841014,444.380259 441.966025,444.485427 442.089329,444.592369 C442.724622,445.142613 443.344128,445.711938 443.945288,446.302563 C444.857055,447.198484 445.65917,448.176499 446.515471,449.123894 C446.540644,449.150963 446.557284,449.168269 446.57691,449.190456 C446.58075,449.196225 446.582883,449.199331 446.586723,449.204656 C446.782986,449.502409 446.994608,449.790399 447.191297,450.087709 C447.648246,450.778176 448.080877,451.486393 448.492175,452.207923 C449.189333,453.430884 449.816519,454.695558 450.382693,455.989518 C450.348987,455.940262 450.759431,456.971526 450.848176,457.224017 C451.166036,458.127926 451.456163,459.042484 451.718557,459.96503 C452.113215,461.351734 452.447287,462.757074 452.727175,464.173952 C452.889731,465.001537 453.028395,465.834003 453.157245,466.668244 C453.170898,466.756105 453.181565,466.823554 453.190098,466.878579 C453.239163,467.290374 453.283109,467.702613 453.322788,468.115296 C453.636381,471.399897 453.614622,474.67518 453.369294,477.963775 C452.806533,485.525191 451.344805,492.902453 453.024981,500.445676 C454.529375,507.200363 458.620591,513.01298 462.564184,518.452407 C466.477058,523.848347 470.500863,528.751287 476.69934,531.26954 C479.556663,532.429934 482.393081,532.773392 485.377122,531.928502 C488.754114,530.971787 488.906857,525.938387 485.809752,524.635995" id="Fill-17" fill="#DF5252"></path>
                        <g id="Group-25" transform="translate(380.151622, 480.930921)" fill="#23BE87">
                            <path d="M101.50428,58.1769328 C92.4826125,56.7258864 85.065176,51.4377762 77.2846541,46.5472617 C75.6215441,45.5017983 73.9776336,44.4208352 72.3823621,43.2653231 C72.1630603,43.1069061 71.0332719,42.2416031 70.9138078,42.168829 C70.1176654,41.5098675 69.3402958,40.8247251 68.5940723,40.1067456 C67.8943544,39.4331405 67.2168226,38.7337983 66.5729968,38.0007314 C66.2862831,37.674135 65.0762831,35.9998848 65.6100314,36.8252507 C65.0784164,36.0185221 64.5668544,35.2082436 64.1201442,34.3438282 C63.9238819,33.9635386 63.7579122,33.565943 63.5625032,33.1856535 C64.3624855,34.742755 63.5339171,33.0227991 63.420853,32.6553781 C63.175525,31.8570807 62.981396,31.0423648 62.8222528,30.2205489 C62.8179862,30.1983616 62.7830004,30.007995 62.7420413,29.7839037 C62.7143085,29.5225378 62.5897246,28.65546 62.5841781,28.6039855 C62.375116,26.6976566 62.2087197,24.7860028 62.0034975,22.8787865 C61.4957754,18.1648825 60.8540829,13.3116425 58.3769108,9.20078804 C52.8529792,0.0343458694 42.2573727,-1.52408686 33.031336,1.90340016 C24.7951442,4.96213501 16.5474327,10.1943333 10.2141322,16.4706637 C3.72552856,22.9009737 -0.220197814,32.0780658 0.356642807,41.4717054 C0.927936883,50.7868022 5.14203068,59.0586543 12.3213925,64.6542798 C18.4682437,69.4458392 26.2124996,71.4511232 33.7481202,72.1526842 C37.9613607,72.5453986 42.2112937,72.8533577 46.4433071,72.8302829 C51.2231484,72.8049895 56.0217627,72.1730965 60.7960575,72.4065064 C66.1250067,72.6674285 70.9927394,73.2687031 76.1190264,74.0847503 C76.2448903,74.1073813 76.4129933,74.1388872 76.6404016,74.1805992 C77.3413995,74.3110603 78.0419707,74.4366401 78.7395554,74.5884009 C79.8979298,74.8413356 81.0486245,75.1382011 82.1835328,75.4878722 C83.21903,75.8064812 84.2536738,76.1614773 85.2588783,76.5790414 C85.2925843,76.6047786 86.0848868,76.9695371 86.227817,77.0414238 C86.9851336,77.4226008 87.7215441,77.8375024 88.4532613,78.2674914 C91.5883389,80.111696 96.1177324,79.1505441 97.8708671,75.6995386 C99.0962267,73.2868966 99.0394813,69.8185851 97.3853311,67.569685 C98.7617274,67.3593498 100.136844,67.0420721 101.50428,66.6009895 C105.121481,65.4352711 105.864718,58.87805 101.50428,58.1769328" id="Fill-19"></path>
                            <path d="M44.0313283,15.3225621 C43.95325,15.2985998 43.8764517,15.2764126 43.7983734,15.2515629 C43.8606654,15.2724189 43.9438635,15.2981561 44.044128,15.3292183 C44.0398614,15.3269995 44.0355949,15.3247808 44.0313283,15.3225621" id="Fill-21"></path>
                            <path d="M45.8821248,17.4138883 L45.873165,17.3930323 C45.9469767,17.6450795 45.9990289,17.8101526 46.0327348,17.9077766 C45.981536,17.7435909 45.9316171,17.5785177 45.8821248,17.4138883" id="Fill-23"></path>
                        </g>
                        <path d="M480.288423,489.558745 C502.20666,460.237401 518.178148,426.130267 526.860197,390.103935 C529.692774,378.350459 531.633638,365.357603 526.340955,354.563503 C520.544389,342.742134 507.107672,336.612684 494.348913,336.522769 C481.590581,336.435629 469.323758,341.376287 457.705028,346.859645 C386.708406,380.365949 326.073155,436.856029 251.471706,460.413568 C178.788081,483.365395 99.9226192,472.517159 27.0405987,450.256687 C20.6633526,448.308646 14.1640825,446.199969 8.85859944,442.036309 C3.55226305,437.873093 -0.410529619,431.196948 0.294734838,424.323337 C1.68051763,410.821505 17.8841072,405.935428 30.840835,404.268278" id="Stroke-26" stroke="#BCB124"></path>
                        <path d="M267.734132,339.172072 C320.979251,330.814577 374.361328,322.427351 426.351222,307.840119 C478.341117,293.252887 529.155997,272.253095 573.457527,240.41616 C583.31843,233.329995 593.074801,225.449082 599.193067,214.729976 C605.310905,204.01087 607.105852,189.810583 600.810098,179.203745 C593.786039,167.370395 578.942633,163.16591 565.582714,163.740116 C552.223222,164.313879 539.216148,168.594687 525.865189,169.350829" id="Stroke-28" stroke="#BCB124"></path>
                        <path d="M322.428563,189.301297 C260.691684,198.545395 199.498366,211.719743 139.306413,228.726273 C105.41148,238.302735 71.0182109,249.197565 35.9465571,247.219349 C26.8788103,246.707711 15.8902525,243.592177 13.8397377,234.390679 C12.2581192,227.294307 17.3123011,220.211692 23.4011269,216.610701 C29.4899528,213.010597 36.5831298,211.794292 43.1229323,209.186402 C49.6627348,206.577625 56.173098,201.833546 57.732957,194.73185" id="Stroke-30" stroke="#BCB124"></path>
                        <path d="M160.964815,45.2598685 C165.232241,40.6200699 165.206642,32.9508236 162.274226,27.3001737 C159.342238,21.6499676 154.095207,17.7028551 148.679219,14.621933 C127.29985,2.46021149 101.950862,1.20396916 77.6006791,0.222405035" id="Stroke-32" stroke="#BCB124"></path>
                    </g>
                </g>
            </g>
        </g>
    </g>
</svg>
