<?xml version="1.0" encoding="UTF-8"?>
<svg width="42px" height="63px" viewBox="0 0 42 63" version="1.1" xmlns="http://www.w3.org/2000/svg" xmlns:xlink="http://www.w3.org/1999/xlink">
    <!-- Generator: sketchtool 63.1 (101010) - https://sketch.com -->
    <title>37206202-D015-4D93-8638-FA6701D51EF1@3x</title>
    <desc>Created with sketchtool.</desc>
    <g id="Website" stroke="none" stroke-width="1" fill="none" fill-rule="evenodd">
        <g id="Services-Copy-11" transform="translate(-699.000000, -1096.000000)" stroke="#DF5252">
            <g id="Group-5-Copy" transform="translate(430.000000, 1097.000000)">
                <g id="Group" transform="translate(263.000000, 0.000000)">
                    <path d="M21.4530682,2.90914579 L21.4530682,27.9556482 L8.02191623,48.6437711 C5.61603744,52.3495676 6.66982895,57.3040593 10.3756255,59.7099381 C11.6725178,60.5519071 13.1856198,61 14.7318544,61 L39.3965582,61 C43.8148362,61 47.3965582,57.418278 47.3965582,53 C47.3965582,51.4738007 46.9599932,49.9794477 46.1383786,48.6932775 L32.8910342,27.9556482 L32.8910342,27.9556482 L32.8910342,2.90914579 L33.8136359,2.90914579 C34.6169743,2.90914579 35.2682088,2.25791132 35.2682088,1.45457289 C35.2682088,0.651234467 34.6169743,3.4051428e-15 33.8136359,0 L20.5304666,0 C19.7271282,1.47570875e-16 19.0758937,0.651234467 19.0758937,1.45457289 C19.0758937,2.25791132 19.7271282,2.90914579 20.5304666,2.90914579 L21.4530682,2.90914579 L21.4530682,2.90914579 Z" id="Path-5"></path>
                    <path d="M14,39 L17.25,42.5 C18.9167165,44.2949254 21.7229317,44.3988593 23.5178571,42.7321429 C23.5980766,42.6576534 23.6755105,42.5802194 23.75,42.5 C25.4167165,40.7050746 28.2229317,40.6011407 30.0178571,42.2678571 C30.0980766,42.3423466 30.1755105,42.4197806 30.25,42.5 C31.9167165,44.2949254 34.7229317,44.3988593 36.5178571,42.7321429 C36.5980766,42.6576534 36.6755105,42.5802194 36.75,42.5 L40,39 L40,39" id="Path-6"></path>
                    <ellipse id="Oval" cx="21.5" cy="38" rx="2.5" ry="3"></ellipse>
                    <ellipse id="Oval-Copy-2" cx="30" cy="32.5" rx="2" ry="2.5"></ellipse>
                    <circle id="Oval-Copy" cx="26.5" cy="22.5" r="1.5"></circle>
                </g>
            </g>
        </g>
    </g>
</svg>