<svg xmlns="http://www.w3.org/2000/svg" viewBox="0 0 201.45 135.11"><defs><style>.cls-1{fill:#fff;}.cls-2{fill:#cecece;}</style></defs><title>Asset 1</title><g id="Layer_2" data-name="Layer 2"><g id="Layer_1-2" data-name="Layer 1"><g id="dwj7ZW.tif"><path class="cls-1" d="M142.46,90.18l.11-.07c-10.77,0-21.54,0-32.31,0-2,0-3.65,0-4.81,2.37-7,14.21-14.25,28.32-21.42,42.46H48.26c7.67-15.23,15.09-30,22.52-44.71C79.07,75.55,86.41,60.36,94,45.31c10.31,0,20.62-.23,30.93-.06,3.38,0,5.32-.82,6.9-4,6.33-12.8,13-25.43,19.51-38.13.74-1.46,1.21-2.95,3.45-2.93,11.11.1,22.22,0,34.07,0L166.08,45a7.31,7.31,0,0,0-1.28,1.4Q153.61,68.28,142.46,90.18Z"/><path class="cls-1" d="M36,90.05H0c3.9-7.74,7.59-15.12,11.35-22.47C21.77,47.15,32.29,26.78,42.62,6.31,44.72,2.15,46.89-.33,52.33,0c9.6.64,19.28.18,29.58.18L59.45,45c-.4.27-1,.45-1.18.83C50.91,60.61,42.76,75,36,90.05Z"/><path class="cls-2" d="M142.46,90.18Q153.62,68.3,164.8,46.41a7.31,7.31,0,0,1,1.28-1.4h35.37l-14,27.62c-.3.59-.63,1.17-.94,1.76-2.7,5.13-4.17,12.45-8.41,14.82-4.72,2.65-12,.84-18.12.91C154.12,90.18,148.29,90.16,142.46,90.18Z"/><path class="cls-2" d="M84,134.94c7.17-14.14,14.4-28.25,21.42-42.46,1.16-2.35,2.78-2.37,4.81-2.37,10.77,0,21.54,0,32.31,0-7.24,14.31-14.52,28.61-21.69,43-.92,1.84-2.21,2.05-4,2C105.94,135,95,135,84,134.94Z"/><path class="cls-2" d="M36,90.05C42.76,75,50.91,60.61,58.27,45.85c.18-.38.78-.56,1.18-.83L94,45.31c-7.6,15-14.94,30.24-23.23,44.92Z"/></g></g></g></svg>